<svg xmlns="http://www.w3.org/2000/svg" viewBox="0 0 755.67 742.13"><defs><style>.cls-1{fill:#8fe6ff;}.cls-2{fill:#2d8000;}.cls-3{fill:#7ec60c;}.cls-25,.cls-4{fill:#fff;}.cls-22,.cls-5{fill:none;stroke-linecap:round;stroke-miterlimit:10;}.cls-5{stroke:#58595b;stroke-width:10px;}.cls-6,.cls-7{font-size:40px;font-family:Magmatic-Light, Magmatic;}.cls-25,.cls-6,.cls-7{font-weight:300;}.cls-6{letter-spacing:0.07em;}.cls-7{letter-spacing:0.07em;}.cls-8{letter-spacing:0.07em;}.cls-9{letter-spacing:0.07em;}.cls-10{letter-spacing:0.07em;}.cls-11{letter-spacing:0.07em;}.cls-12{letter-spacing:0.07em;}.cls-13{letter-spacing:0.08em;}.cls-14{letter-spacing:0.07em;}.cls-15{letter-spacing:0.07em;}.cls-16{letter-spacing:0.06em;}.cls-17{letter-spacing:0.07em;}.cls-18{letter-spacing:0.07em;}.cls-19{letter-spacing:0.07em;}.cls-20{letter-spacing:0.07em;}.cls-21,.cls-25{letter-spacing:0.07em;}.cls-22{stroke:#bcbec0;stroke-width:2px;}.cls-23{fill:#0089fa;}.cls-24{fill:#ed1c24;}.cls-25{font-size:30px;font-family:Magmatic-LightCondensed, Magmatic;}</style></defs><title>Artboard 1 copy 2</title><g id="Bottom_matter" data-name="Bottom matter"><rect class="cls-1" x="5.61" y="-5.05" width="771.19" height="747.17"/><path class="cls-2" d="M130.88,711.72c2.56-.68,37-10.16,46.89-14.79s38.32-12.55,50.87-13.87,22.46-6.6,33.68-9.91,36.34-11.23,41-10.57,4.62,5.95,15.19,4,11.89-11.42,15.85-8.35,29.33,7,29.33,7L451.9,533.12l11.23,3.3s11.89-11.23,11.23-16.51-8.53-7.27,0-10.57,2-7.93,0-15.2,0-19.15,4.29-20.47,10.6,3.26,10.6,3.26,7.54-11.19,4.9-20.44-10.57-29.05-8.59-36,7.73-34,9.15-49.22-3.2-24-3.2-24-11.89-1.73-11.89-7.67,4-15.86,4-15.86H477l-2,4.63s-2-9.17,0-12.84.66-12.26-4.62-15.57-22.89-4-15.41-10.57l7.48-6.6s-9.91-5.65-10.57-8.77,3.09-7.47,3.09-7.47-6.81-10.13,0-10.15,8.14,10.15,8.14,10.15,2-3.58,8.59-6.88,22-5.95,29.51-7.27S513,243.8,513,243.8V220.68H501.23l-7.05-5.51,7.05-12.33s-.45,2,6.16,0,5.58-7.92,5.58-7.92l-8.22-13.22s8-2.4,8.28-8.79-7.62-13.66-6.3-17-1.32-56.14-1.32-56.14H493.52L481.63,86l-13.21,8.47L455,99.8h-5.73L451.9,86s6.64,4.08,7,0a69.17,69.17,0,0,0,0-8.7s-5.63,1.32-7-3.31,0-11.89,0-11.89-9.25-7.26-3.3-11.89,10.25,0,10.25,0v6s10.89,1.32,18.15,2,18.5,2.64,27.75,3.3,23.78-3.3,27.08-.66.66,7.93,0,14.54,2,8.15,6.6,10.68,7.27,7.15,8.59,9.13,9.91,4,10.57-5.28-6.6-11.89,0-23.78,9.25-9.25,13.21-15.19-4-7.27-4-17.18a92.26,92.26,0,0,1,2-18.49L568.16,6l11.89-8.59a87.31,87.31,0,0,1-19.82-6.47c-10.57-4.89-12.55-4.89-12.55-4.89H-15.11V754.4l21.14,4s14.53-9.24,27.74-9.24,27.09.66,27.09.66l15.85-7.93S85.3,731,88.6,729.51,118.79,714.91,130.88,711.72Z"/><path class="cls-2" d="M563.54,278.8c-4-.23-9.91-2.64-12.56,5.95s-7.3,14.53-7,19.16-1.63,5.28-3.61,19.81-.66,15.36-4,23.53-5.94,26.67-5.94,35.26S545,400.35,544,402.33s8.28,9.26,8.28,9.26-11.89,9.89-12.55,19.14c0,0-4.63,7.27-9.25,6.61s-10.57-6.52-11.89,0,5.28,6.25,4,12.35-1.32,19.31,0,23.28,8.59,11.23,5.29,13.87-8.94,7.26-9.43,11.23,0,21.8,0,21.8,12.07-4,13.39-9.91,1.32-20.48,1.32-20.48,9.87,4,10.88-2.64,3-13.87,0-17.18,1.28-7.26-3.15-13.87a41,41,0,0,1-5.75-12.55L544,442s8.28,9.91,7.62,13.21S547,469,552.31,469s7.92-5.28,11.23-4.62,9.9,3.3,13.87,1.32a36.94,36.94,0,0,0,7.92-5.94s-5.28-3.6-9.9-12.7-13.88-19.67-6.61-25.62S584,400,578.73,399.16s-13.21,2.51-10.57-6.74,5.28-15.85,4.62-31.05-5.28-18.49-1.32-25.1,4-20.47,3.3-34.35S569.45,279.16,563.54,278.8Z"/><path class="cls-3" d="M458.85,99.8l-118.58,3.8-9.91,3.46,9.25,16.52v17.83H303.28v81.91h37l4.62,12.55-4,127.49,14.53,32.36,4.63,25.1,25.76,5.95,46.9-4,2,7.93-6.61,51.52-10.57,32.37L402.36,535.1s-6.6,10.57-11.23,13.87-10.06,13.21-10.06,13.21l-2.49,19.68H367.35s-9.25,35.81-12.55,45.71-16.51,33.69-16.51,33.69,21.8,1.32,30.38,6,17.18,13.87,17.18,13.87l2,11.23s9.91.66,13.21,0-4-18.5,0-29.73,19.82-37,19.82-37a49,49,0,0,0,7.92-11.89c4-7.92,17.84-20.75,15.2-31.84s-6.61-23.64-3.31-28.93S447.94,541,451.9,538.4l4-2.64,3,6.12s5.6,1.8,4.28-5.46-17.83-4.62-18.49-17.18,4-32.36,4-38.31,2-39,2-39l-1.32-25.1s5.28-4,4-10.57,2-9.25,2.65-15.85,3.3-13.91-1.33-13.89-4,7.28-9.9,3.32,4.62-4-3.31-11.23-11.89,2.64-11.89-2.64v-5.29s-5.94,7.27-7.26.66-1.32-17.17-5.29-21.13S409.63,331.65,403,333s-7.26,7.27-10.57,4.62-9.7-4.62-9.14,0-10,17.18-10.67,5.29.66-13.21,1.32-19.82,7.47-18.49,9.35-20.48,7.82,7.93,7.82.67-6.6-22.46-11.23-28.41-15.85-17.83-12.55-25.1,9.91-17.17,9.25-27.74h18.5l1.32-19.16s-7.93-6.87-3.31-10.7,7.27-6.47,7.93-9.78,5.28-2,9.91-7.26,9.91-4.63,9.91-11.89.66-8.59,2-14.53,5.28-12.55,5.28-12.55l6.61-5.95,6.6,4s15.23-18.49,17.52-23.78A14.46,14.46,0,0,0,458.85,99.8Z"/><path class="cls-2" d="M518.23,411.59s-7.46.05-5.47,4-1.15,14,.21,13.81,1.08-7.08,5.26-8.91C523.07,418.38,527.08,412.27,518.23,411.59Z"/><path class="cls-4" d="M-60.54,714.81c9.77-11.57,19.42,16.88,37.74,17.32C-14,732.34-3.18,712.44,8,712.7c9.61.23,19.35,20.63,29.81,20.88,10,.24,20.7-19.67,30.77-19.43,10.39.24,20.14,20.64,29.83,20.86,11,.26,21.73-19.66,30.75-19.46,13.63.31,24,20.69,29.88,20.8,6.7.12,14.11-19.83,21.11-19.6,6.77.23,12.89,20.65,19.82,20.93s14.53-19.58,21.4-19.3,13,20.69,19.84,20.91,14.34-19.74,21.1-19.62c7,.12,13.83,20.32,20.51,20.26,7.13-.07,13.39-20.4,19.95-20.75,7.23-.38,17.1,19.09,26.45,18.3,7.82-.66,14.48-21.5,23.27-22.3,8.09-.73,18.28,18.59,26.81,17.84,8.29-.72,15.06-21.51,23.41-22.14s18.21,18.9,26.4,18.44c8.69-.48,16.37-21,24.35-21.13,9.07-.18,17.21,20,24.78,20.43,7,.37,13.07-19.85,19.07-20.4,7-.64,17.11,17.84,22.89,16.12,6.65-2,4.56-22.92,9.84-26,5.81-3.44,23.13,8.31,27.58,3.85,4.65-4.67-6.93-22.44-3.41-27.8s24.2-1.32,27-7.07c2.92-6-12.84-20.38-10.38-26.14,2.31-5.38,23.53-5,25.85-12.33,1.93-6.13-15.52-18.42-13.66-25.38,1.72-6.45,22.95-8.24,24.55-15s-16.56-17.88-15.14-24.5c1.49-6.92,22.62-9.67,23.87-16.12,1.41-7.28-17.18-17.72-16.15-23.82,1.43-8.47,22.41-12.8,22.92-17.61.78-7.51-19.52-16.34-20.41-25.92-.75-8,18-19.16,16.59-28.15-1.33-8.23-22.73-13.38-24.3-22.07-1.52-8.4,16.79-20.4,15.35-28.92s-22.73-14.21-23.79-22.6c-1.12-8.85,18.13-19.17,17.79-27.43-.38-9.16-20.23-18.75-19.17-26.7.95-7.22,21.77-13,22.36-21.25.54-7.54-19.19-16.45-18.93-24.44.25-7.74,20.52-15.28,20.53-23.1s-20.28-15.47-20.51-23.12c-.25-8.11,19.51-17,19-24.37-.56-8.47-21.34-14.47-22.19-21.45-1.17-9.69,17-21.81,15.38-27.17-1.47-4.79-22.7-5.53-24.58-12.77-1.46-5.64,16.67-16.46,15.3-23.07-1.24-6-22.23-8.78-23.16-15.21-.9-6.22,18.43-14.64,18-21S565.7,75,566,68.81c.33-6.54,21-10.07,22.39-16,1.5-6.44-14.85-19.75-11.8-25,1.86-3.21,21.45,2.57,22.83-.65,1.47-3.42-16.25-13.65-15.26-17,1.06-3.57,21.46-2.46,22.07-5.89C606.92.53,587.36-5.56,587.61-9c.28-3.84,20.46-7,20.37-10.37-.11-4.07-20.51-6.15-20.91-9.22-.84-6.63,4.23-1.1,9.57-1.94,13.08-2.07,11.67-20,24.91-20S634.79-30.4,648-30.4s13.24-20.16,26.48-20.16S687.75-30.4,701-30.4s13.24-20.16,26.48-20.16S740.71-30.4,754-30.4,786.82-55.85,790.19-43C805.54,15.39,773,20.32,775.61,80.67S798.36,140.16,801,200.52s-17.52,61.23-14.9,121.59S808.84,381.59,811.46,442s-17.52,61.23-14.91,121.59S819.31,623,821.93,683.39s3.06,60.42-14.48,118.23c-15.54,51.25-32.32,14.8-96.94,17.5-31.24,1.3-68.51-17.32-107.85-15.69-34,1.4-69.32,23-106.19,24.54-35.46,1.45-72.38-17.24-107.84-15.81-36.87,1.47-72.24,23.05-106.23,24.37-39.36,1.53-76.55-17.23-107.8-16.1-65,2.36-115.51,8.12-115,7.41s9.34-9-.82-18.7c-5-4.74-24.63,4.48-31-1.41C22.25,802.65,30,782.42,24,776.94c-5.76-5.26-25.21,4.31-31-.93-6-5.45,1.57-25.75-4-30.75-6.44-5.8-25.88,3.85-31-.74C-52.59,735-68.15,723.81-60.54,714.81Z"/></g><g id="Base"><path class="cls-5" d="M428.7-21.8S411.85,1,409.87,19.82s4,51.53-4.95,62.42S368.67,97.1,356.57,99.08s-23,6-27.95,8.92-33.53,4-39.06,4-16.42,12.89-31.29,15.36-41.61-3.46-47.55,0-23.78,28.24-32.7,38.15S147.11,204.11,144.73,218s-4.36,64.29-8.33,72.28-26.75,51.29-30.71,63.82-1,44-33.69,62.95S.66,471.08-9.25,481.76s-37.65,49.32-49.54,52.29"/><text class="cls-6" transform="translate(416.87 675.79)">Galilee</text><text class="cls-7" transform="translate(58.18 657.24) scale(0.99 1)">Charl<tspan class="cls-8" x="98.48" y="0">e</tspan><tspan class="cls-9" x="120.04" y="0">s</tspan><tspan class="cls-10" x="140.72" y="0">t</tspan><tspan class="cls-11" x="156.64" y="0">o</tspan><tspan x="179.12" y="0">wn</tspan></text><text class="cls-7" transform="translate(104.49 458.27) scale(0.99 1)">Richmond</text><text class="cls-6" transform="translate(393.77 586.85)">Nar<tspan class="cls-12" x="65.48" y="0">r</tspan><tspan class="cls-13" x="79.76" y="0">agan</tspan><tspan class="cls-14" x="168" y="0">s</tspan><tspan class="cls-15" x="188.88" y="0">e</tspan><tspan class="cls-16" x="210.48" y="0">t</tspan><tspan x="226" y="0">t</tspan></text><text class="cls-6" transform="translate(242.31 172.91)">E G<tspan class="cls-12" x="64.24" y="0">r</tspan><tspan x="78.52" y="0">ee</tspan><tspan class="cls-14" x="121.8" y="0">n</tspan><tspan x="144.56" y="0">wich</tspan></text><text class="cls-6" transform="translate(501.59 355.02)">Jam<tspan class="cls-17" x="80.48" y="0">e</tspan><tspan class="cls-18" x="102.04" y="0">s</tspan><tspan class="cls-19" x="122.72" y="0">t</tspan><tspan class="cls-20" x="138.64" y="0">o</tspan><tspan x="161.12" y="0">wn</tspan></text><text class="cls-6" transform="translate(293.92 314.45)">N. Kin<tspan class="cls-12" x="116.88" y="0">g</tspan><tspan class="cls-21" x="138.28" y="0">s</tspan><tspan class="cls-19" x="158.96" y="0">t</tspan><tspan x="174.88" y="0">on</tspan></text><path class="cls-2" d="M566.75,213.36c-2.2,1.6,2,6.6-4,9.91s-12.55,9.24-5.95,8.58,15.2-4.57,15.86-9.22S574,208.07,566.75,213.36Z"/><path class="cls-22" d="M428.7-21.8S411.85,1,409.87,19.82s4,51.53-4.95,62.42S368.67,97.1,356.57,99.08s-23,6-27.95,8.92-33.53,4-39.06,4-16.42,12.89-31.29,15.36-41.61-3.46-47.55,0-23.78,28.24-32.7,38.15S147.11,204.11,144.73,218s-4.36,64.29-8.33,72.28-26.75,51.29-30.71,63.82-1,44-33.69,62.95S.66,471.08-9.25,481.76s-37.65,49.32-49.54,52.29"/><path class="cls-23" d="M88.45,313.72c0,11.47,6.39,27.6,28.45,33.62,22.07-6,28.45-22.15,28.45-33.62a33.19,33.19,0,0,0-.52-5.77H89A33.17,33.17,0,0,0,88.45,313.72Z"/><path class="cls-24" d="M136.6,290.44a15.21,15.21,0,0,1-9.13,2.84c-5.69,0-10.57-5-10.57-5s-4.87,5-10.56,5a15.21,15.21,0,0,1-9.13-2.84,60.38,60.38,0,0,0-7.78,15.32h54.94A60.53,60.53,0,0,0,136.6,290.44Z"/><text class="cls-25" transform="translate(103.54 333.98)">9<tspan class="cls-12" x="14.34" y="0">5</tspan></text></g></svg>