<svg xmlns="http://www.w3.org/2000/svg" viewBox="0 0 755.67 742.13"><defs><style>.cls-1{isolation:isolate;}.cls-2{fill:#8fe6ff;}.cls-3{fill:#2d8000;}.cls-4{fill:#7ec60c;}.cls-5{fill:#fff;}.cls-6,.cls-7{fill:none;stroke-linecap:round;stroke-miterlimit:10;}.cls-6{stroke:#58595b;stroke-width:10px;}.cls-7{stroke:#bcbec0;stroke-width:2px;}.cls-8{opacity:0.1;mix-blend-mode:multiply;}.cls-9{fill:#0089fa;}.cls-10{fill:#ed1c24;}</style></defs><title>Artboard 1 copy 2</title><g class="cls-1"><g id="Bottom_matter" data-name="Bottom matter"><rect class="cls-2" x="5.61" y="-5.05" width="771.19" height="747.17"/><path class="cls-3" d="M130.88,711.72c2.56-.68,37-10.16,46.89-14.79s38.32-12.55,50.87-13.87,22.46-6.6,33.68-9.91,36.34-11.23,41-10.57,4.62,5.95,15.19,4,11.89-11.42,15.85-8.35,29.33,7,29.33,7L451.9,533.12l11.23,3.3s11.89-11.23,11.23-16.51-8.53-7.27,0-10.57,2-7.93,0-15.2,0-19.15,4.29-20.47,10.6,3.26,10.6,3.26,7.54-11.19,4.9-20.44-10.57-29.05-8.59-36,7.73-34,9.15-49.22-3.2-24-3.2-24-11.89-1.73-11.89-7.67,4-15.86,4-15.86H477l-2,4.63s-2-9.17,0-12.84.66-12.26-4.62-15.57-22.89-4-15.41-10.57l7.48-6.6s-9.91-5.65-10.57-8.77,3.09-7.47,3.09-7.47-6.81-10.13,0-10.15,8.14,10.15,8.14,10.15,2-3.58,8.59-6.88,22-5.95,29.51-7.27S513,243.8,513,243.8V220.68H501.23l-7.05-5.51,7.05-12.33s-.45,2,6.16,0,5.58-7.92,5.58-7.92l-8.22-13.22s8-2.4,8.28-8.79-7.62-13.66-6.3-17-1.32-56.14-1.32-56.14H493.52L481.63,86l-13.21,8.47L455,99.8h-5.73L451.9,86s6.64,4.08,7,0a69.17,69.17,0,0,0,0-8.7s-5.63,1.32-7-3.31,0-11.89,0-11.89-9.25-7.26-3.3-11.89,10.25,0,10.25,0v6s10.89,1.32,18.15,2,18.5,2.64,27.75,3.3,23.78-3.3,27.08-.66.66,7.93,0,14.54,2,8.15,6.6,10.68,7.27,7.15,8.59,9.13,9.91,4,10.57-5.28-6.6-11.89,0-23.78,9.25-9.25,13.21-15.19-4-7.27-4-17.18a92.26,92.26,0,0,1,2-18.49L568.16,6l11.89-8.59a87.31,87.31,0,0,1-19.82-6.47c-10.57-4.89-12.55-4.89-12.55-4.89H-15.11V754.4l21.14,4s14.53-9.24,27.74-9.24,27.09.66,27.09.66l15.85-7.93S85.3,731,88.6,729.51,118.79,714.91,130.88,711.72Z"/><path class="cls-3" d="M563.54,278.8c-4-.23-9.91-2.64-12.56,5.95s-7.3,14.53-7,19.16-1.63,5.28-3.61,19.81-.66,15.36-4,23.53-5.94,26.67-5.94,35.26S545,400.35,544,402.33s8.28,9.26,8.28,9.26-11.89,9.89-12.55,19.14c0,0-4.63,7.27-9.25,6.61s-10.57-6.52-11.89,0,5.28,6.25,4,12.35-1.32,19.31,0,23.28,8.59,11.23,5.29,13.87-8.94,7.26-9.43,11.23,0,21.8,0,21.8,12.07-4,13.39-9.91,1.32-20.48,1.32-20.48,9.87,4,10.88-2.64,3-13.87,0-17.18,1.28-7.26-3.15-13.87a41,41,0,0,1-5.75-12.55L544,442s8.28,9.91,7.62,13.21S547,469,552.31,469s7.92-5.28,11.23-4.62,9.9,3.3,13.87,1.32a36.94,36.94,0,0,0,7.92-5.94s-5.28-3.6-9.9-12.7-13.88-19.67-6.61-25.62S584,400,578.73,399.16s-13.21,2.51-10.57-6.74,5.28-15.85,4.62-31.05-5.28-18.49-1.32-25.1,4-20.47,3.3-34.35S569.45,279.16,563.54,278.8Z"/><path class="cls-4" d="M458.85,99.8l-118.58,3.8-9.91,3.46,9.25,16.52v17.83H303.28v81.91h37l4.62,12.55-4,127.49,14.53,32.36,4.63,25.1,25.76,5.95,46.9-4,2,7.93-6.61,51.52-10.57,32.37L402.36,535.1s-6.6,10.57-11.23,13.87-10.06,13.21-10.06,13.21l-2.49,19.68H367.35s-9.25,35.81-12.55,45.71-16.51,33.69-16.51,33.69,21.8,1.32,30.38,6,17.18,13.87,17.18,13.87l2,11.23s9.91.66,13.21,0-4-18.5,0-29.73,19.82-37,19.82-37a49,49,0,0,0,7.92-11.89c4-7.92,17.84-20.75,15.2-31.84s-6.61-23.64-3.31-28.93S447.94,541,451.9,538.4l4-2.64,3,6.12s5.6,1.8,4.28-5.46-17.83-4.62-18.49-17.18,4-32.36,4-38.31,2-39,2-39l-1.32-25.1s5.28-4,4-10.57,2-9.25,2.65-15.85,3.3-13.91-1.33-13.89-4,7.28-9.9,3.32,4.62-4-3.31-11.23-11.89,2.64-11.89-2.64v-5.29s-5.94,7.27-7.26.66-1.32-17.17-5.29-21.13S409.63,331.65,403,333s-7.26,7.27-10.57,4.62-9.7-4.62-9.14,0-10,17.18-10.67,5.29.66-13.21,1.32-19.82,7.47-18.49,9.35-20.48,7.82,7.93,7.82.67-6.6-22.46-11.23-28.41-15.85-17.83-12.55-25.1,9.91-17.17,9.25-27.74h18.5l1.32-19.16s-7.93-6.87-3.31-10.7,7.27-6.47,7.93-9.78,5.28-2,9.91-7.26,9.91-4.63,9.91-11.89.66-8.59,2-14.53,5.28-12.55,5.28-12.55l6.61-5.95,6.6,4s15.23-18.49,17.52-23.78A14.46,14.46,0,0,0,458.85,99.8Z"/><path class="cls-3" d="M518.23,411.59s-7.46.05-5.47,4-1.15,14,.21,13.81,1.08-7.08,5.26-8.91C523.07,418.38,527.08,412.27,518.23,411.59Z"/><path class="cls-5" d="M-60.54,714.81c9.77-11.57,19.42,16.88,37.74,17.32C-14,732.34-3.18,712.44,8,712.7c9.61.23,19.35,20.63,29.81,20.88,10,.24,20.7-19.67,30.77-19.43,10.39.24,20.14,20.64,29.83,20.86,11,.26,21.73-19.66,30.75-19.46,13.63.31,24,20.69,29.88,20.8,6.7.12,14.11-19.83,21.11-19.6,6.77.23,12.89,20.65,19.82,20.93s14.53-19.58,21.4-19.3,13,20.69,19.84,20.91,14.34-19.74,21.1-19.62c7,.12,13.83,20.32,20.51,20.26,7.13-.07,13.39-20.4,19.95-20.75,7.23-.38,17.1,19.09,26.45,18.3,7.82-.66,14.48-21.5,23.27-22.3,8.09-.73,18.28,18.59,26.81,17.84,8.29-.72,15.06-21.51,23.41-22.14s18.21,18.9,26.4,18.44c8.69-.48,16.37-21,24.35-21.13,9.07-.18,17.21,20,24.78,20.43,7,.37,13.07-19.85,19.07-20.4,7-.64,17.11,17.84,22.89,16.12,6.65-2,4.56-22.92,9.84-26,5.81-3.44,23.13,8.31,27.58,3.85,4.65-4.67-6.93-22.44-3.41-27.8s24.2-1.32,27-7.07c2.92-6-12.84-20.38-10.38-26.14,2.31-5.38,23.53-5,25.85-12.33,1.93-6.13-15.52-18.42-13.66-25.38,1.72-6.45,22.95-8.24,24.55-15s-16.56-17.88-15.14-24.5c1.49-6.92,22.62-9.67,23.87-16.12,1.41-7.28-17.18-17.72-16.15-23.82,1.43-8.47,22.41-12.8,22.92-17.61.78-7.51-19.52-16.34-20.41-25.92-.75-8,18-19.16,16.59-28.15-1.33-8.23-22.73-13.38-24.3-22.07-1.52-8.4,16.79-20.4,15.35-28.92s-22.73-14.21-23.79-22.6c-1.12-8.85,18.13-19.17,17.79-27.43-.38-9.16-20.23-18.75-19.17-26.7.95-7.22,21.77-13,22.36-21.25.54-7.54-19.19-16.45-18.93-24.44.25-7.74,20.52-15.28,20.53-23.1s-20.28-15.47-20.51-23.12c-.25-8.11,19.51-17,19-24.37-.56-8.47-21.34-14.47-22.19-21.45-1.17-9.69,17-21.81,15.38-27.17-1.47-4.79-22.7-5.53-24.58-12.77-1.46-5.64,16.67-16.46,15.3-23.07-1.24-6-22.23-8.78-23.16-15.21-.9-6.22,18.43-14.64,18-21S565.7,75,566,68.81c.33-6.54,21-10.07,22.39-16,1.5-6.44-14.85-19.75-11.8-25,1.86-3.21,21.45,2.57,22.83-.65,1.47-3.42-16.25-13.65-15.26-17,1.06-3.57,21.46-2.46,22.07-5.89C606.92.53,587.36-5.56,587.61-9c.28-3.84,20.46-7,20.37-10.37-.11-4.07-20.51-6.15-20.91-9.22-.84-6.63,4.23-1.1,9.57-1.94,13.08-2.07,11.67-20,24.91-20S634.79-30.4,648-30.4s13.24-20.16,26.48-20.16S687.75-30.4,701-30.4s13.24-20.16,26.48-20.16S740.71-30.4,754-30.4,786.82-55.85,790.19-43C805.54,15.39,773,20.32,775.61,80.67S798.36,140.16,801,200.52s-17.52,61.23-14.9,121.59S808.84,381.59,811.46,442s-17.52,61.23-14.91,121.59S819.31,623,821.93,683.39s3.06,60.42-14.48,118.23c-15.54,51.25-32.32,14.8-96.94,17.5-31.24,1.3-68.51-17.32-107.85-15.69-34,1.4-69.32,23-106.19,24.54-35.46,1.45-72.38-17.24-107.84-15.81-36.87,1.47-72.24,23.05-106.23,24.37-39.36,1.53-76.55-17.23-107.8-16.1-65,2.36-115.51,8.12-115,7.41s9.34-9-.82-18.7c-5-4.74-24.63,4.48-31-1.41C22.25,802.65,30,782.42,24,776.94c-5.76-5.26-25.21,4.31-31-.93-6-5.45,1.57-25.75-4-30.75-6.44-5.8-25.88,3.85-31-.74C-52.59,735-68.15,723.81-60.54,714.81Z"/></g><g id="Base"><path class="cls-6" d="M428.7-21.8S411.85,1,409.87,19.82s4,51.53-4.95,62.42S368.67,97.1,356.57,99.08s-23,6-27.95,8.92-33.53,4-39.06,4-16.42,12.89-31.29,15.36-41.61-3.46-47.55,0-23.78,28.24-32.7,38.15S147.11,204.11,144.73,218s-4.36,64.29-8.33,72.28-26.75,51.29-30.71,63.82-1,44-33.69,62.95S.66,471.08-9.25,481.76s-37.65,49.32-49.54,52.29"/><path d="M440.7,660.28v2.36c0,6.12-.72,9-2.64,10.92-1.72,1.72-4.44,2.52-8.6,2.52-3.76,0-6.48-.8-8.24-2.56-2.16-2.16-2.8-5.44-2.8-11.56s.64-9.36,2.8-11.52c1.76-1.76,4.72-2.56,8.44-2.56,4.12,0,6.16.52,7.88,2.28,1.4,1.4,2.2,3.36,2.64,6.2l-3.32.4c-.44-2.12-.92-3.32-1.8-4.2-1.12-1.16-2.56-1.48-5.4-1.48-2.56,0-4.68.56-5.88,1.76-1.64,1.64-1.92,4.2-1.92,9.12s.32,7.6,1.92,9.2c1.2,1.2,3.12,1.76,5.76,1.76,3.08,0,5-.52,6.08-1.64s1.68-3.16,1.72-8H429v-3Z"/><path d="M463.58,675.8h-.84c-2.24,0-3.36-.48-3.8-1.88-1.24,1.4-3.2,2.12-6,2.12-4.2,0-6.28-1.68-6.28-5.28,0-3.24,1.44-4.56,3.92-5.76a29.38,29.38,0,0,1,8-2.24v-.08c0-2.12-1.32-2.92-3.88-2.92-2.08,0-3.32.28-4,1a4.3,4.3,0,0,0-.84,2.36l-3.12-.32a6.71,6.71,0,0,1,1.68-4c1.32-1.32,3.28-1.84,6.4-1.84,4.36,0,7,1.64,7,5.64v9c0,1.16.48,1.4,1.4,1.4h.2Zm-5-6.2v-4.2a25.73,25.73,0,0,0-6.56,2.12c-1.6.88-2,1.72-2,3,0,1.6.8,2.68,3.64,2.68C457.18,673.2,458.58,671.88,458.58,669.6Z"/><path d="M469.5,675.8V646.68h3.28V675.8Z"/><path d="M480.58,654.72v-4.16h3.28v4.16Zm0,21.08V657.16h3.28V675.8Z"/><path d="M491.66,675.8V646.68h3.28V675.8Z"/><path d="M517.78,670.16a6.1,6.1,0,0,1-1.6,4.08c-1.28,1.27-3.4,1.84-6.36,1.84s-4.76-.65-6-1.84c-1.76-1.72-2.16-4-2.16-7.8s.48-6,2.12-7.64c1.32-1.32,3.44-1.92,6.12-1.92s4.52.48,5.76,1.72c1.6,1.6,2,3.92,2,8.64H504.94c.08,2.56.44,4,1.36,4.88.76.76,1.8,1,3.6,1s3.08-.24,3.76-.92a3.29,3.29,0,0,0,.88-2.4Zm-11.48-9.28a5.23,5.23,0,0,0-1.28,3.56h9.4c-.08-1.92-.32-2.88-1.08-3.64a4.51,4.51,0,0,0-3.4-1C508.22,659.8,507.1,660.08,506.3,660.88Z"/><path d="M539.42,670.16a6.1,6.1,0,0,1-1.6,4.08c-1.28,1.27-3.4,1.84-6.36,1.84s-4.76-.65-6-1.84c-1.76-1.72-2.16-4-2.16-7.8s.48-6,2.12-7.64c1.32-1.32,3.44-1.92,6.12-1.92s4.52.48,5.76,1.72c1.6,1.6,2,3.92,2,8.64H526.58c.08,2.56.44,4,1.36,4.88.76.76,1.8,1,3.6,1s3.08-.24,3.76-.92a3.29,3.29,0,0,0,.88-2.4Zm-11.48-9.28a5.23,5.23,0,0,0-1.28,3.56h9.4c-.08-1.92-.32-2.88-1.08-3.64a4.51,4.51,0,0,0-3.4-1C529.86,659.8,528.74,660.08,527.94,660.88Z"/><path d="M78.18,639.56c-.24-2.76-.64-4.36-1.71-5.44s-2.74-1.56-5.65-1.56c-2.54,0-4.57.52-5.76,1.68-1.63,1.64-1.91,4.24-1.91,9.16s.32,7.6,1.91,9.2c1.19,1.2,3.14,1.72,5.68,1.72,3,0,4.69-.44,6.05-1.8.95-1,1.43-2.76,1.71-6l3.37.32c-.43,4.28-1.19,6.48-2.7,8-1.75,1.8-4.33,2.64-8.43,2.64-3.65,0-6.47-.8-8.22-2.56-2.15-2.16-2.79-5.52-2.79-11.56s.64-9.36,2.79-11.52c1.78-1.8,4.49-2.56,8.34-2.56s6.32.64,8.07,2.4c1.55,1.56,2.27,3.76,2.59,7.48Z"/><path d="M103.81,643.92v13.32h-3.26v-12.8c0-2.52-1.94-3.08-4-3.08-3.46,0-4.81,1.36-4.81,3.36v12.52H88.43V628.12h3.26v12.16c1.19-1.2,3.06-2,5.8-2C101.31,638.32,103.81,639.92,103.81,643.92Z"/><path d="M127.14,657.24h-.83c-2.23,0-3.34-.48-3.78-1.88-1.23,1.4-3.18,2.12-5.92,2.12-4.17,0-6.24-1.68-6.24-5.28,0-3.24,1.43-4.56,3.89-5.76a29.12,29.12,0,0,1,7.91-2.24v-.08c0-2.12-1.31-2.92-3.85-2.92-2.07,0-3.3.28-4,1a4.38,4.38,0,0,0-.83,2.36l-3.1-.32a6.7,6.7,0,0,1,1.67-4c1.31-1.32,3.26-1.84,6.36-1.84,4.33,0,6.91,1.64,6.91,5.64v9c0,1.16.48,1.4,1.4,1.4h.19Zm-5-6.2v-4.2a25.4,25.4,0,0,0-6.51,2.12c-1.59.88-2,1.72-2,3,0,1.6.79,2.68,3.62,2.68C120.78,654.64,122.17,653.32,122.17,651Z"/><path d="M142,641.32h-.88c-3.66,0-4.93,1.4-4.93,4.28v11.64H132.9V638.6h2.94l.2,1.88c1.12-1.36,3-2.2,5.73-2.24Z"/><path d="M147.41,657.24V628.12h3.26v29.12Z"/><path d="M173.37,651.6a6.1,6.1,0,0,1-1.6,4.08c-1.27,1.28-3.37,1.84-6.31,1.84s-4.74-.64-5.93-1.84c-1.75-1.72-2.14-4-2.14-7.8s.47-6,2.1-7.64c1.31-1.32,3.42-1.92,6.08-1.92s4.5.48,5.73,1.72c1.59,1.6,2,3.92,2,8.64H160.61c.07,2.56.43,4,1.35,4.88.75.76,1.79,1,3.57,1s3.06-.24,3.74-.92a3.29,3.29,0,0,0,.88-2.4ZM162,642.32a5.23,5.23,0,0,0-1.28,3.56H170c-.08-1.92-.32-2.88-1.08-3.64a4.46,4.46,0,0,0-3.38-1C163.87,641.24,162.75,641.52,162,642.32Z"/><path d="M180,655.76c-.87-.88-1.31-2.08-1.47-4.56l3.22-.24c.12,1.64.28,2.36.76,2.84.63.64,1.74.92,3.77.92,2.19,0,3.62-.28,4.18-.84a2.41,2.41,0,0,0,.51-1.8c0-1.6-1.55-2.16-5.17-3.2s-6.75-1.92-6.75-5.6a4.56,4.56,0,0,1,1.15-3.36c1.27-1.28,3.78-1.6,6.16-1.6,2.82,0,4.73.4,5.88,1.56,1,.92,1.35,2.2,1.59,4.6l-3.26.28c-.11-1.68-.31-2.32-.75-2.76-.76-.76-1.95-.84-3.54-.84s-2.94.16-3.5.68a2.07,2.07,0,0,0-.47,1.44c0,1.48,1.31,1.88,5.12,3s6.76,2.16,6.76,5.68A5,5,0,0,1,193,655.8c-1.11,1.16-3.46,1.72-6.72,1.72C182.78,657.52,181.15,656.88,180,655.76Z"/><path d="M201.9,651.8V641.52h-3.46V638.6h3.46v-5.24h3.26v5.24h4.73v2.92h-4.73v10.12c0,2.12.48,2.68,3,2.68h1.55l.16,2.92h-2.11C203.09,657.24,201.9,655.76,201.9,651.8Z"/><path d="M217.32,655.6c-1.59-1.6-2.15-3.88-2.15-7.72s.52-6,2.15-7.64c1.31-1.32,3.46-1.92,6.28-1.92s5,.6,6.24,1.88c1.63,1.68,2.15,3.84,2.15,7.68s-.52,6.08-2.15,7.72c-1.31,1.32-3.42,1.92-6.24,1.92S218.59,656.88,217.32,655.6Zm10-2.16c1-1,1.31-2.56,1.31-5.56s-.28-4.4-1.35-5.44c-.76-.8-2-1.08-3.66-1.08s-3,.28-3.77,1.12c-1,1-1.36,2.48-1.36,5.44s.36,4.56,1.36,5.56a5.27,5.27,0,0,0,3.73,1C225.31,654.52,226.54,654.24,227.34,653.44Z"/><path d="M263.63,638.6l-5.49,18.64H255.2l-5.09-13.32L245,657.24h-2.94L236.6,638.6h3.3l4,13.68,5-13.68h2.7l4.93,13.64,4-13.64Z"/><path d="M284.65,644v13.24h-3.26V644.52c0-2.48-1.95-3.16-4.09-3.16-3.42,0-4.77,1.52-4.77,3.48v12.4h-3.26V638.6h2.94l.16,1.8a7.74,7.74,0,0,1,5.84-2.08C282.15,638.32,284.65,640,284.65,644Z"/><path d="M122.46,445.79l3.5,12.48H122.5L119,446h-8.42v12.28h-3.34V430.63H120c2.46,0,4.25.36,5.36,1.48,1.35,1.32,1.83,3,1.83,6.16s-.48,4.88-1.79,6.2A5.15,5.15,0,0,1,122.46,445.79Zm-11.84-2.88h9.14c1.47,0,2.46-.16,3.06-.76.75-.76,1-1.6,1-3.84s-.24-3.08-1-3.8-1.63-.8-3.1-.8h-9.14Z"/><path d="M134.06,437.19V433h3.26v4.16Zm0,21.08V439.63h3.26v18.64Z"/><path d="M156.84,446.79c-.2-1.88-.44-2.8-1.11-3.48s-1.91-1-3.54-1a5,5,0,0,0-3.46,1.12c-1,1-1.35,2.56-1.35,5.48s.32,4.52,1.35,5.56a5,5,0,0,0,3.46,1c1.95,0,3-.28,3.73-1s.92-1.52,1.16-3.8l3.26.24c-.28,3.16-.84,4.64-2,5.72-1.31,1.32-3.38,1.84-6.28,1.84-2.62,0-4.65-.6-6-1.92-1.59-1.64-2.11-3.88-2.11-7.72s.52-6,2.11-7.64c1.31-1.32,3.34-1.92,6-1.92,2.86,0,4.81.48,6,1.72s1.71,2.8,1.95,5.44Z"/><path d="M182.16,445v13.32H178.9v-12.8c0-2.52-2-3.08-4.06-3.08-3.46,0-4.81,1.36-4.81,3.36v12.52h-3.26V429.15H170v12.16c1.2-1.2,3.06-2,5.81-2C179.65,439.35,182.16,441,182.16,445Z"/><path d="M216.22,445v13.32H213v-12.8c0-2.48-1.79-3.08-3.86-3.08-3.45,0-4.65,1.4-4.65,3.4v12.48h-3.22v-12.8c0-2.48-1.78-3.08-3.89-3.08-3.46,0-4.61,1.4-4.61,3.4v12.48h-3.26V439.63h2.94l.16,1.68c1.11-1.2,2.9-2,5.68-2,2.55,0,4.42.72,5.41,2.32,1.15-1.4,3.18-2.32,6.36-2.32C213.87,439.35,216.22,441,216.22,445Z"/><path d="M224.8,456.63c-1.59-1.6-2.14-3.88-2.14-7.72s.51-6,2.14-7.64c1.31-1.32,3.46-1.92,6.28-1.92s5,.6,6.24,1.88c1.63,1.68,2.15,3.84,2.15,7.68s-.52,6.08-2.15,7.72c-1.31,1.32-3.42,1.92-6.24,1.92S226.07,457.91,224.8,456.63Zm10-2.16c1-1,1.31-2.56,1.31-5.56s-.28-4.4-1.35-5.44c-.76-.8-2-1.08-3.66-1.08s-3,.28-3.77,1.12c-1,1-1.36,2.48-1.36,5.44s.36,4.56,1.36,5.56a5.27,5.27,0,0,0,3.73,1C232.79,455.55,234,455.27,234.82,454.47Z"/><path d="M261.45,445v13.24h-3.26V445.55c0-2.48-1.95-3.16-4.1-3.16-3.41,0-4.76,1.52-4.76,3.48v12.4h-3.26V439.63H249l.16,1.8a7.74,7.74,0,0,1,5.84-2.08C258.94,439.35,261.45,441.07,261.45,445Z"/><path d="M284.42,429.15v29.12h-2.86l-.2-1.76c-1.15,1.24-3,2-6.08,2-2.43,0-4.18-.52-5.37-1.72-1.51-1.48-2-3.8-2-7.88s.48-6.2,2-7.76c1.27-1.28,3-1.84,6-1.84a8.54,8.54,0,0,1,5.25,1.32V429.15Zm-3.22,22.36v-5.72c0-2.44-1.43-3.4-4.85-3.4-1.87,0-3,.28-3.77,1-1,1-1.32,2.52-1.32,5.52s.28,4.64,1.28,5.64c.75.76,1.86,1,3.57,1C279.73,455.59,281.2,454.31,281.2,451.51Z"/><path d="M417,559.22v27.63h-2.68L399.8,563.53v23.32h-3.24V559.22H401l12.84,20.71V559.22Z"/><path d="M441.24,586.85h-.84c-2.24,0-3.36-.48-3.8-1.88-1.24,1.4-3.2,2.12-6,2.12-4.2,0-6.28-1.68-6.28-5.28,0-3.24,1.44-4.56,3.92-5.76a29.38,29.38,0,0,1,8-2.24v-.08c0-2.12-1.32-2.92-3.88-2.92-2.08,0-3.32.28-4,1a4.3,4.3,0,0,0-.84,2.36l-3.12-.32a6.71,6.71,0,0,1,1.68-4c1.32-1.32,3.28-1.84,6.4-1.84,4.36,0,7,1.64,7,5.64v9c0,1.16.48,1.4,1.4,1.4h.2Zm-5-6.2v-4.2a25.73,25.73,0,0,0-6.56,2.12c-1.6.88-2,1.72-2,3,0,1.6.8,2.68,3.64,2.68C434.84,584.25,436.24,582.93,436.24,580.65Z"/><path d="M456.16,570.93h-.88c-3.68,0-5,1.4-5,4.28v11.64H447V568.21h3l.2,1.88c1.12-1.36,3-2.2,5.76-2.24Z"/><path d="M470.64,570.93h-.88c-3.68,0-5,1.4-5,4.28v11.64h-3.28V568.21h3l.2,1.88c1.12-1.36,3-2.2,5.76-2.24Z"/><path d="M491.88,586.85H491c-2.24,0-3.36-.48-3.8-1.88-1.24,1.4-3.2,2.12-6,2.12-4.2,0-6.28-1.68-6.28-5.28,0-3.24,1.44-4.56,3.92-5.76a29.38,29.38,0,0,1,8-2.24v-.08c0-2.12-1.32-2.92-3.88-2.92-2.08,0-3.32.28-4,1a4.3,4.3,0,0,0-.84,2.36l-3.12-.32a6.71,6.71,0,0,1,1.68-4c1.32-1.32,3.28-1.84,6.4-1.84,4.36,0,7,1.64,7,5.64v9c0,1.16.48,1.4,1.4,1.4h.2Zm-5-6.2v-4.2a25.73,25.73,0,0,0-6.56,2.12c-1.6.88-2,1.72-2,3,0,1.6.8,2.68,3.64,2.68C485.48,584.25,486.88,582.93,486.88,580.65Z"/><path d="M513.68,590c0,4.16-3.48,5.56-9.16,5.56-6,0-8.8-1.36-8.8-5.4a5.54,5.54,0,0,1,3-4.8,3.47,3.47,0,0,1-1.6-3.08,3.87,3.87,0,0,1,1.48-3.16,6.67,6.67,0,0,1-1.4-4.6c0-2.12.44-3.68,1.56-4.8s3.32-1.8,6.32-1.8a18.71,18.71,0,0,1,2.2.12l1.32-2.8h3.28l-1.68,3.6a3.89,3.89,0,0,1,1.2.88,6.73,6.73,0,0,1,1.52,4.8c0,2-.4,3.6-1.52,4.72s-3.36,1.84-6.36,1.84a13.48,13.48,0,0,1-4.36-.6,1.63,1.63,0,0,0-.6,1.44c0,1.16.4,1.52,5.24,2.24S513.68,585.57,513.68,590Zm-3.16,0c0-2.12-2.08-2.56-6.24-3.12-1-.16-2-.32-2.84-.52-1.84,1-2.56,2.32-2.56,3.52,0,2.24,1.68,2.92,5.64,2.92C508.84,592.85,510.52,592.21,510.52,590.05ZM500.4,574.53a4.1,4.1,0,0,0,.84,2.92c.72.76,2,1,3.88,1s3.12-.24,3.84-1a4.35,4.35,0,0,0,.88-3,4,4,0,0,0-.88-2.88c-.68-.72-1.84-1-3.8-1s-3.2.24-3.92,1A3.84,3.84,0,0,0,500.4,574.53Z"/><path d="M535.36,586.85h-.84c-2.24,0-3.36-.48-3.8-1.88-1.24,1.4-3.2,2.12-6,2.12-4.2,0-6.28-1.68-6.28-5.28,0-3.24,1.44-4.56,3.92-5.76a29.38,29.38,0,0,1,8-2.24v-.08c0-2.12-1.32-2.92-3.88-2.92-2.08,0-3.32.28-4,1a4.3,4.3,0,0,0-.84,2.36l-3.12-.32a6.71,6.71,0,0,1,1.68-4c1.32-1.32,3.28-1.84,6.4-1.84,4.36,0,7,1.64,7,5.64v9c0,1.16.48,1.4,1.4,1.4h.2Zm-5-6.2v-4.2a25.73,25.73,0,0,0-6.56,2.12c-1.6.88-2,1.72-2,3,0,1.6.8,2.68,3.64,2.68C529,584.25,530.36,582.93,530.36,580.65Z"/><path d="M556.64,573.61v13.24h-3.28V574.13c0-2.48-2-3.16-4.12-3.16-3.44,0-4.8,1.52-4.8,3.48v12.4h-3.28V568.21h3l.16,1.8a7.82,7.82,0,0,1,5.88-2.08C554.12,567.93,556.64,569.65,556.64,573.61Z"/><path d="M564.32,585.37c-.88-.88-1.32-2.08-1.48-4.56l3.24-.24c.12,1.64.28,2.36.76,2.84.64.64,1.76.92,3.8.92,2.2,0,3.64-.28,4.2-.84a2.37,2.37,0,0,0,.52-1.8c0-1.6-1.56-2.16-5.2-3.2s-6.8-1.92-6.8-5.6a4.56,4.56,0,0,1,1.16-3.36c1.28-1.28,3.8-1.6,6.2-1.6,2.84,0,4.76.4,5.92,1.56,1,.92,1.36,2.2,1.6,4.6l-3.28.28c-.12-1.68-.32-2.32-.76-2.76-.76-.76-2-.84-3.56-.84s-3,.16-3.52.68a2,2,0,0,0-.48,1.44c0,1.48,1.32,1.88,5.16,3s6.8,2.16,6.8,5.68a5,5,0,0,1-1.2,3.84c-1.12,1.16-3.48,1.72-6.76,1.72C567.12,587.13,565.48,586.49,564.32,585.37Z"/><path d="M600.08,581.21a6.1,6.1,0,0,1-1.6,4.08c-1.28,1.28-3.4,1.84-6.36,1.84s-4.76-.64-6-1.84c-1.76-1.72-2.16-4-2.16-7.8s.48-6,2.12-7.64c1.32-1.32,3.44-1.92,6.12-1.92s4.52.48,5.76,1.72c1.6,1.6,2,3.92,2,8.64H587.24c.08,2.56.44,4,1.36,4.88.76.76,1.8,1,3.6,1s3.08-.24,3.76-.92a3.29,3.29,0,0,0,.88-2.4Zm-11.48-9.28a5.23,5.23,0,0,0-1.28,3.56h9.4c-.08-1.92-.32-2.88-1.08-3.64a4.51,4.51,0,0,0-3.4-1C590.52,570.85,589.4,571.13,588.6,571.93Z"/><path d="M608.16,581.41V571.13h-3.48v-2.92h3.48V563h3.28v5.24h4.76v2.92h-4.76v10.12c0,2.12.48,2.68,3,2.68H616l.16,2.92H614C609.36,586.85,608.16,585.37,608.16,581.41Z"/><path d="M623.68,581.41V571.13H620.2v-2.92h3.48V563H627v5.24h4.76v2.92H627v10.12c0,2.12.48,2.68,3,2.68h1.56l.16,2.92h-2.12C624.88,586.85,623.68,585.37,623.68,581.41Z"/><path d="M262,169.79v3.12H245.11V145.27h16.68v3.12H248.47V156H261v3.12H248.47v10.64Z"/><path d="M302,157.39v2.36c0,6.12-.72,9-2.64,10.92-1.72,1.72-4.44,2.52-8.6,2.52-3.76,0-6.48-.8-8.24-2.56-2.16-2.16-2.8-5.44-2.8-11.56s.64-9.36,2.8-11.52c1.76-1.76,4.72-2.56,8.44-2.56,4.12,0,6.16.52,7.88,2.28,1.4,1.4,2.2,3.36,2.64,6.2l-3.32.4c-.44-2.12-.92-3.32-1.8-4.2-1.12-1.16-2.56-1.48-5.4-1.48-2.56,0-4.68.56-5.88,1.76-1.64,1.64-1.92,4.2-1.92,9.12s.32,7.6,1.92,9.2c1.2,1.2,3.12,1.76,5.76,1.76,3.08,0,5-.52,6.08-1.64s1.68-3.16,1.72-8h-8.32v-3Z"/><path d="M318,157h-.88c-3.68,0-5,1.4-5,4.28v11.64h-3.28V154.27h3l.2,1.88c1.12-1.36,3-2.2,5.76-2.24Z"/><path d="M338.27,167.27a6.1,6.1,0,0,1-1.6,4.08c-1.28,1.28-3.4,1.84-6.36,1.84s-4.76-.64-6-1.84c-1.76-1.72-2.16-4-2.16-7.8s.48-6,2.12-7.64c1.32-1.32,3.44-1.92,6.12-1.92s4.52.48,5.76,1.72c1.6,1.6,2,3.92,2,8.64H325.43c.08,2.56.44,4,1.36,4.88.76.76,1.8,1,3.6,1s3.08-.24,3.76-.92A3.29,3.29,0,0,0,335,167ZM326.79,158a5.23,5.23,0,0,0-1.28,3.56h9.4c-.08-1.92-.32-2.88-1.08-3.64a4.51,4.51,0,0,0-3.4-1C328.71,156.91,327.59,157.19,326.79,158Z"/><path d="M359.91,167.27a6.1,6.1,0,0,1-1.6,4.08c-1.28,1.28-3.4,1.84-6.36,1.84s-4.76-.64-6-1.84c-1.76-1.72-2.16-4-2.16-7.8s.48-6,2.12-7.64c1.32-1.32,3.44-1.92,6.12-1.92s4.52.48,5.76,1.72c1.6,1.6,2,3.92,2,8.64H347.07c.08,2.56.44,4,1.36,4.88.76.76,1.8,1,3.6,1s3.08-.24,3.76-.92a3.29,3.29,0,0,0,.88-2.4ZM348.43,158a5.23,5.23,0,0,0-1.28,3.56h9.4c-.08-1.92-.32-2.88-1.08-3.64a4.51,4.51,0,0,0-3.4-1C350.35,156.91,349.23,157.19,348.43,158Z"/><path d="M381.87,159.67v13.24h-3.28V160.19c0-2.48-2-3.16-4.12-3.16-3.44,0-4.8,1.52-4.8,3.48v12.4h-3.28V154.27h3l.16,1.8a7.82,7.82,0,0,1,5.88-2.08C379.35,154,381.87,155.71,381.87,159.67Z"/><path d="M414.51,154.27,409,172.91h-3l-5.12-13.32-5.12,13.32h-3l-5.52-18.64h3.32l4,13.68,5-13.68h2.72l5,13.64,4-13.64Z"/><path d="M420.31,151.83v-4.16h3.28v4.16Zm0,21.08V154.27h3.28v18.64Z"/><path d="M443.23,161.43c-.2-1.88-.44-2.8-1.12-3.48s-1.92-1-3.56-1a5,5,0,0,0-3.48,1.12c-1,1-1.36,2.56-1.36,5.48s.32,4.52,1.36,5.56a5,5,0,0,0,3.48,1c2,0,3-.28,3.76-1s.92-1.52,1.16-3.8l3.28.24c-.28,3.16-.84,4.64-2,5.72-1.32,1.32-3.4,1.84-6.32,1.84-2.64,0-4.68-.6-6-1.92-1.6-1.64-2.12-3.88-2.12-7.72s.52-6,2.12-7.64c1.32-1.32,3.36-1.92,6-1.92,2.88,0,4.84.48,6.08,1.72s1.72,2.8,2,5.44Z"/><path d="M468.71,159.59v13.32h-3.28v-12.8c0-2.52-2-3.08-4.08-3.08-3.48,0-4.84,1.36-4.84,3.36v12.52h-3.28V143.79h3.28V156c1.2-1.2,3.08-2,5.84-2C466.19,154,468.71,155.59,468.71,159.59Z"/><path d="M504.67,353.43c-1.6-1.64-1.8-3.56-1.84-9.36l3.32-.2c0,5.2.24,6.32,1.12,7.2s2.28,1.07,4.32,1.07,3.56-.31,4.32-1.11c.92-.88,1-2.24,1-4.44v-19.2h3.35v19.44c0,2.88-.36,5-1.79,6.51s-3.72,2-7,2S506,354.74,504.67,353.43Z"/><path d="M544.26,355h-.84c-2.24,0-3.36-.47-3.79-1.88-1.25,1.41-3.2,2.12-6,2.12-4.2,0-6.28-1.67-6.28-5.27,0-3.24,1.44-4.56,3.92-5.76a29.41,29.41,0,0,1,8-2.24v-.08c0-2.12-1.31-2.92-3.87-2.92-2.08,0-3.32.28-4,1a4.3,4.3,0,0,0-.84,2.36l-3.12-.32a6.71,6.71,0,0,1,1.68-4c1.32-1.32,3.28-1.84,6.4-1.84,4.36,0,7,1.64,7,5.64v9c0,1.16.47,1.39,1.39,1.39h.2Zm-5-6.19v-4.2a25.77,25.77,0,0,0-6.55,2.12c-1.6.88-2,1.72-2,3,0,1.59.8,2.68,3.64,2.68C537.87,352.43,539.26,351.11,539.26,348.83Z"/><path d="M576.94,341.71V355H573.7V342.23c0-2.48-1.8-3.08-3.88-3.08-3.48,0-4.68,1.4-4.68,3.4V355H561.9V342.23c0-2.48-1.8-3.08-3.92-3.08-3.47,0-4.64,1.4-4.64,3.4V355h-3.27V336.39h3l.16,1.68c1.11-1.2,2.91-2,5.71-2,2.56,0,4.44.72,5.44,2.32,1.16-1.4,3.2-2.32,6.4-2.32C574.58,336.11,576.94,337.71,576.94,341.71Z"/><path d="M599.5,349.39a6.12,6.12,0,0,1-1.6,4.08c-1.28,1.27-3.4,1.83-6.35,1.83s-4.76-.64-6-1.83c-1.76-1.72-2.16-4-2.16-7.8s.48-6,2.12-7.64c1.32-1.32,3.44-1.92,6.12-1.92s4.51.48,5.75,1.72c1.6,1.6,2,3.92,2,8.64H586.67c.08,2.56.44,4,1.36,4.87.76.76,1.8,1,3.6,1s3.07-.24,3.75-.91a3.29,3.29,0,0,0,.88-2.4ZM588,340.11a5.23,5.23,0,0,0-1.28,3.56h9.39c-.08-1.92-.32-2.88-1.08-3.64a4.5,4.5,0,0,0-3.39-1C590,339,588.83,339.31,588,340.11Z"/><path d="M606.19,353.55c-.88-.88-1.32-2.08-1.48-4.56l3.24-.24c.12,1.63.28,2.36.76,2.84.63.63,1.76.92,3.8.92,2.19,0,3.63-.29,4.19-.84a2.38,2.38,0,0,0,.52-1.8c0-1.6-1.56-2.16-5.2-3.2s-6.79-1.92-6.79-5.6a4.56,4.56,0,0,1,1.16-3.36c1.28-1.28,3.79-1.6,6.2-1.6,2.83,0,4.75.4,5.91,1.56,1,.92,1.36,2.2,1.6,4.6l-3.28.28c-.12-1.68-.32-2.32-.76-2.76-.76-.76-2-.84-3.55-.84s-3,.16-3.52.68a2,2,0,0,0-.48,1.44c0,1.48,1.32,1.88,5.15,3s6.8,2.16,6.8,5.68a5,5,0,0,1-1.2,3.84c-1.12,1.15-3.48,1.71-6.75,1.71C609,355.3,607.35,354.66,606.19,353.55Z"/><path d="M628.23,349.59V339.31h-3.48v-2.92h3.48v-5.24h3.28v5.24h4.75v2.92h-4.75v10.12c0,2.12.48,2.67,3,2.67h1.55l.16,2.92h-2.11C629.43,355,628.23,353.55,628.23,349.59Z"/><path d="M643.75,353.38c-1.6-1.59-2.16-3.87-2.16-7.71s.52-6,2.16-7.64c1.32-1.32,3.48-1.92,6.31-1.92s5,.6,6.28,1.88c1.64,1.68,2.16,3.84,2.16,7.68s-.52,6.08-2.16,7.71c-1.32,1.32-3.44,1.92-6.28,1.92S645,354.66,643.75,353.38Zm10.07-2.16c1-1,1.32-2.55,1.32-5.55s-.28-4.4-1.36-5.44c-.76-.8-2-1.08-3.68-1.08s-3,.28-3.79,1.12c-1,1-1.36,2.48-1.36,5.44s.36,4.56,1.36,5.55c.76.73,2,1,3.75,1S653,352,653.82,351.22Z"/><path d="M690.34,336.39,684.82,355h-3l-5.12-13.31L671.63,355h-3l-5.52-18.63h3.32l4,13.68,5-13.68h2.72l5,13.64,4-13.64Z"/><path d="M711.5,341.79V355h-3.28V342.31c0-2.48-2-3.16-4.12-3.16-3.43,0-4.8,1.52-4.8,3.48V355H696V336.39h3l.16,1.8a7.78,7.78,0,0,1,5.87-2.08C709,336.11,711.5,337.83,711.5,341.79Z"/><path d="M317.19,286.82v27.63h-2.68L300,291.14v23.31h-3.24V286.82h4.4L314,307.54V286.82Z"/><path d="M327.24,314.45V310h3.91v4.47Z"/><path d="M365.51,294.06l7.12,20.39h-3.52l-6.24-17.91-7.24,6.76v11.15h-3.27V286.82h3.27V299.3l13.44-12.48h4.16Z"/><path d="M379.24,293.38v-4.16h3.27v4.16Zm0,21.07V295.82h3.27v18.63Z"/><path d="M405.67,301.22v13.23h-3.28V301.74c0-2.48-2-3.16-4.12-3.16-3.43,0-4.8,1.52-4.8,3.48v12.39H390.2V295.82h3l.16,1.8a7.78,7.78,0,0,1,5.87-2.08C403.15,295.54,405.67,297.26,405.67,301.22Z"/><path d="M429.07,317.61c0,4.16-3.48,5.56-9.16,5.56-6,0-8.79-1.36-8.79-5.4a5.52,5.52,0,0,1,3-4.79,3.47,3.47,0,0,1-1.6-3.08,3.87,3.87,0,0,1,1.48-3.16,6.67,6.67,0,0,1-1.4-4.6c0-2.12.44-3.68,1.56-4.8s3.31-1.8,6.31-1.8a18.71,18.71,0,0,1,2.2.12l1.32-2.8h3.28l-1.68,3.6a3.89,3.89,0,0,1,1.2.88,6.73,6.73,0,0,1,1.52,4.8c0,2-.4,3.6-1.52,4.72s-3.36,1.84-6.36,1.84a13.42,13.42,0,0,1-4.35-.6,1.64,1.64,0,0,0-.61,1.44c0,1.16.41,1.52,5.24,2.24S429.07,313.17,429.07,317.61Zm-3.16,0c0-2.12-2.08-2.56-6.24-3.12-1-.16-1.95-.32-2.83-.51-1.84,1-2.56,2.31-2.56,3.51,0,2.24,1.68,2.92,5.63,2.92C424.23,320.45,425.91,319.81,425.91,317.65ZM415.8,302.14a4.15,4.15,0,0,0,.83,2.92c.72.76,2,1,3.88,1s3.12-.24,3.84-1a4.35,4.35,0,0,0,.88-3,4,4,0,0,0-.88-2.88c-.68-.72-1.84-1-3.8-1s-3.2.24-3.92,1A3.88,3.88,0,0,0,415.8,302.14Z"/><path d="M434.76,313c-.88-.88-1.32-2.08-1.48-4.56l3.24-.24c.12,1.64.28,2.36.76,2.84.64.63,1.76.92,3.8.92,2.19,0,3.63-.29,4.19-.84a2.38,2.38,0,0,0,.52-1.8c0-1.6-1.56-2.16-5.2-3.2s-6.79-1.92-6.79-5.6a4.56,4.56,0,0,1,1.16-3.36c1.28-1.28,3.8-1.6,6.19-1.6,2.84,0,4.76.4,5.92,1.56,1,.92,1.36,2.2,1.6,4.6l-3.28.28c-.12-1.68-.32-2.32-.76-2.76-.76-.76-2-.84-3.55-.84s-3,.16-3.52.68a2,2,0,0,0-.48,1.44c0,1.48,1.32,1.88,5.15,3s6.8,2.16,6.8,5.68a5,5,0,0,1-1.2,3.84c-1.12,1.15-3.48,1.72-6.75,1.72C437.56,314.74,435.92,314.09,434.76,313Z"/><path d="M456.8,309V298.74h-3.48v-2.92h3.48v-5.24h3.28v5.24h4.75v2.92h-4.75v10.12c0,2.12.47,2.67,3,2.67h1.56l.16,2.92h-2.12C458,314.45,456.8,313,456.8,309Z"/><path d="M472.32,312.82c-1.6-1.6-2.16-3.88-2.16-7.72s.52-6,2.16-7.64c1.32-1.32,3.48-1.92,6.31-1.92s5,.6,6.28,1.88c1.64,1.68,2.16,3.84,2.16,7.68s-.52,6.08-2.16,7.72c-1.32,1.31-3.44,1.92-6.28,1.92S473.6,314.09,472.32,312.82Zm10.07-2.17c1-1,1.33-2.55,1.33-5.55s-.29-4.4-1.37-5.44c-.76-.8-2-1.08-3.68-1.08s-3,.28-3.79,1.12c-1,1-1.36,2.48-1.36,5.44s.36,4.56,1.36,5.56a5.34,5.34,0,0,0,3.75,1C480.35,311.74,481.59,311.46,482.39,310.65Z"/><path d="M509.19,301.22v13.23h-3.28V301.74c0-2.48-2-3.16-4.12-3.16-3.44,0-4.8,1.52-4.8,3.48v12.39h-3.27V295.82h2.95l.17,1.8a7.78,7.78,0,0,1,5.87-2.08C506.67,295.54,509.19,297.26,509.19,301.22Z"/><path class="cls-3" d="M566.75,213.36c-2.2,1.6,2,6.6-4,9.91s-12.55,9.24-5.95,8.58,15.2-4.57,15.86-9.22S574,208.07,566.75,213.36Z"/><path class="cls-7" d="M428.7-21.8S411.85,1,409.87,19.82s4,51.53-4.95,62.42S368.67,97.1,356.57,99.08s-23,6-27.95,8.92-33.53,4-39.06,4-16.42,12.89-31.29,15.36-41.61-3.46-47.55,0-23.78,28.24-32.7,38.15S147.11,204.11,144.73,218s-4.36,64.29-8.33,72.28-26.75,51.29-30.71,63.82-1,44-33.69,62.95S.66,471.08-9.25,481.76s-37.65,49.32-49.54,52.29"/><g class="cls-8"><path d="M85.71,313.33c0,12.57,7,30.25,31.19,36.85,24.19-6.6,31.19-24.28,31.19-36.85a36.43,36.43,0,0,0-.57-6.33H86.29A35.46,35.46,0,0,0,85.71,313.33Z"/><path d="M138.5,287.8a16.68,16.68,0,0,1-10,3.11c-6.24,0-11.59-5.51-11.59-5.51s-5.34,5.51-11.58,5.51a16.68,16.68,0,0,1-10-3.11,66.31,66.31,0,0,0-8.52,16.8H147A66.31,66.31,0,0,0,138.5,287.8Z"/><path d="M114.46,320.9c0,11.09-.1,12.37-1.29,13.56a6.25,6.25,0,0,1-4.34,1.28c-2,0-3.32-.4-4-1.15s-1-1.94-1.11-4.67l2.4-.14c.06,2.11.19,2.77.56,3.13a3.23,3.23,0,0,0,2.23.56,3.67,3.67,0,0,0,2.44-.66c.62-.62.72-1.64.72-5.72a4.79,4.79,0,0,1-3.68,1.31c-1.68,0-3-.29-3.85-1.15s-1.09-2.33-1.09-6.48.23-5.86,1.25-6.88,2.37-1.28,4.34-1.28a5.92,5.92,0,0,1,4.22,1.32C114.29,315,114.46,316.86,114.46,320.9Zm-2.44-.23c0-3.58-.1-4.51-.69-5.1a3.27,3.27,0,0,0-2.37-.66,3.5,3.5,0,0,0-2.47.66c-.56.59-.65,1.52-.65,5.07s.06,4.37.62,4.9a4.69,4.69,0,0,0,4.9,0C111.92,325,112,324.13,112,320.67Z"/><path d="M130.41,327.88c0,4.57-.23,5.65-1.15,6.58s-2.34,1.28-4.48,1.28-3.52-.4-4.34-1.22c-1-1-1.18-2.47-1.25-6.81l2.4-.13c.07,3.85.17,4.74.69,5.23a3.45,3.45,0,0,0,2.5.66,3.7,3.7,0,0,0,2.6-.63c.5-.46.59-1.31.59-5,0-3.52-.09-4.44-.59-4.93a3.17,3.17,0,0,0-2.37-.63c-1.71,0-2.46.3-2.92.92l-2.21-.49.56-9.9h9.05v2.3h-6.91l-.3,5.66a7.1,7.1,0,0,1,3.32-.69,5.24,5.24,0,0,1,3.72,1.05C130.24,322.09,130.41,323.3,130.41,327.88Z"/></g><path class="cls-9" d="M88.45,313.72c0,11.47,6.39,27.6,28.45,33.62,22.07-6,28.45-22.15,28.45-33.62a33.19,33.19,0,0,0-.52-5.77H89A33.17,33.17,0,0,0,88.45,313.72Z"/><path class="cls-10" d="M136.6,290.44a15.21,15.21,0,0,1-9.13,2.84c-5.69,0-10.57-5-10.57-5s-4.87,5-10.56,5a15.21,15.21,0,0,1-9.13-2.84,60.38,60.38,0,0,0-7.78,15.32h54.94A60.53,60.53,0,0,0,136.6,290.44Z"/><path class="cls-5" d="M114.67,320.63c0,10.11-.09,11.28-1.17,12.36a5.71,5.71,0,0,1-4,1.17c-1.8,0-3-.36-3.69-1.05s-1-1.77-1-4.26l2.19-.12c.06,1.92.18,2.52.51,2.85a3,3,0,0,0,2,.51,3.32,3.32,0,0,0,2.22-.6c.57-.57.66-1.5.66-5.22a4.38,4.38,0,0,1-3.36,1.2,4.74,4.74,0,0,1-3.51-1.05c-.81-.78-1-2.13-1-5.91s.21-5.34,1.14-6.27a5.49,5.49,0,0,1,4-1.17,5.4,5.4,0,0,1,3.84,1.2C114.52,315.26,114.67,316.94,114.67,320.63Zm-2.22-.21c0-3.27-.09-4.11-.63-4.65a3,3,0,0,0-2.16-.6,3.16,3.16,0,0,0-2.25.6c-.51.54-.6,1.38-.6,4.62s.06,4,.57,4.47a3.12,3.12,0,0,0,2.22.63,3.16,3.16,0,0,0,2.25-.63C112.36,324.35,112.45,323.57,112.45,320.42Z"/><path class="cls-5" d="M129.22,327c0,4.17-.21,5.16-1.05,6s-2.13,1.17-4.08,1.17-3.21-.36-4-1.11c-.9-.9-1.08-2.25-1.14-6.21l2.19-.12c.06,3.51.15,4.32.63,4.77a3.15,3.15,0,0,0,2.28.6,3.38,3.38,0,0,0,2.37-.57c.45-.42.54-1.2.54-4.56,0-3.21-.09-4-.54-4.5a2.91,2.91,0,0,0-2.16-.57c-1.56,0-2.25.27-2.67.84l-2-.45.51-9h8.25v2.1h-6.3l-.27,5.16a6.51,6.51,0,0,1,3-.63,4.77,4.77,0,0,1,3.39,1C129.07,321.71,129.22,322.82,129.22,327Z"/></g></g></svg>