<svg xmlns="http://www.w3.org/2000/svg" viewBox="0 0 720 742.13"><defs><style>.cls-1{isolation:isolate;}.cls-2{fill:#8fe6ff;}.cls-3{fill:#2d8000;}.cls-4{fill:#7ec60c;}.cls-30,.cls-5{fill:#fff;}.cls-24,.cls-6{fill:none;stroke-linecap:round;stroke-miterlimit:10;}.cls-6{stroke:#58595b;stroke-width:10px;}.cls-13,.cls-7,.cls-8{font-size:40px;font-family:Magmatic-Light, Magmatic;}.cls-13,.cls-26,.cls-30,.cls-7,.cls-8{font-weight:300;}.cls-7{letter-spacing:0.07em;}.cls-8{letter-spacing:0.07em;}.cls-9{letter-spacing:0.07em;}.cls-10{letter-spacing:0.07em;}.cls-11{letter-spacing:0.07em;}.cls-12{letter-spacing:0.07em;}.cls-13{letter-spacing:0.08em;}.cls-14{letter-spacing:0.07em;}.cls-15{letter-spacing:0.08em;}.cls-16{letter-spacing:0.07em;}.cls-17{letter-spacing:0.07em;}.cls-18{letter-spacing:0.06em;}.cls-19{letter-spacing:0.07em;}.cls-20{letter-spacing:0.07em;}.cls-21{letter-spacing:0.07em;}.cls-22{letter-spacing:0.07em;}.cls-23,.cls-30{letter-spacing:0.07em;}.cls-24{stroke:#bcbec0;stroke-width:2px;}.cls-25{opacity:0.1;mix-blend-mode:multiply;}.cls-26{font-size:32.89px;letter-spacing:0.07em;}.cls-26,.cls-30{font-family:Magmatic-LightCondensed, Magmatic;}.cls-27{letter-spacing:0.07em;}.cls-28{fill:#0089fa;}.cls-29{fill:#ed1c24;}.cls-30{font-size:30px;}</style></defs><title>Artboard 1 copy 2</title><g class="cls-1"><g id="Bottom_matter" data-name="Bottom matter"><rect class="cls-2" x="5.61" y="-3.05" width="771.19" height="747.17"/><path class="cls-3" d="M130.88,713.72c2.56-.68,37-10.16,46.89-14.79s38.32-12.55,50.87-13.87,22.46-6.6,33.68-9.91,36.34-11.23,41-10.57,4.62,5.95,15.19,4,11.89-11.42,15.85-8.35,29.33,7,29.33,7L451.9,535.12l11.23,3.3s11.89-11.23,11.23-16.51-8.53-7.27,0-10.57,2-7.93,0-15.2,0-19.15,4.29-20.47,10.6,3.26,10.6,3.26,7.54-11.19,4.9-20.44-10.57-29.05-8.59-36,7.73-34,9.15-49.22-3.2-24-3.2-24-11.89-1.73-11.89-7.67,4-15.86,4-15.86H477l-2,4.63s-2-9.17,0-12.84.66-12.26-4.62-15.57-22.89-4-15.41-10.57l7.48-6.6s-9.91-5.65-10.57-8.77,3.09-7.47,3.09-7.47-6.81-10.13,0-10.15,8.14,10.15,8.14,10.15,2-3.58,8.59-6.88,22-5.95,29.51-7.27S513,245.8,513,245.8V222.68H501.23l-7.05-5.51,7.05-12.33s-.45,2,6.16,0,5.58-7.92,5.58-7.92l-8.22-13.22s8-2.4,8.28-8.79-7.62-13.66-6.3-17-1.32-56.14-1.32-56.14H493.52L481.63,88l-13.21,8.47L455,101.8h-5.73L451.9,88s6.64,4.08,7,0a69.17,69.17,0,0,0,0-8.7s-5.63,1.32-7-3.31,0-11.89,0-11.89-9.25-7.26-3.3-11.89,10.25,0,10.25,0v6s10.89,1.32,18.15,2,18.5,2.64,27.75,3.3,23.78-3.3,27.08-.66.66,7.93,0,14.54,2,8.15,6.6,10.68,7.27,7.15,8.59,9.13,9.91,4,10.57-5.28-6.6-11.89,0-23.78,9.25-9.25,13.21-15.19-4-7.27-4-17.18a92.26,92.26,0,0,1,2-18.49L568.16,8,580.05-.59a87.31,87.31,0,0,1-19.82-6.47c-10.57-4.89-12.55-4.89-12.55-4.89H-15.11V756.4l21.14,4s14.53-9.24,27.74-9.24,27.09.66,27.09.66l15.85-7.93S85.3,733,88.6,731.51,118.79,716.91,130.88,713.72Z"/><path class="cls-3" d="M563.54,280.8c-4-.23-9.91-2.64-12.56,5.95s-7.3,14.53-7,19.16-1.63,5.28-3.61,19.81-.66,15.36-4,23.53-5.94,26.67-5.94,35.26S545,402.35,544,404.33s8.28,9.26,8.28,9.26-11.89,9.89-12.55,19.14c0,0-4.63,7.27-9.25,6.61s-10.57-6.52-11.89,0,5.28,6.25,4,12.35-1.32,19.31,0,23.28,8.59,11.23,5.29,13.87-8.94,7.26-9.43,11.23,0,21.8,0,21.8,12.07-4,13.39-9.91,1.32-20.48,1.32-20.48,9.87,4,10.88-2.64,3-13.87,0-17.18,1.28-7.26-3.15-13.87a41,41,0,0,1-5.75-12.55L544,444s8.28,9.91,7.62,13.21S547,471,552.31,471s7.92-5.28,11.23-4.62,9.9,3.3,13.87,1.32a36.94,36.94,0,0,0,7.92-5.94s-5.28-3.6-9.9-12.7-13.88-19.67-6.61-25.62S584,402,578.73,401.16s-13.21,2.51-10.57-6.74,5.28-15.85,4.62-31.05-5.28-18.49-1.32-25.1,4-20.47,3.3-34.35S569.45,281.16,563.54,280.8Z"/><path class="cls-4" d="M458.85,101.8l-118.58,3.8-9.91,3.46,9.25,16.52v17.83H303.28v81.91h37l4.62,12.55-4,127.49,14.53,32.36,4.63,25.1,25.76,5.95,46.9-4,2,7.93-6.61,51.52-10.57,32.37L402.36,537.1s-6.6,10.57-11.23,13.87-10.06,13.21-10.06,13.21l-2.49,19.68H367.35s-9.25,35.81-12.55,45.71-16.51,33.69-16.51,33.69,21.8,1.32,30.38,6,17.18,13.87,17.18,13.87l2,11.23s9.91.66,13.21,0-4-18.5,0-29.73,19.82-37,19.82-37a49,49,0,0,0,7.92-11.89c4-7.92,17.84-20.75,15.2-31.84s-6.61-23.64-3.31-28.93S447.94,543,451.9,540.4l4-2.64,3,6.12s5.6,1.8,4.28-5.46-17.83-4.62-18.49-17.18,4-32.36,4-38.31,2-39,2-39l-1.32-25.1s5.28-4,4-10.57,2-9.25,2.65-15.85,3.3-13.91-1.33-13.89-4,7.28-9.9,3.32,4.62-4-3.31-11.23-11.89,2.64-11.89-2.64v-5.29s-5.94,7.27-7.26.66-1.32-17.17-5.29-21.13S409.63,333.65,403,335s-7.26,7.27-10.57,4.62-9.7-4.62-9.14,0-10,17.18-10.67,5.29.66-13.21,1.32-19.82,7.47-18.49,9.35-20.48,7.82,7.93,7.82.67-6.6-22.46-11.23-28.41-15.85-17.83-12.55-25.1,9.91-17.17,9.25-27.74h18.5l1.32-19.16s-7.93-6.87-3.31-10.7,7.27-6.47,7.93-9.78,5.28-2,9.91-7.26,9.91-4.63,9.91-11.89.66-8.59,2-14.53,5.28-12.55,5.28-12.55l6.61-5.95,6.6,4s15.23-18.49,17.52-23.78A14.46,14.46,0,0,0,458.85,101.8Z"/><path class="cls-3" d="M518.23,413.59s-7.46.05-5.47,4-1.15,14,.21,13.81,1.08-7.08,5.26-8.91C523.07,420.38,527.08,414.27,518.23,413.59Z"/><path class="cls-5" d="M-60.54,716.81c9.77-11.57,19.42,16.88,37.74,17.32C-14,734.34-3.18,714.44,8,714.7c9.61.23,19.35,20.63,29.81,20.88,10,.24,20.7-19.67,30.77-19.43,10.39.24,20.14,20.64,29.83,20.86,11,.26,21.73-19.66,30.75-19.46,13.63.31,24,20.69,29.88,20.8,6.7.12,14.11-19.83,21.11-19.6,6.77.23,12.89,20.65,19.82,20.93s14.53-19.58,21.4-19.3,13,20.69,19.84,20.91,14.34-19.74,21.1-19.62c7,.12,13.83,20.32,20.51,20.26,7.13-.07,13.39-20.4,19.95-20.75,7.23-.38,17.1,19.09,26.45,18.3,7.82-.66,14.48-21.5,23.27-22.3,8.09-.73,18.28,18.59,26.81,17.84,8.29-.72,15.06-21.51,23.41-22.14s18.21,18.9,26.4,18.44c8.69-.48,16.37-21,24.35-21.13,9.07-.18,17.21,20,24.78,20.43,8.88.47,17.7-19.89,27.07-20.77,9-.85,21.13,17.64,30.2,15.74s12.83-23.71,21.53-26.44c8.92-2.79,24.54,12.92,32.77,9.43,8.82-3.74,8.22-25.86,15.79-30.16,8.67-4.92,27.8,6.37,34.17,1.06,8.34-7-1.33-25.82,1.64-32.74,2.34-5.47,23.11-6.84,23.93-14C666,626.58,646.14,619,646,612.1c-.15-6.39,19.48-14.31,18.78-21-.69-6.52-21.57-10.45-22.61-16.92-1.07-6.66,17.56-16.78,16.3-23-1.38-6.86-22.52-9.11-23.9-15-1.74-7.5,16.22-18.79,14.94-23.92-1.89-7.55-23.77-11.5-26.2-21.26-2-8.17,15.48-21.56,13.48-30.83-1.84-8.51-23.38-13.62-24.88-22.72-1.45-8.76,17.3-20.33,16.43-29.36s-21.5-16.95-21.55-25.9c0-9.1,20.47-17,21.53-25.78,1.1-9.08-16.8-22.06-14.24-30.52,2.13-7.05,23.57-9.79,25.31-18,1.58-7.47-16.81-19-15.53-27,1.23-7.73,22.29-12.8,23.26-20.68s-18.2-18.06-17.46-25.79c.78-8.18,21.52-14.46,22.06-22,.61-8.57-19.05-17.76-18.72-24.88.46-9.92,20.81-17.65,20.81-23.25,0-4.6-20.3-8.23-20.54-12.22-.28-4.55,19.4-10.45,19-14.49-.47-4.4-21-6.49-21.45-10.68s19.32-9.78,19.16-14.19c-.15-4-20.27-8.52-20-13.07.24-4,20.7-6.1,21.38-10.68.59-3.92-18.45-11.77-17.46-16.29,1.43-6.47,22.16-10.38,22.47-16.94s-20-12.81-20.58-19.33,18.3-16.13,17-22.49C651.4,7.23,630.2,5.73,628.36-.38c-2-6.66,14.83-19.5,12.59-25.26-2.67-6.87-23.88-5-26.33-10.19-5.18-10.92-7.86-10,1.85-11.93,11.7-2.28,11.07-18.53,22.92-17.16s9.54,21.39,21.38,22.76,14.17-18.66,26-17.29,9.53,21.4,21.38,22.77,14.17-18.66,26-17.29,9.54,21.4,21.39,22.77,31.95-21.2,34.67-9.58C804,18,773,22.32,775.61,82.67S798.36,142.16,801,202.52s-17.52,61.23-14.9,121.59S808.84,383.59,811.46,444s-17.52,61.23-14.91,121.59S819.31,625,821.93,685.39s3.06,60.42-14.48,118.23c-15.54,51.25-32.32,14.8-96.94,17.5-31.24,1.3-68.51-17.32-107.85-15.69-34,1.4-69.32,23-106.19,24.54-35.46,1.45-72.38-17.24-107.84-15.81-36.87,1.47-72.24,23.05-106.23,24.37-39.36,1.53-76.55-17.23-107.8-16.1-65,2.36-115.51,8.12-115,7.41s9.34-9-.82-18.7c-5-4.74-24.63,4.48-31-1.41C22.25,804.65,30,784.42,24,778.94c-5.76-5.26-25.21,4.31-31-.93-6-5.45,1.57-25.75-4-30.75-6.44-5.8-25.88,3.85-31-.74C-52.59,737-68.15,725.81-60.54,716.81Z"/></g><g id="Base"><path class="cls-6" d="M428.7-19.8S411.85,3,409.87,21.82s4,51.53-4.95,62.42-36.25,14.86-48.35,16.84-23,6-27.95,8.92-33.53,4-39.06,4-16.42,12.89-31.29,15.36-41.61-3.46-47.55,0-23.78,28.24-32.7,38.15S147.11,206.11,144.73,220s-4.36,64.29-8.33,72.28-26.75,51.29-30.71,63.82-1,44-33.69,62.95S.66,473.08-9.25,483.76s-37.65,49.32-49.54,52.29"/><text class="cls-7" transform="translate(416.87 677.79)">Galilee</text><text class="cls-8" transform="translate(58.18 659.24) scale(0.99 1)">Charl<tspan class="cls-9" x="98.48" y="0">e</tspan><tspan class="cls-10" x="120.04" y="0">s</tspan><tspan class="cls-11" x="140.72" y="0">t</tspan><tspan class="cls-12" x="156.64" y="0">o</tspan><tspan x="179.12" y="0">wn</tspan></text><text class="cls-13" transform="translate(104.49 460.27) scale(0.99 1)">Richmond</text><text class="cls-7" transform="translate(391.77 588.85)">Nar<tspan class="cls-14" x="65.48" y="0">r</tspan><tspan class="cls-15" x="79.76" y="0">agan</tspan><tspan class="cls-16" x="168" y="0">s</tspan><tspan class="cls-17" x="188.88" y="0">e</tspan><tspan class="cls-18" x="210.48" y="0">t</tspan><tspan x="226" y="0">t</tspan></text><text class="cls-7" transform="translate(242.31 174.91)">E G<tspan class="cls-14" x="64.24" y="0">r</tspan><tspan x="78.52" y="0">ee</tspan><tspan class="cls-16" x="121.8" y="0">n</tspan><tspan x="144.56" y="0">wich</tspan></text><text class="cls-7" transform="translate(503.48 378.49)">Jam<tspan class="cls-19" x="80.48" y="0">e</tspan><tspan class="cls-20" x="102.04" y="0">s</tspan><tspan class="cls-21" x="122.72" y="0">t</tspan><tspan class="cls-22" x="138.64" y="0">o</tspan><tspan x="161.12" y="0">wn</tspan></text><text class="cls-7" transform="translate(249.28 326.75)">N. Kin<tspan class="cls-14" x="116.88" y="0">g</tspan><tspan class="cls-23" x="138.28" y="0">s</tspan><tspan class="cls-21" x="158.96" y="0">t</tspan><tspan x="174.88" y="0">on</tspan></text><path class="cls-3" d="M566.75,215.36c-2.2,1.6,2,6.6-4,9.91s-12.55,9.24-5.95,8.58,15.2-4.57,15.86-9.22S574,210.07,566.75,215.36Z"/><path class="cls-24" d="M428.7-19.8S411.85,3,409.87,21.82s4,51.53-4.95,62.42-36.25,14.86-48.35,16.84-23,6-27.95,8.92-33.53,4-39.06,4-16.42,12.89-31.29,15.36-41.61-3.46-47.55,0-23.78,28.24-32.7,38.15S147.11,206.11,144.73,220s-4.36,64.29-8.33,72.28-26.75,51.29-30.71,63.82-1,44-33.69,62.95S.66,473.08-9.25,483.76s-37.65,49.32-49.54,52.29"/><g class="cls-25"><path d="M85.71,315.33c0,12.57,7,30.25,31.19,36.85,24.19-6.6,31.19-24.28,31.19-36.85a36.43,36.43,0,0,0-.57-6.33H86.29A35.46,35.46,0,0,0,85.71,315.33Z"/><path d="M138.5,289.8a16.68,16.68,0,0,1-10,3.11c-6.24,0-11.59-5.51-11.59-5.51s-5.34,5.51-11.58,5.51a16.68,16.68,0,0,1-10-3.11s-6.26,10.32-9,19.2h61.23C144.76,300.12,138.5,289.8,138.5,289.8Z"/><text class="cls-26" transform="translate(102.25 337.54)">9<tspan class="cls-27" x="15.72" y="0">5</tspan></text></g><path class="cls-28" d="M88.45,315.72c0,11.47,6.39,27.6,28.45,33.62,22.07-6,28.45-22.15,28.45-33.62a33.19,33.19,0,0,0-.52-5.77H89A33.17,33.17,0,0,0,88.45,315.72Z"/><path class="cls-29" d="M136.6,292.44a15.21,15.21,0,0,1-9.13,2.84c-5.69,0-10.57-5-10.57-5s-4.87,5-10.56,5a15.21,15.21,0,0,1-9.13-2.84S91.5,301.85,89,310h55.85C142.31,301.85,136.6,292.44,136.6,292.44Z"/><text class="cls-30" transform="translate(103.54 335.98)">9<tspan class="cls-14" x="14.34" y="0">5</tspan></text><path class="cls-5" d="M844.46-148.69c10.27.4-11.75,12-18.4,23.15-3,5,10,21.77,5.4,28.13-3.67,5.08-23.59-1.85-28.42,3.8-4.18,4.89,5.87,23.51.74,28.65-4.61,4.63-23.24-5.3-28.66-.6-5,4.31,2.22,24.19-3.48,28.45-5.3,4-22.33-8.52-28.29-4.68-5.58,3.6-1.19,24.28-7.37,27.71-5.82,3.23-21-11.42-27.42-8.4-6,2.85-4.31,23.92-10.85,26.54C691.52,6.54,678.2-9.86,671.52-7.63c-6.33,2.12-7.07,23.24-13.85,25.1-6.45,1.77-17.89-16-24.75-14.49-6.54,1.43-9.46,22.36-16.38,23.53-6.61,1.12-16.26-17.68-23.22-16.83-6.66.81-11.47,21.39-18.46,21.94-6.69.53-14.7-19-21.7-18.75-6.71.26-13.16,20.39-20.16,20.4-6.71,0-13.26-20.09-20.25-20.32-8.37-.27-17.51,19.42-26,19.11s-16.11-20.6-24.61-20.92-17.63,19.34-26.1,19-16.09-20.65-24.55-21-17.69,19.31-26.13,19S369.2,7.5,360.77,7.18s-17.69,19.33-26.1,19S318.44,5.59,310.05,5.3s-17.64,19.4-26,19.14c-8.55-.27-16.41-20.52-24.75-20.75-8.58-.24-17.54,19.54-25.85,19.36-8.61-.2-16.69-20.36-25-20.48-8.65-.14-17.33,19.77-25.58,19.72-8.7-.06-17.16-20.06-25.35-20-8.78.05-16.95,20.16-25.06,20.35-8.89.21-18.07-19.48-26.06-19.1-9.07.45-16.14,21-23.9,21.67C73.05,26.06,62,7.32,54.69,8.63c-10.77,1.94-12,22.82-17.19,25.9C34,36.61,16.71,37.05,15.41,52.73c-.67,8.17,18.87,19,18.65,30-.17,8.87-20.22,18.45-20.16,28.88,0,9.16,20.18,18.62,20.38,28.78.18,9.31-19.58,19.48-19.31,29.48.26,9.42,20.55,18.51,20.87,28.42.31,9.49-19.35,19.85-19,29.68.34,9.55,20.67,18.53,21,28.3.34,9.6-19.29,20-18.95,29.73s20.68,18.64,21,28.31-19.34,20-19,29.67,20.57,18.87,20.82,28.45c.25,9.8-19.52,19.95-19.33,29.48.19,9.86,20.34,19.26,20.43,28.73.11,9.95-19.85,19.72-19.87,29.11,0,10.06,19.86,20,19.66,29.27-.22,10.24-20.53,19.22-21,28.29C21,527.9,40.24,539.2,39.3,547.86c-1.25,11.48-22.44,17.39-24.5,24.83-1.94,7,16.83,18.22,16.89,28.13,0,7.79-19.26,17.65-18.14,26.92,1,8,22.07,13.48,23.73,22.4C38.79,658.22,21,670.72,23,679.41c1.87,8.11,23.35,11.67,25.6,20.21,2.13,8.12-14.86,21.72-12.44,30.13,2.34,8.12,24,10.64,26.53,19,2.5,8.12-14,22.35-11.29,30.58s24.33,10,27.1,18.12S65.16,820.2,68,828.29s24.6,9.49,27.51,17.5-12.83,23.13-9.86,31.08c3,8.17,24.8,9.13,27.82,17,3.14,8.2-12.4,23.45-9.35,31.24,3.24,8.26,25,8.9,28.07,16.58,3.35,8.36-12,23.83-8.9,31.37,3.49,8.55,25.27,8.91,28.3,16.19,3.76,9-11.32,24.77-8.47,31.48,6.37,15,35.6,21.36,24.7,28.2-6.76,4.25-12.62-19-20.58-19.49S138,1048.88,130,1048.36s-6.64-20.48-14.61-21-9.27,19.44-17.23,18.91-6.65-20.48-14.61-21-9.27,19.43-17.23,18.91-6.65-20.48-14.61-21-9.28,19.44-17.24,18.91-6.64-20.48-14.6-21S10.6,1040.5,2.64,1040-4,1019.5-12,1019s-9.28,19.44-17.24,18.91-6.65-20.48-14.61-21-9.27,19.43-17.24,18.91-6.64-20.49-14.61-21-9.27,19.43-17.24,18.91-6.65-20.48-14.61-21-9.28,19.44-17.24,18.91-3.43-6.18-5.68-13.84c-7.88-26.81-20-25-20.4-52.92s19.6-28.23,19.2-56.16-20.4-27.66-20.8-55.6,19.6-28.22,19.2-56.16-20.4-27.65-20.8-55.59,19.59-28.23,19.19-56.17-20.4-27.65-20.8-55.58,19.6-28.23,19.2-56.17-20.4-27.65-20.8-55.59,19.6-28.23,19.2-56.17-20.4-27.65-20.8-55.59,19.59-28.23,19.19-56.17-20.4-27.65-20.8-55.6,19.6-28.22,19.2-56.16-20.4-27.65-20.8-55.59,19.6-28.23,19.2-56.17-20.4-27.66-20.8-55.6,19.59-28.23,19.19-56.17S-181-26.32-162.89-47.63c17.1-20.14,34.89,13.86,61.19,11.29s24.35-22.47,50.65-25S-22.81-44,3.49-46.61s24.35-22.47,50.65-25,28.24,17.33,54.53,14.77,24.36-22.47,50.66-25,28.24,17.34,54.53,14.77,24.36-22.47,50.65-25,28.24,17.34,54.54,14.78,24.36-22.48,50.65-25S398-85.1,424.25-87.67s24.35-22.47,50.65-25,28.24,17.34,54.54,14.77,24.36-22.47,50.65-25,28.25,17.34,54.54,14.77,24.36-22.47,50.66-25,28.24,17.33,54.54,14.77,23.52-17.89,49-24.75C815.8-150.46,818.05-149.71,844.46-148.69Z"/></g></g></svg>