<svg id="Bottom_matter" data-name="Bottom matter" xmlns="http://www.w3.org/2000/svg" viewBox="0 0 846.16 705.91"><defs><style>.cls-1{fill:#2d8000;}.cls-2{fill:#8fe6ff;}.cls-3,.cls-6,.cls-7{fill:none;stroke:#000;stroke-miterlimit:10;}.cls-3{stroke-linecap:round;stroke-width:2px;stroke-dasharray:2 6;}.cls-4{fill:#7ec60c;}.cls-5{fill:#fff;}.cls-6,.cls-7{stroke-width:3px;}.cls-7{stroke-dasharray:12.12 18.19;}</style></defs><title>Artboard 1</title><path class="cls-1" d="M153,98c-3.36-2.88,8.41.25,13.78-1.22,2.42-.67,2.31-12.57,5.55-13.42,2.63-.69,8.37,9.73,11.44,9,2.71-.69,2.84-12.58,5.84-13.3,2.77-.67,8.27,9.88,11.23,9.2s3.21-12.53,6.15-13.16,8.08,10.06,11,9.48,3.6-12.45,6.52-13,7.79,10.31,10.69,9.83,4.11-12.32,7-12.73S249.6,79.3,252.48,79s4.84-12.1,7.71-12.32c3-.24,6.61,11.1,9.45,11,3.09-.09,6.13-11.6,8.92-11.48,3.16.14,4.92,11.85,7.6,12.3,3.63.6,9.8-10.21,15.15-9.61,4.12.45,7.53,12.37,12.47,12.81,4.29.39,9.83-10.7,14.61-10.32,4.39.34,8.08,12.17,12.79,12.51,4.44.32,9.8-10.86,14.45-10.55,4.48.29,8.31,12.08,12.92,12.37s9.78-11,14.36-10.68,8.47,12,13,12.28,9.79-11,14.3-10.76,8.6,12,13.08,12.22c4.67.24,9.83-11,14.25-10.82,4.75.23,8.76,12,13.12,12.17,4.85.23,10-11.06,14.22-10.87,5.09.24,9.16,12,13.15,12.14,6.15.28,11.39-11,14.2-10.89,3.84.18,10.55,10.51,18.52,9.22,5.17-.83,9.66-13.16,16.37-13.84,5.52-.56,12.18,10.53,18.64,10.46,5.68-.07,12.13-11.38,18.46-10.82,5.7.5,10.08,12.7,16.27,13.88,5.65,1.08,14.21-8.69,20.23-6.91,5.53,1.64,7.42,14.47,13.24,16.81,5.36,2.16,15.59-5.85,21.17-3,5.16,2.62,4.79,15.59,10.12,18.85,4.94,3,16.31-3.26,21.38.37,4.73,3.37,2.51,16.17,7.33,20.1,4.51,3.68,16.59-1.1,21.17,3.1,4.3,3.93.63,16.39,5,20.81,4.09,4.16,16.6.64,20.74,5.25,3.91,4.34-.87,16.42,3.07,21.18,5.07,6.12,19,5.44,23.49,11.88s-.89,19.37,3.1,26.14,17.89,8.3,21.38,15.34-3.68,19.07-.66,26.33,16.61,10.61,19.19,18-6,18.52-3.86,26.05,15.3,12.44,17.06,20.05c1.79,7.8-7.92,17.86-6.54,25.51,1.42,7.91,14,13.95,15,21.63,1.06,8-9.53,17.13-8.86,24.79.71,8.13,12.71,15.27,13,22.88.36,8.26-11,16.41-11,23.9,0,8.47,11.25,16.73,10.86,24-.49,8.91-12.68,15.79-13.55,22.54-1.46,11.41,7.58,22.67,5.84,26.29-1,2-12.18-1.43-13.25.43s7.45,9.92,6.24,11.7-11.82-3.26-13.17-1.58,5.85,10.95,4.36,12.52-11.16-5-12.76-3.59,4.11,11.71,2.4,13-10.29-6.65-12.09-5.45,2.39,12.17.52,13.25-9.3-8-11.24-7,.79,12.37-1.2,13.2-8.27-9.08-10.29-8.36-.68,12.38-2.73,13-7.25-9.93-9.3-9.45c-2.25.53-2,12.25-4.08,12.63-2.32.42-6.28-10.62-8.27-10.37-3.19.42-14.08,5-25.35-4.68-5.84-5-4.88-19.72-12.36-26.77-6.06-5.72-20.58-3.71-27.51-10.48-6.15-6-4.5-20.59-11.19-27.25-6.2-6.17-20.75-4.44-27.3-11-6.24-6.28-4.45-20.82-10.91-27.36-6.29-6.34-20.85-4.68-27.26-11.15s-4.54-20.95-10.92-27.37-20.94-4.71-27.3-11.06-4.77-21-11.11-27.28c-6.57-6.48-21.1-4.59-27.43-10.73-6.7-6.51-5.29-21.11-11.61-27.08-6.92-6.53-21.39-4.24-27.72-9.95-7.29-6.59-6.6-21.28-12.9-26.5-8.25-6.86-22.35-3.14-28.41-7.05-5.6-3.6-5.26-17.42-11.95-22.36-5.65-4.17-18.62.41-24.9-4.51-5.65-4.44-4.36-18.16-10.43-23.08-5.67-4.59-18.79-.45-24.74-5.36-5.68-4.69-4.13-18.37-10-23.26-5.71-4.76-18.86-.73-24.69-5.59s-4.15-18.47-9.95-23.28-18.93-.74-24.71-5.49-4.41-18.51-10.19-23.19c-5.94-4.8-19-.5-24.81-5.07-6.05-4.77-5-18.5-10.77-22.91-6.21-4.72-19.11.07-25-4.13-6.46-4.63-6.19-18.42-12.11-22.26-6.89-4.48-19.22,1.55-25.19-1.63C167,103.12,158.94,99.46,153,98Z"/><path class="cls-2" d="M125.26,80.23S103.93,119.06,109.87,129,65,327.79,74.87,354.88-71.78,274.64-76.4,305.69s-24.2,113.49,26.09,190.24c32.7,49.9,112,90.16,154.57,109C141.45,621.35,320.41,716.22,375.9,705s211.55-22.13,280.25-22.79,186.27-92.83,171.74-110c-16.53-19.54-22.42-31.35-54.16-58.13-73.17-61.73-235.82-262.9-235.82-262.9L392,184.88Z"/><path class="cls-3" d="M389,184.88S379.38,204,375.41,243.6s2.42,60.65-2.86,69.3-29.79,25-16.07,59.29c12,30,11.87,77-11.18,108.82s-75.57,150.93-75.57,150.93L-13,456.3S-55.49,371.2-66.94,334c-.6-1.93-4.9-23.3-5.47-26.22,0,0,34.07-59.3,75.18-101.67S145.54,86.23,145.54,86.23"/><path class="cls-1" d="M343.05,391.21s-28.41,1.32-33.69-4-7.93-17.83-12.55-25.1-1-13.52-7.1-18.65c-4.87-4.09-94.28-3-130.18-2.61l38.86-33.34-43.33-33.46s-23.17-10.93-28.67-37.44c-1.28-6.17-4.17-22.29-2.2-29.07,2.71-9.33,10.77-9.09,10-14.53-1-6.52-9.52-13.65-9.52-13.65s9.52-8.81,2.64-26.13c-17.9-45-6.43-47.86-6.43-47.86l30.61-22.57c1,.32-41.3-15.42-48.84-19.92C96.47,59.25,82.79,39.13,74.2,74.8S45.46,86,9.14,134.91s-64.38,74.26-84.22,113c-7.16,14-26.56,36.67-10.87,47.56,21.8,15.12,50.5,63.41,50.5,63.41S-9.69,368.09-9,373.37c.33,2.64-6,17.67-2.49,32s17,28.07,17,28.07,94.76-5,132.32-1.29l.45,5.25s46,11.23,61.33,12.55,160.61-35,160.61-35Zm-175.27-16.3c-9.25,8.21-7.89,16.74-19.12,15.41s-14.51-3.52-14.51-3.52-20.52,9.86-23.16-6,8.79-6.78,8.13-9.42.66-12.55-10.57-11.89-26-7.66-14.53-13.21c3.45-1.68,16.8,7.1,49.85-2.33l-2.29,1,3.32-4c6.42,1.11,13.79,6,13.8,6-8.36.1-13-5.91-13.79-6,1.67.66,22.66,16,29,19.85C180.55,364.78,177,366.71,167.78,374.91Z"/><path class="cls-1" d="M322.24,681.85l15.84-114.07V518.69s33-4.62,36.32-13.21,7.28-20.48,6-33.69-7.93-21.8-11.89-27.08-2.64-8.25,4-10.73-.66-15-.66-22.3S365.34,392,365.34,392H416l108.33,66.56,11.39,1.79s16.35,14.06,17,22.65-3.3,15.35,7.27,26.5,67.05,79.85,70.36,85.13c1.33,2.14,36.4,4.49,19.81,20.81-9.89,9.74-4.38,34,4.45,49.54C695.78,737.33,544,740.27,531.3,741.3,421.36,750.21,331.16,713.55,322.24,681.85Z"/><path class="cls-4" d="M148.66,84.88l-32.84,24.27s9.25,13.43,11.45,27.52c.5,3.22,7.35-3.46,8.67-12s1.66-8.27-1.79-15.7c-4.93-10.64-5.53-20.22,13.38-9.69,3.36,1.88.66,7.93.66,21.14s-1.33,16.51,4,22.46,6.6,13.87,18.49,13.21,25.11-7.93,35.67-10.57S242,129,242,129l7.27-.66s-51.86,25.1-59.79,34.35-16.83,14.53-22.12,20.47-3.3,13.21,3.3,10.57,10.57-7.26,23.12-18.49,18.43-27.28,18.43-27.28,25.17,6.14,33.76,12.74,17.17,8.59,11.89,23.78S240,220.12,220.19,208.89s-13.88,5.14-17.84,3.23-7.62-5.87-14.71-4.55S156.77,232,152.81,238s-1.32,15.85,7.27,20.47,58.78,42.94,68,45.58,21.14-4,21.14-4,49.54,23.78,58.13,42.27,14.53,35,21.14,37.66,32.36,10.56,23.78-10.57-10.57-37.65-10.57-37.65,21.8-19.16,15.19-47.56-12.55-29.07-4.62-40.3,25.76-65.39,25.76-65.39l14.53,5.28S405.8,273,409.1,304s16.52,58.79,22.46,62.09,23.78,10.57,23.78,10.57-46.24,16.52-66-9.24-17.89-43.57-29.73-27.09,9.25,56.81,9.25,56.81h42.27s2,19.82,9.25,23.78,4,10.57,4,10.57h60.11l4.62,35,51.52-3.3S525.36,453.3,524,442.07s-3.3-15.2,2-22.46-15.19-34.35-11.23-49.54,9.25-23.78,22.46-28.41,17.17,0,17.17,0a63.63,63.63,0,0,0-14.53,10.57c-6.6,6.61-19.15,23.12-15.85,35s19.15,14.53,19.15,14.53-11.22,27.09-7.92,35S557.07,450,561.69,448s13.87,7.27,18.5,18.5,7.26,27.08,16.51,23.78,22.46-5.72,33.69.44,27.08,15.41,30.38,14.09,6.61,5.28,6.61,5.28,21.8,42.94,16.51,47.56S674,568.89,676,571.54s6.61,6.6,15.86,7.92S705,586.07,705,586.07s-13.87,4.62-20.48,0-21.8-4-25.1-2S675.3,592.67,676,598s-18.49,20.47-3.3,21.8,55.49-12.56,64.08-17.84,17.83-23.12,32.36-31,33-21.13,23.12-40.29S543.85,248.53,543.85,248.53Z"/><path class="cls-4" d="M168.69,284.6,152.15,271l-2.64,11.22S179.89,302,178.57,308s7.27,15.19-9.25,13.87S146.2,341.66,141.58,345s152.62,9.84,152.62,9.84-2.67-23.71-18.53-27-34.35-3.3-54.82-9.25S168.69,284.6,168.69,284.6Z"/><path class="cls-4" d="M265.76,418.29l-86.53,7.92,3.3,21.82s54.83,7.25,54.83,28.39-28.4,33-11.23,56.8,23.78,45.58,39.63,28.41,23.12-27.09,14.54-51.53-2.65-28.4-2.65-28.4,21.2-14.53,12.58-33c0,0,17.81,11.89,17.81,20.48s-6,16.51,0,20.48,12.55,12.75,19.82,3.4,0-37.75,0-37.75l14.53-2.64L360.22,415l-62.75-3.31-4,8.59S287.38,416.31,265.76,418.29Z"/><path class="cls-4" d="M158.09,167.28s-11.49-2.17-16.61,2.64-4,15.85,8.31,11.23S158.09,167.28,158.09,167.28Z"/><path class="cls-4" d="M145.54,154.73s-6.58-3.3-6.92,0S143.56,162,145.54,154.73Z"/><path class="cls-4" d="M134.15,214.18l-6.88-4.41v15S134.87,220.34,134.15,214.18Z"/><path class="cls-4" d="M158.7,193.7s-7.87,3.3-7.21,6S156.67,201,158.7,193.7Z"/><path d="M445.56,171.57l-1.1-.46L454.53,147,434.71,167l-1-.4L434,138.5l-10,24.08-1.11-.46,10.64-25.52,1.7.71-.28,27.8,19.55-19.76,1.7.71Z"/><path d="M473.3,174.08l-11.76-5-6.08,6.6-1.18-.5,20-21.57,1.25.53L474,183.53l-1.18-.49Zm.06-1.19.93-17.54-12,12.89Z"/><path d="M483.71,185.71c-.7-1.73-.44-3.76,1-7.12l1.16.36c-1.19,3-1.51,4.75-.88,6.33s2.33,3.08,5.57,4.47,5.76,1.68,7.28,1.07a6.07,6.07,0,0,0,2.89-3.5c1.5-3.5-1.27-6-4.91-9.46s-7.38-6.46-5.53-10.76c.92-2.17,1.78-3.07,3.2-3.63,1.89-.76,4.47-.18,7.71,1.2s5.09,2.84,5.85,4.64.41,3.7-.93,6.95l-1.16-.36c1.29-3.11,1.44-4.87.89-6.24-.68-1.67-2.45-2.82-5.09-4-2.91-1.24-5.16-1.77-6.74-1.14-1.2.49-1.89,1.28-2.62,3-1.49,3.5,1.85,6.27,5.4,9.66s7,6.2,5.09,10.58c-.85,2-1.87,3.55-3.5,4.2-2,.8-4.38.48-8.31-1.21C486.43,189.22,484.47,187.6,483.71,185.71Z"/><path d="M509.79,196.91c-.68-1.74-.4-3.76,1-7.11l1.15.37c-1.21,3-1.56,4.74-.94,6.32.68,1.74,2.31,3.11,5.53,4.52,3.37,1.48,5.74,1.74,7.27,1.14,1.32-.51,2.23-1.9,2.93-3.48,1.52-3.48-1.22-6-4.83-9.5s-7.31-6.52-5.43-10.81c.94-2.16,1.81-3,3.23-3.6,1.9-.74,4.48-.13,7.7,1.28s5.07,2.88,5.8,4.69.39,3.7-1,6.94l-1.15-.37c1.31-3.09,1.48-4.86.94-6.23-.66-1.68-2.42-2.85-5-4-2.9-1.27-5.14-1.82-6.72-1.21-1.22.48-1.91,1.26-2.65,2.95-1.53,3.48,1.78,6.28,5.31,9.71s6.9,6.26,5,10.61c-.87,2-1.9,3.54-3.54,4.17-2,.79-4.38.44-8.3-1.28C512.47,200.45,510.53,198.81,509.79,196.91Z"/><path d="M551.14,208.28l-11.55-5.42-6.34,6.35-1.16-.54,20.84-20.76,1.23.58-2.7,29.27-1.15-.54Zm.11-1.18,1.63-17.49L540.43,202Z"/><path d="M583.3,219.08c1.33-1.91,2.93-4.38,2.71-6.86-.18-2-1.34-3.57-4-5.76s-4.54-2.8-6.62-2.61c-3.21.28-5.93,2.91-9,6.56s-5.13,6.76-4.85,10c.19,2.09,1.33,4,3.81,6.11s4.63,3.14,6.83,2.94,4.16-2,6.33-4.14l.9.86c-2.48,2.46-4.65,4.25-7.15,4.5-2.34.23-4.77-.86-7.65-3.27s-4.09-4.52-4.31-6.94c-.31-3.44,1.85-6.9,5.14-10.83s6.33-6.69,9.77-7c2.37-.21,4.71.6,7.56,3s4.24,4.17,4.45,6.53c.24,2.71-1.44,5.47-2.95,7.65Z"/><path d="M599.59,221.3l.85.85-8.06,8.06L604.18,242l8.06-8.06.85.85-19.54,19.55-.85-.85,10.66-10.67L591.56,231,580.9,241.7l-.85-.85Z"/><path d="M604,262.75c0-1.87,1.2-3.45,3.21-5.34l14.5-13.66.83.87-14.47,13.64c-1.78,1.67-2.75,3-2.8,4.61,0,1.75,1.3,4,3.41,6.24s4.3,3.75,6.05,3.81,3-.85,4.78-2.52L634,256.76l.82.88L620.3,271.3c-2,1.86-3.65,2.95-5.52,2.89-2.09-.06-4.48-1.72-6.92-4.31S603.94,264.78,604,262.75Z"/><path d="M624.15,284.2c.08-1.87,1.15-3.61,3.81-6.09l.9.81c-2.31,2.21-3.34,3.69-3.42,5.39-.08,1.87.85,3.78,3.23,6.38s4.55,3.91,6.19,4a6.14,6.14,0,0,0,4.08-2c2.81-2.56,1.32-6-.57-10.64s-4-8.94-.58-12.09c1.74-1.59,2.9-2.05,4.42-2,2,.09,4.15,1.69,6.52,4.29s3.47,4.68,3.41,6.64-1.15,3.54-3.73,5.94l-.89-.8c2.45-2.3,3.31-3.84,3.38-5.31.08-1.81-1.06-3.59-3-5.72-2.13-2.33-4-3.75-5.66-3.82-1.3-.06-2.25.38-3.61,1.62-2.81,2.56-.92,6.47.91,11s3.78,8.52.27,11.73c-1.6,1.46-3.17,2.46-4.93,2.38-2.14-.09-4.18-1.38-7.07-4.54C625.17,288.52,624.05,286.23,624.15,284.2Z"/><path d="M653.05,317.18l-.84.75L641.7,306.18l20.59-18.44,10.38,11.6-.83.74-9.58-10.7-7.66,6.86,8.91,10-.83.74L653.76,297l-10.43,9.34Z"/><path d="M691.77,322.62l-6.91-7.83L665,332.34l-.79-.9,19.89-17.55-6.91-7.83.84-.74,14.61,16.55Z"/><path d="M710.79,344.41l-6.86-7.87-20,17.43-.79-.9,20-17.43-6.86-7.87.84-.74,14.52,16.64Z"/><path d="M698,367.42c.13-1.86,1.25-3.57,4-6l.88.83c-2.37,2.15-3.44,3.6-3.57,5.29-.14,1.86.74,3.8,3,6.46s4.44,4,6.08,4.16c1.41.11,2.83-.75,4.14-1.88,2.87-2.48,1.48-5.93-.27-10.65s-3.79-9-.25-12.1c1.79-1.54,3-2,4.47-1.85,2,.14,4.1,1.8,6.4,4.46s3.33,4.78,3.22,6.73-1.25,3.51-3.89,5.84l-.87-.83c2.51-2.22,3.42-3.74,3.53-5.21.13-1.81-1-3.62-2.84-5.8-2.06-2.39-3.86-3.85-5.55-4-1.3-.09-2.26.32-3.66,1.52-2.87,2.49-1.09,6.45.61,11.05s3.54,8.62-.06,11.74c-1.64,1.41-3.24,2.37-5,2.24-2.14-.16-4.14-1.5-6.94-4.73C698.91,371.77,697.86,369.45,698,367.42Z"/><text/><path d="M508.9,399.35l-3.68,28.23-2.86.33-9.78-20.55-5,22.22-2.82.32-9.87-26.69,3.42-.39L485.75,423l4.83-21.6,2.74-.31,9.46,19.9,2.78-21.29Z"/><path d="M532.09,424.54l-.84.09c-2.22.25-3.39-.1-4-1.44-1.08,1.53-2.94,2.47-5.69,2.78-4.17.47-6.42-1-6.83-4.54-.36-3.22.92-4.69,3.25-6.16a29.6,29.6,0,0,1,7.65-3.13v-.07c-.24-2.11-1.64-2.76-4.18-2.47-2.07.24-3.27.65-3.87,1.41a4.3,4.3,0,0,0-.56,2.44l-3.14,0a6.72,6.72,0,0,1,1.21-4.2c1.17-1.46,3-2.2,6.15-2.55,4.34-.49,7.1.84,7.55,4.82l1,8.94c.13,1.15.63,1.33,1.55,1.23l.2,0Zm-5.67-5.6-.47-4.17a25.69,25.69,0,0,0-6.28,2.84c-1.49,1.06-1.83,1.94-1.69,3.21.18,1.59,1.1,2.58,3.92,2.25C525.44,422.67,526.68,421.21,526.42,418.94Z"/><path d="M545.12,407l-.87.1c-3.66.41-4.77,1.95-4.45,4.81l1.31,11.56-3.26.37-2.1-18.52,3-.33.41,1.85c.95-1.48,2.69-2.52,5.47-2.88Z"/><path d="M559.51,405.41l-.88.1c-3.65.41-4.77,1.95-4.44,4.81l1.31,11.56-3.26.37-2.1-18.52,2.94-.33.41,1.84c1-1.47,2.69-2.51,5.47-2.87Z"/><path d="M580.86,413.33a6.12,6.12,0,0,1-1.14,4.24c-1.12,1.41-3.17,2.21-6.11,2.54s-4.8-.1-6.12-1.16c-2-1.51-2.6-3.69-3-7.5s-.2-6.06,1.25-7.83c1.16-1.46,3.2-2.3,5.86-2.6s4.54,0,5.92,1.06c1.77,1.41,2.46,3.67,3,8.36l-12.68,1.44c.37,2.53.88,3.88,1.9,4.69.84.67,1.91.83,3.7.63s3-.59,3.63-1.34a3.33,3.33,0,0,0,.6-2.48ZM568.4,405.4a5.28,5.28,0,0,0-.86,3.69l9.33-1.06c-.29-1.9-.64-2.83-1.48-3.5a4.53,4.53,0,0,0-3.49-.61C570.19,404.12,569.11,404.52,568.4,405.4Z"/><path d="M601.82,403.31l1.49,13.15-3.26.37-1.43-12.64c-.28-2.46-2.31-2.91-4.45-2.67-3.42.39-4.6,2.05-4.38,4l1.4,12.31-3.26.37-2.1-18.51,2.94-.34.36,1.77a7.9,7.9,0,0,1,5.61-2.73C598.68,398,601.37,399.37,601.82,403.31Z"/><path d="M448.25,616c.39,3.46,0,5.11-1.15,6.57-.94,1.23-2.67,1.95-5.18,2.24l-12.55,1.42-3.12-27.46,12.08-1.37c2.71-.31,4.38-.09,5.71,1,1.15.92,1.71,2.34,2,4.89s-.15,4.32-2.21,5.72C446.89,609.68,447.79,612,448.25,616Zm-17.42-6.72,8.58-1a3.93,3.93,0,0,0,2.77-1.12c.53-.63.74-1.62.55-3.29s-.56-2.51-1.18-3a4.15,4.15,0,0,0-3-.43l-8.62,1Zm14,6.74c-.29-2.54-.74-3.66-1.58-4.33s-1.75-.6-3.15-.44l-8.94,1,1.19,10.49,8.94-1c1.43-.16,2.41-.44,2.94-1.1C444.94,619.8,445.13,618.66,444.83,616Z"/><path d="M463.46,606.35l-.87.1c-3.66.42-4.77,1.95-4.45,4.81l1.31,11.57-3.26.37-2.1-18.52,2.94-.33.42,1.84c.95-1.48,2.69-2.52,5.46-2.87Z"/><path d="M468.33,600.61l-.47-4.13,3.26-.37.46,4.13Zm2.37,20.94L468.6,603l3.26-.36,2.1,18.51Z"/><path d="M481.7,618.82c-1-.78-1.54-1.92-2-4.37l3.19-.6c.3,1.61.54,2.31,1.07,2.74.71.56,1.86.71,3.88.48,2.19-.25,3.59-.69,4.08-1.31a2.33,2.33,0,0,0,.31-1.84c-.18-1.59-1.79-2-5.52-2.6s-7-1.14-7.39-4.79a4.55,4.55,0,0,1,.78-3.47c1.12-1.42,3.59-2,6-2.29,2.82-.32,4.77-.14,6,.88,1.06.81,1.6,2,2.11,4.39l-3.23.65c-.31-1.66-.58-2.27-1.06-2.66-.84-.67-2.05-.61-3.63-.43s-2.93.49-3.42,1.07a2,2,0,0,0-.32,1.49c.17,1.47,1.52,1.71,5.46,2.4s7,1.38,7.4,4.87a5,5,0,0,1-.76,4c-1,1.28-3.26,2.1-6.52,2.47C484.68,620.25,483,619.8,481.7,618.82Z"/><path d="M503.15,612.4,502,602.19l-3.46.39-.33-2.9,3.46-.4-.59-5.2,3.26-.37.59,5.21,4.73-.54.32,2.9-4.72.54,1.14,10c.23,2.11.77,2.61,3.28,2.32l1.55-.17.48,2.88-2.1.24C505,617.67,503.6,616.33,503.15,612.4Z"/><path d="M519,614.43c-1.77-1.41-2.58-3.62-3-7.43s-.16-6,1.28-7.83c1.17-1.47,3.25-2.3,6.07-2.62s5,0,6.45,1.16c1.82,1.48,2.58,3.57,3,7.38s.17,6.1-1.28,7.92c-1.16,1.45-3.2,2.29-6,2.61S520.42,615.55,519,614.43Zm9.78-3.29c.88-1.1,1-2.69.68-5.67s-.77-4.34-2-5.25c-.85-.71-2.11-.85-3.78-.66s-3,.62-3.65,1.54c-.92,1.11-1.07,2.62-.74,5.56s.87,4.49,2,5.37a5.34,5.34,0,0,0,3.85.61C526.87,612.45,528.07,612,528.78,611.14Z"/><path d="M540.57,613.63l-3.28-28.93,3.26-.37,3.28,28.93Z"/><path d="M87.56,292.22c.39,3.45,0,5.11-1.15,6.57-1,1.23-2.68,1.95-5.18,2.23l-12.56,1.43L65.56,275l12.08-1.37c2.7-.31,4.38-.1,5.7,1,1.16.92,1.72,2.34,2,4.89s-.16,4.32-2.21,5.72C86.2,285.89,87.1,288.16,87.56,292.22ZM70.13,285.5l8.59-1a3.85,3.85,0,0,0,2.77-1.12c.53-.62.74-1.61.55-3.28s-.57-2.51-1.19-3a4.06,4.06,0,0,0-3-.43l-8.62,1Zm14,6.74c-.29-2.54-.74-3.66-1.58-4.33s-1.76-.6-3.15-.45l-8.94,1L71.66,299l8.94-1c1.43-.16,2.41-.43,2.94-1.09C84.25,296,84.44,294.86,84.14,292.24Z"/><path d="M111.48,297.59l-.84.1c-2.22.25-3.39-.1-4-1.44-1.07,1.53-2.94,2.47-5.68,2.78-4.17.47-6.43-1-6.83-4.54-.37-3.22.92-4.69,3.24-6.17A29.32,29.32,0,0,1,105,285.2v-.08c-.24-2.1-1.64-2.75-4.18-2.46-2.07.23-3.27.65-3.87,1.4a4.31,4.31,0,0,0-.57,2.44l-3.13,0a6.74,6.74,0,0,1,1.21-4.2c1.16-1.46,3.05-2.19,6.15-2.55,4.33-.49,7.1.85,7.55,4.82l1,8.94c.13,1.16.63,1.34,1.54,1.24l.2,0ZM105.81,292l-.47-4.18a25.86,25.86,0,0,0-6.28,2.85c-1.49,1.05-1.83,1.94-1.69,3.21.18,1.59,1.1,2.57,3.92,2.25C104.83,295.73,106.07,294.26,105.81,292Z"/><path d="M124.51,280.1l-.88.1c-3.65.41-4.77,1.95-4.44,4.81l1.31,11.56-3.26.37-2.1-18.52,2.94-.33.41,1.84c1-1.47,2.69-2.52,5.47-2.87Z"/><path d="M138.9,278.47l-.88.09c-3.65.42-4.77,1.95-4.44,4.82l1.31,11.56-3.26.37-2.1-18.52,2.94-.33.41,1.84c1-1.48,2.69-2.52,5.47-2.87Z"/><path d="M143.76,272.72l-.47-4.13,3.26-.37.47,4.13Zm2.37,20.94L144,275.15l3.26-.37,2.1,18.51Z"/><path d="M170.91,277.53l1.49,13.15-3.26.37-1.43-12.63c-.28-2.47-2.3-2.92-4.45-2.68-3.41.39-4.59,2.05-4.37,4l1.39,12.32-3.26.37-2.1-18.52,3-.33.36,1.77a7.78,7.78,0,0,1,5.6-2.73C167.77,272.17,170.47,273.6,170.91,277.53Z"/><path d="M196,291.19c.47,4.13-2.83,5.91-8.47,6.55-5.92.67-8.9-.36-9.35-4.37a5.51,5.51,0,0,1,2.48-5.11,3.45,3.45,0,0,1-1.94-2.88,3.88,3.88,0,0,1,1.11-3.31,6.67,6.67,0,0,1-1.91-4.41c-.23-2.11,0-3.71,1-4.94s3.1-2.17,6.08-2.5a17.23,17.23,0,0,1,2.2-.13l1-2.93,3.26-.37-1.26,3.76a4.07,4.07,0,0,1,1.29.74,6.74,6.74,0,0,1,2.05,4.6c.23,2,0,3.62-1,4.86s-3.13,2.21-6.11,2.55a13.61,13.61,0,0,1-4.4-.11,1.64,1.64,0,0,0-.43,1.5c.13,1.15.57,1.46,5.46,1.63S195.51,286.78,196,291.19ZM181.07,277.3a4.13,4.13,0,0,0,1.17,2.81c.8.67,2.1.77,4,.56s3.08-.59,3.71-1.39a4.38,4.38,0,0,0,.54-3,4,4,0,0,0-1.2-2.76c-.75-.64-1.93-.75-3.88-.53s-3.15.6-3.78,1.44A3.82,3.82,0,0,0,181.07,277.3Zm11.8,14.28c-.23-2.1-2.35-2.31-6.54-2.39-1.06,0-2-.1-2.88-.2-1.72,1.24-2.29,2.59-2.15,3.79.25,2.22,2,2.71,5.93,2.26C191.52,294.55,193.12,293.73,192.87,291.58Z"/><path d="M202.44,281.81l-1.16-10.22-3.46.39-.33-2.9,3.46-.39-.59-5.2,3.26-.37.59,5.2,4.73-.53.32,2.9-4.72.53,1.14,10.06c.23,2.1.77,2.6,3.28,2.32l1.55-.17.49,2.88-2.11.24C204.24,287.07,202.88,285.74,202.44,281.81Z"/><path d="M218.29,283.83c-1.77-1.41-2.59-3.61-3-7.43s-.16-6,1.29-7.83c1.16-1.46,3.24-2.3,6.06-2.62s5,0,6.45,1.16c1.82,1.49,2.58,3.57,3,7.39s.17,6.1-1.28,7.91c-1.16,1.46-3.2,2.3-6,2.62S219.7,285,218.29,283.83Zm9.77-3.28c.88-1.11,1-2.69.68-5.67s-.77-4.34-2-5.25c-.85-.71-2.11-.85-3.78-.66s-2.95.61-3.65,1.54c-.92,1.11-1.07,2.62-.74,5.56s.87,4.49,2,5.37a5.39,5.39,0,0,0,3.85.61C226.15,281.85,227.35,281.44,228.06,280.55Z"/><path d="M253.62,268.15l1.49,13.16-3.26.37L250.42,269c-.28-2.47-2.3-2.92-4.45-2.68-3.42.39-4.6,2.05-4.37,4L243,282.68l-3.26.37-2.1-18.52,3-.33.36,1.77a7.78,7.78,0,0,1,5.6-2.73C250.48,262.79,253.17,264.22,253.62,268.15Z"/><path class="cls-3" d="M307.66,550.09h30.42c5.63,0,235.13-26.51,235.13-26.51l38.35,13.26L661.7,596v35.94s20.21,8.65,23.18,8.65,62.42-32.7,62.42-32.7l60.13-65.39"/><path class="cls-2" d="M145.54,98.18S135,96.55,129.6,88.46s-8.85-13.68-8.85-13.68l-4.93-2s15.78,30.37,18.33,33.56S145.54,98.18,145.54,98.18Z"/><path class="cls-5" d="M-300.18,466c.64,19.09-9,38.31-6.18,55.43,3.11,18.78,18.62,33.66,24.12,50.22,5.95,17.89,2.71,39.12,11.17,54.6,8.91,16.31,28.65,24.92,40,38.76,11.61,14.16,16.22,35.11,30,46.91s35.31,13.17,50.88,22.84c15.31,9.5,26,28.17,42.65,35.87,16.36,7.54,37.59,3.58,55,9.59,17.06,5.91,31.2,22.14,48.91,26.77,17.55,4.58,37.91-2.65,55.8.87S86.09,825.76,104,828.4c18.16,2.68,37.74-6.48,55.62-4.51,18.41,2,35.46,15.2,53.23,16.7,18.66,1.57,37.75-8.59,55.31-7.36,19,1.32,36.43,14,53.65,15.23,11,.78,22.71-9.69,33.14-8.52,10.94,1.22,20.09,14,30.46,15.61,10.89,1.63,23.36-8,33.67-6.08,10.85,2,19.19,15.36,29.43,17.48,10.82,2.24,23.72-6.75,33.91-4.52,10.83,2.38,18.87,16,29,18.16,10.87,2.34,23.65-6.78,33.85-4.88,11,2,19.79,15.15,30.07,16.41,11.06,1.36,22.5-9.3,32.88-9.2,11,.11,22.6,10.84,33,9.1,10.59-1.77,17.73-15.62,27.79-19.77,9.56-3.94,24.43,1,33.65-5.52,8.25-5.82,9-21.5,17-29.67,7-7.14,22.73-7.7,29.7-16.85,6.11-8,2.74-23.39,8.83-33.07,3.94-6.27,17.49-6.27,21.09-12.15,3.87-6.34-2.33-18.38,1.15-24.3,3.79-6.42,17.34-6.83,20.7-12.79,3.68-6.52-3-18.31.22-24.32,3.54-6.64,17-7.71,20-13.78,3.36-6.78-4-18.12-1.28-24.28,3.1-6.93,16.47-9.08,18.89-15.35,2.74-7.09-5.79-17.59-3.78-24,2.26-7.21,15.22-11,16.74-17.64,1.67-7.24-8.35-16.35-7.31-23.2,1.08-7.14,13.32-12.75,14-19.85s-10.25-15-9.68-22.34c.53-6.84,12.56-12.93,13.25-20.37.61-6.75-10.11-15-9.19-22.52.83-6.7,13.23-13.84,14.43-21.3-.69-5-2.5,6.92-5.64,12.39-1.42,2.46-13.07-.42-15,2.85-1.57,2.65,6.59,11.45,4.74,14.52-1.65,2.71-13.22-.46-15.07,2.51-1.7,2.74,6.25,11.72,4.4,14.62-1.76,2.75-13.24-.7-15.12,2.14s5.91,11.94,4,14.74-13.25-1.06-15.18,1.68,5.47,12.18,3.5,14.87S805,567.72,803,570.35s4.87,12.47,2.79,15-13.11-2.26-15.27.19,3.91,12.87,1.66,15.19c-2.43,2.5-12.81-3.48-15.18-1.36-2.65,2.37,1.92,13.47-.62,15.28-3.72,2.64-14.26-3.89-18.13-1-3.65,2.72-.56,14.79-4.46,17.65-3.67,2.69-14.15-4-18.13-1.21-3.74,2.58-1.29,14.79-5.38,17.37-3.84,2.43-13.77-5-18-2.65-4,2.24-2.68,14.61-7,16.78-4.07,2-13.18-6.43-17.62-4.5-4.17,1.81-4.19,14.25-8.72,15.95-4.26,1.6-12.47-7.74-17.07-6.26-4.34,1.39-5.56,13.76-10.23,15-4.4,1.19-11.73-8.85-16.44-7.78-4.44,1-6.7,13.23-11.45,14.12-4.48.84-11-9.74-15.79-9-4.52.68-7.63,12.72-12.41,13.29-4.55.53-10.4-10.44-15.19-10-9,.8-17.82,13-28,13.49-9.21.49-19.28-10.65-29.28-10.42-9.33.22-18.84,11.85-28.72,11.83-9.42,0-18.9-11.66-28.7-11.92-9.48-.25-19.55,10.9-29.28,10.41-9.52-.48-18.41-12.58-28.08-13.3s-20.17,9.9-29.76,8.92-17.81-13.53-27.33-14.78-20.8,8.73-30.24,7.17-17-14.64-26.3-16.54c-9.56-1.95-21.51,7.17-30.7,4.87-9.51-2.38-15.7-16-24.71-18.83-9.42-2.9-22.3,4.85-31,1.49-9.26-3.56-13.5-17.93-21.86-22-9-4.4-23.06.87-30.8-4.19-2.59-1.7,1.2-13-1.23-14.56-2.61-1.7-11.39,6.34-13.81,4.77-2.62-1.69,1.11-13-1.31-14.55-2.64-1.69-11.37,6.39-13.78,4.86-2.66-1.7,1-13-1.42-14.55-2.68-1.69-11.34,6.47-13.73,5-2.72-1.7.82-13.07-1.55-14.53-2.77-1.71-11.34,6.55-13.69,5.13-2.83-1.73.56-13.13-1.75-14.51-2.94-1.75-11.34,6.67-13.6,5.35-3-1.78.31-13.16-1.9-14.47-2.87-1.69-11.38,6.59-13.76,5s2.2-12.5-.53-14.61c-2-1.57-11.48,5.62-14.18,3.4-2-1.67,3-12.44.42-14.61-3.29-2.75-15,.63-17.65-4.13-2.18-3.87,6.28-13.12,4.48-18.06C35,519.19,22.59,518,21.29,513c-1.19-4.5,8.94-11.84,8-16.77-.93-4.63-13.11-7.4-13.88-12.31-.73-4.71,10-11.11,9.42-16s-12.55-8.37-13-13.23,10.62-10.62,10.28-15.46-12.14-9-12.39-13.82,11.06-10.25,10.9-15c-.16-5-11.79-9.54-11.87-14.27-.07-5,11.41-10,11.42-14.63,0-5.12-11.44-10.13-11.35-14.69.12-5.32,11.8-9.81,12-14.14.29-6-10.83-11.83-10.44-15.41.44-4,11.58-8.8,10.9-14-.55-4.23-12.74-7.1-13.6-12-.75-4.34,9.82-10.75,9.12-15.56-.65-4.44-12.66-7.76-13-12.55-.36-4.5,11-9.53,11-14.3.06-4.52-11.13-9.95-10.54-14.68.57-4.48,12.7-6.91,13.88-11.55,1.1-4.36-8.43-12.31-6.67-16.77,1.64-4.17,14-3.52,16.31-7.76,2.13-3.92-5.23-13.91-2.47-17.88,2.55-3.66,14.49-.3,17.63-4,2.89-3.39-2.39-14.62,1-18,3.17-3.14,14.38,2.19,18.06-1,3.39-2.9-.21-14.78,3.64-17.69,3.58-2.7,14.05,4,18,1.29,3.66-2.47.56-14.35,3.9-16.78,3.58-2.6,13.94,4,17.17,1.44,3.49-2.75-.59-14.34,2.5-17,3.36-2.93,14.31,2.62,17.23-.25,3.19-3.13-2.24-14.15.45-17.2,3-3.38,14.62.51,17-2.76,2.67-3.65-4.67-13.48-2.67-17,2.24-3.94,14.45-2.84,15.91-6.59,1.65-4.21-8.18-11.51-7.4-15.48.86-4.39,12.63-7.62,12.57-11.71-.07-4.41-12-7.22-13-11.26-1-4.24,8.37-12,6.59-15.84S140,28.51,137.6,25.07s3.65-14.14.78-17.16c-3-3.22-14.06,2.29-17.21-.3-4-3.26-18.43-11.78-42.95-5.15C65.55,5.88,54.32,21.62,38.07,27.84c-13.26,5.07-32,.5-46.86,7.49C-22,41.57-30.51,58.81-44.5,66.62c-13,7.24-32.15,5.32-45.37,13.95-12.58,8.21-18.54,26.46-31,36-12,9.18-31.24,10.09-42.82,20.5-11.3,10.14-14.25,29.1-24.83,40.43-10.39,11.13-29.14,15.39-38.56,27.69-9.26,12.07-8.51,31.22-16.59,44.45-7.92,13-25.35,21.06-31.88,35.15-6.38,13.74-1.34,32.22-6.17,47.05-4.67,14.33-19.7,26.28-22.73,41.64-2.9,14.73,6.39,31.49,5.19,47.18-1.15,14.9-13,30-12.46,45.78"/><path class="cls-2" d="M378.06,178.51s1.32-9.33,4.84-16.38,13.65-27.3,15-40.51.48-15.92,0-28c-.38-9.59,9.21-16.73,9.21-16.73s7.07-3.35,1.34,3.31-4.82,23.27-5.26,34.09-.88,17.87-3.52,26.67-6.93,22.51-7.43,27.55,2.25,20.82,2.25,20.82Z"/><path class="cls-6" d="M803.22,538.58s-1.35-1.61-3.87-4.58"/><path class="cls-7" d="M787.6,520.13C736,459.36,572.24,268.24,537.85,248.53c-36-20.66-312.47-130.65-378.28-156.74"/><path class="cls-6" d="M151.12,88.44l-5.58-2.21"/></svg>