<svg id="Bottom_matter" data-name="Bottom matter" xmlns="http://www.w3.org/2000/svg" viewBox="0 0 846.16 705.91"><defs><style>.cls-1{fill:#2d8000;}.cls-2{fill:#8fe6ff;}.cls-10,.cls-11,.cls-3{fill:none;stroke:#000;stroke-miterlimit:10;}.cls-3{stroke-linecap:round;stroke-width:2px;stroke-dasharray:2 6;}.cls-4{fill:#7ec60c;}.cls-13,.cls-5,.cls-6{font-size:40px;}.cls-5{font-family:Magmatic-Thin, Magmatic;font-weight:200;}.cls-13,.cls-6{font-family:Magmatic-Light, Magmatic;font-weight:300;}.cls-14,.cls-6{letter-spacing:0.07em;}.cls-7{letter-spacing:0.08em;}.cls-8{letter-spacing:0.07em;}.cls-9{fill:#fff;}.cls-10,.cls-11{stroke-width:3px;}.cls-11{stroke-dasharray:12.12 18.19;}.cls-12{letter-spacing:0.07em;}.cls-13{letter-spacing:0.02em;}.cls-15{letter-spacing:0.07em;}</style></defs><title>Artboard 1</title><path class="cls-1" d="M150.45,71.91c-4.56-4.58,13.9,1.65,21.76,0,3.62-.76,3.91-21.24,8.68-22.18C184.82,49,192.83,67.79,197.34,67c4.06-.75,4.8-21.21,9.19-22,4.15-.72,11.68,18.31,16,17.62s5.55-21.08,9.84-21.68,11.13,18.67,15.37,18.17,6.61-20.85,10.81-21.22c4.44-.4,10.11,19.25,14.24,19,4.57-.21,8.64-20.28,12.66-20.19,4.79.1,7.28,20.29,11,20.91,4.45.74,12.75-18.35,19.19-17.65,5,.55,8.64,21,14.58,21.5,5.26.46,12.42-19,18.17-18.6,5.38.41,9.51,20.75,15.16,21.12,5.46.37,12.29-19.24,17.86-18.9s9.91,20.63,15.41,20.94S409.1,46.72,414.53,47c5.7.3,10.23,20.56,15.57,20.82,5.84.29,12.37-19.41,17.56-19.17,6.13.29,10.8,20.53,15.68,20.75,7.4.33,14.07-19.39,17.52-19.23,4.52.21,14.85,18.39,27.81,16.55,7.78-1.11,14.62-22.14,24.7-23,8.38-.69,18.28,18.82,27.89,18.82,8.63,0,18.64-19.59,28-18.69,8.7.82,14.72,21.86,23.86,23.73,8.6,1.75,22.47-15.28,31.31-12.38,8.35,2.73,9.41,24.59,17.83,28.53,8,3.72,25.45-9.51,33.34-4.56,7.42,4.64,3.2,26.13,10.47,32,6.79,5.48,26.88-3.31,33.48,3.34,6.14,6.19-2.7,26.24,3.2,33.53,7.24,9,30.16,6.91,36.18,16.77s-6.2,29.44-1.32,39.93,27.67,13.59,31.52,24.47-11.88,27.83-8.94,38.94,25,18.07,27.14,29.3c2.19,11.48-15.77,26-14.34,37.29,1.49,11.71,22.5,21.26,23.29,32.45.84,11.95-18.66,24.39-18.48,35.42.21,12.28,20.05,24.1,19.63,34.8-.5,13-21.32,23.12-22.4,33-1.9,17.4,14.53,34.86,12.39,39.29-1.34,2.77-20.15-4.52-21.72-2.13-1.69,2.55,12.33,17,10.42,19.18s-18-10-20.24-8.17,6.93,19.84,4.45,21.37-14.55-14.67-17.21-13.47,1.75,20.91-1,21.82S771,530.83,768.17,531.49s-2,20.85-4.85,21.31c-3,.49-8.67-18.94-11.5-18.62-3.11.35-4,20.51-6.8,20.77-3.25.3-8.43-19.31-11-19-3.84.5-19.91,9.78-35.13-3.93-7.86-7.07-3.28-30.26-13.25-39.94-8.22-8-31.08-2.44-40.35-11.68-8.38-8.36-3-31.27-11.93-40.31-8.5-8.57-31.42-3.29-40.22-12.18-8.62-8.71-3.14-31.59-11.84-40.33s-31.65-3.43-40.28-12c-9-8.89-3.77-31.85-12.34-40.19-9.26-9-32-3.09-40.54-11.05-9.8-9.16-5.66-32.4-14.06-39.65-11.39-9.83-33.24-1.66-41.09-6.71-7.5-4.83-4.81-27.45-14.46-34.69-7.8-5.85-28.41,3.47-37.27-3.53-7.92-6.26-3.72-28.53-12.26-35.43-8-6.47-28.84,2.37-37.2-4.43-8.11-6.6-3.72-28.82-12-35.52s-29,2.26-37.23-4.3c-8.37-6.69-4.3-29-12.48-35.35-8.59-6.68-29.14,2.78-37.32-3.32-8.92-6.64-5.9-29.12-14.08-34.76-9.55-6.57-29.2,4.53-37.37-.2C170,79.92,158.15,73.78,150.45,71.91Z"/><path class="cls-2" d="M136.26,55.23S114.93,94.06,120.87,104,76,302.79,85.87,329.87-60.78,249.64-65.4,280.69-89.6,394.18-39.31,470.93c32.7,49.9,111,165.75,153.58,184.58,37.2,16.43,245.59,136.81,301.08,125.58s228.07-49.7,296.77-50.36S853.42,564.37,838.89,547.2c-16.53-19.54-22.42-31.35-54.16-58.13-73.17-61.73-235.82-262.9-235.82-262.9L403,159.88Z"/><path class="cls-3" d="M400,159.88S390.38,179,386.42,218.6s2.41,60.65-2.87,69.3-29.79,25-16.07,59.29c12,30,11.87,77-11.18,108.82s-75.57,150.93-75.57,150.93L-2,431.3S-44.49,346.2-55.94,309c-.6-1.93-4.9-23.3-5.47-26.22,0,0,34.07-59.3,75.18-101.67S156.54,61.23,156.54,61.23"/><path class="cls-1" d="M354.05,366.21s-28.41,1.32-33.69-4-7.93-17.83-12.55-25.1-1-13.52-7.1-18.65c-4.87-4.09-94.28-3-130.18-2.61l38.86-33.34-43.33-33.46s-23.17-10.93-28.67-37.44c-1.28-6.17-4.17-22.29-2.2-29.07,2.71-9.33,10.77-9.09,10-14.53-1-6.52-9.52-13.65-9.52-13.65s9.52-8.81,2.64-26.13c-17.9-45-6.43-47.87-6.43-47.87l30.61-22.56c1,.32-41.3-15.42-48.84-19.92C107.47,34.25,93.79,14.13,85.2,49.8S56.46,61,20.14,109.91s-64.38,74.26-84.22,113c-7.16,14-26.56,36.67-10.87,47.56,21.8,15.12,50.5,63.41,50.5,63.41S1.31,343.09,2,348.37c.33,2.64-6,17.67-2.49,32s17,28.07,17,28.07,94.76-5,132.32-1.29l.45,5.25s46,11.23,61.33,12.55,160.61-35,160.61-35Zm-175.27-16.3c-9.25,8.21-7.89,16.74-19.12,15.41s-14.51-3.52-14.51-3.52-20.52,9.86-23.16-6,8.79-6.78,8.13-9.42.66-12.55-10.57-11.89-26-7.66-14.53-13.21c3.45-1.68,16.8,7.1,49.85-2.33l-2.29,1,3.32-4c6.42,1.11,13.79,6,13.8,6-8.36.09-13-5.91-13.79-6,1.67.66,22.66,16,29,19.85C191.55,339.78,188,341.71,178.78,349.91Z"/><path class="cls-1" d="M333.24,656.85l15.84-114.07V493.69s33-4.62,36.32-13.21,7.28-20.48,6-33.69-7.93-21.8-11.89-27.08-2.64-8.25,4-10.73-.66-15-.66-22.3S376.34,367,376.34,367L463,369.49l72.4,64.09,11.39,1.79s16.35,14.06,17,22.65-3.3,15.35,7.27,26.5,67.05,79.85,70.36,85.13c1.33,2.14,36.4,4.49,19.81,20.81-9.89,9.74-4.38,34,4.45,49.54C706.78,712.33,555,715.27,542.3,716.3,432.36,725.21,342.16,688.55,333.24,656.85Z"/><path class="cls-4" d="M159.66,59.88,126.82,84.15s9.25,13.43,11.45,27.52c.5,3.22,7.35-3.46,8.67-12s1.66-8.27-1.79-15.7c-4.93-10.64-5.53-20.22,13.38-9.69,3.36,1.88.66,7.93.66,21.14s-1.32,16.51,4,22.46,6.6,13.87,18.49,13.21,25.11-7.93,35.67-10.57S253,104,253,104l7.27-.66s-51.86,25.1-59.79,34.35-16.83,14.53-22.12,20.47-3.3,13.21,3.3,10.57,10.57-7.27,23.12-18.49,18.43-27.28,18.43-27.28,25.17,6.14,33.76,12.74,17.17,8.59,11.89,23.78S251,195.12,231.19,183.89s-13.88,5.14-17.84,3.23-7.62-5.87-14.71-4.55S167.77,207,163.81,213s-1.32,15.85,7.27,20.47,58.78,42.94,68,45.58,21.14-4,21.14-4,49.54,23.78,58.13,42.27,14.53,35,21.14,37.66,32.36,10.56,23.78-10.57-10.57-37.65-10.57-37.65,21.8-19.16,15.19-47.56-12.55-29.07-4.62-40.3,25.76-65.39,25.76-65.39l14.53,5.28S416.8,248,420.1,279s16.52,58.79,22.46,62.09,23.78,10.57,23.78,10.57-46.24,16.52-66-9.24-17.89-43.57-29.73-27.09,9.25,56.81,9.25,56.81h42.27s2,19.82,9.25,23.78,4,10.57,4,10.57h60.11l4.62,35,51.52-3.31s-15.19-9.9-16.51-21.13-3.3-15.2,2-22.46-15.19-34.35-11.23-49.54,9.25-23.78,22.46-28.41,17.17,0,17.17,0a63.63,63.63,0,0,0-14.53,10.57c-6.6,6.61-19.15,23.12-15.85,35s19.15,14.53,19.15,14.53-11.22,27.09-7.92,35S568.07,425,572.69,423s13.87,7.27,18.5,18.5,7.26,27.08,16.51,23.78,22.46-5.72,33.69.44,27.08,15.41,30.38,14.09,6.61,5.28,6.61,5.28,21.8,42.94,16.51,47.56S685,543.89,687,546.54s6.61,6.6,15.86,7.92S716,561.07,716,561.07s-13.87,4.62-20.48,0-21.8-4-25.1-2S686.3,567.67,687,573s-18.49,20.47-3.3,21.8,55.49-12.56,64.08-17.84,17.83-23.12,32.36-31,33-21.13,23.12-40.29-248.36-282-248.36-282Z"/><path class="cls-4" d="M179.69,259.6,163.15,246l-2.64,11.22S190.89,277,189.57,283s7.27,15.19-9.25,13.87S157.2,316.66,152.58,320s152.62,9.84,152.62,9.84-2.67-23.71-18.53-27-34.35-3.3-54.82-9.25S179.69,259.6,179.69,259.6Z"/><path class="cls-4" d="M276.76,393.29l-86.53,7.92,3.3,21.82s54.83,7.25,54.83,28.39-28.4,33-11.23,56.8,23.78,45.58,39.63,28.41,23.12-27.09,14.54-51.53-2.65-28.4-2.65-28.4,21.2-14.53,12.58-33c0,0,17.81,11.89,17.81,20.48s-6,16.51,0,20.48,12.55,12.75,19.82,3.4,0-37.75,0-37.75l14.53-2.64L371.22,390l-62.75-3.3-4,8.59S298.38,391.31,276.76,393.29Z"/><path class="cls-4" d="M169.09,142.28s-11.49-2.17-16.61,2.64-4,15.85,8.31,11.23S169.09,142.28,169.09,142.28Z"/><path class="cls-4" d="M156.54,129.73s-6.58-3.3-6.92,0S154.56,137,156.54,129.73Z"/><path class="cls-4" d="M145.15,189.18l-6.88-4.41v15S145.87,195.34,145.15,189.18Z"/><path class="cls-4" d="M169.7,168.7s-7.87,3.3-7.21,6S167.67,176,169.7,168.7Z"/><text class="cls-5" transform="translate(430.94 135.89) rotate(22.64)">M</text><text class="cls-5" transform="translate(464.65 149.96) rotate(22.86)">A</text><text class="cls-5" transform="translate(490.58 160.9) rotate(23.16)">S</text><text class="cls-5" transform="translate(516.66 172.06) rotate(23.69)">S</text><text class="cls-5" transform="matrix(0.91, 0.43, -0.43, 0.91, 542.48, 183.38)">A</text><text class="cls-5" transform="translate(566.23 194.02) rotate(39.91)">C</text><text class="cls-5" transform="matrix(0.71, 0.71, -0.71, 0.71, 588.79, 213.59)">H</text><text class="cls-5" transform="translate(610.54 235.52) rotate(46.7)">U</text><text class="cls-5" transform="translate(631.31 257.66) rotate(47.59)">S</text><text class="cls-5" transform="translate(650.56 278.8) rotate(48.16)">E</text><text class="cls-5" transform="translate(667.9 298.19) rotate(48.57)">T</text><text class="cls-5" transform="matrix(0.66, 0.75, -0.75, 0.66, 686.92, 319.78)">T</text><text class="cls-5" transform="matrix(0.65, 0.76, -0.76, 0.65, 705.21, 340.78)">S</text><text/><text class="cls-6" transform="translate(76.89 277.76) rotate(-6.47)">Barrin<tspan class="cls-7" x="112.32" y="0">g</tspan><tspan class="cls-8" x="134.12" y="0">t</tspan><tspan x="150.04" y="0">on</tspan></text><path class="cls-3" d="M318.66,525.09h30.42c5.63,0,235.13-26.51,235.13-26.51l38.35,13.26L672.7,571v35.94s20.21,8.65,23.18,8.65,62.42-32.7,62.42-32.7l60.13-65.39"/><path class="cls-2" d="M156.54,73.18S146,71.55,140.6,63.46s-8.85-13.68-8.85-13.68l-4.93-2s15.78,30.37,18.33,33.56S156.54,73.18,156.54,73.18Z"/><path class="cls-9" d="M-284.95,440.86c.9,26.5-15.77,53.54-10.73,76.3,5.68,25.62,32.59,42.46,42.86,63.75C-241.68,604-244.66,635.46-229,654c16.14,19,48,21.21,68,36,19.76,14.56,30.87,44.23,53.49,55.22,22,10.7,52.65,1.35,76.53,9.2,23.37,7.68,42.13,33.38,66.49,38.83s52.43-9.79,76.86-6.1c24.85,3.76,47.1,26.58,71.36,29.06,25.42,2.59,52-15.31,75.91-13.55,26.18,1.92,49.7,23.46,72.82,25.1,15.09,1.07,31.61-17.34,45.69-15.57,15,1.9,26.52,23.9,40.48,26.33,14.95,2.6,33.07-14.22,46.91-11.34,14.91,3.11,25,25.84,38.75,28.86,15,3.3,33.32-13.17,47.06-10.51C566.54,848.4,578,870.55,591.86,872c15.27,1.62,30.12-17.78,44.14-18.88,14.8-1.16,33.39,15.18,47.14,9.85,13-5,15.75-29.34,28.1-39.08,10.52-8.3,34.76-4.25,45-16.63,8.57-10.32.91-33.86,9.42-47.4,5.77-9.18,28.22-7.56,33.25-16,5.58-9.37-6.64-28.27-1.9-36.84,5.3-9.61,27.8-9.43,32.16-18.13,4.94-9.88-8.82-27.67-5-36.54,4.42-10.18,26.78-12.44,30-21.53,3.69-10.46-12.47-26.09-10.06-35.47,2.72-10.59,24.29-16.57,25.84-26.3,1.67-10.49-17-23.1-16.13-33.24S875.39,517,876.15,506.5c.72-9.9-18.41-21.86-17.28-32.65,1-9.7,22.18-20,23.92-30.81-.84-7.57-3.28,10.69-7.37,19.23-1.88,3.94-22.11-.2-24.66,4.93-2.1,4.23,13.42,17.84,10.94,22.64-2.24,4.33-22.3-.48-24.8,4.14-2.36,4.38,12.7,18.51,10.16,23s-22.34-1.22-24.95,3.16,11.74,19.23,9,23.48-22.25-2.46-25.08,1.62c-3,4.33,10.07,20.32,7.06,24.16-3.32,4.24-21.77-4.9-25-1.45-3.87,4.08,5.38,22.55,1.7,25.16-5.11,3.63-22.8-7.56-28.31-2.64-4.79,4.29,3.66,23.77-1.65,28.67-4.8,4.43-23.19-5.86-28.57-1.2-5,4.33,2.43,24.16-3.17,28.48-5.24,4.05-22.39-8.22-28.27-4.35-5.54,3.65-1.13,24.32-7.32,27.68-5.82,3.15-20.67-11.83-27.14-9-6.08,2.61-5.43,23.73-12.14,25.91-6.29,2-18.2-15.37-25.08-13.79-6.44,1.49-9.46,22.4-16.46,23.42-6.53,1-15.46-18.19-22.52-17.69-12.59.88-23.5,21.65-35.37,22.37-12.63.77-25.93-18.52-37.79-18-12.66.59-24.16,21-36,21.35-12.69.33-25.15-19.51-37-19.57-12.7-.06-25.47,19.63-37.27,19.06-12.69-.62-23.3-21.48-35.07-22.78-12.58-1.38-27.67,16.58-39.34,14.32C319,693,312,670.66,300.5,667.16c-11.86-3.61-30.26,10.87-41.4,6s-12.78-28.27-23.4-34.65c-10.28-6.18-31.61,3.42-41.57-4.25-4.71-3.63,2.73-23.07-1.76-26.39-4.79-3.54-21.18,9.29-25.74,6.07-4.87-3.45,1.77-23.17-2.85-26.29-4.95-3.35-20.79,10.15-25.46,7.13-5-3.25.8-23.22-3.91-26.14-5.1-3.17-20.44,10.92-25.19,8.07-5.16-3.09.1-23.21-4.67-26-5.18-3-20.32,11.26-25.08,8.43C74.32,556,79.82,536,75.11,533c-5-3.16-20.9,10.36-25.48,7.15-4.82-3.38,2.75-22.7-1.61-26.34s-23.5,2.42-26.35-4.46c-2.24-5.4,15-17.57,13.49-24.48-1.26-6-22-9.17-22.76-15.94-.71-6.21,18.69-14.37,18.32-21-.34-6.34-20.53-12.16-20.61-18.72s19.94-12.88,20.06-19.35-19.65-13.65-19.37-20c.29-6.62,20.63-12,21-18.29.44-6.78-19-14.75-18.51-20.83.58-7.07,21.11-11.77,21.68-17.52.8-8.15-18.36-16.85-17.86-21.37.58-5.28,19.7-12.12,18.55-19.37-.91-5.72-21.85-8.86-22.92-15.6-.94-5.94,18.06-14.54,17.58-21.14-.44-6.09-20.52-12.33-20.12-18.88.38-6.09,21-9.51,22.42-15.93,1.35-5.91-15.71-18-13.14-24.17,2.33-5.54,22.91-2,26.46-7.65C49.15,184,36.71,167.15,41,162c3.85-4.59,22.72,4.48,27.58-.13,4.35-4.13-3.94-23.38,1.3-27.51,4.73-3.73,21.63,8.68,27.14,5,5.06-3.4-1.78-23.07,2.67-26.4,4.91-3.67,21.92,8.34,26.13,4.76,4.71-4-4.53-22.64-.64-26.51,4.41-4.39,23.12,4.72,26.56.5,4-4.87-9-21.08-6.25-25.71,3.25-5.41,23.72-2.15,25.53-7.22C173.15,52.84,155,43,155.42,37.56c.5-6.12,19.79-13.21,18.6-18.67-1.27-5.84-22-4.48-24.66-9.51-2.78-5.25,10.25-21.24,6.55-25.56-3.95-4.61-22.18,5.56-26.43,2.07-4.8-3.93-24.6-18.22-57.85-7.67-17.2,5.46-30,31.61-51.48,41.22-17.81,8-45.71-.44-65,10.5-17.51,9.9-24.71,37.94-42.45,50.37C-104.07,92-133,89.18-149.12,103.23c-15.55,13.54-16.61,42.42-30.83,58.18-13.86,15.36-42.61,19.46-54.53,37-11.62,17.08-4.87,45.13-14,64.31-8.84,18.54-35,31-41,51.54-5.67,19.57,9.62,44,7.06,65.46-2.4,20.07-23.25,40.12-22.52,61.85"/><path class="cls-2" d="M389.06,153.51s1.32-9.33,4.84-16.38,13.65-27.3,15-40.51.48-15.92,0-28c-.38-9.59,9.21-16.73,9.21-16.73s7.07-3.35,1.34,3.31-4.82,23.27-5.26,34.09-.88,17.87-3.52,26.67-6.93,22.51-7.43,27.55,2.25,20.82,2.25,20.82Z"/><path class="cls-10" d="M814.22,513.58s-1.35-1.61-3.87-4.58"/><path class="cls-11" d="M798.6,495.13C747,434.36,583.24,243.24,548.85,223.53c-36-20.66-312.47-130.65-378.28-156.74"/><path class="cls-10" d="M162.12,63.44l-5.58-2.21"/><text class="cls-6" transform="translate(436.91 597.1)">Bri<tspan class="cls-12" x="53.08" y="0">s</tspan><tspan class="cls-8" x="73.76" y="0">t</tspan><tspan x="89.68" y="0">ol</tspan></text><text class="cls-13" transform="translate(489.01 366.35)">W<tspan class="cls-14" x="37.2" y="0">ar</tspan><tspan class="cls-15" x="73.56" y="0">r</tspan><tspan class="cls-14" x="87.84" y="0">en</tspan></text></svg>