<svg id="Bottom_matter" data-name="Bottom matter" xmlns="http://www.w3.org/2000/svg" viewBox="0 0 720 665.58"><defs><style>.cls-1{fill:#2d8000;}.cls-2{fill:#8fe6ff;}.cls-3,.cls-6,.cls-7{fill:none;stroke:#000;stroke-miterlimit:10;}.cls-3{stroke-linecap:round;stroke-width:2px;stroke-dasharray:2 6;}.cls-4{fill:#7ec60c;}.cls-5{fill:#fff;}.cls-6,.cls-7{stroke-width:3px;}.cls-7{stroke-dasharray:11.92 17.87;}</style></defs><title>Artboard 1</title><path class="cls-1" d="M120,47.5c-4-4,13.34,1.78,20.26.33,3.18-.67,3-21,7.15-21.86,3.46-.69,11,18.24,14.93,17.5,3.57-.66,3.8-21,7.67-21.69,3.65-.63,10.66,18.48,14.47,17.88s4.54-20.93,8.31-21.45S202.86,37,206.59,36.58s5.57-20.74,9.27-21.07c3.9-.34,9.06,19.34,12.7,19.17,4-.19,7.57-20.25,11.1-20.17,4.22.08,6.19,20.24,9.47,20.79,3.9.64,11.26-18.64,16.87-18.17,4.42.37,7.92,20.64,13.11,20.92,4.6.24,10.35-19.53,15.38-19.35,4.7.17,8.95,20.3,13.89,20.42,4.78.12,10.05-19.77,14.92-19.69s9.41,20.15,14.22,20.2,10-19.89,14.71-19.86c5,0,9.71,20.07,14.37,20.1,5.11,0,10.08-19.95,14.62-19.93C386.57,20,391.32,40,395.58,40c6.46.06,12-19.84,15.06-19.7,4,.19,12.5,18.91,23.29,17.78,6.59-.69,12.89-21.28,21.41-21.56,7.07-.23,14.46,19.77,22.57,20.25,7.23.42,17-18.65,24.89-17.37,7.22,1.18,10.4,22.28,18,24.39,7.08,2,20.73-14.51,28-11.56C555.68,35,554,56.31,561,60.07c6.46,3.52,23.44-9.49,29.91-5,6,4.2-.19,24.64,5.79,29.79,5.57,4.79,24.83-4.49,30.31,1.21,5.08,5.3-4.86,24.22.11,30.36,6.35,7.84,28.45,4.55,33.8,13.16s-7.32,27.09-2.9,36.22,26.72,10.53,30.3,20-12.2,25.44-9.38,35.11,24.71,14.66,26.87,24.44c2.21,10-15.56,23.72-14,33.54,1.63,10.23,22.75,17.7,23.77,27.48,1.08,10.46-18.1,22.12-17.61,31.78.55,10.77,20.74,20.49,20.7,29.88-.06,11.38-20.46,20.79-21.13,29.49-1.19,15.31,15.87,31,14,34.93-1.1,2.29-19.77-5.2-21-3.22-1.33,2.16,13.54,15.69,12.07,17.51-1.58,2-17.91-9.77-19.62-8.15s9,18.66,7.07,20-14.59-14.26-16.7-13.15,3.81,20.34,1.57,21.19-10.76-17.4-13.08-16.78S661.35,470.55,659,471s-7.87-19-10.21-18.69c-2.52.31-2.77,20.43-5.08,20.65-2.6.26-7.3-19.38-9.51-19.09-3.38.44-18.17,10.69-31.56-1.37-6.92-6.23-1.25-28.39-10-36.91-7.24-7-29-.43-37.19-8.56-7.38-7.36-.91-29.21-8.81-37.17-7.48-7.54-29.35-1.21-37.09-9-7.59-7.66-1.06-29.49-8.72-37.18s-29.55-1.32-37.14-8.86c-7.88-7.83-1.63-29.74-9.18-37.08-8.14-7.91-29.83-1-37.33-8-8.62-8.06-3.37-30.29-10.77-36.68-10-8.65-30.68.46-37.59-4-6.6-4.26-2.86-26.13-11.35-32.5-6.87-5.15-26.47,5-34.27-1.2-7-5.51-1.77-27-9.28-33.05-7-5.7-26.89,3.95-34.25-2-7.13-5.8-1.76-27.22-9-33.11s-27,3.85-34.27-1.92-2.29-27.38-9.5-33c-7.55-5.88-27.09,4.35-34.29-1-7.85-5.84-3.79-27.58-11-32.54-8.4-5.78-27,6-34.16,1.85C137.44,54.74,126.75,49.14,120,47.5Z"/><path class="cls-2" d="M108.34,32S89.57,66.14,94.8,74.86s-39.52,175-30.8,198.8-129-70.6-133.12-43.28-21.29,99.87,23,167.41c28.78,43.91,8.67,263,46.16,279.53,32.73,14.46,305.11,3.29,353.94-6.59S554.64,627,615.1,626.41,739.45,480,726.66,464.9c-14.55-17.19-19.73-27.58-47.67-51.15C614.6,359.43,471.47,182.4,471.47,182.4L343,124.06Z"/><path class="cls-3" d="M340.39,124.06s-8.42,16.8-11.91,51.68,2.13,53.37-2.52,61-26.22,22-14.14,52.17c10.54,26.39,10.44,67.81-9.84,95.77s-66.51,132.81-66.51,132.81L-13.32,362.91S-50.72,288-60.8,255.25c-.52-1.7-4.3-20.5-4.81-23.07,0,0,30-52.18,66.16-89.47S126.19,37.26,126.19,37.26"/><path class="cls-1" d="M300,305.63s-25,1.16-29.65-3.49-7-15.69-11-22.09-.88-11.89-6.25-16.41c-4.29-3.6-83-2.64-114.56-2.3L172.7,232l-38.14-29.45s-20.38-9.62-25.23-32.95c-1.12-5.42-3.66-19.61-1.93-25.58,2.38-8.21,9.48-8,8.77-12.79-.85-5.73-8.38-12-8.38-12s8.38-7.75,2.32-23c-15.75-39.63-5.66-42.12-5.66-42.12l26.94-19.86c.85.28-36.34-13.57-43-17.53C83,13.51,71-4.19,63.41,27.19S38.12,37.06,6.16,80.09-50.49,145.44-68,179.49c-6.3,12.29-23.37,32.28-9.56,41.85,19.18,13.31,44.44,55.81,44.44,55.81s22.67,8.13,23.25,12.78c.29,2.33-5.31,15.55-2.19,28.2s15,24.7,15,24.7,83.39-4.36,116.45-1.13l.39,4.62s40.51,9.88,54,11,141.34-30.8,141.34-30.8ZM145.76,291.29c-8.14,7.22-6.94,14.73-16.82,13.56s-12.77-3.1-12.77-3.1-18.06,8.68-20.39-5.27,7.74-6,7.16-8.29.58-11-9.3-10.46S70.8,271,80.85,266.1c3-1.47,14.79,6.25,43.87-2l-2,.88,2.92-3.52c5.65,1,12.14,5.25,12.15,5.25-7.36.08-11.43-5.2-12.14-5.25,1.47.59,19.94,14.1,25.56,17.47C157,282.38,153.9,284.07,145.76,291.29Z"/><path class="cls-1" d="M281.69,561.39,295.63,461V417.82s29.05-4.07,31.95-11.63,6.41-18,5.25-29.64-7-19.19-10.46-23.84-2.33-7.25,3.49-9.44-.59-13.23-.59-19.62-5.65-17.3-5.65-17.3l76.22,2.17,63.71,56.4,10,1.57s14.39,12.38,15,19.94-2.91,13.51,6.39,23.32,59,70.26,61.91,74.91c1.18,1.88,32,3.95,17.44,18.32-8.7,8.56-3.85,29.93,3.92,43.59,6,10.59,38.68,96.4,36.65,103.88-7,25.75-126.72,40.45-161.24,44.48-126.43,14.76-233.34-1-230.78-36.16,2.4-33.12-3.57-48.6,6.86-52.6,6.74-2.58,23,4.77,28.28-3.75C263.5,587,272.62,581.87,281.69,561.39Z"/><path class="cls-4" d="M123,34.43l-23,23s8.14,11.82,10.08,24.22c.44,2.83,6.47-3,7.63-10.6s1.46-7.27-1.57-13.81c-4.35-9.37-4.87-17.8,11.77-8.53,3,1.65.58,7,.58,18.6S127.35,81.84,132,87.07s5.81,12.2,16.27,11.62,22.09-7,31.39-9.3,31.39-14.53,31.39-14.53l6.39-.58s-45.63,22.09-52.61,30.23-14.81,12.78-19.47,18-2.9,11.62,2.91,9.3,9.3-6.4,20.35-16.28,16.21-24,16.21-24S207,97,214.55,102.76s15.11,7.56,10.46,20.93-15.69,31.39-33.13,21.51-12.21,4.52-15.7,2.84-6.71-5.17-12.94-4-27.17,21.51-30.65,26.74-1.17,13.95,6.39,18,51.73,37.78,59.87,40.11,18.6-3.49,18.6-3.49,43.6,20.93,51.16,37.2,12.79,30.81,18.6,33.14,28.48,9.3,20.92-9.3-9.3-33.14-9.3-33.14S318,236.46,312.2,211.46s-11-25.57-4.07-35.46,22.67-57.54,22.67-57.54l12.79,4.65s11.63,78.47,14.53,105.79,14.54,51.73,19.77,54.64,20.92,9.3,20.92,9.3-40.69,14.53-58.12-8.14S325,246.37,314.53,260.87s8.14,50,8.14,50h37.2s1.74,17.44,8.14,20.93,3.48,9.3,3.48,9.3h52.9l4.07,30.81L473.8,369s-13.37-8.72-14.53-18.6S456.36,337,461,330.62,447.64,300.4,451.13,287s8.14-20.93,19.76-25S486,262,486,262a55.7,55.7,0,0,0-12.79,9.3c-5.81,5.82-16.86,20.35-14,30.81s16.85,12.79,16.85,12.79-9.88,23.83-7,30.81,19.18,11.62,23.25,9.88,12.21,6.39,16.28,16.28,6.39,23.83,14.53,20.92,19.76-5,29.64.39,23.84,13.56,26.74,12.4,5.82,4.65,5.82,4.65,19.18,37.78,14.53,41.85-8.72,9.88-7,12.21,5.82,5.81,13.95,7,11.63,5.81,11.63,5.81-12.21,4.07-18,0-19.18-3.49-22.09-1.75,14,7.56,14.53,12.21-16.27,18-2.9,19.18,48.82-11,56.38-15.69,15.7-20.35,28.48-27.32,29.07-18.6,20.35-35.46S476.71,180.07,476.71,180.07Z"/><path class="cls-4" d="M146.56,211.82l-14.55-12-2.33,9.88s26.74,17.44,25.58,22.67,6.39,13.37-8.14,12.2S126.77,262,122.7,264.94,257,273.6,257,273.6s-2.35-20.87-16.3-23.77-30.23-2.91-48.25-8.14S146.56,211.82,146.56,211.82Z"/><path class="cls-4" d="M232,329.46l-76.15,7,2.9,19.2S207,362,207,380.61s-25,29.07-9.88,50,20.93,40.1,34.88,25,20.34-23.83,12.78-45.34-2.32-25-2.32-25,18.65-12.79,11.07-29.07c0,0,15.67,10.46,15.67,18s-5.23,14.53,0,18,11,11.23,17.44,3,0-33.23,0-33.23l12.78-2.32,15.7-33.13-55.22-2.91-3.49,7.56S251,327.72,232,329.46Z"/><path class="cls-4" d="M137.24,108.57s-10.12-1.9-14.62,2.33-3.49,13.95,7.31,9.88S137.24,108.57,137.24,108.57Z"/><path class="cls-4" d="M126.19,97.53s-5.79-2.91-6.09,0S124.45,103.92,126.19,97.53Z"/><path class="cls-4" d="M116.17,149.85,110.11,146v13.18S116.8,155.27,116.17,149.85Z"/><path class="cls-4" d="M137.77,131.83s-6.93,2.9-6.35,5.23S136,138.22,137.77,131.83Z"/><path d="M385.08,110.2l-1.11-.46,10-24.15-19.8,20.1-1-.4.27-28.14-10,24.08-1.11-.46L373,75.25l1.7.71-.26,27.79L394,84l1.69.71Z"/><path d="M412.83,112.7l-11.76-5-6.08,6.6-1.18-.49,20-21.58,1.25.53-1.51,29.35-1.18-.5Zm.06-1.18L413.81,94l-11.94,12.9Z"/><path d="M423.24,124.32c-.7-1.73-.44-3.75.95-7.11l1.15.36c-1.18,3-1.51,4.75-.88,6.32.7,1.73,2.34,3.09,5.57,4.47,3.39,1.45,5.77,1.68,7.29,1.07,1.31-.52,2.21-1.92,2.89-3.5,1.5-3.49-1.27-6-4.92-9.46s-7.37-6.46-5.53-10.76c.93-2.17,1.79-3.06,3.21-3.63,1.89-.76,4.47-.18,7.7,1.21s5.1,2.83,5.85,4.63.42,3.7-.93,7l-1.15-.37c1.29-3.1,1.43-4.86.89-6.23-.68-1.68-2.45-2.83-5.1-4-2.9-1.25-5.15-1.77-6.73-1.14-1.21.48-1.9,1.27-2.62,3-1.49,3.49,1.84,6.27,5.4,9.66s7,6.19,5.09,10.57c-.85,2-1.87,3.55-3.5,4.2-2,.8-4.38.48-8.31-1.2C426,127.83,424,126.21,423.24,124.32Z"/><path d="M449.31,135.53c-.68-1.74-.4-3.76,1-7.11l1.15.38c-1.22,3-1.56,4.73-.95,6.31.68,1.74,2.3,3.11,5.52,4.54s5.74,1.74,7.27,1.15a6.09,6.09,0,0,0,2.93-3.47c1.54-3.48-1.2-6-4.81-9.51s-7.3-6.54-5.41-10.83c1-2.15,1.83-3,3.25-3.59,1.9-.74,4.47-.13,7.69,1.3s5.06,2.88,5.8,4.69.37,3.71-1,7l-1.15-.38c1.32-3.09,1.49-4.85,1-6.22-.66-1.69-2.42-2.86-5.05-4-2.89-1.28-5.14-1.83-6.72-1.22-1.21.47-1.91,1.26-2.65,2.94-1.54,3.48,1.77,6.29,5.28,9.72s6.89,6.28,5,10.63c-.87,2-1.9,3.53-3.54,4.16-2,.78-4.38.43-8.3-1.3C452,139.07,450,137.43,449.31,135.53Z"/><path d="M490.54,147.25l-11.43-5.67-6.48,6.21-1.14-.57,21.28-20.3,1.21.6-3.32,29.21-1.15-.57Zm.14-1.18,2-17.45L480,140.75Z"/><path d="M521.43,160.7c1.42-1.84,3.14-4.23,3-6.71-.08-2-1.16-3.64-3.66-6s-4.39-3-6.48-2.94c-3.22.13-6.07,2.62-9.3,6.11s-5.46,6.5-5.33,9.72c.08,2.09,1.12,4.09,3.5,6.29s4.46,3.36,6.67,3.28,4.26-1.79,6.53-3.83l.85.9c-2.59,2.34-4.85,4-7.36,4.14-2.35.12-4.71-1.09-7.48-3.64s-3.86-4.71-4-7.14c-.13-3.45,2.2-6.8,5.67-10.56s6.66-6.37,10.1-6.51c2.38-.09,4.68.84,7.41,3.36s4,4.37,4.12,6.74c.1,2.72-1.72,5.39-3.33,7.49Z"/><path d="M537.39,163l.83.86-8.2,7.92,11.59,12,8.2-7.92.83.87-19.88,19.2-.83-.87,10.85-10.47-11.59-12-10.85,10.47-.83-.86Z"/><path d="M541.11,204.49c.08-1.86,1.25-3.43,3.28-5.3L559,185.7l.81.88-14.62,13.47c-1.79,1.65-2.78,3-2.85,4.58-.07,1.75,1.25,4,3.34,6.28s4.26,3.8,6,3.87,3-.81,4.8-2.47l14.62-13.46.82.88-14.66,13.49c-2,1.85-3.68,2.91-5.55,2.83-2.09-.08-4.45-1.77-6.86-4.38S541,206.53,541.11,204.49Z"/><path d="M561.06,226.18c.1-1.86,1.19-3.59,3.87-6.05l.89.81c-2.33,2.2-3.37,3.67-3.46,5.37-.1,1.86.81,3.78,3.16,6.4s4.52,3.95,6.16,4c1.41.08,2.82-.81,4.1-2,2.83-2.54,1.37-6-.47-10.65s-4-9-.48-12.09c1.75-1.57,2.91-2,4.44-1.94,2,.11,4.12,1.72,6.47,4.34s3.43,4.72,3.35,6.67-1.18,3.54-3.77,5.92l-.89-.82c2.47-2.27,3.35-3.81,3.43-5.28.1-1.81-1-3.59-3-5.74-2.11-2.35-3.93-3.78-5.62-3.87-1.3-.07-2.26.36-3.63,1.59-2.83,2.54-1,6.46.82,11s3.7,8.56.16,11.74c-1.61,1.44-3.19,2.43-4.94,2.34-2.15-.12-4.18-1.42-7-4.6C562.05,230.51,561,228.21,561.06,226.18Z"/><path d="M589.69,259.39l-.84.74-10.43-11.82L599.15,230l10.29,11.67-.84.74-9.5-10.77-7.71,6.8,8.84,10-.84.74-8.84-10-10.5,9.26Z"/><path d="M628.39,265.09l-6.86-7.87-20,17.42-.79-.9,20-17.42-6.86-7.88.85-.73,14.5,16.65Z"/><path d="M647.25,287l-6.82-7.91-20.09,17.31-.78-.91,20.09-17.31-6.81-7.91.84-.73,14.41,16.73Z"/><path d="M634.35,309.91c.14-1.86,1.27-3.56,4-6l.87.84c-2.38,2.13-3.46,3.58-3.59,5.27-.15,1.86.72,3.8,3,6.48s4.41,4.07,6.05,4.2a6.12,6.12,0,0,0,4.15-1.86c2.89-2.47,1.51-5.92-.21-10.66s-3.74-9.06-.18-12.1c1.8-1.53,3-1.95,4.49-1.83,2,.16,4.08,1.83,6.36,4.51s3.31,4.8,3.19,6.74-1.27,3.51-3.92,5.82l-.87-.83c2.53-2.21,3.44-3.73,3.56-5.2.14-1.8-.94-3.62-2.81-5.81-2.05-2.4-3.83-3.88-5.53-4-1.29-.1-2.26.3-3.66,1.5-2.89,2.47-1.13,6.44.54,11.05s3.49,8.65-.13,11.74c-1.64,1.4-3.25,2.35-5,2.21-2.14-.17-4.13-1.52-6.91-4.77C635.22,314.27,634.19,311.94,634.35,309.91Z"/><path d="M72.28,218.55c.4,3.46,0,5.12-1.14,6.57-1,1.24-2.68,2-5.18,2.24L53.4,228.79l-3.11-27.46L62.37,200c2.7-.31,4.37-.1,5.7,1,1.15.92,1.72,2.34,2,4.88s-.15,4.33-2.2,5.73C70.92,212.23,71.82,214.5,72.28,218.55Zm-17.42-6.71,8.58-1a3.83,3.83,0,0,0,2.77-1.12c.54-.62.75-1.61.56-3.28s-.57-2.51-1.19-3a4.08,4.08,0,0,0-3-.43L54,204Zm14,6.74c-.29-2.54-.74-3.66-1.58-4.33s-1.76-.6-3.15-.45l-8.94,1,1.19,10.49,8.94-1c1.43-.16,2.4-.43,2.93-1.09C69,222.35,69.16,221.2,68.87,218.58Z"/><path d="M96.2,223.93l-.83.1c-2.23.25-3.39-.1-4-1.44-1.07,1.53-2.94,2.46-5.68,2.78-4.17.47-6.43-1-6.83-4.54-.37-3.22.91-4.7,3.24-6.17a29.32,29.32,0,0,1,7.66-3.12v-.08c-.24-2.1-1.64-2.75-4.19-2.46-2.06.23-3.26.65-3.86,1.4a4.31,4.31,0,0,0-.57,2.44l-3.14,0a6.69,6.69,0,0,1,1.22-4.21c1.16-1.46,3-2.2,6.15-2.55,4.33-.49,7.1.85,7.55,4.82l1,8.94c.13,1.16.64,1.34,1.55,1.24l.2,0Zm-5.66-5.59-.48-4.18A25.94,25.94,0,0,0,83.79,217C82.3,218.06,82,219,82.1,220.22c.18,1.59,1.09,2.57,3.92,2.25C89.55,222.07,90.79,220.6,90.54,218.34Z"/><path d="M109.24,206.44l-.88.1c-3.65.41-4.77,1.94-4.44,4.81l1.31,11.56-3.26.37-2.1-18.52,2.94-.33.41,1.84c1-1.47,2.69-2.52,5.47-2.87Z"/><path d="M123.62,204.81l-.87.09c-3.66.42-4.77,1.95-4.45,4.82l1.31,11.56-3.25.37-2.1-18.52,2.94-.33.41,1.84c1-1.48,2.69-2.52,5.47-2.87Z"/><path d="M128.49,199.06l-.47-4.13,3.26-.37.47,4.13ZM130.86,220l-2.1-18.52,3.26-.37,2.1,18.52Z"/><path d="M155.64,203.87,157.13,217l-3.26.37-1.43-12.63c-.28-2.47-2.3-2.92-4.45-2.68-3.42.39-4.6,2-4.38,4L145,218.4l-3.26.37-2.1-18.52,2.94-.33.36,1.77a7.82,7.82,0,0,1,5.61-2.73C152.5,198.51,155.19,199.94,155.64,203.87Z"/><path d="M180.74,217.53c.47,4.13-2.83,5.91-8.48,6.55-5.92.67-8.89-.36-9.35-4.37a5.55,5.55,0,0,1,2.48-5.11,3.46,3.46,0,0,1-1.93-2.88,3.88,3.88,0,0,1,1.11-3.31,6.67,6.67,0,0,1-1.91-4.41c-.24-2.11,0-3.71,1-4.94,1.09-1.38,3.1-2.17,6.08-2.5a17.23,17.23,0,0,1,2.2-.13l1-2.93,3.26-.37-1.26,3.76a4.07,4.07,0,0,1,1.29.74,6.74,6.74,0,0,1,2.05,4.6c.23,2,0,3.62-1,4.86s-3.13,2.21-6.11,2.54a13.36,13.36,0,0,1-4.4-.1,1.61,1.61,0,0,0-.43,1.5c.13,1.15.57,1.46,5.45,1.63S180.24,213.12,180.74,217.53ZM165.8,203.64a4.12,4.12,0,0,0,1.16,2.81c.81.67,2.1.77,4,.56s3.07-.59,3.71-1.39a4.38,4.38,0,0,0,.54-3,4,4,0,0,0-1.2-2.76c-.76-.64-1.94-.75-3.88-.53s-3.15.6-3.78,1.44A3.82,3.82,0,0,0,165.8,203.64Zm11.8,14.28c-.24-2.1-2.35-2.31-6.55-2.39-1.05-.05-2-.1-2.88-.2-1.71,1.24-2.28,2.59-2.14,3.78.25,2.23,2,2.72,5.93,2.27C176.25,220.89,177.85,220.07,177.6,217.92Z"/><path d="M187.16,208.14,186,197.93l-3.46.39-.33-2.9,3.46-.39-.59-5.21,3.25-.36.6,5.2,4.72-.53L194,197l-4.73.53,1.14,10.06c.24,2.1.78,2.6,3.29,2.32l1.55-.18.48,2.89-2.1.24C189,213.41,187.61,212.08,187.16,208.14Z"/><path d="M203,210.17c-1.77-1.41-2.58-3.61-3-7.42s-.16-6,1.28-7.84c1.17-1.46,3.24-2.3,6.06-2.62s5,0,6.46,1.16c1.81,1.49,2.57,3.57,3,7.39s.16,6.1-1.28,7.91c-1.16,1.46-3.2,2.3-6,2.62S204.43,211.3,203,210.17Zm9.77-3.28c.88-1.11,1-2.69.69-5.67s-.77-4.34-2-5.25c-.84-.71-2.1-.85-3.77-.66s-2.95.61-3.65,1.54c-.92,1.11-1.07,2.62-.74,5.56s.87,4.49,2,5.37c.83.63,2.1.8,3.85.61S212.08,207.78,212.78,206.89Z"/><path d="M238.35,194.49l1.49,13.16-3.26.37-1.43-12.64c-.28-2.47-2.3-2.92-4.45-2.68-3.42.39-4.6,2.05-4.38,4l1.4,12.32-3.26.37-2.1-18.52,2.94-.33.36,1.77a7.82,7.82,0,0,1,5.61-2.73C235.2,189.13,237.9,190.56,238.35,194.49Z"/><path class="cls-3" d="M273.85,445.45h21.78c4.95,0,206.91-23.33,206.91-23.33l33.75,11.67,44.12,52.06v31.62s17.78,7.62,20.4,7.62,54.93-28.78,54.93-28.78l52.91-57.55"/><path class="cls-2" d="M126.19,47.76s-9.28-1.42-14-8.54-7.78-12-7.78-12L100,25.43S113.92,52.16,116.17,55,126.19,47.76,126.19,47.76Z"/><path class="cls-5" d="M-261.12,371.29c.79,23.31-16.25,47.41-11.81,67.44,5,22.55,30.93,36.59,40,55.32,9.8,20.31,5.18,49.3,19,65.58,14.2,16.72,43.87,16.93,61.49,29.91,17.38,12.81,25.92,41,45.83,50.64,19.37,9.42,47.24-1,68.25,5.87,20.56,6.76,36.43,31.69,57.87,36.49s46.58-11,68.08-7.72c21.87,3.3,41.14,25.77,62.49,27.94,22.38,2.28,46-15.85,67-14.31,23,1.69,43.56,23,63.91,24.48,13.27,1,28-17.64,40.44-16.08,13.22,1.67,23,23.4,35.27,25.54,13.15,2.28,29.55-14.87,41.72-12.33,13.13,2.73,21.52,25.08,33.61,27.74,13.16,2.89,29.81-13.95,41.89-11.6,13.31,2.58,23,24.44,35.23,25.74,13.44,1.43,26.54-18,38.88-19,13-1,29.91,15.68,42,11,11.42-4.43,12.68-27.88,23.55-36.45,9.26-7.31,32.26-2,41.3-12.93,7.53-9.08-1.14-31.2,6.35-43.11,5.24-8.35,27.22-6,31.72-13.79,5-8.57-8-26.46-3.82-34.35,4.63-8.82,26.71-8.43,30.41-16.5,4.17-9.1-10.67-25.45-7.54-33.72,3.54-9.38,25.44-12,27.86-20.5,2.73-9.61-14.64-23.26-13-32,1.78-9.7,22.76-16.24,23.59-25.24.87-9.59-18.62-20.15-18.31-29.41s20.48-18,20.78-27.53c.29-9.15-19.26-19.6-18.46-29.3.73-8.95,21.74-17.55,23.31-27.33-.09-7-2.19,8.52-5.08,16.74-1.33,3.79-21.75,1.47-23.58,6.42-1.51,4.08,15.52,15.59,13.71,20.22-1.63,4.19-21.94,1.12-23.78,5.59-1.74,4.24,14.83,16.38,12.93,20.74s-22,.29-24,4.53,13.89,17.29,11.78,21.41-22-1.1-24.25,2.86c-2.41,4.22,12.16,18.72,9.69,22.45-2.76,4.16-21.53-4-24.33-.7-3.37,4,6.68,21.89,3.32,24.28-4.66,3.31-22.93-6.21-27.87-.14-3.91,4.79,7.93,22.43,3.66,28.38-3.75,5.22-23.9-.88-28.05,4.87-3.83,5.33,8.15,22.79,3.88,28.29-4.08,5.25-23.78-2.23-28.33,2.94s5.32,23.79.37,28.52-23-6.07-28.39-1.92.11,24.49-5.83,27.9c-5.78,3.33-20.5-11.69-26.93-9.17-6.16,2.41-6.81,23.49-13.61,25-6.39,1.42-16-17.33-23-16.84-13,.91-24.5,21.81-37.45,22.76s-27.41-18-40.32-17.13-24.7,21.76-37.57,22.55c-13.11.81-27.16-18.44-40-17.86-13.17.6-25.52,21-38.3,21.3-13.25.26-26.3-19.67-39-19.88-13.32-.22-27.17,19.25-39.78,18.38-13.38-.92-24.21-22.11-36.65-23.91-13.36-1.93-30.07,15.17-42.16,12C145.72,639,140,616,128.58,610.93c-12.32-5.47-33.71,5.09-43.7-2.6-4.4-3.39,4.51-22.05.78-25.56-4-3.8-22.17,6.07-25.49,2.15-3.57-4.21,9.24-20.43,6.41-24.74-3-4.6-23,.67-25.26-4-2.41-4.9,14-17.53,12.26-22.45C51.78,528.6,31.15,529.06,30,524c-1.24-5.29,17.44-14.25,16.69-19.43-.78-5.39-21.2-8.45-21.63-13.63-.45-5.48,19.19-12.17,18.92-17.32-.3-5.56-20.52-9.65-20.88-14.71-.41-5.68,18.87-13.47,18-18.34-.81-4.56-21.41-7.09-22.26-13.49C18.12,422,37.29,413.94,36.62,408,36,402.7,15.55,399.23,15,393.45c-.54-5.41,18.85-12.87,18.34-18.55-.49-5.5-20.89-9.4-21.34-15s19.08-12.66,18.69-18.21-20.72-9.93-21-15.41c-.35-5.73,19.32-12.41,19.06-17.81-.28-5.86-20.49-10.7-20.64-16-.19-6.11,19.71-12,19.72-17,0-6.94-19.72-13.77-19.27-17.83.49-4.42,20-10,19.23-16.4-.57-4.95-21.2-8-21.93-13.89-.64-5.16,18.66-12.56,18.26-18.25-.37-5.29-20.53-10.29-20.41-15.91C3.75,187.84,24,184,24.85,178.51c.77-5.29-17.55-15-15.93-20.34,1.54-5.09,22.06-2.88,24.54-7.94,2.33-4.73-12-19.64-8.7-24.28,3-4.25,21.84,4.31,25.83.19,3.62-3.74-5.77-22.19-1.28-25.77,4.07-3.24,20.12,9.84,25,6.75C78.84,104.23,72,84.76,76,81.91c4.43-3.15,20.65,9.63,24.43,6.54,4.25-3.46-5.17-21.82-1.69-25.19,4-3.84,22.13,5.93,25.19,2.22,3.54-4.29-9.81-20-7.37-24.08,2.85-4.79,23.07-1.14,24.6-5.67,1.78-5.24-16.72-14.09-16.43-18.93C125,11.42,144.2,4.57,143.05-.26,141.83-5.4,121.37-3.16,119-7.6c-2.5-4.65,10.89-20.13,7.64-24-3.52-4.12-21.27,6.49-25,3.43C97.4-31.58,80.36-46.23,51.1-36.94,36-32.13,25.56-6.89,6.66,1.57-9,8.58-34.65-1-51.66,8.67-67.06,17.39-72.12,44.09-87.73,55-102.46,65.35-129.4,61-143.58,73.3c-13.68,11.92-12.94,39-25.45,52.91-12.2,13.52-39.38,15.65-49.87,31.06-10.23,15-2.21,40.91-10.26,57.79-7.79,16.31-33,26.41-38.3,44.5-5,17.22,10.81,39.22,8.56,58.08-2.12,17.66-22.86,35.2-22.21,54.33"/><path class="cls-2" d="M330.8,118.46s1.17-8.22,4.27-14.42,12-24,13.17-35.65.43-14,0-24.61c-.28-7.16,5.22-18.87,6.89-22.26l4.42,7.87s-1.08,1.48-2,2.58c-5,5.86-4.25,20.48-4.64,30s-.77,15.72-3.1,23.47-6.09,19.81-6.53,24.25,2,18.32,2,18.32Z"/><path class="cls-6" d="M705,435.32l-3.87-4.58"/><path class="cls-7" d="M689.53,417.11c-47.19-55.52-188.2-219.9-218.1-237C440,162.07,205.14,67.47,145.25,43.43"/><path class="cls-6" d="M137,40.1l-5.57-2.22"/><path d="M388.41,500.77c0,3.48-.6,5.08-1.88,6.4-1.08,1.12-2.88,1.64-5.4,1.64H368.49V481.18h12.16c2.72,0,4.36.4,5.56,1.6,1,1,1.44,2.52,1.44,5.08s-.64,4.28-2.84,5.44C387.77,494.34,388.41,496.7,388.41,500.77Zm-16.56-8.63h8.64a3.88,3.88,0,0,0,2.88-.8c.6-.56.92-1.52.92-3.2s-.28-2.56-.84-3.12a4.12,4.12,0,0,0-2.92-.76h-8.68ZM385,500.41c0-2.55-.32-3.71-1.08-4.47s-1.68-.8-3.08-.8h-9v10.55h9c1.44,0,2.44-.16,3-.76C384.69,504.17,385,503.05,385,500.41Z"/><path d="M404.61,492.9h-.88c-3.68,0-5,1.4-5,4.28v11.63h-3.28V490.18h3l.2,1.88c1.12-1.36,3-2.2,5.76-2.24Z"/><path d="M410.09,487.74v-4.16h3.28v4.16Zm0,21.07V490.18h3.28v18.63Z"/><path d="M421.33,507.33c-.88-.88-1.32-2.08-1.48-4.56l3.24-.24c.12,1.64.28,2.36.76,2.84.64.64,1.76.92,3.8.92,2.2,0,3.64-.28,4.2-.84a2.37,2.37,0,0,0,.52-1.8c0-1.6-1.56-2.16-5.2-3.2s-6.8-1.92-6.8-5.59a4.56,4.56,0,0,1,1.16-3.36c1.28-1.28,3.8-1.6,6.2-1.6,2.84,0,4.76.4,5.92,1.56,1,.92,1.36,2.2,1.6,4.6l-3.28.28c-.12-1.68-.32-2.32-.76-2.76-.76-.76-2-.84-3.56-.84s-3,.16-3.52.68a2,2,0,0,0-.48,1.44c0,1.48,1.32,1.88,5.16,3s6.8,2.15,6.8,5.67a5,5,0,0,1-1.2,3.84c-1.12,1.16-3.48,1.72-6.76,1.72C424.13,509.09,422.49,508.45,421.33,507.33Z"/><path d="M443.37,503.37V493.1h-3.48v-2.92h3.48v-5.24h3.28v5.24h4.76v2.92h-4.76v10.11c0,2.12.48,2.68,3,2.68h1.56l.16,2.92h-2.12C444.57,508.81,443.37,507.33,443.37,503.37Z"/><path d="M458.89,507.17c-1.6-1.6-2.16-3.88-2.16-7.72s.52-6,2.16-7.63c1.32-1.32,3.48-1.92,6.32-1.92s5,.6,6.28,1.88c1.64,1.68,2.16,3.83,2.16,7.67s-.52,6.08-2.16,7.72c-1.32,1.32-3.44,1.92-6.28,1.92S460.17,508.45,458.89,507.17ZM469,505c1-1,1.32-2.56,1.32-5.56s-.28-4.39-1.36-5.43c-.76-.8-2-1.08-3.68-1.08s-3,.28-3.8,1.12c-1,1-1.36,2.47-1.36,5.43s.36,4.56,1.36,5.56a5.35,5.35,0,0,0,3.76,1C466.93,506.09,468.17,505.81,469,505Z"/><path d="M480.41,508.81V479.7h3.28v29.11Z"/><path d="M438.35,278.12l-6.83,27.64h-2.88l-7.4-21.52-7.48,21.52h-2.84l-6.8-27.64h3.44L412.68,299l7.24-20.92h2.76L429.84,299,435,278.12Z"/><path d="M458.56,305.76h-.84c-2.24,0-3.36-.48-3.8-1.88-1.24,1.4-3.2,2.12-6,2.12-4.2,0-6.28-1.68-6.28-5.28,0-3.24,1.44-4.56,3.92-5.76a29.38,29.38,0,0,1,8-2.24v-.08c0-2.12-1.32-2.92-3.88-2.92-2.08,0-3.32.28-4,1a4.3,4.3,0,0,0-.84,2.36l-3.12-.32a6.71,6.71,0,0,1,1.68-4c1.32-1.32,3.28-1.84,6.4-1.84,4.36,0,7,1.64,7,5.64v9c0,1.16.48,1.4,1.4,1.4h.2Zm-5-6.2v-4.2a25.73,25.73,0,0,0-6.56,2.12c-1.6.88-2,1.72-2,3,0,1.6.8,2.68,3.64,2.68C452.16,303.16,453.56,301.84,453.56,299.56Z"/><path d="M473.48,289.84h-.88c-3.68,0-5,1.4-5,4.28v11.64h-3.28V287.12h3l.2,1.88c1.12-1.36,3-2.2,5.76-2.24Z"/><path d="M488,289.84h-.88c-3.68,0-5,1.4-5,4.28v11.64h-3.28V287.12h3L482,289c1.12-1.36,3-2.2,5.76-2.24Z"/><path d="M508.28,300.12a6.1,6.1,0,0,1-1.6,4.08c-1.28,1.28-3.4,1.84-6.36,1.84s-4.76-.64-6-1.84c-1.76-1.72-2.16-4-2.16-7.8s.48-6,2.12-7.64c1.32-1.32,3.44-1.92,6.12-1.92s4.52.48,5.76,1.72c1.6,1.6,2,3.92,2,8.64H495.44c.08,2.56.44,4,1.36,4.88.76.76,1.8,1,3.6,1s3.08-.24,3.76-.92a3.29,3.29,0,0,0,.88-2.4Zm-11.48-9.28a5.23,5.23,0,0,0-1.28,3.56h9.4c-.08-1.92-.32-2.88-1.08-3.64a4.51,4.51,0,0,0-3.4-1C498.72,289.76,497.6,290,496.8,290.84Z"/><path d="M530.24,292.52v13.24H527V293c0-2.48-2-3.16-4.12-3.16-3.44,0-4.8,1.52-4.8,3.48v12.4h-3.28V287.12h3l.16,1.8a7.82,7.82,0,0,1,5.88-2.08C527.72,286.84,530.24,288.56,530.24,292.52Z"/></svg>