<svg id="Layer_1" data-name="Layer 1" xmlns="http://www.w3.org/2000/svg" viewBox="0 0 846.16 705.91"><defs><style>.cls-1{fill:#2d8000;}.cls-2{fill:#8fe6ff;}.cls-16,.cls-17,.cls-3{fill:none;stroke:#000;stroke-miterlimit:10;}.cls-3{stroke-linecap:round;stroke-width:2px;stroke-dasharray:2 6;}.cls-4{fill:#7ec60c;}.cls-10,.cls-5,.cls-6{font-size:40px;}.cls-5{font-family:Magmatic-Thin, Magmatic;font-weight:200;}.cls-10,.cls-6{font-family:Magmatic-Light, Magmatic;font-weight:300;}.cls-6{letter-spacing:0.02em;}.cls-7{letter-spacing:0.07em;}.cls-8{letter-spacing:0.07em;}.cls-10,.cls-9{letter-spacing:0.07em;}.cls-11{letter-spacing:0.07em;}.cls-12{letter-spacing:0.07em;}.cls-13{letter-spacing:0.08em;}.cls-14{letter-spacing:0.08em;}.cls-15{fill:#fff;}.cls-16,.cls-17{stroke-width:3px;}.cls-17{stroke-dasharray:12.12 18.19;}</style></defs><title>Artboard 1</title><path class="cls-1" d="M153,98c-3.36-2.88,8.41.25,13.78-1.22,2.42-.67,2.31-12.57,5.55-13.42,2.63-.69,8.37,9.73,11.44,9,2.71-.69,2.84-12.58,5.84-13.3,2.77-.67,8.27,9.88,11.23,9.2s3.21-12.53,6.15-13.16,8.08,10.06,11,9.48,3.6-12.45,6.52-13,7.79,10.31,10.69,9.83,4.11-12.32,7-12.73S249.6,79.3,252.48,79s4.84-12.1,7.71-12.32c3-.24,6.61,11.1,9.45,11,3.09-.09,6.13-11.6,8.92-11.48,3.16.14,4.92,11.85,7.6,12.3,3.63.6,9.8-10.21,15.15-9.61,4.12.45,7.53,12.37,12.47,12.81,4.29.39,9.83-10.7,14.61-10.32,4.39.34,8.08,12.17,12.79,12.51,4.44.32,9.8-10.86,14.45-10.55,4.48.29,8.31,12.08,12.92,12.37s9.78-11,14.36-10.68,8.47,12,13,12.28,9.79-11,14.3-10.76,8.6,12,13.08,12.22c4.67.24,9.83-11,14.25-10.82,4.75.23,8.76,12,13.12,12.17,4.85.23,10-11.06,14.22-10.87,5.09.24,9.16,12,13.15,12.14,6.15.28,11.39-11,14.2-10.89,3.84.18,10.55,10.51,18.52,9.22,5.17-.83,9.66-13.16,16.37-13.84,5.52-.56,12.18,10.53,18.64,10.46,5.68-.07,12.13-11.38,18.46-10.82,5.7.5,10.08,12.7,16.27,13.88,5.65,1.08,14.21-8.69,20.23-6.91,5.53,1.64,7.42,14.47,13.24,16.81,5.36,2.16,15.59-5.85,21.17-3,5.16,2.62,4.79,15.59,10.12,18.85,4.94,3,16.31-3.26,21.38.37,4.73,3.37,2.51,16.17,7.33,20.1,4.51,3.68,16.59-1.1,21.17,3.1,4.3,3.93.63,16.39,5,20.81,4.09,4.16,16.6.64,20.74,5.25,3.91,4.34-.87,16.42,3.07,21.18,5.07,6.12,19,5.44,23.49,11.88s-.89,19.37,3.1,26.14,17.89,8.3,21.38,15.34-3.68,19.07-.66,26.33,16.61,10.61,19.19,18-6,18.52-3.86,26.05,15.3,12.44,17.06,20.05c1.79,7.8-7.92,17.86-6.54,25.51,1.42,7.91,14,13.95,15,21.63,1.06,8-9.53,17.13-8.86,24.79.71,8.13,12.71,15.27,13,22.88.36,8.26-11,16.41-11,23.9,0,8.47,11.25,16.73,10.86,24-.49,8.91-12.68,15.79-13.55,22.54-1.46,11.41,7.58,22.67,5.84,26.29-1,2-12.18-1.43-13.25.43s7.45,9.92,6.24,11.7-11.82-3.26-13.17-1.58,5.85,10.95,4.36,12.52-11.16-5-12.76-3.59,4.11,11.71,2.4,13-10.29-6.65-12.09-5.45,2.39,12.17.52,13.25-9.3-8-11.24-7,.79,12.37-1.2,13.2-8.27-9.08-10.29-8.36-.68,12.38-2.73,13-7.25-9.93-9.3-9.45c-2.25.53-2,12.25-4.08,12.63-2.32.42-6.28-10.62-8.27-10.37-3.19.42-14.08,5-25.35-4.68-5.84-5-4.88-19.72-12.36-26.77-6.06-5.72-20.58-3.71-27.51-10.48-6.15-6-4.5-20.59-11.19-27.25-6.2-6.17-20.75-4.44-27.3-11-6.24-6.28-4.45-20.82-10.91-27.36-6.29-6.34-20.85-4.68-27.26-11.15s-4.54-20.95-10.92-27.37-20.94-4.71-27.3-11.06-4.77-21-11.11-27.28c-6.57-6.48-21.1-4.59-27.43-10.73-6.7-6.51-5.29-21.11-11.61-27.08-6.92-6.53-21.39-4.24-27.72-9.95-7.29-6.59-6.6-21.28-12.9-26.5-8.25-6.86-22.35-3.14-28.41-7.05-5.6-3.6-5.26-17.42-11.95-22.36-5.65-4.17-18.62.41-24.9-4.51-5.65-4.44-4.36-18.16-10.43-23.08-5.67-4.59-18.79-.45-24.74-5.36-5.68-4.69-4.13-18.37-10-23.26-5.71-4.76-18.86-.73-24.69-5.59s-4.15-18.47-9.95-23.28-18.93-.74-24.71-5.49-4.41-18.51-10.19-23.19c-5.94-4.8-19-.5-24.81-5.07-6.05-4.77-5-18.5-10.77-22.91-6.21-4.72-19.11.07-25-4.13-6.46-4.63-6.19-18.42-12.11-22.26-6.89-4.48-19.22,1.55-25.19-1.63C167,103.12,158.94,99.46,153,98Z"/><path class="cls-2" d="M125.26,80.23S103.93,119.06,109.87,129,65,327.79,74.87,354.88-71.78,274.64-76.4,305.69s-24.2,113.49,26.09,190.24c32.7,49.9,112,90.16,154.57,109C141.45,621.35,320.41,716.22,375.9,705s211.55-22.13,280.25-22.79,186.27-92.83,171.74-110c-16.53-19.54-22.42-31.35-54.16-58.13-73.17-61.73-235.82-262.9-235.82-262.9L392,184.88Z"/><path class="cls-3" d="M389,184.88S379.38,204,375.41,243.6s2.42,60.65-2.86,69.3-29.79,25-16.07,59.29c12,30,11.87,77-11.18,108.82s-75.57,150.93-75.57,150.93L-13,456.3S-55.49,371.2-66.94,334c-.6-1.93-4.9-23.3-5.47-26.22,0,0,34.07-59.3,75.18-101.67S145.54,86.23,145.54,86.23"/><path class="cls-1" d="M343.05,391.21s-28.41,1.32-33.69-4-7.93-17.83-12.55-25.1-1-13.52-7.1-18.65c-4.87-4.09-94.28-3-130.18-2.61l38.86-33.34-43.33-33.46s-23.17-10.93-28.67-37.44c-1.28-6.17-4.17-22.29-2.2-29.07,2.71-9.33,10.77-9.09,10-14.53-1-6.52-9.52-13.65-9.52-13.65s9.52-8.81,2.64-26.13c-17.9-45-6.43-47.86-6.43-47.86l30.61-22.57c1,.32-41.3-15.42-48.84-19.92C96.47,59.25,82.79,39.13,74.2,74.8S45.46,86,9.14,134.91s-64.38,74.26-84.22,113c-7.16,14-26.56,36.67-10.87,47.56,21.8,15.12,50.5,63.41,50.5,63.41S-9.69,368.09-9,373.37c.33,2.64-6,17.67-2.49,32s17,28.07,17,28.07,94.76-5,132.32-1.29l.45,5.25s46,11.23,61.33,12.55,160.61-35,160.61-35Zm-175.27-16.3c-9.25,8.21-7.89,16.74-19.12,15.41s-14.51-3.52-14.51-3.52-20.52,9.86-23.16-6,8.79-6.78,8.13-9.42.66-12.55-10.57-11.89-26-7.66-14.53-13.21c3.45-1.68,16.8,7.1,49.85-2.33l-2.29,1,3.32-4c6.42,1.11,13.79,6,13.8,6-8.36.1-13-5.91-13.79-6,1.67.66,22.66,16,29,19.85C180.55,364.78,177,366.71,167.78,374.91Z"/><path class="cls-1" d="M322.24,681.85l15.84-114.07V518.69s33-4.62,36.32-13.21,7.28-20.48,6-33.69-7.93-21.8-11.89-27.08-2.64-8.25,4-10.73-.66-15-.66-22.3S365.34,392,365.34,392H416l108.33,66.56,11.39,1.79s16.35,14.06,17,22.65-3.3,15.35,7.27,26.5,67.05,79.85,70.36,85.13c1.33,2.14,36.4,4.49,19.81,20.81-9.89,9.74-4.38,34,4.45,49.54C695.78,737.33,544,740.27,531.3,741.3,421.36,750.21,331.16,713.55,322.24,681.85Z"/><path class="cls-4" d="M148.66,84.88l-32.84,24.27s9.25,13.43,11.45,27.52c.5,3.22,7.35-3.46,8.67-12s1.66-8.27-1.79-15.7c-4.93-10.64-5.53-20.22,13.38-9.69,3.36,1.88.66,7.93.66,21.14s-1.33,16.51,4,22.46,6.6,13.87,18.49,13.21,25.11-7.93,35.67-10.57S242,129,242,129l7.27-.66s-51.86,25.1-59.79,34.35-16.83,14.53-22.12,20.47-3.3,13.21,3.3,10.57,10.57-7.26,23.12-18.49,18.43-27.28,18.43-27.28,25.17,6.14,33.76,12.74,17.17,8.59,11.89,23.78S240,220.12,220.19,208.89s-13.88,5.14-17.84,3.23-7.62-5.87-14.71-4.55S156.77,232,152.81,238s-1.32,15.85,7.27,20.47,58.78,42.94,68,45.58,21.14-4,21.14-4,49.54,23.78,58.13,42.27,14.53,35,21.14,37.66,32.36,10.56,23.78-10.57-10.57-37.65-10.57-37.65,21.8-19.16,15.19-47.56-12.55-29.07-4.62-40.3,25.76-65.39,25.76-65.39l14.53,5.28S405.8,273,409.1,304s16.52,58.79,22.46,62.09,23.78,10.57,23.78,10.57-46.24,16.52-66-9.24-17.89-43.57-29.73-27.09,9.25,56.81,9.25,56.81h42.27s2,19.82,9.25,23.78,4,10.57,4,10.57h60.11l4.62,35,51.52-3.3S525.36,453.3,524,442.07s-3.3-15.2,2-22.46-15.19-34.35-11.23-49.54,9.25-23.78,22.46-28.41,17.17,0,17.17,0a63.63,63.63,0,0,0-14.53,10.57c-6.6,6.61-19.15,23.12-15.85,35s19.15,14.53,19.15,14.53-11.22,27.09-7.92,35S557.07,450,561.69,448s13.87,7.27,18.5,18.5,7.26,27.08,16.51,23.78,22.46-5.72,33.69.44,27.08,15.41,30.38,14.09,6.61,5.28,6.61,5.28,21.8,42.94,16.51,47.56S674,568.89,676,571.54s6.61,6.6,15.86,7.92S705,586.07,705,586.07s-13.87,4.62-20.48,0-21.8-4-25.1-2S675.3,592.67,676,598s-18.49,20.47-3.3,21.8,55.49-12.56,64.08-17.84,17.83-23.12,32.36-31,33-21.13,23.12-40.29S543.85,248.53,543.85,248.53Z"/><path class="cls-4" d="M168.69,284.6,152.15,271l-2.64,11.22S179.89,302,178.57,308s7.27,15.19-9.25,13.87S146.2,341.66,141.58,345s152.62,9.84,152.62,9.84-2.67-23.71-18.53-27-34.35-3.3-54.82-9.25S168.69,284.6,168.69,284.6Z"/><path class="cls-4" d="M265.76,418.29l-86.53,7.92,3.3,21.82s54.83,7.25,54.83,28.39-28.4,33-11.23,56.8,23.78,45.58,39.63,28.41,23.12-27.09,14.54-51.53-2.65-28.4-2.65-28.4,21.2-14.53,12.58-33c0,0,17.81,11.89,17.81,20.48s-6,16.51,0,20.48,12.55,12.75,19.82,3.4,0-37.75,0-37.75l14.53-2.64L360.22,415l-62.75-3.31-4,8.59S287.38,416.31,265.76,418.29Z"/><path class="cls-4" d="M158.09,167.28s-11.49-2.17-16.61,2.64-4,15.85,8.31,11.23S158.09,167.28,158.09,167.28Z"/><path class="cls-4" d="M145.54,154.73s-6.58-3.3-6.92,0S143.56,162,145.54,154.73Z"/><path class="cls-4" d="M134.15,214.18l-6.88-4.41v15S134.87,220.34,134.15,214.18Z"/><path class="cls-4" d="M158.7,193.7s-7.87,3.3-7.21,6S156.67,201,158.7,193.7Z"/><text class="cls-5" transform="translate(419.94 160.89) rotate(22.64)">M</text><text class="cls-5" transform="translate(453.65 174.96) rotate(22.86)">A</text><text class="cls-5" transform="translate(479.58 185.9) rotate(23.16)">S</text><text class="cls-5" transform="translate(505.66 197.06) rotate(23.69)">S</text><text class="cls-5" transform="matrix(0.91, 0.43, -0.43, 0.91, 531.48, 208.38)">A</text><text class="cls-5" transform="translate(555.23 219.02) rotate(39.91)">C</text><text class="cls-5" transform="matrix(0.71, 0.71, -0.71, 0.71, 577.79, 238.59)">H</text><text class="cls-5" transform="translate(599.54 260.52) rotate(46.7)">U</text><text class="cls-5" transform="translate(620.31 282.66) rotate(47.59)">S</text><text class="cls-5" transform="translate(639.56 303.8) rotate(48.16)">E</text><text class="cls-5" transform="translate(656.9 323.19) rotate(48.57)">T</text><text class="cls-5" transform="matrix(0.66, 0.75, -0.75, 0.66, 675.92, 344.78)">T</text><text class="cls-5" transform="matrix(0.65, 0.76, -0.76, 0.65, 694.21, 365.78)">S</text><text/><text class="cls-6" transform="translate(476.87 430.87) rotate(-6.47)">W<tspan class="cls-7" x="37.2" y="0">ar</tspan><tspan class="cls-8" x="73.56" y="0">r</tspan><tspan class="cls-9" x="87.84" y="0">en</tspan></text><text class="cls-10" transform="translate(426.57 626.63) rotate(-6.47)">Bri<tspan class="cls-11" x="53.08" y="0">s</tspan><tspan class="cls-12" x="73.76" y="0">t</tspan><tspan class="cls-13" x="89.68" y="0">ol</tspan></text><text class="cls-10" transform="translate(65.88 302.83) rotate(-6.47)">Barrin<tspan class="cls-14" x="112.32" y="0">g</tspan><tspan class="cls-12" x="134.12" y="0">t</tspan><tspan x="150.04" y="0">on</tspan></text><path class="cls-3" d="M307.66,550.09h30.42c5.63,0,235.13-26.51,235.13-26.51l38.35,13.26L661.7,596v35.94s20.21,8.65,23.18,8.65,62.42-32.7,62.42-32.7l60.13-65.39"/><path class="cls-2" d="M145.54,98.18S135,96.55,129.6,88.46s-8.85-13.68-8.85-13.68l-4.93-2s15.78,30.37,18.33,33.56S145.54,98.18,145.54,98.18Z"/><path class="cls-15" d="M-300.18,466c.64,19.09-9,38.31-6.18,55.43,3.11,18.78,18.62,33.66,24.12,50.22,5.95,17.89,2.71,39.12,11.17,54.6,8.91,16.31,28.65,24.92,40,38.76,11.61,14.16,16.22,35.11,30,46.91s35.31,13.17,50.88,22.84c15.31,9.5,26,28.17,42.65,35.87,16.36,7.54,37.59,3.58,55,9.59,17.06,5.91,31.2,22.14,48.91,26.77,17.55,4.58,37.91-2.65,55.8.87S86.09,825.76,104,828.4c18.16,2.68,37.74-6.48,55.62-4.51,18.41,2,35.46,15.2,53.23,16.7,18.66,1.57,37.75-8.59,55.31-7.36,19,1.32,36.43,14,53.65,15.23,11,.78,22.71-9.69,33.14-8.52,10.94,1.22,20.09,14,30.46,15.61,10.89,1.63,23.36-8,33.67-6.08,10.85,2,19.19,15.36,29.43,17.48,10.82,2.24,23.72-6.75,33.91-4.52,10.83,2.38,18.87,16,29,18.16,10.87,2.34,23.65-6.78,33.85-4.88,11,2,19.79,15.15,30.07,16.41,11.06,1.36,22.5-9.3,32.88-9.2,11,.11,22.6,10.84,33,9.1,10.59-1.77,17.73-15.62,27.79-19.77,9.56-3.94,24.43,1,33.65-5.52,8.25-5.82,9-21.5,17-29.67,7-7.14,22.73-7.7,29.7-16.85,6.11-8,2.74-23.39,8.83-33.07,3.94-6.27,17.49-6.27,21.09-12.15,3.87-6.34-2.33-18.38,1.15-24.3,3.79-6.42,17.34-6.83,20.7-12.79,3.68-6.52-3-18.31.22-24.32,3.54-6.64,17-7.71,20-13.78,3.36-6.78-4-18.12-1.28-24.28,3.1-6.93,16.47-9.08,18.89-15.35,2.74-7.09-5.79-17.59-3.78-24,2.26-7.21,15.22-11,16.74-17.64,1.67-7.24-8.35-16.35-7.31-23.2,1.08-7.14,13.32-12.75,14-19.85s-10.25-15-9.68-22.34c.53-6.84,12.56-12.93,13.25-20.37.61-6.75-10.11-15-9.19-22.52.83-6.7,13.23-13.84,14.43-21.3-.69-5-2.5,6.92-5.64,12.39-1.42,2.46-13.07-.42-15,2.85-1.57,2.65,6.59,11.45,4.74,14.52-1.65,2.71-13.22-.46-15.07,2.51-1.7,2.74,6.25,11.72,4.4,14.62-1.76,2.75-13.24-.7-15.12,2.14s5.91,11.94,4,14.74-13.25-1.06-15.18,1.68,5.47,12.18,3.5,14.87S805,567.72,803,570.35s4.87,12.47,2.79,15-13.11-2.26-15.27.19,3.91,12.87,1.66,15.19c-2.43,2.5-12.81-3.48-15.18-1.36-2.65,2.37,1.92,13.47-.62,15.28-3.72,2.64-14.26-3.89-18.13-1-3.65,2.72-.56,14.79-4.46,17.65-3.67,2.69-14.15-4-18.13-1.21-3.74,2.58-1.29,14.79-5.38,17.37-3.84,2.43-13.77-5-18-2.65-4,2.24-2.68,14.61-7,16.78-4.07,2-13.18-6.43-17.62-4.5-4.17,1.81-4.19,14.25-8.72,15.95-4.26,1.6-12.47-7.74-17.07-6.26-4.34,1.39-5.56,13.76-10.23,15-4.4,1.19-11.73-8.85-16.44-7.78-4.44,1-6.7,13.23-11.45,14.12-4.48.84-11-9.74-15.79-9-4.52.68-7.63,12.72-12.41,13.29-4.55.53-10.4-10.44-15.19-10-9,.8-17.82,13-28,13.49-9.21.49-19.28-10.65-29.28-10.42-9.33.22-18.84,11.85-28.72,11.83-9.42,0-18.9-11.66-28.7-11.92-9.48-.25-19.55,10.9-29.28,10.41-9.52-.48-18.41-12.58-28.08-13.3s-20.17,9.9-29.76,8.92-17.81-13.53-27.33-14.78-20.8,8.73-30.24,7.17-17-14.64-26.3-16.54c-9.56-1.95-21.51,7.17-30.7,4.87-9.51-2.38-15.7-16-24.71-18.83-9.42-2.9-22.3,4.85-31,1.49-9.26-3.56-13.5-17.93-21.86-22-9-4.4-23.06.87-30.8-4.19-2.59-1.7,1.2-13-1.23-14.56-2.61-1.7-11.39,6.34-13.81,4.77-2.62-1.69,1.11-13-1.31-14.55-2.64-1.69-11.37,6.39-13.78,4.86-2.66-1.7,1-13-1.42-14.55-2.68-1.69-11.34,6.47-13.73,5-2.72-1.7.82-13.07-1.55-14.53-2.77-1.71-11.34,6.55-13.69,5.13-2.83-1.73.56-13.13-1.75-14.51-2.94-1.75-11.34,6.67-13.6,5.35-3-1.78.31-13.16-1.9-14.47-2.87-1.69-11.38,6.59-13.76,5s2.2-12.5-.53-14.61c-2-1.57-11.48,5.62-14.18,3.4-2-1.67,3-12.44.42-14.61-3.29-2.75-15,.63-17.65-4.13-2.18-3.87,6.28-13.12,4.48-18.06C35,519.19,22.59,518,21.29,513c-1.19-4.5,8.94-11.84,8-16.77-.93-4.63-13.11-7.4-13.88-12.31-.73-4.71,10-11.11,9.42-16s-12.55-8.37-13-13.23,10.62-10.62,10.28-15.46-12.14-9-12.39-13.82,11.06-10.25,10.9-15c-.16-5-11.79-9.54-11.87-14.27-.07-5,11.41-10,11.42-14.63,0-5.12-11.44-10.13-11.35-14.69.12-5.32,11.8-9.81,12-14.14.29-6-10.83-11.83-10.44-15.41.44-4,11.58-8.8,10.9-14-.55-4.23-12.74-7.1-13.6-12-.75-4.34,9.82-10.75,9.12-15.56-.65-4.44-12.66-7.76-13-12.55-.36-4.5,11-9.53,11-14.3.06-4.52-11.13-9.95-10.54-14.68.57-4.48,12.7-6.91,13.88-11.55,1.1-4.36-8.43-12.31-6.67-16.77,1.64-4.17,14-3.52,16.31-7.76,2.13-3.92-5.23-13.91-2.47-17.88,2.55-3.66,14.49-.3,17.63-4,2.89-3.39-2.39-14.62,1-18,3.17-3.14,14.38,2.19,18.06-1,3.39-2.9-.21-14.78,3.64-17.69,3.58-2.7,14.05,4,18,1.29,3.66-2.47.56-14.35,3.9-16.78,3.58-2.6,13.94,4,17.17,1.44,3.49-2.75-.59-14.34,2.5-17,3.36-2.93,14.31,2.62,17.23-.25,3.19-3.13-2.24-14.15.45-17.2,3-3.38,14.62.51,17-2.76,2.67-3.65-4.67-13.48-2.67-17,2.24-3.94,14.45-2.84,15.91-6.59,1.65-4.21-8.18-11.51-7.4-15.48.86-4.39,12.63-7.62,12.57-11.71-.07-4.41-12-7.22-13-11.26-1-4.24,8.37-12,6.59-15.84S140,28.51,137.6,25.07s3.65-14.14.78-17.16c-3-3.22-14.06,2.29-17.21-.3-4-3.26-18.43-11.78-42.95-5.15C65.55,5.88,54.32,21.62,38.07,27.84c-13.26,5.07-32,.5-46.86,7.49C-22,41.57-30.51,58.81-44.5,66.62c-13,7.24-32.15,5.32-45.37,13.95-12.58,8.21-18.54,26.46-31,36-12,9.18-31.24,10.09-42.82,20.5-11.3,10.14-14.25,29.1-24.83,40.43-10.39,11.13-29.14,15.39-38.56,27.69-9.26,12.07-8.51,31.22-16.59,44.45-7.92,13-25.35,21.06-31.88,35.15-6.38,13.74-1.34,32.22-6.17,47.05-4.67,14.33-19.7,26.28-22.73,41.64-2.9,14.73,6.39,31.49,5.19,47.18-1.15,14.9-13,30-12.46,45.78"/><path class="cls-2" d="M378.06,178.51s1.32-9.33,4.84-16.38,13.65-27.3,15-40.51.48-15.92,0-28c-.38-9.59,9.21-16.73,9.21-16.73s7.07-3.35,1.34,3.31-4.82,23.27-5.26,34.09-.88,17.87-3.52,26.67-6.93,22.51-7.43,27.55,2.25,20.82,2.25,20.82Z"/><path class="cls-16" d="M803.22,538.58s-1.35-1.61-3.87-4.58"/><path class="cls-17" d="M787.6,520.13C736,459.36,572.24,268.24,537.85,248.53c-36-20.66-312.47-130.65-378.28-156.74"/><path class="cls-16" d="M151.12,88.44l-5.58-2.21"/></svg>