<svg xmlns="http://www.w3.org/2000/svg" viewBox="0 0 755.67 742.13"><defs><style>.cls-1{fill:#8fe6ff;}.cls-2{fill:#2d8000;}.cls-3{fill:#2d721c;}.cls-4{fill:#7ec60c;}.cls-5,.cls-8{font-size:40px;}.cls-15,.cls-5,.cls-8{font-family:Magmatic-Light, Magmatic;}.cls-12,.cls-15,.cls-16,.cls-5,.cls-8{font-weight:300;}.cls-5,.cls-9{letter-spacing:0.07em;}.cls-6{letter-spacing:0.07em;}.cls-7{letter-spacing:0.07em;}.cls-8{letter-spacing:0.06em;}.cls-10{letter-spacing:0.07em;}.cls-11{letter-spacing:0.06em;}.cls-12,.cls-15,.cls-16{font-size:28px;}.cls-12,.cls-16{fill:#5b5d5e;font-family:Magmatic-LightCondensed, Magmatic;}.cls-12{letter-spacing:0.1em;}.cls-13{letter-spacing:0.11em;}.cls-14{letter-spacing:0.11em;}.cls-15{fill:#002f5c;}.cls-17{fill:none;stroke:#000;stroke-linecap:round;stroke-miterlimit:10;stroke-width:2px;stroke-dasharray:2 6;}.cls-18{fill:#fff;}</style></defs><title>Artboard 1 copy 4</title><g id="Bottom_matter" data-name="Bottom matter"><rect class="cls-1" x="-21.19" y="-3.77" width="737.22" height="791.29"/><text/></g><g id="_2012" data-name="2012"><path class="cls-2" d="M659,275.23c-3.23,10.15-14.86,24-25.51,27.39-8.13,2.55-21.17,1.21-29.43-.86-11.31-2.85-15.25-5.61-27.35-3.76-8.87,1.36-10.55,1.82-16.73,7.8-11.39,11-26.42,20.35-30.07,36-1.9,8.17-2.59,22.58-7.74,29.33-4.33,5.67-15,9.61-21.08,13.37,2,2.88,9.19,12.54,3.89,15.89-5.84,3.69-8.64-9.05-8.37-13.38-6.1.73-21-.52-25.81,3.1-4.3,3.24-10.27,21.16-11.58,26.54-2.23,9.2,5.84,14.38,9.48,23.49s1.05,19,.07,28.52c-.91,8.81-.51,19.51-3,28.07-2.78,9.46-9.46,19-13.75,27.85a207,207,0,0,0-12,31.48c-3,9.91-2.66,20.39-13.24,24.25-4.61,1.68-23.93-.94-23.89,5.54.07,9.59,20.76-.37,15,11.33-4.32,8.77-8.48-4.67-14.47-1.1-.14.08-2.81,7.91-3.76,9.27a49.23,49.23,0,0,1-6.24,6.6c6.33-.49,8,1.22,10.14,6.41.8,2,1.8,8.42,1.28,10.51-.91,3.66-2.58,3-3.69,5.24-.18.36,7.32,11.26,7.55,11.66,3.5,6.27,8,12.74,7.48,20.09-1.33,18.64-16.17,29.85-30.88,37.29-10.1,5.12-18.15,11.05-22.87,21.64-3.52,7.88-5.14,15.08-10.06,22.33q-11.65,17.15-22.9,34.57H608.28c3.15,0,13.07,1.77,15.87,0,2.18-1.38,3.37-8.63,4.16-11.15,3.71-11.91,6.94-24.32,7.84-36.8s-3.79-24.21-3.5-36.51c.23-9.53,6.76-10.15,9.33-18.76-17.72-2.83-21.24-25-28.24-39.17-5.14-10.44-12.53-18-11.62-29.54q4-50.82,7.81-101.66c1.42-19.23,2.83-38.47,4.08-57.71.51-7.9-1.88-24,1.54-31.1,2.26-4.72,14.82-11.65,19.36-13,5.46-1.65,22.43-5.46,25.84-9.31,3-3.42.34-17.89.17-22.16C659.55,340.66,660.37,309.4,659,275.23Z"/><path class="cls-3" d="M635.74,719.44c-3.92-22.44-4.48-29.64,0-31.93s6.24-9,6.24-9-11.85-1.7-13.53-6.74-20.19-46-26.93-54.41c0,0,1.92-24,4.33-55.32h0l-45.28,4.27-4.49,17.39-16-4.45-5.89,4.45L501.38,575s-10.93,21.7-13.46,31.75-9,78.21-17.11,86.62c0,0-32.82,43.76-48.25,44.6,0,0-13.18-37-25.24-40.39-9,4.49-25.81,10.1-32.54,22.44s-4.49,16.27-10.1,23.85-25.24,37.86-25.24,37.86H624.52S639.67,741.88,635.74,719.44Z"/><path class="cls-4" d="M121.31,138.8l17.95-9.53c1.4,6.72,2.72,13.5,3.52,20.32,1,8.79-.75,10,5.32,15.2s15.9,7.94,20.84,14.51c7.13,9.49-2.44,12.26-3.88,22.9-2,15.09,10.8,33.92,18.91,45.69,6.24,9.06,13.93,18.59,9.84,30-3.13,8.71-6.49,5.93-15.84,5.36,3.48-5.94,6.56-13.8,5.07-20.78-2.48-11.59-7.8-10.2-15.5-5.41-7.32,4.56-16.12,9.25-22.09,15.58-2,2.18-3.84,3.5-4.51,6.41-1.65,7.16,4,10.87,6.76,15.22.44.69,2.35,6.11,2.79,6.3,4.07,1.72,6.1-5.7,9.1-4.63,2.45.87,3.14,8.76,4.24,10.9,3.8,7.38,3.53,4.13,10.87,7.39,5.14,2.28,5.38,5.14,8.75,9.12,4,4.76,7.9,6.26,13.52,8.82,14.87,6.76,23.78,11.75,40.19,12.81,10.14.65,25.64-1.71,33.25,4.42,4.07,3.28,5.86,8.9,9,12.91,4.35,5.56,1.23,3.54,7.66,6.86,7.18,3.71,15.39,4.47,20.39,11.21,5.27,7.11,7.69,18.63,10.72,26.86a138.81,138.81,0,0,1,9.21,49.69c.13,9-2.78,20.12-1.69,28.74.75,5.94,10.38,12.87,4.32,19.56-2.16,2.39-6.86,1.69-8.56,3.64s-2.7,7.69-3.53,10.06c-2.86,8.2-5.5,16.49-8.41,24.66-5.41,15.2-11.74,30.12-17.87,45-6.3,15.3-11.58,34.57-21.32,48.14-7.44,10.36-32.53,29-45.12,28.84-16.22-.14-25-11.06-32.88-22.82-10.57-15.79-12.63-25.72-14.81-44.34-1.89-16.19-2.09-28,1.77-43.42,2.41-9.64,4.64-19.34,6.87-29,1.49-6.47,1.82-15.77,4.92-21.65,3.82-7.25,15.16-9,18.36-17.62,2.19-5.91-1.63-10.28-1.59-15.9,0-6.63,4.43-12.51,7.52-18.23,3.56-6.59,7.44-12.43,8.91-19.62,2.07-10.12,1.71-21.62,2.25-31.92,1.11-21.16-8.8-27.35-25.26-38.67a124.09,124.09,0,0,1-16.35-13.56c-.87-.83-15.2-14.31-14.8-14.38-5.58.86-1.5,11.21,2.63,11.84-9.75-1.49-22.88-7.75-32.55-6.57-3.62.44-7.09,5.78-10.66,5.83s-5.65-4.13-8.51-7.57c-11.36-13.67-15.53-34.18-17.78-51.7-.8-6.22-.62-12.65-1.14-18.91-.54-6.59-3.32-14.58-2.95-21,.29-5,2.45-8,7-9.94,1.92-.8,3.84,1.89,5.93.7,3.93-2.22,5.61-10.51,7.73-14,6.06-9.93,9.21-8.46,19.37-9.43,4.16-.4,7,.25,7.66-5.44,1.14-10.55-18.75-13.81-25.9-17.68-4.77-2.58-14.66-7.23-12.74-14.14.84-3,7.32-6.13,9.54-8.06,3.93-3.41,14.19-11.38,13.09-17.8C130.23,147,123.63,141.67,121.31,138.8Z"/><path class="cls-4" d="M446.69,113.56c-.16,5.14-2.05,13.15-.55,18,1.62,5.23,7.73,11,11.07,15.32,4,5.16,8,11.81,13.24,15.79s12,4.58,15.72,9.68c11.64,16.14-3.49,25-5,41.21-1.13,11.88,5.47,29.62,9,41,3,9.55,13.43,16,22.79,20.2,3.38,1.5,12.43,4.14,15,2.55,4.31-2.67,10-17.75,11.4-22.53,2.14-7.11-1.09-15.44,1-22.15,1.64-5.2,9-8.25,11-13.34,4.44-11.24,2.12-29.38,2.92-41.51,1.78-27,25.18-46.47,43.28-64.18,5.42,6.35,18.31,29.09,27.54,21.66,4.88-3.93,8.26-20.57,10.05-26.14,3.72-11.56,9-26.76,6.58-39.09S630,45,624.18,33.78L610.61,7.52c-2.83-5.47-5.93-16.16-10.49-20.28-4.81-4.35-11.91-1.28-19.27-.28l-60,8.15L464,2.85c-6.75.92-15.58-.21-17.86,5.14-2.38,5.59.09,17.5.12,23.57l.19,35.5Z"/><path class="cls-4" d="M98.87,180.88s-3.37,22.63-5.61,25.9-6.18,13.64-10.66,14.91-11.22,10.24-11.22,10.24L59,225.76S52.86,196,50.62,189.29s-11.22-14-11.78-20.19l30-3.93S92.13,171.34,95.5,173,99.78,175.14,98.87,180.88Z"/><path class="cls-4" d="M56.27,497.85c2.39,1.53-2.85,9.26-4.53,17.81s-11.78,22-17.39,26.5S13,554,8.54,552.26s5.61-15.14,11.22-19.63,19.64-16.27,19.08-23.56l-.56-7.3S50.14,493.92,56.27,497.85Z"/><path class="cls-4" d="M351.32,631.93l-12.91-7.3s0,21.58,2.25,27.06,6.17,7.72,14,8.29Z"/><path class="cls-4" d="M404.61,247.64c0,4.69-6.09,9-7.29,13.37-.94,3.4-1.24,14.09.26,17.1,2.55,5.12,12,6.12,13.67,12.61s-5.79,15.74.15,21.91c12.68-16.3,43.32-5.45,59.41,0-.68-4.61-1.82-10.51-5.12-14-3.58-3.8-12.16-4.77-14.49-9.24-1.06-2,.19-8.89.1-11.22-.25-6.33-.69-13.3-3-19.27C440.78,239.48,420.47,245.06,404.61,247.64Z"/><path class="cls-2" d="M374.32-.62,356.16,26c-2.06,3-5.77,11.6-9.07,13.29-2.95,1.51-6.83-.82-10.38-.35-6,.79-2.75-1.46-5.79,3.82s-3.86,13.5-5.54,19.35c-3.08,10.71-8.11,22.5-8.81,33.63-1.58,24.89,2.19,51.75,4.05,76.6,1.62,21.6,4.2,53.05,25.93,63.54a147.1,147.1,0,0,0,5.88-23c1.1-6.57-1.81-27.27.62-30.68,1.1-1.55,8.5-3.42,10.3-4.35a55,55,0,0,0,13.85-9.6c7.17-7.19,9.35-16.22,11.67-25.76,5.49-22.5,9.89-46.64,8.71-69.88-.35-6.82-4.52-16.71-2.57-22,2.1-5.73,10.55-12,14.65-16.67C417.47,42,423.3,49.24,433.5,53.81c7.6,3.41,7,1.72,7,8.41.07,7.76-3.91,16.93-5.27,24.6-2.35,13.17,3.43,26.36,8.3,38.6,2.82,7.09,1.3,5.93,8.13,5.28,6.29-.59,12.94-3.17,19.11-4.68v7.73l12.9-1.68L463,51.29c4.83-.53,12.67.22,17-1.84,5.32-2.55,1.76,1.42,3.42-4.3,2.79-9.6-8.07-26.8-3.4-35.4,2.51-4.61,20.79-4.88,26.86-5.82,2.65-.4,7.93-.35,9.45-2.07,1.94-2.19,0-14.1,0-17.33Z"/><path class="cls-4" d="M519.86,371.62c-6.77,4.51-11.83,8.63-18.76,12.9,2,2.88,9.19,12.54,3.89,15.89-5.84,3.69-8.64-9.05-8.37-13.38-6.93.83-21.57-2.19-26.33,2.28-3.62,3.41-13.36,26.48-12.94,31.68.85,10.74,31.17,16.16,39.58,19.5,7.77,3.08,15.47,6.31,23.15,9.62,3,1.31,10.06,6.17,13.39,5.89,13.9-1.17,8.46-19.86,7.9-28-.89-12.94-1-25.16,1.82-37.79,3.51-15.46,7.63-30.78,11.41-46.17,2.56-10.41,9.62-26.08,3.21-36.12-7.66,7.41-20.81,15.89-25.88,25.15-2.71,4.94-3.06,13.34-4.39,18.79C526.6,355.71,523.48,369.21,519.86,371.62Z"/><path class="cls-3" d="M650.33,286.23c-9.8,11.19-11.66,17.82-27.91,17.88-10,0-17-.57-26.28-4.28,9.43,14.9,5.62,23.12,2.08,39-2.22,9.91-3.74,13.5.22,22.22,9,19.85-.15,35.85-7.58,55.05,7.31.42,18.2,4.72,24.88,3.22,7.62-1.71,15.36-10.9,23.93-13,11-2.72,21.58-6.42,32.83-8.24,5.89-1,29.28-1,33-5.41,2.07-2.44,0-15.72,0-18.77v-147c-6.39,10.89-12.75,29.49-22.13,37.75.84-.75-17.38,5.82-17.59,5.89C654,274.21,658.47,276.92,650.33,286.23Z"/><path class="cls-1" d="M656.82,318.89c-11,7.11-39.79,20.67-32.23,37.44,2.2,4.89,7.88,7.27,13.4,6.59,9.3-1.14,3.31-4.85,7.55-8.48,2.6-2.22,11.21-2.27,11.92,2.33.9,5.78-11.06,2.36-11.06,6.36,0,1.11,3.5.88,3.36,2.35a44.86,44.86,0,0,1-1.06,5c.88,1.95,1.53,4.6,4.62,6.41,5.34,3.11,18.42,4.17,25,5.21,2.63.41,17.5,1.77,19.13,0s0-14.44,0-17c0-6.12,1.88-15.41,0-21.2-1.37-4.19-5.07-7.11-8.33-10.54s-8.29-11.1-12.71-13.12C671.63,318.07,662.13,319.26,656.82,318.89Z"/><path class="cls-1" d="M614.43,375.83c3.89,8.62,5,43.72,20.75,39.25-3.74-4.57-7.65-9.36-10.39-14.63-5.18-10-1.77-12.9,3.1-22C627.89,378.41,618.35,384.52,614.43,375.83Z"/></g><g id="Base"><text class="cls-5" transform="translate(393.51 176.83)">Bri<tspan class="cls-6" x="53.08" y="0">s</tspan><tspan class="cls-7" x="73.76" y="0">t</tspan><tspan x="89.68" y="0">ol</tspan></text><text class="cls-8" transform="translate(308.33 535.4)">P<tspan class="cls-9" x="26.28" y="0">o</tspan><tspan class="cls-10" x="48.92" y="0">r</tspan><tspan class="cls-11" x="63.36" y="0">t</tspan><tspan class="cls-9" x="79.04" y="0">smouth</tspan></text><text class="cls-12" transform="translate(328.32 293.5)">HOG IS<tspan class="cls-13" x="73.16" y="0">L</tspan><tspan class="cls-14" x="85.37" y="0">AND</tspan></text><text class="cls-15" transform="matrix(0.21, 0.98, -0.98, 0.21, 55.95, 337.56)">N</text><text class="cls-15" transform="translate(60.54 358.41) rotate(75.81)">a</text><text class="cls-15" transform="matrix(0.27, 0.96, -0.96, 0.27, 64.72, 374.58)">r</text><text class="cls-15" transform="translate(67.95 385.72) rotate(72.35)">r</text><text class="cls-15" transform="translate(71.5 396.82) rotate(69.91)">a</text><text class="cls-15" transform="translate(77.52 412.96) rotate(66.18)">g</text><text class="cls-15" transform="translate(84.65 428.77) rotate(61)">a</text><text class="cls-15" transform="matrix(0.6, 0.8, -0.8, 0.6, 93.63, 444.46)">n</text><text class="cls-15" transform="translate(103.52 457.63) rotate(61.88)">s</text><text class="cls-15" transform="translate(110.42 470.98) rotate(70.39)">e</text><text class="cls-15" transform="matrix(0.23, 0.97, -0.97, 0.23, 115.44, 485.9)">t</text><text class="cls-15" transform="matrix(0.16, 0.99, -0.99, 0.16, 118.08, 497.23)">t</text><text class="cls-15" transform="translate(119.94 509.27) rotate(83.68)"> </text><text class="cls-15" transform="translate(120.97 517.85) rotate(87.29)">B</text><text class="cls-15" transform="translate(121.74 537.93) rotate(91.03)">a</text><text class="cls-15" transform="translate(121.37 553.76) rotate(93.67)">y</text><text class="cls-16" transform="matrix(0.37, -0.93, 0.93, 0.37, 229.27, 611.9)">P</text><text class="cls-16" transform="translate(234.77 598) rotate(-69.31)">R</text><text class="cls-16" transform="matrix(0.34, -0.94, 0.94, 0.34, 240.05, 583.93)">U</text><text class="cls-16" transform="translate(245.27 569.32) rotate(-71.07)">D</text><text class="cls-16" transform="translate(250.28 554.6) rotate(-71.83)">E</text><text class="cls-16" transform="matrix(0.3, -0.95, 0.95, 0.3, 254.46, 541.81)">N</text><text class="cls-16" transform="matrix(0.29, -0.96, 0.96, 0.29, 259.17, 526.71)">C</text><text class="cls-16" transform="translate(263.56 511.93) rotate(-74.08)">E</text><text class="cls-16" transform="translate(267.23 498.97) rotate(-74.62)"> </text><text class="cls-16" transform="matrix(0.26, -0.97, 0.97, 0.26, 269.27, 491.52)">I</text><text class="cls-16" transform="matrix(0.25, -0.97, 0.97, 0.25, 271.41, 483.48)">S</text><text class="cls-16" transform="translate(275.03 469.21) rotate(-76.4)">L</text><text class="cls-16" transform="translate(278.07 456.58) rotate(-77.18)">A</text><text class="cls-16" transform="matrix(0.21, -0.98, 0.98, 0.21, 281.26, 442.44)">N</text><text class="cls-16" transform="translate(284.49 426.97) rotate(-79.08)">D</text><path class="cls-17" d="M-.43,84.39H281.19S270,203.32,292.41,231.93s74,19.64,74,19.64,28.05-24.69,56.1-23.57,51.88,29.18,58.48,44.32,39.14,27.69,75,16.93,71.81-57.68,141.38-59.93,81.9-27,81.9-27"/></g><g id="Top"><path class="cls-18" d="M388.84,20.31C385.26,20,376.48,5.11,365.66,7c-6.52,1.12-11.05,18.29-19.21,20-7,1.47-17.91-12.48-25.57-10.66-7.18,1.7-10.69,19.06-18.09,21s-18.91-11.49-26.07-9.41c-7.47,2.17-10,19.68-16.88,22-7.7,2.54-20.38-9.9-26.77-7.33-8.37,3.36-8,20.85-13,24s-18.57-7-23.16-4.06c-5.09,3.31-1.19,19.85-5.73,22.81-5.15,3.34-18.68-6.94-23.17-4-5.22,3.39-1.31,19.93-5.75,22.81-5.34,3.45-18.78-6.93-23.14-4.17-5.56,3.53-2,20.16-6.28,22.69-6,3.59-18.37-7.88-22.6-5.92-6.47,3-7.32,19.57-12.38,20-3.58.32-9.71-15-14-14.28-3.78.64-4.46,17.11-8.52,18.13-3.84,1-12.36-13.18-16.2-11.82s-1.37,17.61-5,19.37-15.42-9.79-18.61-7.48c-3.35,2.43,4.46,16.75,1.93,19.77s-18.33-1.38-19.75,2.43c-1.35,3.61,13.4,10.35,13.4,14.64,0,6.17-16,17.46-16,32,0,9.45,16,20.22,16.09,31.9,0,10.11-15.91,20.95-15.84,32,.07,10.47,16.15,21.08,16.25,31.81S15.88,326.87,16,337.31c.16,11.11,16.33,21.59,16.55,31.66.25,11.76-15.46,23-15.12,32.39.58,15.63,17.14,25.34,18,30.08.76,4-14.57,11.2-14.22,17.23.27,4.69,16.43,9.25,16.54,14.77C37.89,468.35,21.94,473.7,22,479c0,5,16,10.19,16,15.39s-16,10.27-16,15.38,16,10.32,16.07,15.33C38,530.47,22.13,536,22.3,540.87c.19,5.57,16.43,9.78,16.83,14.39.48,5.47-14.59,13.44-13.58,19.83.91,5.66,17.74,8.82,18.93,14.93,1.13,5.78-13.31,14.91-12,20.86S50.64,619.22,52,625c1.34,6-12.94,15.37-11.67,21.07,1.37,6.14,18.31,8.67,19.48,14.22,1.35,6.47-13.2,15.4-12.32,20.65,1.3,7.84,17.79,13.55,17.4,17.39-.82,8.11-4.7,20.92,7.51,25.55,7.38,2.8,20.87-10.32,31.59-8.52,8.56,1.43,16,18.44,26.05,19.35,9,.81,19.58-14.52,29.35-14,9.23.45,18.16,16.75,27.75,16.95,9.39.21,19.08-15.69,28.52-15.65S234.7,738,244,737.91c9.74-.09,19-16.22,28.12-16.37,10.62-.17,22.09,15.62,33.6,15.38,10.85-.23,21.63-16.48,32.94-16.78,11-.28,22.63,15.39,33.77,15s21.75-16.74,32.74-17.17c11.33-.45,23.19,15,34,14.52,11.55-.57,21.8-17.16,32.37-17.82,11.93-.76,24.32,14.37,34.43,13.47,13-1.15,22.26-18.29,31.14-19.69,6.64-1,16.42,14.2,25.74,13.86,7.49-.28,15.45-16.35,24.06-16.28,7.82.07,15.63,16.26,23.93,16.55,8,.28,16.89-15.33,25-14.9s15.41,16.9,23.29,17.43c8.48.56,17.79-14.8,25.39-14.21,9,.7,15.89,17.34,22.88,18,14.81,1.31,23.39-20.16,31.08-10.76,4.31,5.27-12.88,13.17-11.69,19.88s17,3.9,18.14,10.61-14.56,9.51-13.37,16.21,17,3.91,18.14,10.62-14.56,9.51-13.37,16.22,17,3.9,18.14,10.61-14.56,9.51-13.37,16.23,19.65,16.74,13.37,19.39c-47.44,20-43.76-12.83-106.37-9.13-29.82,1.76-63.8,19.77-101.88,21.92-32.37,1.84-67.92-12.22-103.7-10.29-33.63,1.8-67.4,19.59-102,21.32s-70-12.59-103.62-11.08c-35.8,1.61-69.84,19-102.24,20.22-38.13,1.4-73.52-13.56-103.38-13-59.44,1.07-104.35,13.64-108.16,9.59s3.41-52.08-4.57-115.12c-4-31.78-24.29-67.11-28.87-107.75-3.89-34.55,8-73.29,3.94-111.5-3.82-35.9-23.57-71.19-27.36-108.15s8.41-75.54,4.83-111.47c-3.8-38.23-23.37-73.71-26.74-108.31-4-40.7,8.37-79.55,5.32-111.44-6.39-66.93-64.3-77.54-23.78-115,19.2-17.76,31.83,13,58,12.18S-90.59-26-64.46-26.83s26.64,15.15,52.77,14.3S13.93-29.36,40.06-30.2,66.71-15,92.84-15.89s25.62-16.83,51.75-17.68,26.65,15.15,52.79,14.31S223-36,249.11-36.93c35.16-1.25,35.74,14.66,70.89,13.32s34.56-17.32,69.71-18.65,35.76,14.66,70.92,13.32,34.55-17.32,69.7-18.65,35.77,14.66,70.92,13.32S635.8-51.59,671-52.92s35.77,14.66,70.92,13.32,36.71-24.52,71.38-18.54c9,1.56-13.54,8.25-20.28,14.48s4.12,18-2.63,24.22-17.6-5.51-24.35.73,4.12,18-2.63,24.22S745.77,0,739,6.23s4.12,18-2.63,24.22S718.78,25,712,31.19s3.84,20.94-4.22,25.36c-5.8,3.19-3.31-17-10.65-21.38C694,33.28,682.54,45.23,677.92,43c-3.6-1.73-1.29-18.17-5.79-19.93-3.83-1.5-13.32,12.1-17.82,10.68-4-1.26-3.87-17.86-8.38-19-4.1-1-11.88,13.62-16.41,12.74-4.17-.81-5.88-17.32-10.43-18-4.22-.6-10.47,14.77-15,14.35-8.55-.8-16.54-17.24-25.9-17.51-8.65-.25-17.84,15.67-27.14,15.7-8.71,0-17.85-15.84-27.08-15.7-8.76.14-17.5,16.3-26.7,16.43-8.78.12-17.89-15.78-27.05-15.77-8.82,0-17.93,16-27.07,15.79-8.83-.17-17.29-16.43-26.4-16.85C407.88,5.6,397.92,21,388.84,20.31Z"/><path class="cls-18" d="M671.94-66.12c2.11,11.31-18.18,11.58-15.77,26.14,1.05,6.38,22,10.84,23.38,19.55C680.62-13.51,662-2.94,663.18,5.29c1,7.14,21.91,12,23,20,1,7.27-17.83,17.5-16.82,25.43.94,7.35,21.73,12.52,22.66,20.38.88,7.41-18.12,17.31-17.26,25.13.82,7.46,21.52,13,22.31,20.78.75,7.5-18.42,17.05-17.71,24.82.69,7.52,21.29,13.44,21.92,21.18.62,7.56-18.73,16.74-18.17,24.48.55,7.58,21,13.9,21.49,21.62s-19.07,16.38-18.68,24.09,20.71,14.39,21,22.09-19.44,16-19.24,23.64,20.35,14.94,20.45,22.62S688.28,317,688.27,324.66s19.91,15.55,19.78,23.2-20.32,14.84-20.59,22.48c-.25,7.15,19.47,15,19.18,22.05s-20.59,13.36-20.93,20.39S705,428,704.63,435.05s-20.74,13.16-21.14,20.18,19.14,15.43,18.71,22.44c-.43,7.17-20.84,13-21.29,20-.45,7.18,19,15.56,18.58,22.55-.47,7.19-20.9,13-21.36,19.94-.48,7.2,19,15.61,18.55,22.57-.48,7.23-20.9,13-21.34,20-.46,7.25,19.06,15.57,18.65,22.49-.43,7.27-20.79,13.26-21.15,20.16-.38,7.31,19.27,15.33,19,22.19-.3,7.36-20.52,13.83-20.68,20.65-.17,7.44,19.74,14.74,19.77,21.49,0,7.54-19.81,15.16-19.5,21.8.37,7.71,20.85,13.07,21.66,19.49,1,8-17.05,19.25-15.21,25.09,2.64,8.39,21.7,3.42,26.37,6.9,3.22,2.39,1,21.95,7.9,23,4.69.7,11.87-18.78,18-18.63,5,.12,10.58,20.06,16.4,19.86,5.15-.18,9.53-20.45,15.2-20.85,5.23-.38,12.34,19.09,17.92,18.55,5.27-.52,8.56-21,14.08-21.63,5.3-.61,13.16,18.56,18.62,17.85s8-21.26,13.42-22,13.68,18.2,19.07,17.37,7.6-21.43,13-22.31,14,17.95,19.38,17,7.32-21.56,12.61-22.51,14.36,17.74,19.61,16.77c5.47-1,7.12-21.67,12.33-22.67,5.51-1.05,14.66,17.55,19.8,16.54,5.59-1.1,7-21.78,12.07-22.8,5.73-1.16,15.09,17.34,20,16.32,6.07-1.25,7.31-22,11.83-22.92,10.08-2.15,25.45,16.86,27.64,9,5.76-20.64-20.7-17.7-22.59-44.75-.85-12.12,18.1-27.9,17-44.16-.92-13.11-21.87-26-23-41.37-.95-13.52,18-29.22,17-44.17-1-13.74-21.92-26.63-23-41.36-1-13.89,18-29.58,16.93-44.17-1-14-21.94-26.88-23-41.35-1-14.1,17.94-29.79,16.92-44.18-1-14.17-22-27-23-41.35s17.91-29.94,16.9-44.19-22-27.16-23-41.34c-1-14.39,17.89-30.1,16.87-44.2C976,207.8,955,195,954,181c-1.06-14.59,17.85-30.33,16.83-44.22-1.07-14.73-22.07-27.55-23.08-41.29-1.11-15,17.77-30.74,16.76-44.25C963.38,35.87,942.35,23.06,941.35,10c-1.25-16.26,17.56-32.21,16.58-44.31-2.18-27-13.59-31.83-14-31.83s-6.2-19.78-15.24-19.41c-4.2.18-8.36,20.37-14,20.6-4.54.19-10.35-19.58-15.67-19.36-4.68.2-8.8,20.39-14,20.6-4.76.21-10.56-19.57-15.67-19.35-4.82.2-8.93,20.39-14,20.61-4.86.2-10.66-19.57-15.68-19.36s-9,20.4-14,20.61S815-80.79,810-80.58,801-60.18,796-60s-10.77-19.56-15.69-19.35-9.1,20.4-14,20.61-10.83-19.56-15.68-19.35c-5.06.21-9.17,20.4-14,20.61C731.58-57.23,725.78-77,721-76.8c-5.19.22-9.3,20.41-14,20.61-5.32.23-11.14-19.54-15.69-19.35-5.64.24-9.78,20.44-14,20.61C668-54.53,671.94-66.12,671.94-66.12Z"/></g></svg>