<svg xmlns="http://www.w3.org/2000/svg" viewBox="0 0 720 742.13"><defs><style>.cls-1{fill:#8fe6ff;}.cls-2{fill:#2d8000;}.cls-3{fill:#7ec60c;}.cls-4{fill:#5b5d5e;}.cls-5{fill:#002f5c;}.cls-6{fill:none;stroke:#000;stroke-linecap:round;stroke-miterlimit:10;stroke-width:2px;stroke-dasharray:2 6;}.cls-7{fill:#fff;}</style></defs><title>Artboard 1 copy 4</title><g id="Bottom_matter" data-name="Bottom matter"><rect class="cls-1" x="-19.02" y="-6.77" width="737.22" height="791.29"/></g><g id="_2012" data-name="2012"><path class="cls-2" d="M661.17,272.23c-3.23,10.15-14.86,24-25.5,27.39-8.13,2.55-21.18,1.21-29.43-.86-11.31-2.85-15.25-5.61-27.35-3.76-8.87,1.36-10.55,1.82-16.73,7.8-11.39,11-26.43,20.35-30.08,36-1.9,8.17-2.58,22.58-7.73,29.33-4.33,5.67-15,9.61-21.08,13.37,2,2.88,9.18,12.54,3.89,15.89-5.84,3.69-8.64-9.05-8.38-13.38-6.1.73-21-.52-25.8,3.1-4.31,3.24-10.28,21.16-11.58,26.54-2.24,9.2,5.83,14.38,9.47,23.49s1.06,19,.07,28.52c-.91,8.81-.5,19.51-3,28.07-2.78,9.46-9.46,19-13.76,27.85a208.1,208.1,0,0,0-12,31.48c-3,9.91-2.65,20.39-13.24,24.25-4.61,1.68-23.92-.94-23.88,5.54.06,9.59,20.76-.37,15,11.33-4.32,8.77-8.49-4.67-14.48-1.1-.14.08-2.8,7.91-3.76,9.27a49.8,49.8,0,0,1-6.23,6.6c6.33-.49,8,1.22,10.13,6.41.81,2,1.81,8.42,1.29,10.51-.91,3.66-2.58,3-3.69,5.24-.18.36,7.32,11.26,7.54,11.66,3.51,6.27,8,12.74,7.48,20.09-1.33,18.64-16.16,29.85-30.87,37.29-10.11,5.12-18.15,11.05-22.88,21.64-3.51,7.88-5.13,15.08-10.05,22.33q-11.65,17.15-22.91,34.57H610.44c3.16,0,13.08,1.77,15.87,0,2.19-1.38,3.37-8.63,4.16-11.15,3.71-11.91,6.94-24.32,7.85-36.8s-3.8-24.21-3.5-36.51c.22-9.53,6.75-10.15,9.32-18.76-17.71-2.83-21.23-25-28.23-39.17-5.15-10.44-12.53-18-11.62-29.54q4-50.82,7.81-101.66c1.42-19.23,2.82-38.47,4.07-57.71.51-7.9-1.87-24,1.54-31.11,2.27-4.71,14.83-11.64,19.36-13,5.47-1.65,22.44-5.46,25.85-9.31,3-3.42.33-17.89.16-22.16C661.72,337.66,662.54,306.4,661.17,272.23Z"/><path class="cls-2" d="M637.91,716.44c-3.93-22.44-4.49-29.64,0-31.93s6.23-9,6.23-9-11.84-1.7-13.52-6.74-20.2-46-26.93-54.41c0,0,1.91-24,4.33-55.32h0l-45.28,4.27-4.49,17.39-16-4.45-5.88,4.45L503.55,572s-10.94,21.7-13.46,31.75-9,78.21-17.11,86.62c0,0-32.82,43.76-48.25,44.6,0,0-13.18-37-25.25-40.39-9,4.49-25.8,10.1-32.53,22.44s-4.49,16.27-10.1,23.85-25.25,37.86-25.25,37.86H626.69S641.84,738.88,637.91,716.44Z"/><path class="cls-3" d="M123.47,135.8l17.95-9.53c1.4,6.72,2.72,13.5,3.53,20.32,1,8.79-.75,10,5.32,15.2s15.9,7.94,20.84,14.51c7.13,9.49-2.45,12.26-3.88,22.9-2,15.09,10.8,33.92,18.9,45.69,6.24,9.06,13.94,18.59,9.84,30-3.12,8.71-6.48,5.93-15.84,5.36,3.49-5.94,6.56-13.8,5.07-20.78-2.47-11.59-7.79-10.2-15.49-5.41-7.33,4.56-16.12,9.25-22.09,15.58-2.06,2.18-3.84,3.5-4.51,6.41-1.65,7.16,4,10.87,6.76,15.22.44.69,2.35,6.11,2.79,6.29,4.06,1.73,6.1-5.69,9.09-4.62,2.45.87,3.15,8.76,4.25,10.9,3.79,7.38,3.53,4.13,10.87,7.39,5.13,2.28,5.38,5.14,8.75,9.12,4,4.76,7.9,6.26,13.51,8.82,14.88,6.76,23.78,11.75,40.2,12.81,10.14.65,25.64-1.71,33.25,4.42,4.07,3.28,5.86,8.9,9,12.91,4.34,5.56,1.23,3.54,7.65,6.86,7.19,3.71,15.4,4.47,20.4,11.21,5.27,7.11,7.69,18.63,10.72,26.86a138.58,138.58,0,0,1,9.2,49.69c.13,9-2.77,20.12-1.68,28.74.74,5.94,10.37,12.87,4.32,19.56-2.16,2.39-6.87,1.69-8.56,3.64s-2.7,7.69-3.53,10.06c-2.87,8.2-5.5,16.49-8.41,24.66-5.41,15.2-11.75,30.12-17.88,45-6.29,15.3-11.57,34.57-21.32,48.14-7.43,10.36-32.53,29-45.12,28.84-16.22-.14-25-11.06-32.88-22.82-10.57-15.79-12.63-25.72-14.8-44.34-1.89-16.19-2.1-28,1.76-43.42,2.41-9.64,4.64-19.34,6.87-29,1.49-6.47,1.83-15.77,4.93-21.65,3.82-7.25,15.15-9,18.36-17.62,2.18-5.91-1.63-10.28-1.59-15.9.05-6.63,4.42-12.51,7.51-18.23,3.56-6.59,7.45-12.43,8.92-19.62,2.07-10.12,1.71-21.62,2.25-31.92,1.1-21.16-8.81-27.35-25.26-38.67a124.85,124.85,0,0,1-16.36-13.56c-.86-.83-15.2-14.31-14.79-14.38-5.59.86-1.51,11.21,2.63,11.84-9.76-1.49-22.88-7.76-32.55-6.57-3.62.44-7.1,5.78-10.66,5.83s-5.65-4.13-8.51-7.57c-11.36-13.67-15.53-34.18-17.78-51.7-.8-6.22-.62-12.65-1.14-18.91-.55-6.59-3.33-14.58-3-21,.29-5,2.44-8,7-9.94,1.92-.8,3.85,1.89,5.94.7,3.92-2.22,5.6-10.51,7.73-14,6.06-9.93,9.2-8.46,19.36-9.43,4.17-.4,7.05.25,7.66-5.44,1.15-10.55-18.74-13.81-25.89-17.68-4.78-2.58-14.66-7.23-12.74-14.14.83-3,7.32-6.13,9.54-8.06C123.85,162,134.11,154,133,147.58,132.39,144,125.79,138.67,123.47,135.8Z"/><path class="cls-3" d="M448.85,110.56c-.15,5.14-2.05,13.15-.54,18,1.62,5.23,7.72,11,11.06,15.32,4,5.16,8,11.81,13.25,15.79s12,4.58,15.72,9.68c11.64,16.14-3.49,25-5,41.21-1.13,11.88,5.47,29.62,9,41,3,9.55,13.44,16,22.79,20.2,3.38,1.5,12.44,4.14,15,2.55,4.3-2.67,10-17.75,11.39-22.53,2.15-7.11-1.09-15.44,1-22.15,1.65-5.2,9-8.25,11-13.34,4.44-11.24,2.11-29.38,2.91-41.51,1.79-27,25.18-46.47,43.28-64.18,5.42,6.35,18.32,29.09,27.54,21.66,4.88-3.93,8.27-20.57,10.06-26.14,3.72-11.56,8.95-26.76,6.58-39.09s-15.82-25-21.59-36.21c-4.53-8.75-5.05-17.51-9.58-26.26-2.83-5.47-5.92-16.16-10.48-20.28C597.47-20.11,590.37-17,583-16l-60,8.15L466.16-.15C459.42.77,450.58-.36,448.31,5c-2.38,5.59.09,17.5.12,23.57l.18,35.5Z"/><path class="cls-3" d="M101,177.88s-3.36,22.63-5.61,25.9-6.17,13.64-10.66,14.91-11.22,10.24-11.22,10.24L61.2,222.76S55,193,52.78,186.29,41.56,172.27,41,166.1l30-3.93S94.3,168.34,97.67,170,101.94,172.14,101,177.88Z"/><path class="cls-3" d="M58.44,494.85c2.39,1.53-2.85,9.26-4.53,17.81s-11.78,22-17.39,26.5S15.2,551,10.71,549.26s5.61-15.14,11.22-19.63S41.56,513.36,41,506.07l-.56-7.3S52.31,490.92,58.44,494.85Z"/><path class="cls-3" d="M353.48,628.93l-12.9-7.3s0,21.58,2.24,27.06,6.17,7.72,14,8.29Z"/><path class="cls-3" d="M406.78,244.64c0,4.69-6.1,9-7.3,13.37-.93,3.39-1.23,14.09.26,17.1,2.55,5.12,12,6.12,13.68,12.61s-5.79,15.74.15,21.91c12.67-16.3,43.32-5.45,59.41,0-.68-4.61-1.83-10.51-5.13-14-3.58-3.8-12.16-4.77-14.49-9.24-1.05-2,.19-8.89.1-11.22-.24-6.33-.68-13.3-3-19.27C443,236.48,422.64,242.06,406.78,244.64Z"/><path class="cls-2" d="M376.48-3.62,358.33,23c-2.06,3-5.77,11.6-9.07,13.29-2.95,1.51-6.84-.82-10.38-.35-6,.79-9.65,17.32-11.34,23.17-3.07,10.71-8.1,22.5-8.81,33.63-1.57,24.89,2.19,51.75,4.06,76.6,1.62,21.6,4.19,53.05,25.92,63.54a144.91,144.91,0,0,0,5.88-23c1.11-6.57-1.81-27.27.62-30.68,1.11-1.55,8.5-3.42,10.3-4.35a55.06,55.06,0,0,0,13.86-9.6c7.17-7.19,9.34-16.22,11.67-25.76,5.48-22.5,9.88-46.64,8.71-69.88-.35-6.82-4.53-16.71-2.57-22,2.1-5.73,10.55-12,14.65-16.67,7.8,8.08,13.63,15.34,23.84,19.91,7.6,3.41,7,1.72,7,8.41.07,7.76-3.91,16.93-5.28,24.6-2.34,13.17,3.44,26.36,8.31,38.6,2.82,7.09,1.3,5.93,8.12,5.28,6.29-.59,12.95-3.17,19.12-4.68v7.73l12.9-1.68L465.12,48.29c4.83-.53,12.68.22,17-1.84,5.32-2.55,1.75,1.42,3.42-4.3,2.79-9.6-8.07-26.8-3.4-35.4,2.5-4.61,20.78-4.88,26.85-5.82,2.65-.4,7.94-.35,9.46-2.07,1.94-2.19,0-14.1,0-17.33Z"/><path class="cls-3" d="M522,368.62c-6.77,4.51-11.84,8.63-18.76,12.9,2,2.88,9.18,12.54,3.89,15.89-5.84,3.69-8.64-9.05-8.38-13.38-6.92.83-21.57-2.19-26.32,2.28-3.62,3.41-13.36,26.48-12.95,31.68.86,10.74,31.17,16.16,39.59,19.5,7.76,3.08,15.47,6.31,23.14,9.62,3,1.31,10.06,6.17,13.4,5.89,13.9-1.17,8.45-19.86,7.89-28-.89-12.94-1-25.16,1.83-37.79,3.51-15.46,7.62-30.78,11.41-46.17,2.56-10.41,9.61-26.08,3.21-36.12-7.67,7.41-20.81,15.89-25.89,25.15-2.71,4.94-3.06,13.34-4.38,18.79C528.76,352.71,525.64,366.21,522,368.62Z"/><path class="cls-2" d="M652.5,283.23c-9.8,11.19-11.66,17.82-27.91,17.88-10.05,0-17-.57-26.28-4.28,9.43,14.9,5.61,23.12,2.07,39-2.21,9.91-3.74,13.5.23,22.22,9,19.85-.16,35.85-7.58,55.05,7.3.42,18.2,4.72,24.87,3.22,7.63-1.71,15.37-10.9,23.94-13,11-2.72,21.58-6.42,32.83-8.24,5.89-1,29.27-1,33-5.41,2.08-2.45,0-15.72,0-18.77v-147c-6.38,10.89-12.74,29.49-22.13,37.75.85-.75-17.37,5.82-17.58,5.89C656.11,271.21,660.64,273.92,652.5,283.23Z"/><path class="cls-1" d="M659,315.89c-11,7.11-39.79,20.67-32.24,37.44,2.21,4.89,7.89,7.27,13.4,6.59,9.31-1.14,3.31-4.85,7.56-8.48,2.6-2.22,11.21-2.27,11.92,2.33.89,5.78-11.06,2.36-11.06,6.36,0,1.11,3.5.88,3.36,2.35,0,0-.93,5.31-1.06,5,.88,1.95,1.53,4.6,4.62,6.41,5.34,3.11,18.41,4.17,25,5.21,2.62.41,17.49,1.77,19.12,0s0-14.44,0-17c0-6.12,1.89-15.41,0-21.2-1.37-4.19-5.07-7.11-8.32-10.54s-8.29-11.1-12.71-13.12C673.8,315.07,664.3,316.26,659,315.89Z"/><path class="cls-1" d="M616.59,372.83c3.9,8.62,5,43.72,20.76,39.25-3.75-4.57-7.66-9.36-10.39-14.63-5.18-10-1.77-12.9,3.1-22C630.06,375.41,620.52,381.52,616.59,372.83Z"/></g><g id="Base"><path d="M418.39,165.79c0,3.48-.6,5.08-1.88,6.4-1.08,1.12-2.88,1.64-5.4,1.64H398.47V146.2h12.16c2.72,0,4.36.4,5.56,1.6,1,1,1.44,2.52,1.44,5.08s-.64,4.28-2.84,5.44C417.75,159.36,418.39,161.71,418.39,165.79Zm-16.56-8.63h8.64a3.88,3.88,0,0,0,2.88-.8c.6-.56.92-1.52.92-3.2s-.28-2.56-.84-3.12a4.12,4.12,0,0,0-2.92-.76h-8.68ZM415,165.43c0-2.56-.32-3.72-1.08-4.47s-1.68-.8-3.08-.8h-9v10.55h9c1.44,0,2.44-.16,3-.76C414.67,169.19,415,168.07,415,165.43Z"/><path d="M434.59,157.92h-.88c-3.68,0-5,1.4-5,4.27v11.64h-3.28V155.2h3l.2,1.88c1.12-1.36,3-2.2,5.76-2.24Z"/><path d="M440.07,152.76V148.6h3.28v4.16Zm0,21.07V155.2h3.28v18.63Z"/><path d="M451.31,172.35c-.88-.88-1.32-2.08-1.48-4.56l3.24-.24c.12,1.64.28,2.36.76,2.84.64.64,1.76.92,3.8.92,2.2,0,3.64-.28,4.2-.84a2.37,2.37,0,0,0,.52-1.8c0-1.6-1.56-2.16-5.2-3.2s-6.8-1.92-6.8-5.59a4.56,4.56,0,0,1,1.16-3.36c1.28-1.28,3.8-1.6,6.2-1.6,2.84,0,4.76.4,5.92,1.56,1,.92,1.36,2.2,1.6,4.6l-3.28.27c-.12-1.67-.32-2.31-.76-2.75-.76-.76-2-.84-3.56-.84s-3,.16-3.52.68a2,2,0,0,0-.48,1.44c0,1.47,1.32,1.87,5.16,3s6.8,2.16,6.8,5.68a5,5,0,0,1-1.2,3.84c-1.12,1.16-3.48,1.72-6.76,1.72C454.11,174.11,452.47,173.47,451.31,172.35Z"/><path d="M473.35,168.39V158.12h-3.48V155.2h3.48V150h3.28v5.24h4.76v2.92h-4.76v10.11c0,2.12.48,2.68,3,2.68h1.56l.16,2.92h-2.12C474.55,173.83,473.35,172.35,473.35,168.39Z"/><path d="M488.87,172.19c-1.6-1.6-2.16-3.88-2.16-7.72s.52-6,2.16-7.63c1.32-1.32,3.48-1.92,6.32-1.92s5,.6,6.28,1.88c1.64,1.68,2.16,3.84,2.16,7.67s-.52,6.08-2.16,7.72c-1.32,1.32-3.44,1.92-6.28,1.92S490.15,173.47,488.87,172.19ZM499,170c1-1,1.32-2.56,1.32-5.56s-.28-4.39-1.36-5.43c-.76-.8-2-1.08-3.68-1.08s-3,.28-3.8,1.12c-1,1-1.36,2.48-1.36,5.43s.36,4.56,1.36,5.56a5.35,5.35,0,0,0,3.76,1C496.91,171.11,498.15,170.83,499,170Z"/><path d="M510.39,173.83V144.72h3.28v29.11Z"/><path d="M302.65,474.44v11.95h-3.36V458.76H312c2.52,0,4.32.4,5.4,1.48,1.32,1.32,1.84,3,1.84,6.32s-.48,5-1.84,6.36c-1.08,1.12-2.88,1.52-5.4,1.52Zm9.08-3.12a4.2,4.2,0,0,0,3-.8c.76-.72,1.08-1.68,1.08-3.92s-.32-3.2-1-3.92a4.18,4.18,0,0,0-3.08-.84h-9.08v9.48Z"/><path d="M326.29,484.75c-1.6-1.59-2.16-3.88-2.16-7.71s.52-6,2.16-7.64c1.32-1.32,3.48-1.92,6.32-1.92s5,.6,6.28,1.88c1.64,1.68,2.16,3.84,2.16,7.68s-.52,6.08-2.16,7.71c-1.32,1.32-3.44,1.92-6.28,1.92S327.57,486,326.29,484.75Zm10.08-2.16c1-1,1.32-2.55,1.32-5.55s-.28-4.4-1.36-5.44c-.76-.8-2-1.08-3.68-1.08s-3,.28-3.8,1.12c-1,1-1.36,2.48-1.36,5.44s.36,4.56,1.36,5.55c.76.73,2,1,3.76,1S335.57,483.4,336.37,482.59Z"/><path d="M356.81,470.48h-.88c-3.68,0-5,1.4-5,4.28v11.63h-3.28V467.76h3l.2,1.88c1.12-1.36,3-2.2,5.76-2.24Z"/><path d="M363.77,481V470.68h-3.48v-2.92h3.48v-5.24h3.28v5.24h4.76v2.92h-4.76V480.8c0,2.12.48,2.67,3,2.67h1.56l.16,2.92h-2.12C365,486.39,363.77,484.92,363.77,481Z"/><path d="M378.09,484.92c-.88-.88-1.32-2.09-1.48-4.56l3.24-.24c.12,1.63.28,2.36.76,2.84.64.63,1.76.91,3.8.91,2.2,0,3.64-.28,4.2-.83a2.38,2.38,0,0,0,.52-1.8c0-1.6-1.56-2.16-5.2-3.2s-6.8-1.92-6.8-5.6a4.56,4.56,0,0,1,1.16-3.36c1.28-1.28,3.8-1.6,6.2-1.6,2.84,0,4.76.4,5.92,1.56,1,.92,1.36,2.2,1.6,4.6l-3.28.28c-.12-1.68-.32-2.32-.76-2.76-.76-.76-2-.84-3.56-.84s-3,.16-3.52.68a2,2,0,0,0-.48,1.44c0,1.48,1.32,1.88,5.16,3s6.8,2.16,6.8,5.68a5,5,0,0,1-1.2,3.84c-1.12,1.15-3.48,1.71-6.76,1.71C380.89,486.67,379.25,486,378.09,484.92Z"/><path d="M425.69,473.08v13.31h-3.24V473.6c0-2.48-1.8-3.08-3.88-3.08-3.48,0-4.68,1.4-4.68,3.4v12.47h-3.24V473.6c0-2.48-1.8-3.08-3.92-3.08-3.48,0-4.64,1.4-4.64,3.4v12.47h-3.28V467.76h3l.16,1.68c1.12-1.2,2.92-2,5.72-2,2.56,0,4.44.72,5.44,2.32,1.16-1.4,3.2-2.32,6.4-2.32C423.33,467.48,425.69,469.08,425.69,473.08Z"/><path d="M434.33,484.75c-1.6-1.59-2.16-3.88-2.16-7.71s.52-6,2.16-7.64c1.32-1.32,3.48-1.92,6.32-1.92s5,.6,6.28,1.88c1.64,1.68,2.16,3.84,2.16,7.68s-.52,6.08-2.16,7.71c-1.32,1.32-3.44,1.92-6.28,1.92S435.61,486,434.33,484.75Zm10.08-2.16c1-1,1.32-2.55,1.32-5.55s-.28-4.4-1.36-5.44c-.76-.8-2-1.08-3.68-1.08s-3,.28-3.8,1.12c-1,1-1.36,2.48-1.36,5.44s.36,4.56,1.36,5.55c.76.73,2,1,3.76,1S443.61,483.4,444.41,482.59Z"/><path d="M471.09,467.76v18.63h-3l-.16-1.72c-1.16,1.2-3,2-5.76,2-4,0-6.64-1.59-6.64-5.59V467.76h3.28v12.8c0,2.48,2,3.07,4.16,3.07,3.4,0,4.8-1.39,4.8-3.35V467.76Z"/><path d="M480.29,481V470.68h-3.48v-2.92h3.48v-5.24h3.28v5.24h4.76v2.92h-4.76V480.8c0,2.12.48,2.67,3,2.67h1.56l.16,2.92h-2.12C481.49,486.39,480.29,484.92,480.29,481Z"/><path d="M510.29,473.08v13.31H507V473.6c0-2.52-2-3.08-4.08-3.08-3.48,0-4.84,1.36-4.84,3.36v12.51h-3.28V457.28h3.28v12.16c1.2-1.2,3.08-2,5.84-2C507.77,467.48,510.29,469.08,510.29,473.08Z"/><path class="cls-4" d="M398.59,279.64h2.05v7.56h5.46v-7.56h2.07V299H406.1v-9.74h-5.46V299h-2.05Z"/><path class="cls-4" d="M414.41,298c-1.06-1.09-1.31-2.63-1.31-8.68s.25-7.59,1.31-8.65c.79-.78,2.1-1.15,4-1.15s3.19.37,4,1.15c1.1,1.09,1.32,2.6,1.32,8.65s-.25,7.59-1.32,8.65c-.81.82-2.09,1.18-4,1.18S415.2,298.77,414.41,298Zm6.39-1.54c.67-.67.81-1.71.81-7.11s-.14-6.47-.84-7.14a3.31,3.31,0,0,0-2.38-.67,3.39,3.39,0,0,0-2.41.67c-.7.7-.81,1.71-.81,7.14s.14,6.44.81,7.14a3.5,3.5,0,0,0,2.41.64A3.39,3.39,0,0,0,420.8,296.44Z"/><path class="cls-4" d="M438.49,287.79V290c0,5.88-.28,7-1.26,8a5.42,5.42,0,0,1-3.92,1.15,5.2,5.2,0,0,1-3.83-1.15c-1.09-1.09-1.32-2.49-1.32-8.68s.23-7.56,1.32-8.65a5.45,5.45,0,0,1,3.89-1.15c1.9,0,2.88.28,3.64,1s1.12,1.73,1.29,5.18l-2,.17c-.14-2.83-.36-3.36-.78-3.78a2.81,2.81,0,0,0-2.16-.59,3.25,3.25,0,0,0-2.32.67c-.7.7-.82,1.62-.82,7.14s.12,6.44.82,7.14a3.32,3.32,0,0,0,2.29.67,3.44,3.44,0,0,0,2.44-.64c.53-.53.7-1.32.7-6.39v-.42H433v-1.9Z"/><path class="cls-4" d="M385.9,324.59V305.24h2v19.35Z"/><path class="cls-4" d="M393.71,323.69c-.76-.75-.95-1.79-1-6.52l2-.14c.05,4.09.19,4.76.59,5.18a5.38,5.38,0,0,0,4.78,0c.34-.34.45-.84.45-2.32s-1.06-2.75-3.27-4.43-4.29-3.61-4.29-6.38c0-1.54.23-2.35.84-3s2.1-1,3.81-1,3,.28,3.72,1,.93,1.71,1,5.35l-2,.11c-.06-2.94-.2-3.58-.54-4a3.22,3.22,0,0,0-2.18-.5,3.31,3.31,0,0,0-2.21.5c-.31.28-.39.73-.39,1.49,0,1.82,1.37,3.08,3.52,4.81s4,3.34,4,6c0,2.07-.17,3.13-.87,3.83s-2.05,1-4.06,1S394.44,324.42,393.71,323.69Z"/><path class="cls-4" d="M415.07,322.66v1.93h-7.75V305.24h2.07v17.42Z"/><path class="cls-4" d="M426,319.89h-4.59l-.92,4.7H418.4l3.92-19.35h2.75L429,324.59h-2.1ZM425.6,318l-1.93-9.91L421.74,318Z"/><path class="cls-4" d="M442.9,305.24v19.35h-1.7l-6-15.29v15.29h-1.93V305.24h2.52L441,318.91V305.24Z"/><path class="cls-4" d="M448.31,305.24h4.84c1.76,0,2.88.23,3.67,1,1.06,1.06,1.26,2.58,1.26,8.65s-.2,7.59-1.29,8.65c-.76.79-1.93,1-3.72,1h-4.76ZM453,322.66a3.13,3.13,0,0,0,2.24-.59c.68-.7.79-1.68.79-7.14s-.11-6.47-.81-7.17a2.93,2.93,0,0,0-2.16-.59h-2.69v15.49Z"/><path class="cls-5" d="M80.47,346.41l-18.92,4.08-.4-1.83L75,335.25,59,338.69l-.48-2.21,18.91-4.08.65,3L65.81,347.25,80,344.2Z"/><path class="cls-5" d="M65.85,367.87l-.14-.57c-.39-1.52-.25-2.37.62-2.9a5.31,5.31,0,0,1-2.46-3.68c-.72-2.86.06-4.55,2.51-5.17,2.19-.56,3.34.19,4.58,1.67a20.37,20.37,0,0,1,2.88,5l.06,0c1.44-.36,1.75-1.39,1.31-3.13-.35-1.41-.76-2.21-1.33-2.55a3,3,0,0,0-1.75-.17l-.32-2.17a4.66,4.66,0,0,1,3,.45c1.12.67,1.81,1.91,2.35,4,.75,3,.08,5-2.63,5.7l-6.11,1.54c-.79.2-.87.57-.71,1.19l0,.14Zm3.35-4.46,2.85-.72a18.1,18.1,0,0,0-2.56-4.09,2.18,2.18,0,0,0-2.39-.87c-1.08.28-1.68,1-1.19,2.93C66.52,363.08,67.66,363.8,69.2,363.41Z"/><path class="cls-5" d="M79.79,376.19l-.17-.6c-.71-2.47-1.9-3.06-3.83-2.51L68,375.32l-.63-2.2,12.54-3.6.58,2-1.23.49a5,5,0,0,1,2.62,3.45Z"/><path class="cls-5" d="M83.16,387l-.19-.59c-.78-2.45-2-3-3.91-2.4l-7.76,2.47-.7-2.19L83,380.29l.63,2-1.22.54a5,5,0,0,1,2.72,3.36Z"/><path class="cls-5" d="M78.07,405.89l-.2-.56c-.54-1.47-.49-2.32.32-2.95a5.26,5.26,0,0,1-2.82-3.4c-1-2.76-.41-4.54,2-5.4,2.13-.78,3.34-.15,4.73,1.19a20.45,20.45,0,0,1,3.38,4.7l0,0c1.4-.51,1.61-1.57,1-3.26-.5-1.36-1-2.11-1.59-2.39a3,3,0,0,0-1.75,0l-.54-2.13a4.74,4.74,0,0,1,3.06.14c1.18.55,2,1.71,2.74,3.76,1,2.87.6,5-2,5.93l-5.92,2.16c-.76.28-.8.66-.58,1.26l0,.13ZM81,401.11l2.76-1a18.11,18.11,0,0,0-3-3.8,2.16,2.16,0,0,0-2.46-.62c-1.06.38-1.57,1.17-.89,3C78.24,401.05,79.45,401.66,81,401.11Z"/><path class="cls-5" d="M82.83,422.56c-2.67,1.18-4.55-.65-6.15-4.29-1.69-3.82-1.62-6,1-7.16a3.86,3.86,0,0,1,3.93.59,2.43,2.43,0,0,1,1.52-1.9,2.68,2.68,0,0,1,2.44.06,4.67,4.67,0,0,1,2.55-2.2,4.49,4.49,0,0,1,3.52-.36c1.14.45,2.09,1.62,2.94,3.54a14.63,14.63,0,0,1,.54,1.44l2.17.06.93,2.1-2.78-.06a2.82,2.82,0,0,1-.23,1,4.74,4.74,0,0,1-2.64,2.33,4.46,4.46,0,0,1-3.46.36c-1.14-.45-2.12-1.63-3-3.56a9.25,9.25,0,0,1-.85-3,1.14,1.14,0,0,0-1.09,0c-.75.32-.86.68,0,4S85.67,421.31,82.83,422.56Zm-.92-2c1.35-.6,1-2.05.23-4.88-.19-.71-.35-1.34-.47-2a2.93,2.93,0,0,0-3-.65c-1.43.64-1.39,1.9-.27,4.44C79.64,420.27,80.52,421.16,81.91,420.55ZM89,409.68a2.88,2.88,0,0,0-1.64,1.37,3.69,3.69,0,0,0,.46,2.76c.57,1.28,1,1.93,1.7,2.19a3.07,3.07,0,0,0,2.14-.27,2.75,2.75,0,0,0,1.6-1.38c.27-.64.1-1.45-.46-2.7s-1.06-2-1.75-2.23A2.63,2.63,0,0,0,89,409.68Z"/><path class="cls-5" d="M93.05,437l-.28-.51c-.76-1.38-.85-2.22-.14-3a5.25,5.25,0,0,1-3.32-2.93c-1.43-2.57-1.11-4.41,1.1-5.64,2-1.1,3.28-.66,4.86.45a20.61,20.61,0,0,1,4.07,4.11l0,0c1.3-.72,1.34-1.8.47-3.36-.71-1.28-1.3-1.94-2-2.13a3.08,3.08,0,0,0-1.73.29l-.86-2a4.7,4.7,0,0,1,3-.34c1.26.36,2.24,1.38,3.3,3.29,1.48,2.67,1.36,4.82-1.09,6.18l-5.51,3.05c-.71.4-.69.77-.38,1.34l.07.12Zm2.1-5.17,2.57-1.42a18,18,0,0,0-3.52-3.3,2.17,2.17,0,0,0-2.53-.23c-1,.54-1.37,1.4-.41,3.14C92.47,432.21,93.76,432.62,95.15,431.84Z"/><path class="cls-5" d="M110.67,445.85l-7.41,5.56-1.38-1.84,7.13-5.34c1.38-1,.94-2.42,0-3.63-1.44-1.93-2.86-2.05-4-1.23l-6.94,5.21-1.38-1.84,10.44-7.83,1.24,1.66-.94.85a5.43,5.43,0,0,1,3.63,2.41C112.8,442.05,112.89,444.19,110.67,445.85Z"/><path class="cls-5" d="M107.45,455.72c.25-.84.84-1.5,2.32-2.42l1.22,1.92c-1,.62-1.37.95-1.5,1.41s0,1.39.68,2.65,1.38,2.15,1.91,2.31a1.65,1.65,0,0,0,1.28-.27c1-.53.82-1.68.26-4.27s-1.06-4.83,1.21-6a3.18,3.18,0,0,1,2.46-.39c1.21.36,2.24,1.81,3,3.29.94,1.76,1.33,3.07,1,4.17-.25.9-.91,1.57-2.31,2.51l-1.25-1.93c1-.63,1.32-1,1.45-1.38a3.42,3.42,0,0,0-.66-2.48,4.19,4.19,0,0,0-1.58-1.95,1.46,1.46,0,0,0-1,.18c-.91.49-.72,1.44-.15,4.18s.92,4.91-1.26,6.07a3.47,3.47,0,0,1-2.76.52c-1.09-.3-2.21-1.58-3.3-3.6S107.14,456.8,107.45,455.72Z"/><path class="cls-5" d="M120.4,478.16a4.26,4.26,0,0,1-3.07-.1c-1.14-.54-2-1.81-2.7-3.76a5.65,5.65,0,0,1-.19-4.36c.72-1.57,2.1-2.36,4.64-3.26s4.09-1.1,5.53-.4a5.93,5.93,0,0,1,2.71,3.59c.62,1.74.74,3.09.22,4.2-.68,1.43-2.11,2.27-5.23,3.35l-3-8.41c-1.67.65-2.51,1.22-2.9,2a3.3,3.3,0,0,0,.16,2.62c.43,1.21.88,2,1.49,2.26a2.31,2.31,0,0,0,1.79,0Zm3.42-9.75a3.68,3.68,0,0,0-2.64,0l2.2,6.2c1.25-.5,1.83-.89,2.15-1.57a3.14,3.14,0,0,0-.14-2.47A3.32,3.32,0,0,0,123.82,468.41Z"/><path class="cls-5" d="M122,484.67l7-1.69-.57-2.37,2-.48.57,2.37,3.56-.86.54,2.23-3.56.86.78,3.24-2,.48-.78-3.24-6.89,1.67c-1.44.34-1.74.76-1.33,2.48l.26,1.06-2,.59-.35-1.44C118.45,486.38,119.26,485.32,122,484.67Z"/><path class="cls-5" d="M124.45,496.31l7.09-1.18-.39-2.4,2-.34.4,2.41,3.62-.6.38,2.26-3.62.6.54,3.29-2,.33-.55-3.28-7,1.16c-1.46.24-1.79.64-1.5,2.38l.18,1.08-2,.44-.24-1.46C120.83,497.77,121.71,496.77,124.45,496.31Z"/><path class="cls-5" d="M129.51,530.47c-2.43.12-3.57-.25-4.54-1.1a5.08,5.08,0,0,1-1.32-3.72l-.42-8.84,19.32-.92.41,8.51c.09,1.9-.14,3.06-.94,3.94s-1.71,1.09-3.5,1.17-3-.3-3.9-1.8C134,529.81,132.36,530.34,129.51,530.47Zm.14-2.39c1.79-.08,2.59-.34,3.1-.9a3,3,0,0,0,.45-2.18l-.3-6.29-7.38.35.3,6.29a3,3,0,0,0,.63,2.1C127,528,127.8,528.17,129.65,528.08Zm5.35-9.47.29,6a2.66,2.66,0,0,0,.65,2,4.29,4.29,0,0,0,4.43-.15,3,3,0,0,0,.43-2.07l-.29-6.07Z"/><path class="cls-5" d="M123.67,547.78v-.59c0-1.57.38-2.34,1.37-2.63a5.26,5.26,0,0,1-1.41-4.2c0-2.94,1.25-4.38,3.77-4.33,2.27,0,3.18,1.06,4,2.81a20.52,20.52,0,0,1,1.46,5.6h.06c1.48,0,2.06-.89,2.09-2.68,0-1.46-.15-2.33-.62-2.82a3,3,0,0,0-1.64-.61l.26-2.18a4.72,4.72,0,0,1,2.81,1.22c.91.94,1.25,2.32,1.21,4.51-.06,3.05-1.24,4.85-4,4.8l-6.3-.12c-.81,0-1,.32-1,1v.14Zm4.4-3.42,2.94,0a17.84,17.84,0,0,0-1.4-4.62c-.59-1.13-1.17-1.45-2.07-1.46-1.12,0-1.89.52-1.92,2.51C125.57,543.33,126.48,544.33,128.07,544.36Z"/><path class="cls-5" d="M135.79,563.49l-18.49-8.28.15-2.29,5.84,2.62,13.26-3.95L136.4,554,126,557l9.91,4.23Z"/><path class="cls-4" d="M224.53,602.62l8.12,3.24-.76,1.9-18-7.17,2-5.07a4.4,4.4,0,0,1,1.85-2.52c.94-.4,1.78-.31,4.54.79s3.44,1.58,3.86,2.56a4.4,4.4,0,0,1-.39,3.1Zm-.56-3.81a2.21,2.21,0,0,0,.22-1.54c-.23-.48-.63-.76-2.63-1.56s-2.46-.86-2.93-.65-.67.61-.93,1.26l-1.23,3.09,6.27,2.5Z"/><path class="cls-4" d="M231.42,583.83l9.07,1.75-.74,2-8.91-1.71-1.12,3,8.36,3.15-.73,1.91-18.1-6.83,1.93-5.11a4.22,4.22,0,0,1,1.8-2.55c.94-.43,1.75-.36,4.47.67s3.38,1.51,3.81,2.45A2.3,2.3,0,0,1,231.42,583.83Zm-3.48,4.31,1.17-3.11a2.14,2.14,0,0,0,.2-1.55c-.22-.47-.61-.7-2.6-1.46s-2.41-.82-2.88-.61a2.2,2.2,0,0,0-.88,1.29l-1.17,3.12Z"/><path class="cls-4" d="M242.06,578.71c-1,.49-2,.26-3.35-.22l-14.33-5.15.69-1.93,14.18,5.1c.9.32,1.42.43,1.93.19a3.5,3.5,0,0,0,1.3-2,3.34,3.34,0,0,0,.24-2.33c-.21-.49-.74-.74-1.64-1.06l-14.15-5.09.69-1.93,14.31,5.15a4.27,4.27,0,0,1,2.74,2c.44.93.28,2.3-.34,4S243,578.3,242.06,578.71Z"/><path class="cls-4" d="M229.52,558.91l1.57-4.58c.57-1.67,1.15-2.66,2.15-3.14,1.35-.67,2.84-.36,8.59,1.61s7.11,2.65,7.77,4c.49,1,.35,2.16-.23,3.86l-1.55,4.5Zm18,1.23a3.14,3.14,0,0,0,.17-2.31c-.44-.86-1.33-1.29-6.5-3.06s-6.15-2-7-1.56a3,3,0,0,0-1.26,1.85L232,557.6l14.65,5Z"/><path class="cls-4" d="M253.41,542.48l1.84.6-2.43,7.39-18.38-6,2.39-7.28,1.87.61-1.76,5.35,5.32,1.74,1.65-5,1.84.6-1.66,5,7.53,2.47Z"/><path class="cls-4" d="M241.42,522.69l18.45,5.8-.51,1.63L243,531.25l14.58,4.58-.57,1.84-18.46-5.8.76-2.4,14.58-.84-13-4.1Z"/><path class="cls-4" d="M252.13,511.69c-3.29-.9-4-.93-4.58-.61a3,3,0,0,0-1.26,2,3.26,3.26,0,0,0,0,2.39c.47.87,1.43,1.28,6.61,2.82s6.2,1.74,7.07,1.27a3.35,3.35,0,0,0,1.28-2,3.19,3.19,0,0,0,0-2.47c-.3-.56-1-1-5.22-2.31l.72-1.9c5,1.64,5.78,2.17,6.34,3.21s.58,2.28,0,4.08a5.31,5.31,0,0,1-2.2,3.35c-1.35.73-2.89.5-8.69-1.23s-7.17-2.4-7.91-3.74c-.55-1-.51-2.31,0-4s1.14-2.73,2.12-3.28,2-.56,6.1.54Z"/><path class="cls-4" d="M266.34,499.76l1.86.53-2.14,7.48-18.6-5.31,2.1-7.38,1.89.54L249.9,501l5.39,1.54,1.45-5.09,1.86.53-1.45,5.09,7.62,2.18Z"/><path class="cls-4" d="M271.75,487.33l-18.69-5,.52-2,18.7,5Z"/><path class="cls-4" d="M273.08,478.81c-.92.55-2,.48-6.57-.63l.36-2c4,1,4.66,1,5.16.72a3.53,3.53,0,0,0,1.12-2.14,3.59,3.59,0,0,0,.07-2.5c-.25-.41-.71-.64-2.15-1s-2.92.35-5.09,2.08-4.56,3.25-7.25,2.57c-1.49-.39-2.22-.8-2.66-1.55-.55-.92-.46-2.29,0-3.94s1-2.83,1.87-3.37,1.89-.47,5.43.38L263,469.4c-2.87-.67-3.53-.69-4-.46a3.17,3.17,0,0,0-1,2,3.33,3.33,0,0,0-.06,2.27c.19.37.61.56,1.34.75,1.76.45,3.32-.57,5.54-2.23s4.22-3.08,6.8-2.42c2,.51,3,.94,3.5,1.79s.47,2.23,0,4.18S274,478.29,273.08,478.81Z"/><path class="cls-4" d="M277.43,457.07l1.87.45-1.82,7.54-18.81-4.55.49-2,16.93,4.1Z"/><path class="cls-4" d="M277.34,445.11l-1,4.47,4.38,1.95-.45,2-18-8.12.61-2.67,19.73.47-.47,2.05Zm-1.91-.07-10.09-.31,9.23,4.08Z"/><path class="cls-4" d="M266.73,424.83l18.94,4-.36,1.67-16.19,2.71,15,3.15-.4,1.89-18.94-4,.53-2.47,14.44-2.24-13.38-2.82Z"/><path class="cls-4" d="M267.88,419.14l.92-4.75c.33-1.74.77-2.79,1.69-3.42,1.24-.84,2.76-.74,8.73.41s7.42,1.63,8.25,2.91c.63.89.65,2.09.31,3.85l-.9,4.67Zm18-1.28a3.22,3.22,0,0,0-.15-2.32c-.56-.79-1.5-1.09-6.86-2.12s-6.38-1.12-7.2-.56a2.91,2.91,0,0,0-1,2l-.51,2.64,15.2,2.94Z"/><path class="cls-6" d="M-1.27,90.39H280.36s-8.22,109.93,14.22,138.54,74.05,19.64,74.05,19.64,28.05-24.69,56.1-23.57,51.87,29.18,58.47,44.32,39.14,27.69,75.05,16.93,71.81-57.69,141.37-59.93,81.91-27,81.91-27"/></g><g id="Top"><path class="cls-7" d="M381,18.28C377.43,18,368.65,3.09,357.83,5c-6.53,1.12-11.05,18.29-19.21,20-7,1.47-17.91-12.48-25.58-10.66-7.18,1.7-10.69,19.06-18.08,21S276,23.8,268.88,25.88c-7.46,2.17-10,19.69-16.88,22-7.69,2.54-20.38-9.89-26.77-7.33-8.36,3.37-8,20.85-13,24.05s-18.58-7-23.16-4.06c-5.1,3.3-1.19,19.84-5.74,22.8-5.14,3.35-18.67-6.94-23.17-4-5.21,3.4-1.31,19.94-5.74,22.81-5.34,3.45-18.78-6.93-23.14-4.16-5.56,3.53-2,20.15-6.28,22.69-6,3.58-18.37-7.89-22.6-5.93-6.48,3-7.33,19.58-12.38,20-3.59.32-9.71-15-14-14.29-3.79.65-4.47,17.11-8.52,18.14-3.84,1-12.36-13.18-16.2-11.83s-1.37,17.61-5,19.38-15.41-9.79-18.6-7.48c-3.36,2.42,4.45,16.75,1.92,19.77S11.31,157,9.89,160.84C8.54,164.46,23.3,171.2,23.3,175.49c0,6.17-16,17.45-16,31.95,0,9.44,16,20.22,16.09,31.89,0,10.12-15.91,21-15.84,32,.06,10.47,16.15,21.09,16.25,31.81S8,324.85,8.19,335.29c.15,11.1,16.33,21.58,16.54,31.66C25,378.71,9.28,390,9.62,399.33c.57,15.63,17.14,25.34,18,30.08.75,4-14.58,11.2-14.23,17.24.28,4.69,16.44,9.25,16.54,14.77.1,4.9-15.86,10.25-15.84,15.57,0,5,16,10.2,16,15.4s-16,10.27-16,15.38,16,10.31,16.06,15.32c.06,5.35-15.84,10.88-15.68,15.75.19,5.57,16.43,9.79,16.84,14.4.48,5.46-14.6,13.44-13.58,19.82.9,5.67,17.74,8.82,18.93,14.94,1.13,5.77-13.32,14.9-12,20.85s18.2,8.34,19.5,14.17-12.94,15.36-11.66,21.07c1.37,6.14,18.31,8.67,19.47,14.21,1.36,6.48-13.19,15.4-12.32,20.65,1.31,7.84,17.8,13.55,17.41,17.39-.82,8.11-4.7,20.92,7.5,25.55,7.39,2.81,20.87-10.32,31.59-8.52,8.57,1.44,16,18.44,26.05,19.35,9,.81,19.58-14.52,29.36-14.05,9.22.45,18.15,16.75,27.74,17,9.4.2,19.09-15.69,28.52-15.66s19.09,16,28.37,15.91c9.74-.09,19-16.22,28.11-16.37,10.63-.17,22.09,15.63,33.61,15.38,10.85-.22,21.63-16.48,32.93-16.77,11-.29,22.64,15.38,33.78,15S386.32,716.4,397.3,716c11.33-.44,23.19,15,34,14.52,11.55-.56,21.81-17.15,32.37-17.82,11.94-.76,24.32,14.37,34.44,13.48,13-1.15,22.26-18.29,31.14-19.69,6.64-1.05,16.42,14.2,25.73,13.85C562.48,720,570.44,704,579,704c7.83.06,15.64,16.26,23.94,16.55,8,.28,16.89-15.33,25-14.91s15.42,16.91,23.3,17.43c8.48.57,17.79-14.79,25.38-14.2,9,.7,15.89,17.33,22.89,18,14.8,1.3,23.39-20.17,31.08-10.77,4.31,5.27-12.88,13.17-11.69,19.88s17,3.91,18.14,10.62-14.56,9.5-13.37,16.21,16.94,3.91,18.13,10.61-14.56,9.51-13.36,16.22,16.94,3.91,18.13,10.62-14.56,9.51-13.36,16.22,19.65,16.75,13.37,19.4c-47.44,20-43.77-12.84-106.37-9.14-29.82,1.77-63.81,19.77-101.88,21.93-32.38,1.83-67.93-12.22-103.7-10.3-33.63,1.81-67.41,19.59-102,21.33s-70-12.59-103.63-11.08c-35.8,1.61-69.84,19-102.24,20.22-38.13,1.39-73.52-13.56-103.37-13C-36.06,856.87-81,869.44-84.78,865.39s3.41-52.08-4.57-115.12c-4-31.77-24.29-67.11-28.86-107.74-3.89-34.55,8-73.3,3.93-111.5-3.81-35.9-23.57-71.2-27.35-108.16s8.41-75.54,4.83-111.46c-3.81-38.23-23.37-73.71-26.74-108.32-4-40.69,8.36-79.55,5.32-111.43-6.39-66.94-64.3-77.54-23.78-115,19.19-17.76,31.82,13,58,12.19S-98.43-28-72.3-28.86s26.65,15.15,52.78,14.31S6.1-31.38,32.23-32.23,58.88-17.08,85-17.92s25.62-16.83,51.75-17.67,26.65,15.15,52.78,14.31S215.14-38,241.27-39C276.43-40.2,277-24.3,312.17-25.63s34.55-17.32,69.71-18.66S417.64-29.63,452.8-31s34.54-17.32,69.7-18.65S558.26-35,593.42-36.29,628-53.61,663.13-54.94s35.76,14.65,70.92,13.32,36.42-23.81,71.21-18.57c8.67,1.31-13.06,7.37-19.8,13S789-29.3,782.2-23.68s-17-6.7-23.72-1.09S762-6.85,755.23-1.24s-17-6.69-23.73-1.08,3.49,17.91-3.26,23.53-17-6.69-23.73-1.07,3.11,20.37-4.66,24.46c-5.66,3-4.67-16.67-12.56-19.7-3.31-1.27-12.6,12.4-17.36,10.9-3.67-1.15-3.32-17.72-7.87-18.91-3.83-1-11.73,13.53-16.2,12.55-3.93-.87-5-17.4-9.39-18.21-4-.74-10.84,14.34-15.26,13.67-4.05-.61-6.14-17-10.54-17.57-4.1-.49-10,15-14.44,14.55-8.55-.79-16.55-17.24-25.91-17.51-8.65-.25-17.84,15.68-27.13,15.71-8.71,0-17.85-15.85-27.09-15.7-8.75.14-17.49,16.29-26.69,16.42C480.62,20.93,471.52,5,462.35,5c-8.81,0-17.93,16-27.06,15.78C426.46,20.66,418,4.4,408.88,4,400,3.57,390.08,19,381,18.28Z"/><path class="cls-7" d="M666-50.31s-9.05-.37-6.67,14c1,6.28,22,10.61,23.32,19.18C683.67-10.36,665,.08,666.18,8.18c1,7,21.88,11.73,23,19.64,1,7.15-17.87,17.24-16.89,25,.92,7.23,21.69,12.3,22.6,20,.86,7.29-18.16,17-17.33,24.74.8,7.33,21.48,12.77,22.24,20.44.74,7.37-18.46,16.78-17.77,24.42.67,7.4,21.24,13.22,21.85,20.85.6,7.43-18.77,16.46-18.24,24.07.53,7.45,21,13.69,21.43,21.29s-19.11,16.09-18.74,23.68,20.67,14.18,21,21.76-19.47,15.67-19.29,23.24,20.32,14.71,20.41,22.28-19.88,15.17-19.9,22.72,19.9,15.31,19.76,22.85-20.32,14.58-20.58,22.1c-.25,7.15,19.46,15,19.17,22.05s-20.59,13.36-20.92,20.39,19.28,15.24,18.91,22.27-20.73,13.16-21.13,20.18,19.13,15.43,18.71,22.44c-.44,7.17-20.84,13-21.29,20-.46,7.18,19,15.56,18.58,22.55-.47,7.19-20.9,13-21.36,19.94-.48,7.2,19,15.61,18.54,22.57-.47,7.23-20.89,13-21.33,20-.47,7.25,19.06,15.57,18.65,22.49-.43,7.27-20.8,13.26-21.16,20.16-.37,7.31,19.27,15.33,19,22.19-.29,7.36-20.52,13.83-20.67,20.65-.18,7.44,19.74,14.74,19.76,21.49,0,7.54-19.8,15.16-19.49,21.8.36,7.71,20.84,13.07,21.66,19.49,1,8-17,19.25-15.21,25.09,2.63,8.39,21.7,3.42,26.37,6.9,3.21,2.39,1,21.95,7.89,23,4.7.7,11.87-18.78,18-18.63,5,.12,10.58,20.06,16.39,19.86,5.16-.18,9.54-20.45,15.21-20.85,5.23-.38,12.33,19.09,17.91,18.55,5.28-.52,8.57-21,14.08-21.63,5.3-.61,13.16,18.56,18.63,17.85s8-21.26,13.42-22,13.67,18.2,19.07,17.37,7.6-21.43,13-22.31,14.05,17.95,19.38,17,7.32-21.56,12.6-22.51c5.44-1,14.37,17.74,19.62,16.77,5.46-1,7.12-21.67,12.32-22.67,5.52-1.05,14.67,17.55,19.81,16.54,5.59-1.1,7-21.78,12.07-22.8,5.73-1.16,15.09,17.34,20,16.32,6.06-1.25,7.31-22,11.82-22.92,10.08-2.15,25.45,16.86,27.64,9,5.76-20.64-20.7-17.7-22.59-44.75-.84-12.12,18.1-27.9,17-44.16-.92-13.11-21.88-26-22.95-41.37-1-13.52,18-29.22,16.95-44.17-1-13.74-21.93-26.63-23-41.36-1-13.89,18-29.58,16.93-44.17-1-14-21.95-26.88-23-41.35-1-14.1,17.94-29.79,16.91-44.18-1-14.17-22-27-23-41.35s17.92-29.94,16.9-44.19-22-27.16-23-41.34c-1-14.39,17.89-30.1,16.87-44.2-1-14.48-22-27.31-23-41.32C955.13,163.37,974,147.63,973,133.74,971.94,119,951,106.19,949.93,92.45c-1.1-15,17.78-30.74,16.77-44.25C965.55,32.87,944.52,20.06,943.51,7c-1.25-16.26,17.57-32.21,16.59-44.31-2.18-27-13.6-31.83-14-31.83s-6.43-19.64-15.44-19c-4.18.28-7.83,20.56-13.45,20.94-4.53.3-10.81-19.33-16.11-19-4.67.31-8.28,20.6-13.44,20.94-4.75.32-11-19.3-16.12-19-4.8.32-8.4,20.61-13.44,20.95-4.84.33-11.12-19.3-16.12-19s-8.46,20.62-13.43,21-11.18-19.29-16.13-19-8.51,20.62-13.43,21-11.24-19.28-16.14-19-8.56,20.62-13.43,21-11.3-19.28-16.14-19c-5,.34-8.62,20.63-13.43,21-5.09.34-11.38-19.28-16.13-18.95-5.17.35-8.75,20.64-13.42,20.95C705-53,698.68-72.58,694.15-72.27c-5.62.38-9.23,20.67-13.42,21Z"/></g></svg>