<svg xmlns="http://www.w3.org/2000/svg" viewBox="0 0 1957.6 1278.16"><defs><style>.cls-1{fill:#2d8000;}.cls-2,.cls-39{font-size:40px;}.cls-2,.cls-25,.cls-28,.cls-30,.cls-35,.cls-37,.cls-38{fill:#fff;}.cls-2,.cls-25,.cls-28,.cls-30,.cls-39{font-family:Magmatic-LightCondensed, Magmatic;}.cls-17,.cls-2,.cls-23,.cls-25,.cls-28,.cls-30,.cls-39{font-weight:300;}.cls-2{letter-spacing:0.11em;}.cls-3{letter-spacing:0.14em;}.cls-27,.cls-31,.cls-4,.cls-8,.cls-9{fill:none;}.cls-27,.cls-4{stroke:#fff;}.cls-27,.cls-31,.cls-38,.cls-4,.cls-8,.cls-9{stroke-miterlimit:10;}.cls-5{fill:#2d721c;}.cls-6{fill:#00571e;}.cls-7{fill:#7ec60c;}.cls-8{stroke:#58595b;stroke-width:10px;}.cls-31,.cls-8,.cls-9{stroke-linecap:round;}.cls-9{stroke:#000;stroke-width:3px;stroke-dasharray:2 6;}.cls-10,.cls-17,.cls-23,.cls-24{font-size:60px;}.cls-10,.cls-24,.cls-36{font-family:Magmatic-Thin, Magmatic;font-weight:200;}.cls-10,.cls-40{letter-spacing:0.14em;}.cls-11{letter-spacing:0.14em;}.cls-12{letter-spacing:0.13em;}.cls-13{letter-spacing:0.12em;}.cls-14,.cls-24{letter-spacing:0.14em;}.cls-15{letter-spacing:0.14em;}.cls-16{letter-spacing:0.12em;}.cls-17,.cls-23{font-family:Magmatic-Light, Magmatic;letter-spacing:0.07em;}.cls-18{letter-spacing:0.07em;}.cls-19{letter-spacing:0.07em;}.cls-20{letter-spacing:0.07em;}.cls-21{letter-spacing:0.08em;}.cls-22{letter-spacing:0.07em;}.cls-23,.cls-39{fill:#231f20;}.cls-25,.cls-28,.cls-30{font-size:67.5px;}.cls-25,.cls-39{letter-spacing:0.1em;}.cls-26{letter-spacing:0.14em;}.cls-27{stroke-width:1.5px;}.cls-28{letter-spacing:0.1em;}.cls-29{letter-spacing:0.14em;}.cls-30{letter-spacing:0.12em;}.cls-31{stroke:#bcbec0;stroke-width:2px;}.cls-32{fill:#0089fa;}.cls-33{fill:#002f5c;}.cls-34{fill:#8f2100;}.cls-36{font-size:184.45px;fill:#615d65;}.cls-37{font-size:120px;font-family:ModernPictogramsPro-v278, Modern Pictograms Pro;letter-spacing:0em;}.cls-38{stroke:#231f20;}</style></defs><title>Artboard 1 copy</title><g id="Bottom_matter" data-name="Bottom matter"><path class="cls-1" d="M1957.6-22.73c-131.12,0-1945.71-23.78-1957.6,0S-28.81,100.55-28.81,100.55L-1.07,1201.88,2006,1173.28Z"/><text class="cls-2" transform="translate(711.72 418.9)">4<tspan class="cls-3" x="20.68" y="0">7</tspan></text><circle class="cls-4" cx="730" cy="404.14" r="40.32"/><polyline class="cls-5" points="1412.53 669.2 754.99 686.66 136.98 699.32 138.68 895.8 158.53 1233.39 1673.26 1164.99 1570.46 660.42 1412.53 669.2"/></g><g id="_2002" data-name="2002"><path class="cls-6" d="M1412.78,670.5s-5.94,12.9,0,22.79,10.9,14.85,22.79,24.76,29.72,50.53,45.58,61.43,82.24,69.35,96.11,82.24,5,7.92,5,7.92-43.6,9.91-47.56,9.91-23.64,16.26-32.56,20.22-18,14.46-21.93,17.43-21.84,12.88-21.84,12.88l-15.1,7.24s-27.8-8.23-33.08-11.2-25.1-8.68-46.9-3.85-47.56,6.82-55.49,10.78-23.78,14.47-32.69,16.16-21.8,6.63-28.74,11.59-3,12.88-24.77,10.9-22.79-3.34-32.7.31-14.86,5.63-14.86,5.63,28.74,53.51,33.69,55.49,18.83,8.92,36.66,7.92,52.51-10.89,76.29-5,34.68,8.71,43.6,14.26,38.64,15.47,59.45,16.46,51.52,5.94,54.49,8.91-24.77,10.7-25.76,26.65,11.89,30,11.89,30l501.49-24s23.65-217,90-272.46,13-218.85,13-218.85l-185.43,17Z"/><path class="cls-7" d="M958.44,129.7,121.63,148.4,137,699.32l1161.75-23.8s50.82,75.3,60.09,89.18-.64,31.7-14.51,51.52l35.82,103s36.22,18.52,51.53,22.14,19.66-.1,47.4-13.1,33.69-40.74,57.47-42.72,59.45-6,59.45-6l21.8,19.82-79.31-388.4s-33.65,2-45.54,5.94,3,28.74-14.87,30.72c0,0-23.62-32.7-63.82-32.7s-89.75,7.93-103.62-5.95,4-83.23-11.89-109,9.91-19.81-27.74-29.72-41.62-35.67-85.21-39.63-45,21.79-79,13.87-45.89,15.85-55.79,7.92-13.88-15.85-27.75,5.95-2,49.54-17.83,31.7-25.77-49.54-29.73-75.3-23.3-33.69,20.06-77.28,65.11-69.36,45.31-73.32-76.92,17-82.65-34.56"/></g><g id="Base"><path class="cls-8" d="M139.47,788.48s126.33-27.75,139.46-25.77,43.49,37.66,71.9,25.77,137.41-40.93,171.1-40.28,195.82,4.61,206.9,10.55,40.8,15.85,92.32,9.91,200.15,15.85,206.1,33.69-8.82,41.61,32.25,47.56,169.87,5.94,189.69,17.83,49.54,67.38,99.08,77.29,82.46-11.89,98.7,0,71.72,39.63,123.25,49.54,85.49,48.33,128,61.82,105.88-6.54,139.57,52"/><polyline class="cls-9" points="1950.44 627.11 1570.46 660.42 1298.73 675.52 136.98 699.32"/><polyline class="cls-9" points="1980.42 106.79 1459.21 117.33 1673.26 1164.99"/><polyline class="cls-9" points="155.32 1164.99 136.98 804.33 121.63 148.4 1459.21 117.33"/><line class="cls-9" x1="117.76" y1="-2.73" x2="121.73" y2="150.53"/><text class="cls-10" transform="translate(561.98 96.69) rotate(-1.18)">M<tspan class="cls-11" x="54.84" y="0">AS</tspan><tspan class="cls-12" x="139.74" y="0">S</tspan><tspan class="cls-13" x="182.28" y="0">A</tspan><tspan class="cls-14" x="223.68" y="0">CH</tspan><tspan class="cls-15" x="316.02" y="0">U</tspan><tspan x="361.74" y="0">S</tspan><tspan class="cls-15" x="404.7" y="0">E</tspan><tspan class="cls-14" x="443.82" y="0">T</tspan><tspan class="cls-16" x="487.02" y="0">T</tspan><tspan x="528.84" y="0">S</tspan></text><text class="cls-17" transform="translate(721.44 406.99) rotate(-1.18)">Burrillville</text><text class="cls-17" transform="translate(738.25 945.42) rotate(-1.18)">Gloc<tspan class="cls-18" x="126.06" y="0">e</tspan><tspan class="cls-19" x="158.4" y="0">s</tspan><tspan class="cls-20" x="189.42" y="0">t</tspan><tspan class="cls-21" x="213.3" y="0">er</tspan></text><text class="cls-17" transform="translate(1671.03 442.85) rotate(-4.78)">No<tspan class="cls-22" x="77.64" y="0">r</tspan><tspan x="99.3" y="0">th</tspan><tspan x="-64.08" y="72">Smithfield</tspan></text><text class="cls-23" transform="translate(1637.49 756.19) rotate(-4.78)">Smithfield</text><text class="cls-24" transform="translate(95.94 701.27) rotate(-91.92)">CONN.</text><text class="cls-25" transform="translate(875.66 548.03)">4<tspan class="cls-26" x="34.56" y="0">7</tspan></text><circle class="cls-27" cx="904.65" cy="523.12" r="68.03"/><text class="cls-25" transform="translate(1517.93 323.81)">4<tspan class="cls-26" x="34.56" y="0">8</tspan></text><circle class="cls-27" cx="1549.48" cy="298.9" r="68.03"/><text class="cls-28" transform="translate(553.5 889.81)">4<tspan class="cls-29" x="34.9" y="0">0</tspan></text><circle class="cls-27" cx="586.94" cy="864.9" r="68.03"/><text class="cls-30" transform="translate(1765.62 914.72)">5<tspan class="cls-29" x="35.91" y="0">3</tspan></text><circle class="cls-27" cx="1799.34" cy="889.81" r="68.03"/><path class="cls-31" d="M139.47,788.48s126.33-27.75,139.46-25.77,43.49,37.66,71.9,25.77,137.41-40.93,171.1-40.28,195.82,4.61,206.9,10.55,40.8,15.85,92.32,9.91,200.15,15.85,206.1,33.69-8.82,41.61,32.25,47.56,169.87,5.94,189.69,17.83,49.54,67.38,99.08,77.29,82.46-11.89,98.7,0,71.72,39.63,123.25,49.54,85.49,48.33,128,61.82,105.88-6.54,139.57,52"/><rect class="cls-32" x="1448.07" y="1204.31" width="252" height="222.97"/><rect class="cls-33" x="1700.07" y="1204.31" width="252" height="222.97"/><rect class="cls-34" x="1952.07" y="1204.31" width="252" height="222.97"/></g><g id="Top"><polygon class="cls-35" points="2017.32 1283.14 -79.27 1318.38 -79.27 1087.19 2017.32 1087.19 2017.32 1283.14"/><text class="cls-36" transform="translate(-16.31 1246.66)">2002</text><text class="cls-37" transform="translate(1268.24 543.53)">*</text><path class="cls-38" d="M285.16,758.54c.65-5.7,5.81-13.39,5.87-13.47a.63.63,0,0,0-.11-.83l-13.09-11.53a.62.62,0,0,0-.82,0c-7,5.63-13.84,5.28-20.87-1.07a.64.64,0,0,0-.86,0c-7,6.35-13.85,6.7-20.87,1.07a.62.62,0,0,0-.82,0L220.5,744.24a.63.63,0,0,0-.1.83c0,.08,5.21,7.77,5.87,13.47.28,2.47-.91,4.93-2.3,7.78-1.75,3.6-3.93,8.09-3.93,14.35a18.71,18.71,0,0,0,5.88,13.65,22.32,22.32,0,0,0,11.76,6,74.53,74.53,0,0,1,9.93,2c6,1.9,7.49,5.42,7.51,5.46a.63.63,0,0,0,.83.35.6.6,0,0,0,.35-.35s1.47-3.55,7.51-5.46a74.53,74.53,0,0,1,9.93-2,22.32,22.32,0,0,0,11.76-6,18.71,18.71,0,0,0,5.88-13.65c0-6.26-2.18-10.75-3.93-14.35C286.07,763.47,284.87,761,285.16,758.54Z"/><text class="cls-39" transform="translate(235.96 782.59)">4<tspan class="cls-40" x="20.48" y="0">4</tspan></text></g></svg>