<svg xmlns="http://www.w3.org/2000/svg" viewBox="0 0 720 742.13"><defs><style>.cls-1{isolation:isolate;}.cls-2{fill:#8fe6ff;}.cls-3{fill:#2d8000;}.cls-4{fill:#7ec60c;}.cls-5{fill:#fff;}.cls-6,.cls-7{fill:none;stroke-linecap:round;stroke-miterlimit:10;}.cls-6{stroke:#58595b;stroke-width:10px;}.cls-7{stroke:#bcbec0;stroke-width:2px;}.cls-8{opacity:0.1;mix-blend-mode:multiply;}.cls-9{fill:#0089fa;}.cls-10{fill:#ed1c24;}</style></defs><title>Artboard 1 copy 2</title><g class="cls-1"><g id="Bottom_matter" data-name="Bottom matter"><rect class="cls-2" x="5.61" y="-3.05" width="771.19" height="747.17"/><path class="cls-3" d="M130.88,713.72c2.56-.68,37-10.16,46.89-14.79s38.32-12.55,50.87-13.87,22.46-6.6,33.68-9.91,36.34-11.23,41-10.57,4.62,5.95,15.19,4,11.89-11.42,15.85-8.35,29.33,7,29.33,7L451.9,535.12l11.23,3.3s11.89-11.23,11.23-16.51-8.53-7.27,0-10.57,2-7.93,0-15.2,0-19.15,4.29-20.47,10.6,3.26,10.6,3.26,7.54-11.19,4.9-20.44-10.57-29.05-8.59-36,7.73-34,9.15-49.22-3.2-24-3.2-24-11.89-1.73-11.89-7.67,4-15.86,4-15.86H477l-2,4.63s-2-9.17,0-12.84.66-12.26-4.62-15.57-22.89-4-15.41-10.57l7.48-6.6s-9.91-5.65-10.57-8.77,3.09-7.47,3.09-7.47-6.81-10.13,0-10.15,8.14,10.15,8.14,10.15,2-3.58,8.59-6.88,22-5.95,29.51-7.27S513,245.8,513,245.8V222.68H501.23l-7.05-5.51,7.05-12.33s-.45,2,6.16,0,5.58-7.92,5.58-7.92l-8.22-13.22s8-2.4,8.28-8.79-7.62-13.66-6.3-17-1.32-56.14-1.32-56.14H493.52L481.63,88l-13.21,8.47L455,101.8h-5.73L451.9,88s6.64,4.08,7,0a69.17,69.17,0,0,0,0-8.7s-5.63,1.32-7-3.31,0-11.89,0-11.89-9.25-7.26-3.3-11.89,10.25,0,10.25,0v6s10.89,1.32,18.15,2,18.5,2.64,27.75,3.3,23.78-3.3,27.08-.66.66,7.93,0,14.54,2,8.15,6.6,10.68,7.27,7.15,8.59,9.13,9.91,4,10.57-5.28-6.6-11.89,0-23.78,9.25-9.25,13.21-15.19-4-7.27-4-17.18a92.26,92.26,0,0,1,2-18.49L568.16,8,580.05-.59a87.31,87.31,0,0,1-19.82-6.47c-10.57-4.89-12.55-4.89-12.55-4.89H-15.11V756.4l21.14,4s14.53-9.24,27.74-9.24,27.09.66,27.09.66l15.85-7.93S85.3,733,88.6,731.51,118.79,716.91,130.88,713.72Z"/><path class="cls-3" d="M563.54,280.8c-4-.23-9.91-2.64-12.56,5.95s-7.3,14.53-7,19.16-1.63,5.28-3.61,19.81-.66,15.36-4,23.53-5.94,26.67-5.94,35.26S545,402.35,544,404.33s8.28,9.26,8.28,9.26-11.89,9.89-12.55,19.14c0,0-4.63,7.27-9.25,6.61s-10.57-6.52-11.89,0,5.28,6.25,4,12.35-1.32,19.31,0,23.28,8.59,11.23,5.29,13.87-8.94,7.26-9.43,11.23,0,21.8,0,21.8,12.07-4,13.39-9.91,1.32-20.48,1.32-20.48,9.87,4,10.88-2.64,3-13.87,0-17.18,1.28-7.26-3.15-13.87a41,41,0,0,1-5.75-12.55L544,444s8.28,9.91,7.62,13.21S547,471,552.31,471s7.92-5.28,11.23-4.62,9.9,3.3,13.87,1.32a36.94,36.94,0,0,0,7.92-5.94s-5.28-3.6-9.9-12.7-13.88-19.67-6.61-25.62S584,402,578.73,401.16s-13.21,2.51-10.57-6.74,5.28-15.85,4.62-31.05-5.28-18.49-1.32-25.1,4-20.47,3.3-34.35S569.45,281.16,563.54,280.8Z"/><path class="cls-4" d="M458.85,101.8l-118.58,3.8-9.91,3.46,9.25,16.52v17.83H303.28v81.91h37l4.62,12.55-4,127.49,14.53,32.36,4.63,25.1,25.76,5.95,46.9-4,2,7.93-6.61,51.52-10.57,32.37L402.36,537.1s-6.6,10.57-11.23,13.87-10.06,13.21-10.06,13.21l-2.49,19.68H367.35s-9.25,35.81-12.55,45.71-16.51,33.69-16.51,33.69,21.8,1.32,30.38,6,17.18,13.87,17.18,13.87l2,11.23s9.91.66,13.21,0-4-18.5,0-29.73,19.82-37,19.82-37a49,49,0,0,0,7.92-11.89c4-7.92,17.84-20.75,15.2-31.84s-6.61-23.64-3.31-28.93S447.94,543,451.9,540.4l4-2.64,3,6.12s5.6,1.8,4.28-5.46-17.83-4.62-18.49-17.18,4-32.36,4-38.31,2-39,2-39l-1.32-25.1s5.28-4,4-10.57,2-9.25,2.65-15.85,3.3-13.91-1.33-13.89-4,7.28-9.9,3.32,4.62-4-3.31-11.23-11.89,2.64-11.89-2.64v-5.29s-5.94,7.27-7.26.66-1.32-17.17-5.29-21.13S409.63,333.65,403,335s-7.26,7.27-10.57,4.62-9.7-4.62-9.14,0-10,17.18-10.67,5.29.66-13.21,1.32-19.82,7.47-18.49,9.35-20.48,7.82,7.93,7.82.67-6.6-22.46-11.23-28.41-15.85-17.83-12.55-25.1,9.91-17.17,9.25-27.74h18.5l1.32-19.16s-7.93-6.87-3.31-10.7,7.27-6.47,7.93-9.78,5.28-2,9.91-7.26,9.91-4.63,9.91-11.89.66-8.59,2-14.53,5.28-12.55,5.28-12.55l6.61-5.95,6.6,4s15.23-18.49,17.52-23.78A14.46,14.46,0,0,0,458.85,101.8Z"/><path class="cls-3" d="M518.23,413.59s-7.46.05-5.47,4-1.15,14,.21,13.81,1.08-7.08,5.26-8.91C523.07,420.38,527.08,414.27,518.23,413.59Z"/><path class="cls-5" d="M-60.54,716.81c9.77-11.57,19.42,16.88,37.74,17.32C-14,734.34-3.18,714.44,8,714.7c9.61.23,19.35,20.63,29.81,20.88,10,.24,20.7-19.67,30.77-19.43,10.39.24,20.14,20.64,29.83,20.86,11,.26,21.73-19.66,30.75-19.46,13.63.31,24,20.69,29.88,20.8,6.7.12,14.11-19.83,21.11-19.6,6.77.23,12.89,20.65,19.82,20.93s14.53-19.58,21.4-19.3,13,20.69,19.84,20.91,14.34-19.74,21.1-19.62c7,.12,13.83,20.32,20.51,20.26,7.13-.07,13.39-20.4,19.95-20.75,7.23-.38,17.1,19.09,26.45,18.3,7.82-.66,14.48-21.5,23.27-22.3,8.09-.73,18.28,18.59,26.81,17.84,8.29-.72,15.06-21.51,23.41-22.14s18.21,18.9,26.4,18.44c8.69-.48,16.37-21,24.35-21.13,9.07-.18,17.21,20,24.78,20.43,8.88.47,17.7-19.89,27.07-20.77,9-.85,21.13,17.64,30.2,15.74s12.83-23.71,21.53-26.44c8.92-2.79,24.54,12.92,32.77,9.43,8.82-3.74,8.22-25.86,15.79-30.16,8.67-4.92,27.8,6.37,34.17,1.06,8.34-7-1.33-25.82,1.64-32.74,2.34-5.47,23.11-6.84,23.93-14C666,626.58,646.14,619,646,612.1c-.15-6.39,19.48-14.31,18.78-21-.69-6.52-21.57-10.45-22.61-16.92-1.07-6.66,17.56-16.78,16.3-23-1.38-6.86-22.52-9.11-23.9-15-1.74-7.5,16.22-18.79,14.94-23.92-1.89-7.55-23.77-11.5-26.2-21.26-2-8.17,15.48-21.56,13.48-30.83-1.84-8.51-23.38-13.62-24.88-22.72-1.45-8.76,17.3-20.33,16.43-29.36s-21.5-16.95-21.55-25.9c0-9.1,20.47-17,21.53-25.78,1.1-9.08-16.8-22.06-14.24-30.52,2.13-7.05,23.57-9.79,25.31-18,1.58-7.47-16.81-19-15.53-27,1.23-7.73,22.29-12.8,23.26-20.68s-18.2-18.06-17.46-25.79c.78-8.18,21.52-14.46,22.06-22,.61-8.57-19.05-17.76-18.72-24.88.46-9.92,20.81-17.65,20.81-23.25,0-4.6-20.3-8.23-20.54-12.22-.28-4.55,19.4-10.45,19-14.49-.47-4.4-21-6.49-21.45-10.68s19.32-9.78,19.16-14.19c-.15-4-20.27-8.52-20-13.07.24-4,20.7-6.1,21.38-10.68.59-3.92-18.45-11.77-17.46-16.29,1.43-6.47,22.16-10.38,22.47-16.94s-20-12.81-20.58-19.33,18.3-16.13,17-22.49C651.4,7.23,630.2,5.73,628.36-.38c-2-6.66,14.83-19.5,12.59-25.26-2.67-6.87-23.88-5-26.33-10.19-5.18-10.92-7.86-10,1.85-11.93,11.7-2.28,11.07-18.53,22.92-17.16s9.54,21.39,21.38,22.76,14.17-18.66,26-17.29,9.53,21.4,21.38,22.77,14.17-18.66,26-17.29,9.54,21.4,21.39,22.77,31.95-21.2,34.67-9.58C804,18,773,22.32,775.61,82.67S798.36,142.16,801,202.52s-17.52,61.23-14.9,121.59S808.84,383.59,811.46,444s-17.52,61.23-14.91,121.59S819.31,625,821.93,685.39s3.06,60.42-14.48,118.23c-15.54,51.25-32.32,14.8-96.94,17.5-31.24,1.3-68.51-17.32-107.85-15.69-34,1.4-69.32,23-106.19,24.54-35.46,1.45-72.38-17.24-107.84-15.81-36.87,1.47-72.24,23.05-106.23,24.37-39.36,1.53-76.55-17.23-107.8-16.1-65,2.36-115.51,8.12-115,7.41s9.34-9-.82-18.7c-5-4.74-24.63,4.48-31-1.41C22.25,804.65,30,784.42,24,778.94c-5.76-5.26-25.21,4.31-31-.93-6-5.45,1.57-25.75-4-30.75-6.44-5.8-25.88,3.85-31-.74C-52.59,737-68.15,725.81-60.54,716.81Z"/></g><g id="Base"><path class="cls-6" d="M428.7-19.8S411.85,3,409.87,21.82s4,51.53-4.95,62.42-36.25,14.86-48.35,16.84-23,6-27.95,8.92-33.53,4-39.06,4-16.42,12.89-31.29,15.36-41.61-3.46-47.55,0-23.78,28.24-32.7,38.15S147.11,206.11,144.73,220s-4.36,64.29-8.33,72.28-26.75,51.29-30.71,63.82-1,44-33.69,62.95S.66,473.08-9.25,483.76s-37.65,49.32-49.54,52.29"/><path d="M440.7,662.28v2.36c0,6.12-.72,9-2.64,10.92-1.72,1.72-4.44,2.52-8.6,2.52-3.76,0-6.48-.8-8.24-2.56-2.16-2.16-2.8-5.44-2.8-11.56s.64-9.36,2.8-11.52c1.76-1.76,4.72-2.56,8.44-2.56,4.12,0,6.16.52,7.88,2.28,1.4,1.4,2.2,3.36,2.64,6.2l-3.32.4c-.44-2.12-.92-3.32-1.8-4.2-1.12-1.16-2.56-1.48-5.4-1.48-2.56,0-4.68.56-5.88,1.76-1.64,1.64-1.92,4.2-1.92,9.12s.32,7.6,1.92,9.2c1.2,1.2,3.12,1.76,5.76,1.76,3.08,0,5-.52,6.08-1.64s1.68-3.16,1.72-8H429v-3Z"/><path d="M463.58,677.8h-.84c-2.24,0-3.36-.48-3.8-1.88-1.24,1.4-3.2,2.12-6,2.12-4.2,0-6.28-1.68-6.28-5.28,0-3.24,1.44-4.56,3.92-5.76a29.38,29.38,0,0,1,8-2.24v-.08c0-2.12-1.32-2.92-3.88-2.92-2.08,0-3.32.28-4,1a4.3,4.3,0,0,0-.84,2.36l-3.12-.32a6.71,6.71,0,0,1,1.68-4c1.32-1.32,3.28-1.84,6.4-1.84,4.36,0,7,1.64,7,5.64v9c0,1.16.48,1.4,1.4,1.4h.2Zm-5-6.2v-4.2a25.73,25.73,0,0,0-6.56,2.12c-1.6.88-2,1.72-2,3,0,1.6.8,2.68,3.64,2.68C457.18,675.2,458.58,673.88,458.58,671.6Z"/><path d="M469.5,677.8V648.68h3.28V677.8Z"/><path d="M480.58,656.72v-4.16h3.28v4.16Zm0,21.08V659.16h3.28V677.8Z"/><path d="M491.66,677.8V648.68h3.28V677.8Z"/><path d="M517.78,672.16a6.1,6.1,0,0,1-1.6,4.08c-1.28,1.27-3.4,1.84-6.36,1.84s-4.76-.65-6-1.84c-1.76-1.72-2.16-4-2.16-7.8s.48-6,2.12-7.64c1.32-1.32,3.44-1.92,6.12-1.92s4.52.48,5.76,1.72c1.6,1.6,2,3.92,2,8.64H504.94c.08,2.56.44,4,1.36,4.88.76.76,1.8,1,3.6,1s3.08-.24,3.76-.92a3.29,3.29,0,0,0,.88-2.4Zm-11.48-9.28a5.23,5.23,0,0,0-1.28,3.56h9.4c-.08-1.92-.32-2.88-1.08-3.64a4.51,4.51,0,0,0-3.4-1C508.22,661.8,507.1,662.08,506.3,662.88Z"/><path d="M539.42,672.16a6.1,6.1,0,0,1-1.6,4.08c-1.28,1.27-3.4,1.84-6.36,1.84s-4.76-.65-6-1.84c-1.76-1.72-2.16-4-2.16-7.8s.48-6,2.12-7.64c1.32-1.32,3.44-1.92,6.12-1.92s4.52.48,5.76,1.72c1.6,1.6,2,3.92,2,8.64H526.58c.08,2.56.44,4,1.36,4.88.76.76,1.8,1,3.6,1s3.08-.24,3.76-.92a3.29,3.29,0,0,0,.88-2.4Zm-11.48-9.28a5.23,5.23,0,0,0-1.28,3.56h9.4c-.08-1.92-.32-2.88-1.08-3.64a4.51,4.51,0,0,0-3.4-1C529.86,661.8,528.74,662.08,527.94,662.88Z"/><path d="M78.18,641.56c-.24-2.76-.64-4.36-1.71-5.44s-2.74-1.56-5.65-1.56c-2.54,0-4.57.52-5.76,1.68-1.63,1.64-1.91,4.24-1.91,9.16s.32,7.6,1.91,9.2c1.19,1.2,3.14,1.72,5.68,1.72,3,0,4.69-.44,6.05-1.8.95-1,1.43-2.76,1.71-6l3.37.32c-.43,4.28-1.19,6.48-2.7,8-1.75,1.8-4.33,2.64-8.43,2.64-3.65,0-6.47-.8-8.22-2.56-2.15-2.16-2.79-5.52-2.79-11.56s.64-9.36,2.79-11.52c1.78-1.8,4.49-2.56,8.34-2.56s6.32.64,8.07,2.4c1.55,1.56,2.27,3.76,2.59,7.48Z"/><path d="M103.81,645.92v13.32h-3.26v-12.8c0-2.52-1.94-3.08-4-3.08-3.46,0-4.81,1.36-4.81,3.36v12.52H88.43V630.12h3.26v12.16c1.19-1.2,3.06-2,5.8-2C101.31,640.32,103.81,641.92,103.81,645.92Z"/><path d="M127.14,659.24h-.83c-2.23,0-3.34-.48-3.78-1.88-1.23,1.4-3.18,2.12-5.92,2.12-4.17,0-6.24-1.68-6.24-5.28,0-3.24,1.43-4.56,3.89-5.76a29.12,29.12,0,0,1,7.91-2.24v-.08c0-2.12-1.31-2.92-3.85-2.92-2.07,0-3.3.28-4,1a4.38,4.38,0,0,0-.83,2.36l-3.1-.32a6.7,6.7,0,0,1,1.67-4c1.31-1.32,3.26-1.84,6.36-1.84,4.33,0,6.91,1.64,6.91,5.64v9c0,1.16.48,1.4,1.4,1.4h.19Zm-5-6.2v-4.2a25.4,25.4,0,0,0-6.51,2.12c-1.59.88-2,1.72-2,3,0,1.6.79,2.68,3.62,2.68C120.78,656.64,122.17,655.32,122.17,653Z"/><path d="M142,643.32h-.88c-3.66,0-4.93,1.4-4.93,4.28v11.64H132.9V640.6h2.94l.2,1.88c1.12-1.36,3-2.2,5.73-2.24Z"/><path d="M147.41,659.24V630.12h3.26v29.12Z"/><path d="M173.37,653.6a6.15,6.15,0,0,1-1.59,4.08c-1.28,1.28-3.38,1.84-6.32,1.84s-4.73-.64-5.93-1.84c-1.75-1.72-2.14-4-2.14-7.8s.47-6,2.1-7.64c1.31-1.32,3.42-1.92,6.09-1.92s4.49.48,5.72,1.72c1.59,1.6,2,3.92,2,8.64H160.61c.08,2.56.43,4,1.35,4.88.75.76,1.79,1,3.58,1s3.06-.24,3.73-.92a3.29,3.29,0,0,0,.88-2.4ZM162,644.32a5.18,5.18,0,0,0-1.27,3.56H170c-.08-1.92-.32-2.88-1.08-3.64a4.43,4.43,0,0,0-3.37-1C163.87,643.24,162.75,643.52,162,644.32Z"/><path d="M180,657.76c-.87-.88-1.31-2.08-1.47-4.56l3.22-.24c.12,1.64.28,2.36.76,2.84.63.64,1.74.92,3.77.92,2.19,0,3.62-.28,4.18-.84a2.41,2.41,0,0,0,.51-1.8c0-1.6-1.55-2.16-5.17-3.2s-6.75-1.92-6.75-5.6a4.56,4.56,0,0,1,1.15-3.36c1.27-1.28,3.78-1.6,6.16-1.6,2.82,0,4.73.4,5.88,1.56,1,.92,1.35,2.2,1.59,4.6l-3.26.28c-.11-1.68-.31-2.32-.75-2.76-.76-.76-1.95-.84-3.54-.84s-2.94.16-3.5.68a2.07,2.07,0,0,0-.47,1.44c0,1.48,1.31,1.88,5.12,3s6.76,2.16,6.76,5.68A5,5,0,0,1,193,657.8c-1.11,1.16-3.46,1.72-6.72,1.72C182.78,659.52,181.15,658.88,180,657.76Z"/><path d="M201.9,653.8V643.52h-3.46V640.6h3.46v-5.24h3.26v5.24h4.73v2.92h-4.73v10.12c0,2.12.48,2.68,3,2.68h1.55l.16,2.92h-2.11C203.09,659.24,201.9,657.76,201.9,653.8Z"/><path d="M217.32,657.6c-1.59-1.6-2.14-3.88-2.14-7.72s.51-6,2.14-7.64c1.31-1.32,3.46-1.92,6.28-1.92s5,.6,6.24,1.88c1.63,1.68,2.15,3.84,2.15,7.68s-.52,6.08-2.15,7.72c-1.31,1.32-3.42,1.92-6.24,1.92S218.59,658.88,217.32,657.6Zm10-2.16c1-1,1.31-2.56,1.31-5.56s-.28-4.4-1.35-5.44c-.76-.8-2-1.08-3.66-1.08s-3,.28-3.77,1.12c-1,1-1.36,2.48-1.36,5.44s.36,4.56,1.36,5.56a5.27,5.27,0,0,0,3.73,1C225.31,656.52,226.54,656.24,227.34,655.44Z"/><path d="M263.63,640.6l-5.49,18.64H255.2l-5.09-13.32L245,659.24h-2.94L236.6,640.6h3.3l4,13.68,5-13.68h2.7l4.93,13.64,4-13.64Z"/><path d="M284.65,646v13.24h-3.26V646.52c0-2.48-1.95-3.16-4.09-3.16-3.42,0-4.77,1.52-4.77,3.48v12.4h-3.26V640.6h2.94l.16,1.8a7.74,7.74,0,0,1,5.84-2.08C282.15,640.32,284.65,642,284.65,646Z"/><path d="M122.46,447.79l3.5,12.48H122.5L119,448h-8.42v12.28h-3.34V432.63H120c2.46,0,4.25.36,5.36,1.48,1.36,1.32,1.83,3,1.83,6.16s-.47,4.88-1.79,6.2A5.15,5.15,0,0,1,122.46,447.79Zm-11.84-2.88h9.14c1.47,0,2.46-.16,3.06-.76.76-.76,1-1.6,1-3.84s-.23-3.08-1-3.8-1.63-.8-3.1-.8h-9.14Z"/><path d="M134.07,439.19V435h3.26v4.16Zm0,21.08V441.63h3.26v18.64Z"/><path d="M156.84,448.79c-.2-1.88-.44-2.8-1.11-3.48s-1.91-1-3.54-1a5,5,0,0,0-3.46,1.12c-1,1-1.35,2.56-1.35,5.48s.32,4.52,1.35,5.56a5,5,0,0,0,3.46,1c1.95,0,3-.28,3.74-1s.91-1.52,1.15-3.8l3.26.24c-.28,3.16-.84,4.64-2,5.72-1.31,1.32-3.38,1.84-6.28,1.84-2.62,0-4.65-.6-6-1.92-1.59-1.64-2.11-3.88-2.11-7.72s.52-6,2.11-7.64c1.31-1.32,3.34-1.92,6-1.92,2.86,0,4.81.48,6,1.72s1.71,2.8,1.95,5.44Z"/><path d="M182.16,447v13.32H178.9v-12.8c0-2.52-2-3.08-4.06-3.08-3.45,0-4.8,1.36-4.8,3.36v12.52h-3.26V431.15H170v12.16c1.19-1.2,3.06-2,5.8-2C179.65,441.35,182.16,443,182.16,447Z"/><path d="M216.22,447v13.32H213v-12.8c0-2.48-1.79-3.08-3.85-3.08-3.46,0-4.65,1.4-4.65,3.4v12.48h-3.22v-12.8c0-2.48-1.79-3.08-3.9-3.08-3.46,0-4.61,1.4-4.61,3.4v12.48h-3.26V441.63h2.94l.16,1.68c1.11-1.2,2.9-2,5.68-2,2.55,0,4.42.72,5.41,2.32,1.15-1.4,3.18-2.32,6.36-2.32C213.88,441.35,216.22,443,216.22,447Z"/><path d="M224.8,458.63c-1.59-1.6-2.14-3.88-2.14-7.72s.51-6,2.14-7.64c1.32-1.32,3.46-1.92,6.28-1.92s5,.6,6.24,1.88c1.63,1.68,2.15,3.84,2.15,7.68s-.52,6.08-2.15,7.72c-1.31,1.32-3.41,1.92-6.24,1.92S226.08,459.91,224.8,458.63Zm10-2.16c1-1,1.31-2.56,1.31-5.56s-.28-4.4-1.35-5.44c-.75-.8-2-1.08-3.66-1.08s-3,.28-3.77,1.12c-1,1-1.35,2.48-1.35,5.44s.35,4.56,1.35,5.56a5.28,5.28,0,0,0,3.73,1C232.79,457.55,234,457.27,234.82,456.47Z"/><path d="M261.45,447v13.24h-3.26V447.55c0-2.48-1.95-3.16-4.09-3.16-3.42,0-4.77,1.52-4.77,3.48v12.4h-3.26V441.63H249l.16,1.8a7.74,7.74,0,0,1,5.84-2.08C259,441.35,261.45,443.07,261.45,447Z"/><path d="M284.42,431.15v29.12h-2.86l-.2-1.76c-1.15,1.24-3,2-6.08,2-2.42,0-4.17-.52-5.37-1.72-1.51-1.48-2-3.8-2-7.88s.47-6.2,2-7.76c1.28-1.28,3-1.84,6-1.84a8.53,8.53,0,0,1,5.24,1.32V431.15Zm-3.22,22.36v-5.72c0-2.44-1.43-3.4-4.85-3.4-1.86,0-3,.28-3.77,1-1,1-1.31,2.52-1.31,5.52s.27,4.64,1.27,5.64c.75.76,1.87,1,3.57,1C279.73,457.59,281.2,456.31,281.2,453.51Z"/><path d="M415,561.22v27.63h-2.68L397.8,565.53v23.32h-3.24V561.22H399l12.84,20.71V561.22Z"/><path d="M439.24,588.85h-.84c-2.24,0-3.36-.48-3.8-1.88-1.24,1.4-3.2,2.12-6,2.12-4.2,0-6.28-1.68-6.28-5.28,0-3.24,1.44-4.56,3.92-5.76a29.38,29.38,0,0,1,8-2.24v-.08c0-2.12-1.32-2.92-3.88-2.92-2.08,0-3.32.28-4,1a4.3,4.3,0,0,0-.84,2.36l-3.12-.32a6.71,6.71,0,0,1,1.68-4c1.32-1.32,3.28-1.84,6.4-1.84,4.36,0,7,1.64,7,5.64v9c0,1.16.48,1.4,1.4,1.4h.2Zm-5-6.2v-4.2a25.73,25.73,0,0,0-6.56,2.12c-1.6.88-2,1.72-2,3,0,1.6.8,2.68,3.64,2.68C432.84,586.25,434.24,584.93,434.24,582.65Z"/><path d="M454.16,572.93h-.88c-3.68,0-5,1.4-5,4.28v11.64H445V570.21h3l.2,1.88c1.12-1.36,3-2.2,5.76-2.24Z"/><path d="M468.64,572.93h-.88c-3.68,0-5,1.4-5,4.28v11.64h-3.28V570.21h3l.2,1.88c1.12-1.36,3-2.2,5.76-2.24Z"/><path d="M489.88,588.85H489c-2.24,0-3.36-.48-3.8-1.88-1.24,1.4-3.2,2.12-6,2.12-4.2,0-6.28-1.68-6.28-5.28,0-3.24,1.44-4.56,3.92-5.76a29.38,29.38,0,0,1,8-2.24v-.08c0-2.12-1.32-2.92-3.88-2.92-2.08,0-3.32.28-4,1a4.3,4.3,0,0,0-.84,2.36l-3.12-.32a6.71,6.71,0,0,1,1.68-4c1.32-1.32,3.28-1.84,6.4-1.84,4.36,0,7,1.64,7,5.64v9c0,1.16.48,1.4,1.4,1.4h.2Zm-5-6.2v-4.2a25.73,25.73,0,0,0-6.56,2.12c-1.6.88-2,1.72-2,3,0,1.6.8,2.68,3.64,2.68C483.48,586.25,484.88,584.93,484.88,582.65Z"/><path d="M511.68,592c0,4.16-3.48,5.56-9.16,5.56-6,0-8.8-1.36-8.8-5.4a5.54,5.54,0,0,1,3-4.8,3.47,3.47,0,0,1-1.6-3.08,3.87,3.87,0,0,1,1.48-3.16,6.67,6.67,0,0,1-1.4-4.6c0-2.12.44-3.68,1.56-4.8s3.32-1.8,6.32-1.8a18.71,18.71,0,0,1,2.2.12l1.32-2.8h3.28l-1.68,3.6a3.89,3.89,0,0,1,1.2.88,6.73,6.73,0,0,1,1.52,4.8c0,2-.4,3.6-1.52,4.72s-3.36,1.84-6.36,1.84a13.48,13.48,0,0,1-4.36-.6,1.63,1.63,0,0,0-.6,1.44c0,1.16.4,1.52,5.24,2.24S511.68,587.57,511.68,592Zm-3.16,0c0-2.12-2.08-2.56-6.24-3.12-1-.16-2-.32-2.84-.52-1.84,1-2.56,2.32-2.56,3.52,0,2.24,1.68,2.92,5.64,2.92C506.84,594.85,508.52,594.21,508.52,592.05ZM498.4,576.53a4.1,4.1,0,0,0,.84,2.92c.72.76,2,1,3.88,1s3.12-.24,3.84-1a4.35,4.35,0,0,0,.88-3,4,4,0,0,0-.88-2.88c-.68-.72-1.84-1-3.8-1s-3.2.24-3.92,1A3.84,3.84,0,0,0,498.4,576.53Z"/><path d="M533.36,588.85h-.84c-2.24,0-3.36-.48-3.8-1.88-1.24,1.4-3.2,2.12-6,2.12-4.2,0-6.28-1.68-6.28-5.28,0-3.24,1.44-4.56,3.92-5.76a29.38,29.38,0,0,1,8-2.24v-.08c0-2.12-1.32-2.92-3.88-2.92-2.08,0-3.32.28-4,1a4.3,4.3,0,0,0-.84,2.36l-3.12-.32a6.71,6.71,0,0,1,1.68-4c1.32-1.32,3.28-1.84,6.4-1.84,4.36,0,7,1.64,7,5.64v9c0,1.16.48,1.4,1.4,1.4h.2Zm-5-6.2v-4.2a25.73,25.73,0,0,0-6.56,2.12c-1.6.88-2,1.72-2,3,0,1.6.8,2.68,3.64,2.68C527,586.25,528.36,584.93,528.36,582.65Z"/><path d="M554.64,575.61v13.24h-3.28V576.13c0-2.48-2-3.16-4.12-3.16-3.44,0-4.8,1.52-4.8,3.48v12.4h-3.28V570.21h3l.16,1.8a7.82,7.82,0,0,1,5.88-2.08C552.12,569.93,554.64,571.65,554.64,575.61Z"/><path d="M562.32,587.37c-.88-.88-1.32-2.08-1.48-4.56l3.24-.24c.12,1.64.28,2.36.76,2.84.64.64,1.76.92,3.8.92,2.2,0,3.64-.28,4.2-.84a2.37,2.37,0,0,0,.52-1.8c0-1.6-1.56-2.16-5.2-3.2s-6.8-1.92-6.8-5.6a4.56,4.56,0,0,1,1.16-3.36c1.28-1.28,3.8-1.6,6.2-1.6,2.84,0,4.76.4,5.92,1.56,1,.92,1.36,2.2,1.6,4.6l-3.28.28c-.12-1.68-.32-2.32-.76-2.76-.76-.76-2-.84-3.56-.84s-3,.16-3.52.68a2,2,0,0,0-.48,1.44c0,1.48,1.32,1.88,5.16,3s6.8,2.16,6.8,5.68a5,5,0,0,1-1.2,3.84c-1.12,1.16-3.48,1.72-6.76,1.72C565.12,589.13,563.48,588.49,562.32,587.37Z"/><path d="M598.08,583.21a6.1,6.1,0,0,1-1.6,4.08c-1.28,1.28-3.4,1.84-6.36,1.84s-4.76-.64-6-1.84c-1.76-1.72-2.16-4-2.16-7.8s.48-6,2.12-7.64c1.32-1.32,3.44-1.92,6.12-1.92s4.52.48,5.76,1.72c1.6,1.6,2,3.92,2,8.64H585.24c.08,2.56.44,4,1.36,4.88.76.76,1.8,1,3.6,1s3.08-.24,3.76-.92a3.29,3.29,0,0,0,.88-2.4Zm-11.48-9.28a5.23,5.23,0,0,0-1.28,3.56h9.4c-.08-1.92-.32-2.88-1.08-3.64a4.51,4.51,0,0,0-3.4-1C588.52,572.85,587.4,573.13,586.6,573.93Z"/><path d="M606.16,583.41V573.13h-3.48v-2.92h3.48V565h3.28v5.24h4.76v2.92h-4.76v10.12c0,2.12.48,2.68,3,2.68H614l.16,2.92H612C607.36,588.85,606.16,587.37,606.16,583.41Z"/><path d="M621.68,583.41V573.13H618.2v-2.92h3.48V565H625v5.24h4.76v2.92H625v10.12c0,2.12.48,2.68,3,2.68h1.56l.16,2.92h-2.12C622.88,588.85,621.68,587.37,621.68,583.41Z"/><path d="M262,171.79v3.12H245.11V147.27h16.68v3.12H248.47V158H261v3.12H248.47v10.64Z"/><path d="M302,159.39v2.36c0,6.12-.72,9-2.64,10.92-1.72,1.72-4.44,2.52-8.6,2.52-3.76,0-6.48-.8-8.24-2.56-2.16-2.16-2.8-5.44-2.8-11.56s.64-9.36,2.8-11.52c1.76-1.76,4.72-2.56,8.44-2.56,4.12,0,6.16.52,7.88,2.28,1.4,1.4,2.2,3.36,2.64,6.2l-3.32.4c-.44-2.12-.92-3.32-1.8-4.2-1.12-1.16-2.56-1.48-5.4-1.48-2.56,0-4.68.56-5.88,1.76-1.64,1.64-1.92,4.2-1.92,9.12s.32,7.6,1.92,9.2c1.2,1.2,3.12,1.76,5.76,1.76,3.08,0,5-.52,6.08-1.64s1.68-3.16,1.72-8h-8.32v-3Z"/><path d="M318,159h-.88c-3.68,0-5,1.4-5,4.28v11.64h-3.28V156.27h3l.2,1.88c1.12-1.36,3-2.2,5.76-2.24Z"/><path d="M338.27,169.27a6.1,6.1,0,0,1-1.6,4.08c-1.28,1.28-3.4,1.84-6.36,1.84s-4.76-.64-6-1.84c-1.76-1.72-2.16-4-2.16-7.8s.48-6,2.12-7.64c1.32-1.32,3.44-1.92,6.12-1.92s4.52.48,5.76,1.72c1.6,1.6,2,3.92,2,8.64H325.43c.08,2.56.44,4,1.36,4.88.76.76,1.8,1,3.6,1s3.08-.24,3.76-.92A3.29,3.29,0,0,0,335,169ZM326.79,160a5.23,5.23,0,0,0-1.28,3.56h9.4c-.08-1.92-.32-2.88-1.08-3.64a4.51,4.51,0,0,0-3.4-1C328.71,158.91,327.59,159.19,326.79,160Z"/><path d="M359.91,169.27a6.1,6.1,0,0,1-1.6,4.08c-1.28,1.28-3.4,1.84-6.36,1.84s-4.76-.64-6-1.84c-1.76-1.72-2.16-4-2.16-7.8s.48-6,2.12-7.64c1.32-1.32,3.44-1.92,6.12-1.92s4.52.48,5.76,1.72c1.6,1.6,2,3.92,2,8.64H347.07c.08,2.56.44,4,1.36,4.88.76.76,1.8,1,3.6,1s3.08-.24,3.76-.92a3.29,3.29,0,0,0,.88-2.4ZM348.43,160a5.23,5.23,0,0,0-1.28,3.56h9.4c-.08-1.92-.32-2.88-1.08-3.64a4.51,4.51,0,0,0-3.4-1C350.35,158.91,349.23,159.19,348.43,160Z"/><path d="M381.87,161.67v13.24h-3.28V162.19c0-2.48-2-3.16-4.12-3.16-3.44,0-4.8,1.52-4.8,3.48v12.4h-3.28V156.27h3l.16,1.8a7.82,7.82,0,0,1,5.88-2.08C379.35,156,381.87,157.71,381.87,161.67Z"/><path d="M414.51,156.27,409,174.91h-3l-5.12-13.32-5.12,13.32h-3l-5.52-18.64h3.32l4,13.68,5-13.68h2.72l5,13.64,4-13.64Z"/><path d="M420.31,153.83v-4.16h3.28v4.16Zm0,21.08V156.27h3.28v18.64Z"/><path d="M443.23,163.43c-.2-1.88-.44-2.8-1.12-3.48s-1.92-1-3.56-1a5,5,0,0,0-3.48,1.12c-1,1-1.36,2.56-1.36,5.48s.32,4.52,1.36,5.56a5,5,0,0,0,3.48,1c2,0,3-.28,3.76-1s.92-1.52,1.16-3.8l3.28.24c-.28,3.16-.84,4.64-2,5.72-1.32,1.32-3.4,1.84-6.32,1.84-2.64,0-4.68-.6-6-1.92-1.6-1.64-2.12-3.88-2.12-7.72s.52-6,2.12-7.64c1.32-1.32,3.36-1.92,6-1.92,2.88,0,4.84.48,6.08,1.72s1.72,2.8,2,5.44Z"/><path d="M468.71,161.59v13.32h-3.28v-12.8c0-2.52-2-3.08-4.08-3.08-3.48,0-4.84,1.36-4.84,3.36v12.52h-3.28V145.79h3.28V158c1.2-1.2,3.08-2,5.84-2C466.19,156,468.71,157.59,468.71,161.59Z"/><path d="M502.56,366.89c-1.6-1.64-1.8-3.56-1.84-9.36l3.32-.2c0,5.2.24,6.32,1.12,7.2s2.28,1.08,4.32,1.08,3.56-.32,4.32-1.12c.92-.88,1-2.24,1-4.44v-19.2h3.35v19.44c0,2.88-.36,5-1.8,6.52-1.31,1.31-3.71,2-7,2S503.92,368.2,502.56,366.89Z"/><path d="M542.15,368.49h-.84c-2.24,0-3.36-.48-3.8-1.88-1.24,1.4-3.19,2.12-6,2.12-4.2,0-6.28-1.68-6.28-5.28,0-3.24,1.44-4.56,3.92-5.76a29.41,29.41,0,0,1,7.95-2.24v-.08c0-2.12-1.31-2.92-3.87-2.92-2.08,0-3.32.28-4,1a4.3,4.3,0,0,0-.84,2.36l-3.12-.32a6.71,6.71,0,0,1,1.68-4c1.32-1.32,3.28-1.84,6.4-1.84,4.36,0,7,1.64,7,5.64v9c0,1.16.48,1.4,1.4,1.4h.2Zm-5-6.2v-4.2a25.63,25.63,0,0,0-6.55,2.12c-1.6.88-2,1.72-2,3,0,1.6.8,2.68,3.64,2.68C535.76,365.89,537.15,364.57,537.15,362.29Z"/><path d="M574.83,355.17v13.32h-3.24v-12.8c0-2.48-1.8-3.08-3.88-3.08-3.48,0-4.68,1.4-4.68,3.4v12.48h-3.24v-12.8c0-2.48-1.79-3.08-3.91-3.08-3.48,0-4.64,1.4-4.64,3.4v12.48H548V349.85h3l.16,1.68c1.12-1.2,2.92-2,5.72-2,2.55,0,4.43.72,5.43,2.32,1.16-1.4,3.2-2.32,6.4-2.32C572.47,349.57,574.83,351.17,574.83,355.17Z"/><path d="M597.39,362.85a6.1,6.1,0,0,1-1.6,4.08c-1.28,1.27-3.4,1.84-6.36,1.84s-4.76-.65-5.95-1.84c-1.76-1.72-2.16-4-2.16-7.8s.48-6,2.12-7.64c1.32-1.32,3.44-1.92,6.11-1.92s4.52.48,5.76,1.72c1.6,1.6,2,3.92,2,8.64H584.56c.08,2.56.44,4,1.36,4.88.75.76,1.8,1,3.59,1s3.08-.24,3.76-.92a3.29,3.29,0,0,0,.88-2.4Zm-11.47-9.28a5.23,5.23,0,0,0-1.28,3.56H594c-.08-1.92-.32-2.88-1.08-3.64a4.51,4.51,0,0,0-3.4-1C587.84,352.49,586.72,352.77,585.92,353.57Z"/><path d="M604.08,367c-.88-.88-1.32-2.08-1.48-4.56l3.24-.24c.12,1.64.28,2.36.75,2.84.64.64,1.76.92,3.8.92,2.2,0,3.64-.28,4.2-.84a2.37,2.37,0,0,0,.52-1.8c0-1.6-1.56-2.16-5.2-3.2s-6.79-1.92-6.79-5.6a4.56,4.56,0,0,1,1.16-3.36c1.27-1.28,3.79-1.6,6.19-1.6,2.84,0,4.76.4,5.92,1.56,1,.92,1.36,2.2,1.6,4.6l-3.28.28c-.12-1.68-.32-2.32-.76-2.76-.76-.76-2-.84-3.56-.84s-3,.16-3.51.68a2,2,0,0,0-.49,1.44c0,1.48,1.33,1.88,5.16,3s6.8,2.16,6.8,5.68a5,5,0,0,1-1.2,3.84c-1.12,1.15-3.48,1.72-6.76,1.72C606.88,368.77,605.24,368.12,604.08,367Z"/><path d="M626.12,363.05V352.77h-3.48v-2.92h3.48v-5.24h3.28v5.24h4.75v2.92H629.4v10.12c0,2.12.48,2.68,3,2.68H634l.16,2.92H632C627.32,368.49,626.12,367,626.12,363.05Z"/><path d="M641.64,366.85c-1.6-1.6-2.16-3.88-2.16-7.72s.52-6,2.16-7.64c1.32-1.32,3.48-1.92,6.31-1.92s5,.6,6.28,1.88c1.64,1.68,2.16,3.84,2.16,7.68s-.52,6.08-2.16,7.72c-1.32,1.31-3.44,1.92-6.28,1.92S642.92,368.12,641.64,366.85Zm10.07-2.16c1-1,1.32-2.56,1.32-5.56s-.28-4.4-1.36-5.44c-.76-.8-2-1.08-3.68-1.08s-3,.28-3.79,1.12c-1,1-1.36,2.48-1.36,5.44s.36,4.56,1.36,5.56a5.34,5.34,0,0,0,3.75,1C649.67,365.77,650.91,365.49,651.71,364.69Z"/><path d="M688.23,349.85l-5.52,18.64h-3l-5.12-13.32-5.12,13.32h-3L661,349.85h3.32l4,13.68,5-13.68h2.72l5,13.64,4-13.64Z"/><path d="M709.39,355.25v13.24h-3.28V355.77c0-2.48-2-3.16-4.12-3.16-3.44,0-4.8,1.52-4.8,3.48v12.4h-3.27V349.85h3l.16,1.8a7.78,7.78,0,0,1,5.87-2.08C706.87,349.57,709.39,351.29,709.39,355.25Z"/><path d="M272.56,299.12v27.63h-2.68l-14.56-23.31v23.31h-3.24V299.12h4.4l12.84,20.71V299.12Z"/><path d="M282.6,326.75v-4.48h3.92v4.48Z"/><path d="M320.88,306.36,328,326.75h-3.52l-6.24-17.92L311,315.59v11.16h-3.28V299.12H311v12.47l13.44-12.47h4.16Z"/><path d="M334.6,305.68v-4.16h3.28v4.16Zm0,21.07V308.11h3.28v18.64Z"/><path d="M361,313.51v13.24h-3.28V314c0-2.48-2-3.16-4.12-3.16-3.44,0-4.8,1.52-4.8,3.48v12.4h-3.28V308.11h3l.16,1.8a7.82,7.82,0,0,1,5.88-2.08C358.52,307.83,361,309.55,361,313.51Z"/><path d="M384.44,329.91c0,4.16-3.48,5.56-9.16,5.56-6,0-8.8-1.36-8.8-5.4a5.54,5.54,0,0,1,3-4.8,3.47,3.47,0,0,1-1.6-3.08A3.87,3.87,0,0,1,369.4,319a6.67,6.67,0,0,1-1.4-4.6c0-2.12.44-3.68,1.56-4.8s3.32-1.8,6.32-1.8a18.71,18.71,0,0,1,2.2.12l1.32-2.8h3.28l-1.68,3.6a3.89,3.89,0,0,1,1.2.88,6.73,6.73,0,0,1,1.52,4.8c0,2-.4,3.6-1.52,4.72s-3.36,1.84-6.36,1.84a13.48,13.48,0,0,1-4.36-.6,1.63,1.63,0,0,0-.6,1.44c0,1.16.4,1.52,5.24,2.24S384.44,325.47,384.44,329.91Zm-3.16,0c0-2.12-2.08-2.56-6.24-3.12-1-.16-2-.32-2.84-.52-1.84,1-2.56,2.32-2.56,3.52,0,2.24,1.68,2.92,5.64,2.92C379.6,332.75,381.28,332.11,381.28,330Zm-10.12-15.52a4.1,4.1,0,0,0,.84,2.92c.72.76,2,1,3.88,1s3.12-.24,3.84-1a4.35,4.35,0,0,0,.88-3,4,4,0,0,0-.88-2.88c-.68-.72-1.84-1-3.8-1s-3.2.24-3.92,1A3.84,3.84,0,0,0,371.16,314.43Z"/><path d="M390.12,325.27c-.88-.88-1.32-2.08-1.48-4.56l3.24-.24c.12,1.64.28,2.36.76,2.84.64.64,1.76.92,3.8.92,2.2,0,3.64-.28,4.2-.84a2.37,2.37,0,0,0,.52-1.8c0-1.6-1.56-2.16-5.2-3.2s-6.8-1.92-6.8-5.6a4.56,4.56,0,0,1,1.16-3.36c1.28-1.28,3.8-1.6,6.2-1.6,2.84,0,4.76.41,5.92,1.56,1,.92,1.36,2.2,1.6,4.6l-3.28.28c-.12-1.68-.32-2.32-.76-2.76-.76-.76-2-.84-3.56-.84s-3,.16-3.52.68a2,2,0,0,0-.48,1.44c0,1.48,1.32,1.88,5.16,3s6.8,2.16,6.8,5.68a5,5,0,0,1-1.2,3.84c-1.12,1.16-3.48,1.72-6.76,1.72C392.92,327,391.28,326.39,390.12,325.27Z"/><path d="M412.16,321.31V311h-3.48v-2.92h3.48v-5.23h3.28v5.23h4.76V311h-4.76v10.12c0,2.12.48,2.68,3,2.68H420l.16,2.92H418C413.36,326.75,412.16,325.27,412.16,321.31Z"/><path d="M427.68,325.11c-1.6-1.6-2.16-3.88-2.16-7.72s.52-6,2.16-7.64c1.32-1.32,3.48-1.92,6.32-1.92s5,.6,6.28,1.88c1.64,1.68,2.16,3.84,2.16,7.68s-.52,6.08-2.16,7.72C439,326.43,436.84,327,434,327S429,326.39,427.68,325.11ZM437.76,323c1-1,1.32-2.56,1.32-5.56s-.28-4.4-1.36-5.44c-.76-.8-2-1.08-3.68-1.08s-3,.28-3.8,1.12c-1,1-1.36,2.48-1.36,5.44s.36,4.56,1.36,5.56a5.35,5.35,0,0,0,3.76,1C435.72,324,437,323.75,437.76,323Z"/><path d="M464.56,313.51v13.24h-3.28V314c0-2.48-2-3.16-4.12-3.16-3.44,0-4.8,1.52-4.8,3.48v12.4h-3.28V308.11h3l.16,1.8a7.82,7.82,0,0,1,5.88-2.08C462,307.83,464.56,309.55,464.56,313.51Z"/><path class="cls-3" d="M566.75,215.36c-2.2,1.6,2,6.6-4,9.91s-12.55,9.24-5.95,8.58,15.2-4.57,15.86-9.22S574,210.07,566.75,215.36Z"/><path class="cls-7" d="M428.7-19.8S411.85,3,409.87,21.82s4,51.53-4.95,62.42-36.25,14.86-48.35,16.84-23,6-27.95,8.92-33.53,4-39.06,4-16.42,12.89-31.29,15.36-41.61-3.46-47.55,0-23.78,28.24-32.7,38.15S147.11,206.11,144.73,220s-4.36,64.29-8.33,72.28-26.75,51.29-30.71,63.82-1,44-33.69,62.95S.66,473.08-9.25,483.76s-37.65,49.32-49.54,52.29"/><g class="cls-8"><path d="M85.71,315.33c0,12.57,7,30.25,31.19,36.85,24.19-6.6,31.19-24.28,31.19-36.85a36.43,36.43,0,0,0-.57-6.33H86.29A35.46,35.46,0,0,0,85.71,315.33Z"/><path d="M138.5,289.8a16.68,16.68,0,0,1-10,3.11c-6.24,0-11.59-5.51-11.59-5.51s-5.34,5.51-11.58,5.51a16.68,16.68,0,0,1-10-3.11s-6.26,10.32-9,19.2h61.23C144.76,300.12,138.5,289.8,138.5,289.8Z"/><path d="M114.46,322.9c0,11.09-.1,12.37-1.29,13.56a6.25,6.25,0,0,1-4.34,1.28c-2,0-3.32-.4-4-1.15s-1-1.94-1.11-4.67l2.4-.14c.06,2.11.19,2.77.56,3.13a3.23,3.23,0,0,0,2.23.56,3.67,3.67,0,0,0,2.44-.66c.62-.62.72-1.64.72-5.72a4.79,4.79,0,0,1-3.68,1.31c-1.68,0-3-.29-3.85-1.15s-1.09-2.33-1.09-6.48.23-5.86,1.25-6.88,2.37-1.28,4.34-1.28a5.92,5.92,0,0,1,4.22,1.32C114.29,317,114.46,318.86,114.46,322.9Zm-2.44-.23c0-3.58-.1-4.51-.69-5.1a3.27,3.27,0,0,0-2.37-.66,3.5,3.5,0,0,0-2.47.66c-.56.59-.65,1.52-.65,5.07s.06,4.37.62,4.9a4.69,4.69,0,0,0,4.9,0C111.92,327,112,326.13,112,322.67Z"/><path d="M130.41,329.88c0,4.57-.23,5.65-1.15,6.58s-2.34,1.28-4.48,1.28-3.52-.4-4.34-1.22c-1-1-1.18-2.47-1.25-6.81l2.4-.13c.07,3.85.17,4.74.69,5.23a3.45,3.45,0,0,0,2.5.66,3.7,3.7,0,0,0,2.6-.63c.5-.46.59-1.31.59-5,0-3.52-.09-4.44-.59-4.93a3.17,3.17,0,0,0-2.37-.63c-1.71,0-2.46.3-2.92.92l-2.21-.49.56-9.9h9.05v2.3h-6.91l-.3,5.66a7.1,7.1,0,0,1,3.32-.69,5.24,5.24,0,0,1,3.72,1.05C130.24,324.09,130.41,325.3,130.41,329.88Z"/></g><path class="cls-9" d="M88.45,315.72c0,11.47,6.39,27.6,28.45,33.62,22.07-6,28.45-22.15,28.45-33.62a33.19,33.19,0,0,0-.52-5.77H89A33.17,33.17,0,0,0,88.45,315.72Z"/><path class="cls-10" d="M136.6,292.44a15.21,15.21,0,0,1-9.13,2.84c-5.69,0-10.57-5-10.57-5s-4.87,5-10.56,5a15.21,15.21,0,0,1-9.13-2.84S91.5,301.85,89,310h55.85C142.31,301.85,136.6,292.44,136.6,292.44Z"/><path class="cls-5" d="M114.67,322.63c0,10.11-.09,11.28-1.17,12.36a5.71,5.71,0,0,1-4,1.17c-1.8,0-3-.36-3.69-1.05s-1-1.77-1-4.26l2.19-.12c.06,1.92.18,2.52.51,2.85a3,3,0,0,0,2,.51,3.32,3.32,0,0,0,2.22-.6c.57-.57.66-1.5.66-5.22a4.38,4.38,0,0,1-3.36,1.2,4.74,4.74,0,0,1-3.51-1.05c-.81-.78-1-2.13-1-5.91s.21-5.34,1.14-6.27a5.49,5.49,0,0,1,4-1.17,5.4,5.4,0,0,1,3.84,1.2C114.52,317.26,114.67,318.94,114.67,322.63Zm-2.22-.21c0-3.27-.09-4.11-.63-4.65a3,3,0,0,0-2.16-.6,3.16,3.16,0,0,0-2.25.6c-.51.54-.6,1.38-.6,4.62s.06,4,.57,4.47a3.12,3.12,0,0,0,2.22.63,3.16,3.16,0,0,0,2.25-.63C112.36,326.35,112.45,325.57,112.45,322.42Z"/><path class="cls-5" d="M129.22,329c0,4.17-.21,5.16-1.05,6s-2.13,1.17-4.08,1.17-3.21-.36-4-1.11c-.9-.9-1.08-2.25-1.14-6.21l2.19-.12c.06,3.51.15,4.32.63,4.77a3.15,3.15,0,0,0,2.28.6,3.38,3.38,0,0,0,2.37-.57c.45-.42.54-1.2.54-4.56,0-3.21-.09-4-.54-4.5a2.91,2.91,0,0,0-2.16-.57c-1.56,0-2.25.27-2.67.84l-2-.45.51-9h8.25v2.1h-6.3l-.27,5.16a6.51,6.51,0,0,1,3-.63,4.77,4.77,0,0,1,3.39,1C129.07,323.71,129.22,324.82,129.22,329Z"/><path class="cls-5" d="M844.46-148.69c10.27.4-11.75,12-18.4,23.15-3,5,10,21.77,5.4,28.13-3.67,5.08-23.59-1.85-28.42,3.8-4.18,4.89,5.87,23.51.74,28.65-4.61,4.63-23.24-5.3-28.66-.6-5,4.31,2.22,24.19-3.48,28.45-5.3,4-22.33-8.52-28.29-4.68-5.58,3.6-1.19,24.28-7.37,27.71-5.82,3.23-21-11.42-27.42-8.4-6,2.85-4.31,23.92-10.85,26.54C691.52,6.54,678.2-9.86,671.52-7.63c-6.33,2.12-7.07,23.24-13.85,25.1-6.45,1.77-17.89-16-24.75-14.49-6.54,1.43-9.46,22.36-16.38,23.53-6.61,1.12-16.26-17.68-23.22-16.83-6.66.81-11.47,21.39-18.46,21.94-6.69.53-14.7-19-21.7-18.75-6.71.26-13.16,20.39-20.16,20.4-6.71,0-13.26-20.09-20.25-20.32-8.37-.27-17.51,19.42-26,19.11s-16.11-20.6-24.61-20.92-17.63,19.34-26.1,19-16.09-20.65-24.55-21-17.69,19.31-26.13,19S369.2,7.5,360.77,7.18s-17.69,19.33-26.1,19S318.44,5.59,310.05,5.3s-17.64,19.4-26,19.14c-8.55-.27-16.41-20.52-24.75-20.75-8.58-.24-17.54,19.54-25.85,19.36-8.61-.2-16.69-20.36-25-20.48-8.65-.14-17.33,19.77-25.58,19.72-8.7-.06-17.16-20.06-25.35-20-8.78.05-16.95,20.16-25.06,20.35-8.89.21-18.07-19.48-26.06-19.1-9.07.45-16.14,21-23.9,21.67C73.05,26.06,62,7.32,54.69,8.63c-10.77,1.94-12,22.82-17.19,25.9C34,36.61,16.71,37.05,15.41,52.73c-.67,8.17,18.87,19,18.65,30-.17,8.87-20.22,18.45-20.16,28.88,0,9.16,20.18,18.62,20.38,28.78.18,9.31-19.58,19.48-19.31,29.48.26,9.42,20.55,18.51,20.87,28.42.31,9.49-19.35,19.85-19,29.68.34,9.55,20.67,18.53,21,28.3.34,9.6-19.29,20-18.95,29.73s20.68,18.64,21,28.31-19.34,20-19,29.67,20.57,18.87,20.82,28.45c.25,9.8-19.52,19.95-19.33,29.48.19,9.86,20.34,19.26,20.43,28.73.11,9.95-19.85,19.72-19.87,29.11,0,10.06,19.86,20,19.66,29.27-.22,10.24-20.53,19.22-21,28.29C21,527.9,40.24,539.2,39.3,547.86c-1.25,11.48-22.44,17.39-24.5,24.83-1.94,7,16.83,18.22,16.89,28.13,0,7.79-19.26,17.65-18.14,26.92,1,8,22.07,13.48,23.73,22.4C38.79,658.22,21,670.72,23,679.41c1.87,8.11,23.35,11.67,25.6,20.21,2.13,8.12-14.86,21.72-12.44,30.13,2.34,8.12,24,10.64,26.53,19,2.5,8.12-14,22.35-11.29,30.58s24.33,10,27.1,18.12S65.16,820.2,68,828.29s24.6,9.49,27.51,17.5-12.83,23.13-9.86,31.08c3,8.17,24.8,9.13,27.82,17,3.14,8.2-12.4,23.45-9.35,31.24,3.24,8.26,25,8.9,28.07,16.58,3.35,8.36-12,23.83-8.9,31.37,3.49,8.55,25.27,8.91,28.3,16.19,3.76,9-11.32,24.77-8.47,31.48,6.37,15,35.6,21.36,24.7,28.2-6.76,4.25-12.62-19-20.58-19.49S138,1048.88,130,1048.36s-6.64-20.48-14.61-21-9.27,19.44-17.23,18.91-6.65-20.48-14.61-21-9.27,19.43-17.23,18.91-6.65-20.48-14.61-21-9.28,19.44-17.24,18.91-6.64-20.48-14.6-21S10.6,1040.5,2.64,1040-4,1019.5-12,1019s-9.28,19.44-17.24,18.91-6.65-20.48-14.61-21-9.27,19.43-17.24,18.91-6.64-20.49-14.61-21-9.27,19.43-17.24,18.91-6.65-20.48-14.61-21-9.28,19.44-17.24,18.91-3.43-6.18-5.68-13.84c-7.88-26.81-20-25-20.4-52.92s19.6-28.23,19.2-56.16-20.4-27.66-20.8-55.6,19.6-28.22,19.2-56.16-20.4-27.65-20.8-55.59,19.59-28.23,19.19-56.17-20.4-27.65-20.8-55.58,19.6-28.23,19.2-56.17-20.4-27.65-20.8-55.59,19.6-28.23,19.2-56.17-20.4-27.65-20.8-55.59,19.59-28.23,19.19-56.17-20.4-27.65-20.8-55.6,19.6-28.22,19.2-56.16-20.4-27.65-20.8-55.59,19.6-28.23,19.2-56.17-20.4-27.66-20.8-55.6,19.59-28.23,19.19-56.17S-181-26.32-162.89-47.63c17.1-20.14,34.89,13.86,61.19,11.29s24.35-22.47,50.65-25S-22.81-44,3.49-46.61s24.35-22.47,50.65-25,28.24,17.33,54.53,14.77,24.36-22.47,50.66-25,28.24,17.34,54.53,14.77,24.36-22.47,50.65-25,28.24,17.34,54.54,14.78,24.36-22.48,50.65-25S398-85.1,424.25-87.67s24.35-22.47,50.65-25,28.24,17.34,54.54,14.77,24.36-22.47,50.65-25,28.25,17.34,54.54,14.77,24.36-22.47,50.66-25,28.24,17.33,54.54,14.77,23.52-17.89,49-24.75C815.8-150.46,818.05-149.71,844.46-148.69Z"/></g></g></svg>