<svg xmlns="http://www.w3.org/2000/svg" viewBox="0 0 1957.6 1278.16"><defs><style>.cls-1{fill:#2d8000;}.cls-2{fill:#2d721c;}.cls-3{fill:#00571e;}.cls-4{fill:#7ec60c;}.cls-10,.cls-5,.cls-6,.cls-9{fill:none;}.cls-5{stroke:#58595b;stroke-width:10px;}.cls-10,.cls-5,.cls-6{stroke-linecap:round;}.cls-10,.cls-12,.cls-5,.cls-6,.cls-9{stroke-miterlimit:10;}.cls-6{stroke:#000;stroke-width:3px;stroke-dasharray:2 6;}.cls-7{fill:#231f20;}.cls-12,.cls-8{fill:#fff;}.cls-9{stroke:#fff;stroke-width:1.5px;}.cls-10{stroke:#bcbec0;stroke-width:2px;}.cls-11{fill:#615d65;}.cls-12{stroke:#231f20;}</style></defs><title>Artboard 1 copy</title><g id="Bottom_matter" data-name="Bottom matter"><path class="cls-1" d="M1957.6-22.73c-131.12,0-1945.71-23.78-1957.6,0S-28.81,100.55-28.81,100.55L-1.07,1201.88,2006,1173.28Z"/><polyline class="cls-2" points="1412.53 669.2 754.99 686.66 136.98 699.32 138.68 895.8 158.53 1233.39 1673.26 1164.99 1570.46 660.42 1412.53 669.2"/></g><g id="_2012" data-name="2012"><path class="cls-3" d="M1955.15,687.45c2.42-1.7,19.92,8.6,22.26,4.5,1.76-3.06-15.54-13.21-14.92-17.51.51-3.51,20.36-7.86,19.54-12.14-.66-3.47-20.88-1-22.71-5-1.51-3.23,14-16.61,11.53-20.15-2.06-3-20.29,6.4-23.11,3.23-2.43-2.73,9.28-19.57,6.22-22.45-2.68-2.53-18.93,10-22.14,7.38-2.88-2.36,6.41-20.67,3.08-23.12-3-2.22-17.81,12-21.21,9.73-3.12-2.1,4.52-21.15,1-23.3-3.21-2-16.94,13.28-20.45,11.24-3.28-1.9,3.18-21.4-.38-23.33-3.33-1.82-16.24,14.15-19.83,12.3-3.39-1.75,2.17-21.52-1.44-23.3-3.43-1.68-15.69,14.8-19.33,13.09-3.47-1.63,1.14-21.69-2.52-23.33-4.79-2-12.5,16.67-17.31,14.72s2.79-20.63-2-22.58-12.41,16.71-17.21,14.76,2.78-20.63-2-22.59-12.41,16.72-17.22,14.76,2.79-20.63-2-22.58-12.41,16.72-17.22,14.76,2.79-20.63-2-22.59-12.4,16.72-17.21,14.77,2.79-20.63-2-22.59-12.4,16.72-17.21,14.76,2.79-20.63-2-22.58-12.4,16.72-17.21,14.76,2.78-20.63-2-22.59-12.4,16.72-17.21,14.76,2.78-20.63-2-22.59-9.48,16.06-14.64,15.43c-5.31-.64-5.45-19.26-10.76-18.53s-2.56,20.7-7.86,21.42-8-19.24-13.34-18.51-2.57,20.7-7.87,21.42-8-19.24-13.35-18.51-2.56,20.7-7.86,21.43-8.05-19.25-13.35-18.52-2.56,20.7-7.87,21.43-8-19.25-13.34-18.52-2.57,20.7-7.87,21.43-8-19.25-13.35-18.52-2.56,20.7-7.86,21.43-8-19.24-13.35-18.52-2.56,20.7-7.87,21.43-8-19.24-13.35-18.51-2.57,20.7-7.87,21.43-21.38-15-22-9.71c-1.54,13.14,23.42,11,27.16,23.7s-15.6,18.39-11.86,31.08,23.07,7,26.81,19.68-15.6,18.38-11.86,31.07,23.08,7,26.82,19.68-15.6,18.39-11.86,31.07,23.07,7,26.81,19.68-15.6,18.39-11.86,31.08,23.08,7,26.82,19.67-15.6,18.39-11.86,31.08,23.07,7,26.81,19.68-15.6,18.38-11.86,31.07,23.08,7,26.82,19.68-15.6,18.39-11.86,31.08,23.08,7,26.82,19.69-15.6,18.39-11.86,31.08,20.26,6.19,26.17,18c4.85-.66,2.2,13,6.59,12.28,4.85-.86,5.43-21.53,9.76-22.52,4.82-1.1,14.46,17.2,18.7,15.94,4.74-1.42,2.56-22,6.67-23.6,4.6-1.81,17.22,14.55,21.15,12.48,4.32-2.27-2.17-21.89,1.53-24.47,3.92-2.73,20,10.16,23.46,7.09s-7.32-20.78-4.1-24.23,21.26,6.5,24.34,2.83c2.92-3.46-9.66-19.94-6.6-23.68,2.85-3.49,21.33,5.76,24.46,2,2.88-3.44-9.34-20.15-6.11-23.8,3-3.35,21,6.87,24.32,3.35,3.1-3.24-7.91-20.77-4.4-24.16,3.22-3.12,20.37,8.45,24,5.2,3.36-3-6.28-21.31-2.54-24.42,3.46-2.88,19.73,9.91,23.56,6.94,3-2.35-6.46-20.52-3.64-22.74,3-2.38,18.46,11.11,21.25,8.88,3-2.41-6.76-20.43-4-22.68,3-2.45,18.68,10.76,21.41,8.49,3-2.49-7.17-20.29-4.49-22.59,3-2.54,19,10.27,21.62,8,2.95-2.59-7.73-20.09-5.14-22.44,2.93-2.66,19.33,9.62,21.87,7.22,2.88-2.71-8.43-19.81-5.94-22.25,2.81-2.74,19.6,9,22.09,6.5,2.72-2.73-9-19.59-6.4-22.14s19.32,9.23,22,6.65-8.37-19.8-5.48-22.37c2.62-2.33,18.52,10.59,21.56,8.08,2.68-2.21-7-20.27-3.88-22.69,2.75-2.12,17.83,11.76,21,9.42C1960.7,708.25,1951.94,689.72,1955.15,687.45Z"/><path class="cls-4" d="M121.63,148.4l17.84,640.08s126.33-27.75,139.46-25.77,43.49,37.66,71.9,25.77,137.41-40.93,171.1-40.28,195.82,4.61,206.9,10.55,54.65,15,106.17,9l-32-83.27,495.77-9s-63.41-67.37-55.48-83.23c3.79-7.58,11.29-14.82,15.5-22.85,2.28-4.36-6.09-19.5-16.19-18.47-17.06,1.76-35.27,8.54-42.91,11.6-9.91,4-15.85-7.93-6-23.78s6-4-2-17.84,18.78-25.32,41.1-51.3,50.06-53.72,65.91-69.58-29.72-17.83,0-25.76,35-15.85,60.09-27.74,29.52-17.84,29.52-17.84l-155.52-103s14.39-65.4-47-101.07Z"/><path class="cls-1" d="M1837.74,107.24l117.19,521.15-384.47,32-271.73,15.1s-61.41-67.37-53.48-83.23,37.68-42.63,17.87-44.61-53.56,10.92-63.47,14.89-15.85-7.93-6-23.78,6-4-2-17.84,18.78-25.32,41.1-51.3,50.06-53.72,65.91-69.58-29.72-17.83,0-25.76,35-15.85,60.09-27.74,29.52-17.84,29.52-17.84l-155.52-103s14.39-65.4-47-101.07Z"/><path class="cls-3" d="M1412.78,668.5s-5.94,14.9,0,24.79,10.9,14.85,22.79,24.76,29.72,50.53,45.58,61.43,82.24,69.35,96.11,82.24,5,7.92,5,7.92-43.6,9.91-47.56,9.91-13.87,21.8-22.79,25.76-27.74,8.92-31.7,11.89-21.84,12.88-21.84,12.88l-15.1,7.24s-27.8-8.23-33.08-11.2-25.1-8.68-46.9-3.85-47.56,6.82-55.49,10.78-23.78,14.47-32.69,16.16-21.8,6.63-28.74,11.59-3,12.88-24.77,10.9-22.79-3.34-32.7.31-14.86,5.63-14.86,5.63,28.74,53.51,33.69,55.49,18.83,8.92,36.66,7.92,52.51-10.89,76.29-5,34.68,8.71,43.6,14.26,38.64,15.47,59.45,16.46,51.52,5.94,54.49,8.91-24.77,10.7-25.76,26.65,11.89,30,11.89,30l553-45.2s-27.88-195.75,38.5-251.24,136.63-238.56,136.63-238.56l-308,37.74Z"/></g><g id="Base"><path class="cls-5" d="M139.47,788.48s126.33-27.75,139.46-25.77,43.49,37.66,71.9,25.77,137.41-40.93,171.1-40.28,195.82,4.61,206.9,10.55,40.8,15.85,92.32,9.91,200.15,15.85,206.1,33.69-8.82,41.61,32.25,47.56,169.87,5.94,189.69,17.83,49.54,67.38,99.08,77.29,82.46-11.89,98.7,0,71.72,39.63,123.25,49.54,85.49,48.33,128,61.82,105.88-6.54,139.57,52"/><polyline class="cls-6" points="1950.44 627.11 1570.46 660.42 1298.73 675.52 136.98 699.32"/><polyline class="cls-6" points="1980.42 106.79 1459.21 117.33 1673.26 1164.99"/><polyline class="cls-6" points="155.32 1164.99 136.98 804.33 121.63 148.4 1459.21 117.33"/><line class="cls-6" x1="117.76" y1="-2.73" x2="121.73" y2="150.53"/><path d="M603.6,95.88l-1.8,0L601,56.69,586,96.24l-1.56,0L567.76,57.49l.8,39.11-1.8,0-.85-41.45,2.76-.06,16.45,38.31L600,54.49l2.76-.06Z"/><path d="M643.16,82.4,624,82.8l-4.3,12.75-1.92,0L632,53.83l2,0L649.9,94.93,648,95Zm-.63-1.66-9.45-24.59L624.6,81.1Z"/><path d="M664.55,91.92c-2-1.93-2.92-4.86-3.09-10.31l1.79-.22c.22,4.8.87,7.42,2.71,9.19,2,1.93,5.1,2.77,10.38,2.66,5.51-.11,8.91-1.26,10.62-3,1.46-1.53,1.83-4,1.78-6.57-.12-5.7-5.43-7.39-12.57-9.89S662.1,69.47,662,62.45c-.07-3.54.55-5.29,2.14-6.94,2.11-2.21,6-3,11.28-3.11s8.71.72,10.85,2.71,2.86,4.8,3,10.08l-1.79.22c-.17-5-1.06-7.54-2.65-9.07-2-1.88-5.09-2.35-9.41-2.27-4.74.1-8.14.77-9.91,2.61-1.35,1.41-1.8,2.92-1.74,5.68.12,5.69,6.39,7.43,13.34,9.86s13.35,4.17,13.5,11.31c.07,3.24-.36,6-2.18,7.9-2.23,2.33-5.69,3.36-12.11,3.49C670.43,95,666.75,94,664.55,91.92Z"/><path d="M707.2,91.05c-2-1.94-2.92-4.86-3.09-10.32l1.79-.22c.22,4.8.87,7.43,2.71,9.19,2,1.94,5.1,2.77,10.38,2.67,5.52-.12,8.91-1.27,10.62-3,1.47-1.53,1.83-4,1.78-6.58-.12-5.7-5.43-7.39-12.56-9.88s-14.07-4.28-14.22-11.29c-.07-3.54.55-5.3,2.14-6.95,2.11-2.2,6-3,11.28-3.11s8.71.72,10.86,2.71,2.85,4.81,3,10.08l-1.79.22c-.17-5-1.06-7.54-2.65-9.07-2-1.88-5.09-2.35-9.41-2.26-4.74.1-8.14.77-9.91,2.6-1.35,1.41-1.8,2.92-1.74,5.68.12,5.7,6.39,7.43,13.35,9.87s13.34,4.16,13.49,11.3c.07,3.24-.36,6-2.18,7.91-2.23,2.32-5.69,3.35-12.11,3.49C713.08,94.17,709.4,93.16,707.2,91.05Z"/><path d="M770.58,79.78l-19.14.4-4.3,12.75-1.91,0,14.2-41.76,2,0,15.85,41.14-1.92,0Zm-.64-1.66L760.5,53.53l-8.49,25Z"/><path d="M817.37,64.54c-.37-3.48-1-7.84-3.69-10.43-2.21-2.11-5-2.71-10.14-2.61-4.86.1-7.89,1.3-10.07,3.57-3.34,3.49-3.83,9.14-3.68,16.28s.86,12.7,4.35,16.05c2.27,2.17,5.47,3.25,10.33,3.15,5-.11,8.32-1,10.61-3.4s2.75-6.36,3.07-10.93l1.87.09c-.38,5.22-1.07,9.38-3.65,12.13C814,91,810.14,92.17,804.5,92.29c-5.46.11-9.08-1.08-11.71-3.6-3.74-3.59-4.7-9.63-4.86-17.31s.56-13.81,4.14-17.54c2.47-2.57,5.92-4,11.5-4.08s8.89.54,11.46,3c2.94,2.82,3.76,7.61,4.2,11.56Z"/><path d="M835.25,49.65l1.8,0,.35,17.1,25-.52-.35-17.09,1.8,0,.85,41.45-1.8,0-.47-22.62-25,.52.46,22.61-1.8,0Z"/><path d="M884.88,87.51c-2-1.94-2.62-4.8-2.7-8.94l-.62-29.87,1.8,0L884,78.47c.07,3.66.6,6.11,2.32,7.75,1.89,1.83,5.75,2.59,10.37,2.49s8.5-1,10.32-2.91,2.07-4.18,2-7.84l-.61-29.82,1.8,0L910.79,78c.08,4.08-.4,7-2.33,9-2.18,2.26-6.42,3.25-11.76,3.36S887.09,89.63,884.88,87.51Z"/><path d="M929.15,86.48c-2-1.94-2.92-4.86-3.09-10.31l1.79-.22c.22,4.79.88,7.42,2.71,9.18,2,1.94,5.1,2.78,10.38,2.67,5.52-.11,8.92-1.26,10.62-3,1.47-1.53,1.84-4,1.78-6.58-.11-5.69-5.43-7.39-12.56-9.88S926.71,64,926.56,57c-.07-3.54.56-5.29,2.14-6.94,2.12-2.21,6-3,11.28-3.12s8.72.72,10.86,2.72,2.86,4.8,3,10.08l-1.8.22c-.16-5-1.06-7.54-2.65-9.07-2-1.88-5.09-2.36-9.4-2.27-4.74.1-8.15.77-9.91,2.61-1.35,1.41-1.8,2.92-1.75,5.67.12,5.7,6.4,7.43,13.35,9.87S955.06,71,955.2,78.09c.07,3.24-.35,6-2.18,7.9-2.23,2.33-5.69,3.36-12.11,3.49C935,89.6,931.35,88.6,929.15,86.48Z"/><path d="M995,86.15l0,1.68-23.63.49-.86-41.45,23.34-.48,0,1.68-21.53.44.32,15.41,20-.41,0,1.68-20,.41.43,21Z"/><path d="M1038.82,47.14l-15.65.32.81,39.77-1.8,0-.81-39.77-15.66.32,0-1.68,33.11-.68Z"/><path d="M1082,46.25l-15.65.33.81,39.77-1.79,0-.82-39.77-15.66.32,0-1.68,33.11-.68Z"/><path d="M1096.21,83.05c-2-1.94-2.92-4.86-3.09-10.32l1.8-.22c.22,4.8.87,7.43,2.71,9.19,2,1.94,5.09,2.77,10.37,2.67,5.52-.12,8.92-1.27,10.62-3,1.47-1.53,1.84-4,1.79-6.58-.12-5.7-5.44-7.39-12.57-9.88s-14.07-4.28-14.21-11.29c-.07-3.54.55-5.3,2.14-6.95,2.11-2.2,6-3,11.27-3.11s8.72.72,10.86,2.72,2.86,4.8,3,10.07l-1.8.22c-.16-5-1.05-7.54-2.64-9.07-2-1.88-5.09-2.35-9.41-2.26-4.74.1-8.15.77-9.91,2.6-1.35,1.41-1.8,2.92-1.74,5.68.11,5.7,6.39,7.43,13.34,9.87s13.35,4.16,13.5,11.3c.06,3.24-.36,6-2.18,7.91-2.24,2.32-5.69,3.35-12.11,3.49C1102.1,86.17,1098.42,85.16,1096.21,83.05Z"/><path d="M704.23,386.59c.14,7-1,10.18-3.5,12.88-2.11,2.28-5.69,3.39-10.73,3.5l-25.27.52-1.14-55.27,24.32-.5c5.43-.11,8.73.62,11.18,3,2.12,2,3,5,3.09,10.1.1,4.88-1.11,8.58-5.46,11C702.68,373.74,704.06,378.43,704.23,386.59ZM670.76,370l17.28-.36c2.72-.06,4.55-.49,5.72-1.72s1.78-3.08,1.71-6.43-.66-5.11-1.81-6.21-3.23-1.45-5.87-1.4l-17.35.36Zm26.66,16c-.11-5.12-.8-7.42-2.35-8.91-1.3-1.26-3.39-1.53-6.19-1.48l-18,.37.44,21.12,18-.37c2.88-.06,4.88-.42,6.05-1.64C696.93,393.54,697.52,391.29,697.42,386Z"/><path d="M748.66,364.47l.77,37.28-5.92.12-.39-3.44c-2.27,2.45-5.92,4.13-11.44,4.24-8,.16-13.34-2.93-13.5-10.92l-.55-26.64,6.56-.13.52,25.59c.11,5,4,6.08,8.45,6,6.8-.14,9.54-3,9.46-6.92l-.52-25Z"/><path d="M782.13,369.23l-1.76,0c-7.36.15-9.86,3-9.75,8.76l.48,23.28-6.56.13-.76-37.27,5.92-.12.47,3.75c2.19-2.76,5.83-4.52,11.43-4.72Z"/><path d="M811.08,368.63l-1.76,0c-7.36.15-9.86,3-9.74,8.76l.48,23.27-6.56.14-.77-37.27,5.92-.13.48,3.76c2.18-2.77,5.83-4.53,11.42-4.72Z"/><path d="M821.82,358.09l-.17-8.32,6.56-.14.17,8.32Zm.87,42.15L821.92,363l6.56-.14.77,37.27Z"/><path d="M844.85,399.78l-1.2-58.23,6.56-.13,1.19,58.23Z"/><path d="M867,399.33l-1.2-58.23,6.56-.14,1.2,58.23Z"/><path d="M917.58,361l-12.67,37.55-7,.14-14.36-37,6.8-.14,10.92,29.06,9.79-29.49Z"/><path d="M928.28,355.9l-.17-8.32,6.56-.14.17,8.32Zm.87,42.15-.77-37.27,6.56-.14.77,37.28Z"/><path d="M951.3,397.59l-1.2-58.22,6.56-.14,1.2,58.23Z"/><path d="M973.46,397.14l-1.2-58.23,6.56-.14L980,397Z"/><path d="M1025.45,384.79c-.31,4-1.15,6.18-3,8.22-2.5,2.61-6.72,3.82-12.64,3.94-5.68.12-9.54-1.08-12-3.43-3.59-3.37-4.49-7.83-4.64-15.51s.71-12.1,3.92-15.37c2.59-2.69,6.8-4,12.16-4.09s9.06.78,11.59,3.21c3.26,3.13,4.24,7.75,4.35,17.19l-25.51.53c.26,5.11,1,7.9,2.92,9.7,1.55,1.49,3.64,2,7.24,1.93s6.15-.61,7.48-2c1-1.07,1.48-2.12,1.66-4.84Zm-23.33-18.09c-1.49,1.55-2.25,3.73-2.42,7.17l18.8-.38c-.24-3.84-.76-5.75-2.31-7.24s-3.72-1.92-6.84-1.86C1005.91,364.46,1003.68,365.07,1002.12,366.7Z"/><path d="M741.46,899.89l.09,4.72c.26,12.24-1.07,18-4.83,21.94-3.36,3.51-8.77,5.22-17.09,5.39-7.52.16-13-1.33-16.58-4.77-4.41-4.24-5.82-10.77-6.08-23s.9-18.74,5.13-23.15c3.45-3.59,9.33-5.31,16.77-5.46,8.24-.17,12.34.78,15.85,4.23,2.86,2.74,4.54,6.63,5.54,12.29l-6.63.94c-1-4.22-2-6.6-3.77-8.33-2.28-2.27-5.18-2.85-10.86-2.73-5.12.1-9.33,1.31-11.68,3.76-3.21,3.34-3.67,8.48-3.47,18.31s1,15.19,4.22,18.32c2.45,2.35,6.31,3.39,11.59,3.28,6.16-.12,9.9-1.24,12.09-3.53,2.35-2.44,3.23-6.38,3.11-16l-16.63.34-.13-6.08Z"/><path d="M755.93,930.64l-1.2-58.23,6.56-.14,1.2,58.23Z"/><path d="M780.26,926.86c-3.27-3.14-4.48-7.67-4.64-15.35s.79-12,4-15.37c2.58-2.69,6.88-4,12.55-4.1s10,1,12.64,3.51c3.35,3.29,4.48,7.59,4.63,15.26s-.78,12.18-4,15.53c-2.58,2.69-6.8,4-12.48,4.1S782.87,929.36,780.26,926.86Zm20.06-4.74c2-2,2.54-5.17,2.42-11.17s-.74-8.79-3-10.82c-1.55-1.57-4-2.08-7.4-2-3.52.07-6,.68-7.55,2.4-2,2-2.62,5-2.5,10.93s.91,9.11,2.95,11.06c1.55,1.41,4,2,7.56,1.93S798.76,923.76,800.32,922.12Z"/><path d="M846.56,905.81c-.48-3.75-1-5.58-2.38-6.91-1.55-1.41-3.88-1.84-7.16-1.78-2.64.06-5.35.75-6.91,2.39-2,2.12-2.62,5.17-2.5,11s.83,9,2.95,11.06c1.47,1.41,4.12,2,7,1.94,3.92-.08,6.07-.69,7.48-2.16,1.17-1.22,1.77-3.07,2.16-7.64l6.57.34c-.43,6.33-1.49,9.32-3.68,11.52-2.59,2.69-6.73,3.82-12.57,3.94-5.27.11-9.38-1-12.07-3.59-3.27-3.22-4.4-7.67-4.56-15.35s.79-12.1,3.93-15.37c2.58-2.69,6.64-4,11.91-4.08,5.76-.12,9.7.76,12.23,3.19s3.56,5.53,4.15,10.79Z"/><path d="M897.11,916.45c-.32,4-1.15,6.19-3,8.23-2.51,2.61-6.73,3.82-12.65,3.94-5.67.11-9.54-1.09-12-3.44-3.59-3.36-4.48-7.83-4.64-15.5s.71-12.1,3.93-15.37c2.58-2.69,6.8-4,12.16-4.09s9.05.77,11.58,3.2c3.27,3.14,4.24,7.76,4.36,17.2l-25.52.52c.27,5.12,1.05,7.9,2.92,9.7,1.55,1.49,3.65,2,7.24,1.93s6.15-.6,7.49-2c1-1.06,1.47-2.11,1.66-4.83Zm-23.34-18.08c-1.49,1.55-2.24,3.73-2.41,7.17l18.8-.39c-.24-3.83-.76-5.74-2.31-7.23s-3.73-1.93-6.84-1.86C877.57,896.13,875.34,896.73,873.77,898.37Z"/><path d="M910.64,924.5c-1.8-1.73-2.73-4.11-3.15-9.06l6.47-.61c.31,3.27.65,4.7,1.63,5.64,1.31,1.26,3.56,1.77,7.64,1.69,4.4-.09,7.27-.71,8.36-1.86.87-.89,1-2.1,1-3.62-.07-3.2-3.21-4.25-10.53-6.18s-13.68-3.56-13.83-10.92a9.13,9.13,0,0,1,2.19-6.77c2.5-2.61,7.53-3.35,12.33-3.45,5.67-.12,9.53.6,11.9,2.88,2,1.8,2.81,4.34,3.39,9.13l-6.55.69c-.31-3.35-.74-4.62-1.63-5.48-1.56-1.49-4-1.6-7.16-1.54s-5.91.44-7,1.51a4.09,4.09,0,0,0-.9,2.9c.06,2.95,2.72,3.7,10.44,5.78s13.69,4,13.83,11.08c.07,3.2-.35,5.85-2.24,7.73-2.19,2.36-6.89,3.58-13.44,3.72C916.31,927.9,913,926.69,910.64,924.5Z"/><path d="M954.54,915.67l-.42-20.56-7,.15-.12-5.84,7-.14-.22-10.48,6.56-.14.22,10.48,9.52-.19.12,5.83-9.52.2.42,20.24c.08,4.24,1.07,5.34,6.1,5.23l3.12-.06.45,5.83-4.24.09C957.17,926.5,954.71,923.59,954.54,915.67Z"/><path d="M1013.4,914.06c-.31,4-1.15,6.19-3,8.23-2.5,2.61-6.72,3.81-12.64,3.94-5.68.11-9.54-1.09-12-3.44-3.59-3.36-4.49-7.83-4.64-15.51s.71-12.09,3.92-15.36c2.59-2.69,6.8-4,12.16-4.09s9.06.77,11.59,3.2c3.26,3.13,4.24,7.76,4.35,17.2l-25.51.52c.26,5.12,1,7.9,2.92,9.7,1.55,1.49,3.64,2,7.24,1.93s6.15-.6,7.48-2c1-1.06,1.48-2.11,1.66-4.84ZM990.07,896c-1.49,1.55-2.25,3.72-2.42,7.17l18.8-.39c-.24-3.83-.76-5.74-2.31-7.23s-3.72-1.93-6.84-1.86C993.86,893.74,991.63,894.34,990.07,896Z"/><path d="M1044.17,892.86l-1.76,0c-7.35.15-9.86,3-9.74,8.76l.48,23.28-6.56.13-.76-37.27,5.91-.12.48,3.75c2.18-2.77,5.83-4.52,11.43-4.72Z"/><path d="M1768.36,326.66l-35.7,42.22-4.09-3.47,7.88-54.41-30.12,35.61-4.94-4.18,35.69-42.21,6.72,5.68-7.15,48.22,26.76-31.64Z"/><path d="M1749.08,378.46c-.38-4.51,1.71-8.72,6.67-14.58s8.54-8.49,13.16-8.88c3.72-.31,7.8,1.56,12.13,5.23s6.86,7.37,7.17,11c.33,4.69-1.66,8.66-6.62,14.52s-8.65,8.61-13.27,9c-3.72.31-7.74-1.51-12.07-5.18S1749.38,382.07,1749.08,378.46Zm18.18,9.72c2.82-.24,5.32-2.21,9.2-6.79s5.25-7.08,4.94-10.06c-.12-2.21-1.66-4.24-4.22-6.41s-4.94-3.44-7.25-3.19c-2.88.18-5.28,2-9.1,6.55s-5.34,7.43-5.11,10.25c.23,2.08,1.71,4.17,4.4,6.44S1765,388.37,1767.26,388.18Z"/><path d="M1814.13,396.06l-1.35-1.13c-5.62-4.76-9.38-4.27-13.1.13l-15,17.77-5-4.23,24.07-28.47,4.52,3.82-2.12,3.13c3.47-.63,7.36.47,11.69,4Z"/><path d="M1811.22,421.06l13.28-15.7-5.32-4.5,3.77-4.46,5.32,4.5,6.76-8,5,4.23-6.76,8,7.27,6.15-3.77,4.46-7.27-6.15-13.07,15.46c-2.74,3.24-2.73,4.71,1.12,8l2.38,2-3.53,4.67-3.24-2.74C1806,430.91,1806.11,427.1,1811.22,421.06Z"/><path d="M1867.21,447.77,1850,468.11l-5-4.24,16.53-19.55c3.26-3.84,1-7.23-2.25-10-5.32-4.49-9.15-4.17-11.73-1.12l-16.17,19.12-5-4.23L1864,403.65l5,4.23-15.7,18.57c3.38-.28,7.24,1,11.45,4.55C1870.6,436,1872.38,441.66,1867.21,447.77Z"/><path d="M1577.49,358.35c-.37-3.77,1.32-7.37,6.75-14.41l5.43,3.86c-4.36,5.64-5.46,8.06-5.26,10.43.23,2.7,2.64,5.79,7.22,9.67,5,4.23,8.7,6.2,11.18,6,1.91-.16,3.62-1.44,5.53-3.7,3.26-3.85,1.48-8.18-4.23-18s-10.41-17.18-3.9-24.88c2.79-3.3,5.33-4.81,8.43-5.13,4.46-.32,9.52,2.5,15.32,7.4,6,5.12,9.08,9.46,9.41,13.41.36,3.66-1.17,7.08-5.72,13.08l-5.43-3.86c3.63-4.79,4.42-6.95,4.25-8.87-.23-2.82-2.68-5.62-6.65-9s-7.5-5.51-10-5.35c-1.64.08-2.89.81-4.28,2.46-3.77,4.46-.51,9.52,4.68,18.62s9.7,16.9,3.55,24.17c-3.25,3.85-6.39,6.33-9.89,6.62-4.17.35-9.09-2.13-16.3-8.23C1580.82,366.93,1577.78,362.47,1577.49,358.35Z"/><path d="M1672.48,408.82l-17.2,20.34-5-4.18,16.54-19.55c3.2-3.79,1.22-7-1.95-9.71-5.32-4.5-9-3.91-11.54-.86l-16.12,19.06-5-4.18,16.53-19.55c3.21-3.79,1.23-7-2-9.77-5.32-4.49-8.9-3.85-11.48-.8l-16.12,19.06-5-4.23L1638.31,366l4.51,3.82-1.92,2.77c3.26-.38,7,.78,11.27,4.4,3.91,3.31,5.85,6.83,5.31,10.57,3.58-.64,7.88.59,12.77,4.72C1676.11,397.22,1677.65,402.71,1672.48,408.82Z"/><path d="M1666.77,438.87l24.07-28.47,5,4.24-24.08,28.47ZM1694,406.68l5.37-6.35,5,4.23-5.37,6.35Z"/><path d="M1693,446.84l13.28-15.7-5.32-4.5,3.78-4.46,5.31,4.5,6.77-8,5,4.24-6.77,8,7.27,6.15-3.77,4.46-7.27-6.15-13.07,15.46c-2.74,3.23-2.73,4.71,1.12,8l2.38,2-3.53,4.67-3.23-2.74C1687.84,456.69,1687.92,452.88,1693,446.84Z"/><path d="M1749,473.55l-17.2,20.34-5-4.24,16.53-19.55c3.26-3.85,1-7.23-2.25-10-5.31-4.49-9.15-4.17-11.73-1.12l-16.17,19.12-5-4.23,37.61-44.48,5,4.24-15.71,18.57c3.39-.28,7.24,1,11.45,4.55C1752.41,461.74,1754.19,467.44,1749,473.55Z"/><path d="M1795.21,471.21l-3.52,4.78-2.56-2.17c-3.55-3-5.86-2.12-8.34.81l-5.84,6.91,7.09,6-3.77,4.46-7.09-6-20.3,24-5-4.23,20.3-24-5.56-4.7,3.78-4.46,5.55,4.7,6.15-7.27c4.86-5.74,9.89-6.62,16.73-.83Zm-32.84,48.51,24.07-28.47,5,4.23L1767.37,524Zm27.22-32.2,5.37-6.35,5,4.24-5.37,6.35Z"/><path d="M1809.48,544.78c-2.89,2.8-5,3.88-7.72,4.17-3.6.3-7.56-1.58-12.09-5.41-4.33-3.66-6.44-7.12-6.72-10.5-.47-4.9,1.81-8.84,6.77-14.71s8.54-8.6,13.11-8.93c3.72-.31,7.73,1.51,11.82,5s6.29,6.57,6.58,10.06c.38,4.51-2,8.62-8.1,15.78l-19.49-16.48c-3.18,4-4.44,6.62-4.23,9.21.18,2.14,1.41,3.91,4.16,6.24s5,3.61,6.93,3.45c1.46-.12,2.5-.61,4.44-2.53Zm-5.55-29c-2.14.18-4.15,1.32-6.55,3.79l14.35,12.14c2.36-3,3.23-4.81,3-7s-1.52-3.9-3.9-5.91C1808.26,516.61,1806.18,515.6,1803.93,515.78Z"/><path d="M1812.27,561.92l37.61-44.47,5,4.23-37.61,44.47Z"/><path d="M1890.62,551.9,1853,596.37l-4.4-3.72,2-2.94c-3.37.39-7.27-.81-12-4.79-3.72-3.15-5.74-6.22-6-9.6-.41-4.22,1.85-8.39,7.12-14.62,5.11-6.05,8.74-8.85,13.14-9.22,3.61-.3,7,1.12,11.6,5,3.78,3.2,5.73,6.1,6.36,8.83l14.87-17.59Zm-33.82,30,7.38-8.74c3.16-3.73,2.2-7-3.06-11.49-2.87-2.43-5-3.5-7.14-3.32-2.93.24-5.27,2.14-9.15,6.72s-5.56,7.45-5.33,10.27c.18,2.14,1.58,4,4.21,6.17C1849.27,586.18,1853.18,586.14,1856.8,581.87Z"/><path class="cls-7" d="M1636,762.26c-.48-3.76,1.09-7.41,6.31-14.61l5.54,3.7c-4.18,5.77-5.21,8.22-4.94,10.58.3,2.7,2.81,5.72,7.51,9.46,5.13,4.08,8.87,5.93,11.34,5.65,1.91-.21,3.58-1.54,5.43-3.86,3.14-3.94,1.23-8.22-4.77-17.9s-10.91-16.87-4.63-24.76c2.69-3.38,5.18-5,8.27-5.38,4.44-.44,9.59,2.22,15.53,7,6.2,4.93,9.36,9.18,9.8,13.12.48,3.65-1,7.11-5.32,13.24l-5.55-3.69c3.49-4.9,4.21-7.08,4-9-.32-2.81-2.85-5.54-6.92-8.77s-7.66-5.28-10.19-5c-1.64.13-2.86.89-4.21,2.58-3.63,4.57-.22,9.54,5.23,18.48s10.2,16.6,4.27,24c-3.13,4-6.2,6.52-9.69,6.91-4.16.47-9.15-1.86-16.53-7.74C1639.57,770.74,1636.4,766.37,1636,762.26Z"/><path class="cls-7" d="M1732.44,809.89l-16.6,20.84-5.07-4,16-20c3.09-3.88,1-7.06-2.24-9.65-5.44-4.34-9.06-3.64-11.56-.51L1697.38,816l-5.07-4,15.94-20c3.09-3.88,1-7.06-2.3-9.7-5.44-4.34-9-3.59-11.49-.46l-15.55,19.53-5.13-4.09L1697,768.09l4.63,3.68-1.84,2.83c3.25-.48,7,.57,11.39,4.06,4,3.19,6,6.65,5.62,10.4,3.56-.74,7.9.36,12.91,4.35C1735.72,798.19,1737.42,803.63,1732.44,809.89Z"/><path class="cls-7" d="M1727.61,840.1l23.22-29.17L1756,815l-23.22,29.17Zm26.26-33,5.18-6.51,5.13,4.09L1759,811.2Z"/><path class="cls-7" d="M1754.1,847.28l12.81-16.09-5.45-4.33,3.64-4.57,5.44,4.34,6.53-8.2,5.13,4.08-6.52,8.2,7.45,5.93-3.64,4.57-7.45-5.93-12.61,15.84c-2.64,3.32-2.58,4.79,1.36,7.93l2.44,1.94-3.38,4.77-3.32-2.64C1749.2,857.29,1749.17,853.48,1754.1,847.28Z"/><path class="cls-7" d="M1810.86,872.32l-16.59,20.84-5.13-4.08,15.94-20c3.14-3.95.77-7.27-2.55-9.91-5.44-4.33-9.26-3.9-11.76-.77L1775.18,878l-5.13-4.09,36.27-45.57,5.13,4.09-15.15,19c3.38-.39,7.26.76,11.59,4.2C1813.89,860.42,1815.84,866.06,1810.86,872.32Z"/><path class="cls-7" d="M1857,868.62l-3.38,4.88-2.63-2.09c-3.63-2.89-5.91-1.95-8.3,1.05l-5.63,7.08,7.26,5.78-3.64,4.57-7.26-5.78-19.58,24.6-5.13-4.09,19.58-24.6-5.7-4.53,3.64-4.57,5.69,4.53,5.93-7.45c4.69-5.88,9.69-6.9,16.7-1.32Zm-31.39,49.45,23.21-29.17,5.14,4.09-23.22,29.17Zm26.25-33,5.18-6.51,5.14,4.08-5.18,6.51Z"/><path class="cls-7" d="M1873.4,941.73c-2.8,2.88-4.84,4-7.59,4.39-3.59.41-7.61-1.35-12.24-5-4.44-3.54-6.65-6.93-7-10.3-.62-4.89,1.55-8.89,6.33-14.9s8.27-8.85,12.84-9.32c3.7-.42,7.77,1.29,12,4.62s6.48,6.38,6.87,9.87c.52,4.5-1.69,8.68-7.63,16l-20-15.89c-3.06,4.1-4.24,6.74-4,9.33.25,2.13,1.53,3.87,4.34,6.11s5.12,3.46,7,3.24c1.46-.16,2.49-.68,4.37-2.66ZM1867,912.91c-2.13.24-4.1,1.43-6.43,4l14.71,11.7c2.26-3.1,3.08-4.9,2.84-7s-1.63-3.85-4.07-5.8C1871.34,913.61,1869.24,912.65,1867,912.91Z"/><path class="cls-7" d="M1876.7,958.77,1913,913.21l5.13,4.08-36.27,45.57Z"/><path class="cls-7" d="M1954.72,946.44,1918.45,992l-4.51-3.59,1.88-3c-3.36.49-7.3-.6-12.12-4.43-3.81-3-5.92-6-6.3-9.42-.54-4.21,1.6-8.44,6.68-14.82,4.94-6.2,8.48-9.11,12.86-9.61,3.6-.4,7,.91,11.74,4.65,3.88,3.09,5.92,5.93,6.62,8.64l14.35-18Zm-32.92,30.95,7.12-8.95c3-3.82,2-7.11-3.4-11.4-2.94-2.34-5.1-3.35-7.24-3.1-2.92.33-5.2,2.3-8.94,7s-5.34,7.61-5,10.42c.24,2.14,1.7,3.91,4.39,6C1914.4,981.93,1918.31,981.77,1921.8,977.39Z"/><path d="M72.22,797.41c-3.46.41-7.82,1.1-10.37,3.83-2.09,2.23-2.65,5.07-2.48,10.17.16,4.85,1.4,7.87,3.7,10,3.53,3.3,9.19,3.71,16.32,3.47s12.69-1,16-4.56c2.14-2.29,3.17-5.51,3-10.37-.17-5-1.12-8.3-3.54-10.56s-6.39-2.67-11-2.94l.06-1.86c5.23.31,9.39.95,12.18,3.49,2.6,2.38,3.81,6.18,4,11.82.18,5.45-1,9.09-3.45,11.76-3.53,3.78-9.56,4.82-17.24,5.08s-13.82-.38-17.6-3.91c-2.6-2.43-4-5.87-4.22-11.45s.42-8.89,2.85-11.5c2.78-3,7.56-3.85,11.5-4.35Z"/><path d="M95.16,776c-3.54,3.78-9.57,4.83-17.24,5.09s-13.88-.44-17.6-3.92c-2.61-2.43-4.06-6.34-4.25-12s1-9.64,3.43-12.24c3.54-3.78,9.57-4.76,17.3-5s13.82.37,17.6,3.91c2.61,2.43,4,6.35,4.19,11.92S97.65,773.32,95.16,776Zm-2-22.74c-3.47-3.25-9.13-3.72-16.26-3.47s-12.75,1.08-16.06,4.62c-2.14,2.29-3.17,5.74-3,10.72s1.37,8.42,3.72,10.62c3.47,3.25,9.13,3.72,16.33,3.48s12.69-1,16-4.56c2.15-2.3,3.17-5.87,3-10.85S95.43,755.38,93.13,753.24Z"/><path d="M54.56,704,96,702.6l.06,1.62L57.74,730.77l39.16-1.31.06,1.8-41.44,1.39-.08-2.4,37.08-25.74-37.9,1.28Z"/><path d="M53,657.33l41.44-1.39,0,1.62L56.17,684.12l39.16-1.31.06,1.8L54,686l-.08-2.4L91,657.86l-37.9,1.27Z"/><path d="M91.35,614.38l1.68,0L93.82,638l-41.43,1.4L51.6,616l1.68-.06L54,637.49,69.42,637l-.68-20,1.68-.05.67,20,21-.71Z"/><path d="M64.68,572.71c-3.47.42-7.83,1.11-10.38,3.83-2.09,2.23-2.65,5.08-2.48,10.17.16,4.86,1.4,7.88,3.7,10,3.53,3.31,9.19,3.72,16.32,3.48s12.69-1,16-4.56c2.14-2.3,3.17-5.51,3-10.37-.17-5-1.12-8.3-3.54-10.57s-6.39-2.66-11-2.93l.06-1.86c5.23.3,9.39.94,12.18,3.49,2.6,2.37,3.81,6.18,4,11.81.18,5.46-1,9.1-3.45,11.76-3.53,3.79-9.56,4.83-17.24,5.09s-13.82-.38-17.6-3.91c-2.6-2.44-4-5.87-4.22-11.45s.42-8.9,2.85-11.5c2.78-3,7.56-3.86,11.5-4.35Z"/><path d="M50.29,527l.53,15.65,39.76-1.33.06,1.8-39.76,1.33.52,15.65-1.67.06-1.12-33.1Z"/><path d="M89.57,511.48l-41.43,1.4-.06-1.8,41.43-1.39Z"/><path d="M61.05,464.9c-3.47.41-7.83,1.1-10.37,3.83C48.59,471,48,473.8,48.2,478.9c.16,4.85,1.4,7.87,3.69,10,3.54,3.3,9.19,3.71,16.33,3.47s12.69-1,16-4.56c2.15-2.29,3.18-5.51,3-10.37-.17-5-1.12-8.3-3.54-10.56s-6.39-2.67-11-2.94l0-1.86c5.24.3,9.4.95,12.19,3.49,2.6,2.38,3.81,6.18,4,11.81.18,5.46-1,9.1-3.45,11.77C82,493,76,494,68.28,494.25s-13.82-.38-17.6-3.91c-2.6-2.44-4-5.87-4.23-11.45s.43-8.9,2.86-11.5c2.78-3,7.55-3.85,11.5-4.35Z"/><path d="M84.71,443.69c-1.91,2-4.77,2.68-8.91,2.82l-29.86,1-.06-1.8,29.8-1c3.66-.12,6.1-.68,7.72-2.42,1.8-1.92,2.51-5.79,2.36-10.4s-1.13-8.49-3.05-10.29-4.21-2-7.87-1.89l-29.8,1-.06-1.8,29.86-1c4.08-.14,7,.3,9.08,2.21,2.29,2.15,3.34,6.37,3.52,11.71S86.8,441.46,84.71,443.69Z"/><path d="M45.08,372l.53,15.65,39.76-1.33.06,1.79-39.76,1.34.53,15.65-1.68.06-1.11-33.1Z"/><path class="cls-8" d="M902.93,530.75v4.45h-5.47V548H892.6V535.2H877v-4.45l14.58-29.37h5.87v29.37Zm-10.33,0V509.69l-10.46,21.06Z"/><path class="cls-8" d="M932.16,501.38v3.51L920.48,548h-5.27l11.61-42H910.76v-4.66Z"/><circle class="cls-9" cx="904.65" cy="523.12" r="68.03"/><path class="cls-8" d="M1466.1,340.58V345h-5.47v12.82h-4.86V345h-15.59v-4.46l14.58-29.36h5.87v29.36Zm-10.33,0V319.52l-10.46,21.06Z"/><path class="cls-8" d="M1499.58,344c0,7.08-.54,9.78-2.36,11.61s-5,2.7-9.59,2.7-7.7-.88-9.52-2.7-2.36-4.53-2.36-11.61c0-8.85,1.08-11.75,5-12.76-2.91-1.35-3.85-3.58-3.85-9.39,0-4.86.47-7,2-8.57s4.8-2.43,8.71-2.43,7.09.74,8.78,2.43,2,3.71,2,8.57c0,5.81-.94,8-3.85,9.39C1498.5,332.21,1499.58,335.11,1499.58,344Zm-5-.34c0-5.87-.33-7.5-1.41-8.51s-2.77-1.35-5.54-1.35-4.52.34-5.53,1.35-1.35,2.64-1.35,8.51.33,7.63,1.28,8.64,2.9,1.42,5.6,1.42,4.59-.41,5.6-1.42S1494.58,349.63,1494.58,343.62Zm-12.69-21.13c0,4,.34,5.26,1,5.94.87.88,2.63,1.21,4.72,1.21s3.92-.33,4.79-1.21,1-2,1-5.94-.27-5.13-1-5.94-2.63-1.15-4.79-1.15-3.85.27-4.72,1.15S1481.89,318.44,1481.89,322.49Z"/><circle class="cls-9" cx="1470.38" cy="332.95" r="68.03"/><path class="cls-8" d="M1289.16,798.52V803h-5.47v12.83h-4.86V803h-15.59v-4.46l14.58-29.36h5.87v29.36Zm-10.33,0V777.46l-10.46,21.06Z"/><path class="cls-8" d="M1302.19,771.59c1.82-1.82,4.79-2.83,8.91-2.83s7.09,1,8.84,2.83c2.5,2.43,3,6.08,3,20.86s-.4,18.5-2.9,20.93c-1.82,1.82-4.79,2.83-8.91,2.83s-7.09-1-8.84-2.77c-2.5-2.49-3-6.14-3-21S1299.76,774,1302.19,771.59Zm14,38.41c1.49-1.48,1.76-3.51,1.76-17.55s-.34-15.86-1.83-17.42c-1-1-2.83-1.48-5-1.48s-4,.47-5,1.48c-1.48,1.49-1.82,3.45-1.82,17.42s.27,16.07,1.82,17.55c1.08,1.08,2.84,1.49,5,1.49S1315.08,811.08,1316.16,810Z"/><circle class="cls-9" cx="1295.34" cy="790.9" r="68.03"/><path class="cls-8" d="M1837.07,741.75c0,9.38-.47,11.61-2.36,13.5s-4.79,2.63-9.18,2.63-7.22-.81-8.91-2.5c-2-2-2.43-5.06-2.56-14l4.92-.27c.14,7.9.34,9.72,1.42,10.73s2.9,1.35,5.13,1.35c2.63,0,4.39-.33,5.33-1.28s1.22-2.7,1.22-10.26c0-7.22-.2-9.11-1.22-10.12-.81-.88-2.36-1.29-4.86-1.29-3.51,0-5.06.61-6,1.89l-4.53-1,1.15-20.32h18.56v4.73H1821l-.61,11.61a14.61,14.61,0,0,1,6.82-1.42c3.58,0,6.07.68,7.63,2.16C1836.74,729.87,1837.07,732.36,1837.07,741.75Z"/><path class="cls-8" d="M1873.25,743.17c0,7.35-.4,10.32-2.29,12.15s-4.66,2.56-9.25,2.56c-4.32,0-7.22-.81-8.91-2.56-2.09-2-2.5-5.34-2.57-14l4.86-.27c.14,8.3.41,9.92,1.42,10.93s3.24,1.28,5.2,1.28c2.7,0,4.39-.33,5.26-1.21s1.29-2.57,1.29-8.78-.34-7.69-1.15-8.57-2.23-1-4.52-1h-5v-4.53h4.46c1.89,0,3.37-.13,4.18-1s1-1.89,1-6.07-.21-5.13-1-5.88-2.29-1.08-4.38-1.08-3.92.27-4.87,1.22-1.21,2.5-1.35,8.64l-4.79-.2c.2-7.29.68-10.06,2.5-11.88s4.72-2.43,8.77-2.43,6.55.74,8.11,2.29,2,3.92,2,9.11-.87,7.57-3.44,8.92C1872,731.76,1873.25,734.12,1873.25,743.17Z"/><circle class="cls-9" cx="1845.27" cy="732.57" r="68.03"/><path class="cls-10" d="M139.47,788.48s126.33-27.75,139.46-25.77,43.49,37.66,71.9,25.77,137.41-40.93,171.1-40.28,195.82,4.61,206.9,10.55,40.8,15.85,92.32,9.91,200.15,15.85,206.1,33.69-8.82,41.61,32.25,47.56,169.87,5.94,189.69,17.83,49.54,67.38,99.08,77.29,82.46-11.89,98.7,0,71.72,39.63,123.25,49.54,85.49,48.33,128,61.82,105.88-6.54,139.57,52"/></g><g id="Top"><polygon class="cls-8" points="2017.32 1283.14 -79.27 1318.38 -79.27 1087.19 2017.32 1087.19 2017.32 1283.14"/><path class="cls-11" d="M75.36,1251.5v5.16H.11v-2.58c0-33.38,15.12-43.71,37.63-59s31.72-22,31.72-37.44c0-7.38-.55-13.65-5.16-18.45-4.25-4.43-13.47-6.27-24.35-6.27s-21.21.92-26.75,6.46c-5,5-7,13.28-7.56,29.32l-5.53-.37c.37-17,3-26.93,8.85-32.64,6.46-6.27,17.89-8.12,31-8.12,12.36,0,23.24,2.21,28.77,7.75,5.17,5.16,6.27,12.54,6.27,22.32,0,18.07-10.14,25.27-34.3,41.5C17.08,1215,6.38,1224.39,5.83,1251.5Z"/><path class="cls-11" d="M114.65,1137.7c6.64-6.64,17.89-10.15,31.73-10.15,14.2,0,25.45,3.51,32.09,10.15,9.59,9.59,12.36,25.82,12.36,55.15,0,29.51-2.58,45.74-12.18,55.33-6.63,6.64-17.89,10.14-31.9,10.14-14.21,0-25.09-3.32-31.91-10.14-9.6-9.59-12.36-25.82-12.36-55.33S105.24,1147.1,114.65,1137.7Zm59.58,106.61c8.67-8.67,10.88-24.17,10.88-51.46,0-27.12-2.4-42.24-11.07-51.1-5.71-5.9-15.67-8.85-27.66-8.85s-21.77,2.77-27.3,8.48c-8.67,8.86-10.88,24-10.88,51.47,0,27.29,2,42.6,10.69,51.27,6.09,6.09,15.87,8.86,27.86,8.86C158.55,1253,168.33,1250.21,174.23,1244.31Z"/><path class="cls-11" d="M224.4,1256.66v-5.16h32.46V1134.38H224v-5.17h38.55V1251.5h31.36v5.16Z"/><path class="cls-11" d="M401.29,1251.5v5.16H326v-2.58c0-33.38,15.13-43.71,37.63-59s31.72-22,31.72-37.44c0-7.38-.55-13.65-5.16-18.45-4.24-4.43-13.47-6.27-24.35-6.27s-21.21.92-26.74,6.46c-5,5-7,13.28-7.57,29.32l-5.53-.37c.37-17,3-26.93,8.85-32.64,6.46-6.27,17.9-8.12,31-8.12,12.36,0,23.24,2.21,28.77,7.75,5.17,5.16,6.28,12.54,6.28,22.32,0,18.07-10.15,25.27-34.31,41.5C343,1215,332.3,1224.39,331.75,1251.5Z"/><path class="cls-8" d="M1369.69,544h30.72l-24.84,18,9.48,29.28-24.84-18-25,18,9.6-29.28L1320,544h30.72l9.48-29Z"/><path class="cls-12" d="M285.16,758.54c.65-5.7,5.81-13.39,5.87-13.47a.63.63,0,0,0-.11-.83l-13.09-11.53a.62.62,0,0,0-.82,0c-7,5.63-13.84,5.28-20.87-1.07a.64.64,0,0,0-.86,0c-7,6.35-13.85,6.7-20.87,1.07a.62.62,0,0,0-.82,0L220.5,744.24a.63.63,0,0,0-.1.83c0,.08,5.21,7.77,5.87,13.47.28,2.47-.91,4.93-2.3,7.78-1.75,3.6-3.93,8.09-3.93,14.35a18.71,18.71,0,0,0,5.88,13.65,22.32,22.32,0,0,0,11.76,6,74.53,74.53,0,0,1,9.93,2c6,1.9,7.49,5.42,7.51,5.46a.63.63,0,0,0,.83.35.6.6,0,0,0,.35-.35s1.47-3.55,7.51-5.46a74.53,74.53,0,0,1,9.93-2,22.32,22.32,0,0,0,11.76-6,18.71,18.71,0,0,0,5.88-13.65c0-6.26-2.18-10.75-3.93-14.35C286.07,763.47,284.87,761,285.16,758.54Z"/><path class="cls-7" d="M252.12,772.35V775h-3.24v7.6H246V775h-9.24v-2.64L245.4,755h3.48v17.39Zm-6.12,0V759.88l-6.2,12.47Z"/><path class="cls-7" d="M272.6,772.35V775h-3.24v7.6h-2.88V775h-9.24v-2.64L265.88,755h3.48v17.39Zm-6.12,0V759.88l-6.2,12.47Z"/></g></svg>