<svg xmlns="http://www.w3.org/2000/svg" viewBox="0 0 1957.6 1123.65"><defs><style>.cls-1{fill:#2d8000;}.cls-12,.cls-14,.cls-2,.cls-24,.cls-25{font-size:40px;}.cls-11,.cls-2,.cls-23,.cls-24,.cls-25,.cls-26{fill:#fff;}.cls-12,.cls-2,.cls-24,.cls-25{font-family:Magmatic-LightCondensed, Magmatic;}.cls-12,.cls-17,.cls-2,.cls-23,.cls-24,.cls-25{font-weight:300;}.cls-2{letter-spacing:0.11em;}.cls-3{letter-spacing:0.14em;}.cls-10,.cls-4,.cls-8,.cls-9{fill:none;}.cls-4{stroke:#fff;}.cls-10,.cls-11,.cls-4,.cls-8,.cls-9{stroke-miterlimit:10;}.cls-5{fill:#2d721c;}.cls-6{fill:#00571e;}.cls-7{fill:#7ec60c;}.cls-8{stroke:#58595b;stroke-width:10px;}.cls-10,.cls-8,.cls-9{stroke-linecap:round;}.cls-9{stroke:#bcbec0;}.cls-10,.cls-9{stroke-width:2px;}.cls-10{stroke:#000;stroke-dasharray:2 6;}.cls-11{stroke:#231f20;}.cls-12{fill:#231f20;}.cls-12,.cls-24{letter-spacing:0.1em;}.cls-13,.cls-14{letter-spacing:0.14em;}.cls-14{font-family:Magmatic-Thin, Magmatic;font-weight:200;}.cls-15{letter-spacing:0.14em;}.cls-16{letter-spacing:0.13em;}.cls-17,.cls-23{font-size:60px;font-family:Magmatic-Light, Magmatic;letter-spacing:0.07em;}.cls-18{letter-spacing:0.07em;}.cls-19{letter-spacing:0.07em;}.cls-20{letter-spacing:0.07em;}.cls-21{letter-spacing:0.08em;}.cls-22{letter-spacing:0.07em;}.cls-25{letter-spacing:0.12em;}</style></defs><title>Artboard 1 copy</title><g id="Layer_1" data-name="Layer 1"><path class="cls-1" d="M1990.17,41.37C1859,41.37,65,7,53.1,30.8s-81.91,92.48-81.91,92.48L-1.07,1224.6,2006,1196Z"/><text class="cls-2" transform="translate(711.72 441.63)">4<tspan class="cls-3" x="20.68" y="0">7</tspan></text><circle class="cls-4" cx="730" cy="426.87" r="40.32"/><polyline class="cls-5" points="1412.53 691.92 754.99 709.39 136.98 722.04 138.68 918.53 158.53 1256.12 1673.26 1187.72 1570.46 683.14 1412.53 691.92"/></g><g id="_2012" data-name="2012"><path class="cls-6" d="M1955.15,710.18c2.42-1.7,19.92,8.6,22.26,4.5,1.76-3.06-15.54-13.21-14.92-17.51.51-3.51,20.36-7.86,19.54-12.14-.66-3.47-20.88-1-22.71-5-1.51-3.23,14-16.61,11.53-20.15-2.06-3-20.29,6.4-23.11,3.23-2.43-2.73,9.28-19.57,6.22-22.45-2.68-2.53-18.93,10-22.14,7.38-2.88-2.36,6.41-20.67,3.08-23.12-3-2.22-17.81,12-21.21,9.73-3.12-2.1,4.52-21.15,1-23.31-3.21-2-16.94,13.28-20.45,11.25-3.28-1.9,3.18-21.4-.38-23.34-3.33-1.81-16.24,14.16-19.83,12.31-3.39-1.75,2.17-21.52-1.44-23.3-3.43-1.68-15.69,14.8-19.33,13.09-3.47-1.63,1.14-21.69-2.52-23.34-4.79-2-12.5,16.68-17.31,14.73s2.79-20.63-2-22.59-12.41,16.72-17.21,14.77,2.78-20.63-2-22.59-12.41,16.72-17.22,14.76,2.79-20.63-2-22.58-12.41,16.72-17.22,14.76,2.79-20.63-2-22.59-12.4,16.72-17.21,14.77,2.79-20.63-2-22.59-12.4,16.72-17.21,14.76,2.79-20.63-2-22.58-12.4,16.71-17.21,14.76,2.78-20.63-2-22.59-12.4,16.72-17.21,14.76,2.78-20.63-2-22.59-9.48,16.06-14.64,15.43c-5.31-.64-5.45-19.26-10.76-18.54s-2.56,20.7-7.86,21.43-8-19.24-13.34-18.51-2.57,20.7-7.87,21.42-8-19.24-13.35-18.51-2.56,20.7-7.86,21.42-8.05-19.24-13.35-18.51-2.56,20.7-7.87,21.43-8-19.25-13.34-18.52-2.57,20.7-7.87,21.43-8-19.25-13.35-18.52-2.56,20.7-7.86,21.43-8-19.25-13.35-18.52-2.56,20.7-7.87,21.43-8-19.24-13.35-18.52-2.57,20.71-7.87,21.43-21.38-15-22-9.7c-1.54,13.14,23.42,11,27.16,23.7s-15.6,18.39-11.86,31.08,23.07,7,26.81,19.67-15.6,18.39-11.86,31.08,23.08,7,26.82,19.68-15.6,18.38-11.86,31.07,23.07,7,26.81,19.68-15.6,18.39-11.86,31.08,23.08,7,26.82,19.67-15.6,18.39-11.86,31.08,23.07,7,26.81,19.67-15.6,18.39-11.86,31.08,23.08,7,26.82,19.68-15.6,18.39-11.86,31.08,23.08,7,26.82,19.68-15.6,18.39-11.86,31.09,20.26,6.19,26.17,18c4.85-.66,2.2,13,6.59,12.27,4.85-.85,5.43-21.53,9.76-22.51,4.82-1.1,14.46,17.2,18.7,15.93,4.74-1.41,2.56-22,6.67-23.59,4.6-1.81,17.22,14.55,21.15,12.48,4.32-2.27-2.17-21.89,1.53-24.47,3.92-2.73,20,10.16,23.46,7.09s-7.32-20.78-4.1-24.23,21.26,6.5,24.34,2.83c2.92-3.46-9.66-19.94-6.6-23.68,2.85-3.49,21.33,5.76,24.46,2,2.88-3.44-9.34-20.15-6.11-23.8,3-3.35,21,6.87,24.32,3.35,3.1-3.24-7.91-20.77-4.4-24.16,3.22-3.12,20.37,8.45,24,5.2,3.36-3-6.28-21.31-2.54-24.42,3.46-2.88,19.73,9.91,23.56,6.94,3-2.36-6.46-20.52-3.64-22.74,3-2.38,18.46,11.11,21.25,8.88,3-2.41-6.76-20.43-4-22.68,3-2.45,18.68,10.76,21.41,8.49,3-2.49-7.17-20.29-4.49-22.59,3-2.54,19,10.27,21.62,7.95,2.95-2.59-7.73-20.09-5.14-22.45,2.93-2.65,19.33,9.63,21.87,7.23,2.88-2.71-8.43-19.81-5.94-22.25,2.81-2.74,19.6,9,22.09,6.5,2.72-2.73-9-19.59-6.4-22.14s19.32,9.23,22,6.65-8.37-19.8-5.48-22.37c2.62-2.33,18.52,10.59,21.56,8.08,2.68-2.21-7-20.27-3.88-22.69,2.75-2.12,17.83,11.76,21,9.42C1960.7,731,1951.94,712.45,1955.15,710.18Z"/><path class="cls-7" d="M121.63,171.13l17.84,640.08s126.33-27.75,139.46-25.77,43.49,37.65,71.9,25.77,137.41-40.93,171.1-40.28,195.82,4.61,206.9,10.55,54.65,14.95,106.17,9l-32-83.28,495.77-9s-63.41-67.37-55.48-83.23,33.68-39.63,13.87-41.61-47.56,7.92-57.47,11.89-15.85-7.93-6-23.78,6-4-2-17.84,18.78-25.32,41.1-51.3,50.06-53.72,65.91-69.58S1269,405,1298.73,397s35-15.85,60.09-27.74,29.52-17.84,29.52-17.84l-155.52-103s14.39-65.4-47-101.07Z"/><path class="cls-1" d="M1837.74,130l117.19,521.15-384.47,32-271.73,15.1s-63.41-67.37-55.48-83.23,33.68-39.63,13.87-41.61-47.56,7.92-57.47,11.89-15.85-7.93-6-23.78,6-4-2-17.84,18.78-25.32,41.1-51.3,50.06-53.72,65.91-69.58S1269,405,1298.73,397s35-15.85,60.09-27.74,29.52-17.84,29.52-17.84l-155.52-103s14.39-65.4-47-101.07Z"/><path class="cls-6" d="M1412.78,691.23s-5.94,14.89,0,24.79,10.9,14.85,22.79,24.76,29.72,50.53,45.58,61.43,82.24,69.35,96.11,82.23,5,7.93,5,7.93-43.6,9.91-47.56,9.91-13.87,21.8-22.79,25.76-27.74,8.92-31.7,11.89-21.84,12.88-21.84,12.88l-15.1,7.24s-27.8-8.23-33.08-11.2-25.1-8.69-46.9-3.85-47.56,6.82-55.49,10.78-23.78,14.47-32.69,16.15-21.8,6.64-28.74,11.6-3,12.88-24.77,10.9-22.79-3.34-32.7.31-14.86,5.63-14.86,5.63,28.74,53.51,33.69,55.49,18.83,8.91,36.66,7.92,52.51-10.9,76.29-5,34.68,8.7,43.6,14.26,38.64,15.46,59.45,16.46,51.52,5.94,54.49,8.91-24.77,10.7-25.76,26.65,11.89,30,11.89,30l437-82s88.18-158.92,154.56-214.41S2258.94,612,2258.94,612l-374.53,45.89Z"/></g><g id="Base"><path class="cls-8" d="M139.47,811.21s126.33-27.75,139.46-25.77,43.49,37.65,71.9,25.77,137.41-40.93,171.1-40.28,195.82,4.61,206.9,10.55,40.8,15.85,92.32,9.91,200.15,15.85,206.1,33.69-8.82,41.61,32.25,47.56,169.87,5.94,189.69,17.83,49.54,67.38,99.08,77.29,82.46-11.89,98.7,0,71.72,39.63,123.25,49.54,85.49,48.33,128,61.82,105.88-6.54,139.57,52"/><path class="cls-9" d="M139.47,811.21s126.33-27.75,139.46-25.77,43.49,37.65,71.9,25.77,137.41-40.93,171.1-40.28,195.82,4.61,206.9,10.55,40.8,15.85,92.32,9.91,200.15,15.85,206.1,33.69-8.82,41.61,32.25,47.56,169.87,5.94,189.69,17.83,49.54,67.38,99.08,77.29,82.46-11.89,98.7,0,71.72,39.63,123.25,49.54,85.49,48.33,128,61.82,105.88-6.54,139.57,52"/><polyline class="cls-10" points="1950.44 649.84 1570.46 683.14 1298.73 698.25 136.98 722.04"/><polyline class="cls-10" points="1980.42 129.52 1459.21 140.06 1673.26 1187.72"/><polyline class="cls-10" points="155.32 1187.72 136.98 827.06 121.63 171.13 1459.21 140.06"/><line class="cls-10" x1="119.76" y1="88.81" x2="121.73" y2="173.26"/><path class="cls-11" d="M285.16,781.27c.65-5.71,5.81-13.39,5.87-13.47a.63.63,0,0,0-.11-.83l-13.09-11.53a.62.62,0,0,0-.82,0c-7,5.63-13.84,5.28-20.87-1.07a.64.64,0,0,0-.86,0c-7,6.35-13.85,6.7-20.87,1.07a.62.62,0,0,0-.82,0L220.5,767a.63.63,0,0,0-.1.83c0,.08,5.21,7.76,5.87,13.47.28,2.47-.91,4.93-2.3,7.78-1.75,3.6-3.93,8.09-3.93,14.34a18.74,18.74,0,0,0,5.88,13.66,22.4,22.4,0,0,0,11.76,6,74.53,74.53,0,0,1,9.93,2c6,1.9,7.49,5.42,7.51,5.46a.63.63,0,0,0,.83.35.6.6,0,0,0,.35-.35s1.47-3.55,7.51-5.46a74.53,74.53,0,0,1,9.93-2,22.4,22.4,0,0,0,11.76-6,18.74,18.74,0,0,0,5.88-13.66c0-6.25-2.18-10.74-3.93-14.34C286.07,786.2,284.87,783.74,285.16,781.27Z"/><text class="cls-12" transform="translate(235.96 805.32)">4<tspan class="cls-13" x="20.48" y="0">4</tspan></text><text class="cls-14" transform="translate(594.4 139.43) rotate(-1.18)">M<tspan class="cls-15" x="36.56" y="0">AS</tspan><tspan class="cls-16" x="93.16" y="0">S</tspan><tspan x="121.2" y="0">.</tspan></text><text class="cls-17" transform="translate(746.23 357.21) rotate(-1.18)">Burrillville</text><text class="cls-17" transform="translate(636.98 888.46) rotate(-1.18)">Gloc<tspan class="cls-18" x="126.06" y="0">e</tspan><tspan class="cls-19" x="158.4" y="0">s</tspan><tspan class="cls-20" x="189.42" y="0">t</tspan><tspan class="cls-21" x="213.3" y="0">er</tspan></text><text class="cls-17" transform="translate(1651.03 515.58) rotate(-4.78)">No<tspan class="cls-22" x="77.64" y="0">r</tspan><tspan x="99.3" y="0">th</tspan><tspan x="-64.08" y="72">Smithfield</tspan></text><text class="cls-23" transform="translate(1622.08 771.1) rotate(-4.78)">Smithfield</text><text class="cls-14" transform="translate(101.8 629.04) rotate(-91.92)">CONN.</text><text class="cls-24" transform="translate(907.73 535.57)">4<tspan class="cls-3" x="20.48" y="0">7</tspan></text><circle class="cls-4" cx="924.91" cy="520.81" r="40.32"/><text class="cls-24" transform="translate(1447.53 323.66)">4<tspan class="cls-13" x="20.48" y="0">8</tspan></text><circle class="cls-4" cx="1466.23" cy="308.9" r="40.32"/><text class="cls-2" transform="translate(1206.86 818.39)">4<tspan class="cls-13" x="20.68" y="0">0</tspan></text><circle class="cls-4" cx="1226.68" cy="803.63" r="40.32"/><text class="cls-25" transform="translate(1707.47 873.02)">5<tspan class="cls-3" x="21.28" y="0">3</tspan></text><circle class="cls-4" cx="1727.45" cy="858.25" r="40.32"/></g><g id="Top"><path class="cls-26" d="M1830.2,73.79c-34.61,9.58-29.15-20-74.44-20.37-20.38-.17-44.73,19.8-72,19.57-22-.18-46-20.54-71.66-20.75-22.75-.19-46.95,19.76-72,19.55-23.14-.2-47-20.56-71.66-20.78-23.4-.2-47.58,19.75-72,19.53-23.6-.2-47.42-20.58-71.66-20.8-23.76-.21-47.94,19.73-72,19.51s-47.72-20.6-71.65-20.83-48.25,19.7-72,19.47c-24.22-.23-48-20.63-71.64-20.87-24.41-.24-48.62,19.67-72,19.43-24.66-.26-48.45-20.68-71.62-20.93-25-.28-49.27,19.61-72.06,19.34-25.63-.31-49.45-20.77-71.58-21.06-27-.35-51.51,19.46-72.12,19.13-35.81-.58-60.31-21.26-71.22-21.72-8.59-.37-20.49,19.42-33.91,19.14-10-.2-20.89-20.51-33-20.58-10.43-.06-21.55,20.1-33.27,20.2-10.66.08-22.09-19.92-33.59-19.68-10.79.23-21.35,20.69-32.71,21.09-10.89.39-22.87-19.28-34.12-18.71-11,.55-20.89,21.32-32.05,22.08S350.46,46.24,339.38,47.2,319.2,69.3,308.2,70.5s-24.61-17.45-35.5-16c-11.16,1.52-19.11,23.11-29.87,24.94-11.19,1.9-25.91-15.82-36.5-13.56-11.2,2.39-17.26,24.58-27.59,27.4-11.2,3.07-27.94-12.79-37.86-9.17-11.12,4.06-13.21,26.87-22.37,31.67-10.75,5.64-31.45-4.6-39,2.16-9,8.11.77,27.86-2.65,37.75-2.58,7.46-24.28,9.3-26.68,17.62C48,181,65.35,194.26,63.3,202.57c-1.93,7.83-23.43,11.4-25.21,19.7-1.7,7.95,16.44,20,14.88,28.34-1.5,8-22.79,12.71-24.15,21C27.49,279.7,46.16,291,45,299.24s-22.24,13.7-23.27,22,18.07,18.74,17.2,27S17.17,362.78,16.46,371s18.73,18.13,18.17,26.35S13.45,412.81,13,421c-.41,8.38,19.42,17.44,19.19,25.61C32,455.05,11.7,463,11.67,471.16c0,8.48,20.19,16.59,20.38,24.66.2,8.55-19.61,17.66-19.15,25.66.5,8.63,21.24,15.3,22.05,23.16.9,8.76-18,19.73-16.65,27.37,1.78,10.4,23.49,18,25.77,29.88,2,10.58-15.27,26.06-12.36,37.58,2.68,10.55,25.13,15.75,28.91,26.92,3.5,10.35-11.21,28.24-6.47,39,4.42,10,27.46,11.18,33.19,21.43,5.35,9.56-5.79,29.83.88,39.5,6.22,9,29.09,5.87,36.61,14.9,7,8.41-.34,30.34,7.91,38.71,7.68,7.79,29.72.88,38.58,8.6,8.26,7.19,4.34,30,13.71,37.06,8.73,6.61,29.63-3.26,39.4,3.24,9.14,6.07,8,29.17,18.13,35.11,9.46,5.58,29.17-6.51,39.52-1.06,9.74,5.12,10.88,28.22,21.43,33.21,10,4.7,28.57-9,39.29-4.46,10.15,4.33,13.06,27.27,23.92,31.46,10.32,4,27.93-11,38.9-7.15,16.25,5.71,26.6,30.18,43.31,35.05s38.49-10.23,55.4-6.18,29.45,27.39,46.49,30.72,37.54-13.54,54.67-10.86,31.51,25,48.68,27.12,36.62-16.1,53.81-14.51,33,23,50.23,24.15c17.41,1.14,35.8-18.08,53-17.38,17.49.72,34.21,21.39,51.33,21.73,17.56.35,35.11-19.65,52.17-19.63,17.65,0,35.14,20,52.11,19.77,17.75-.28,34.64-20.84,51.5-21.33,17.88-.53,35.93,19,52.63,18.32,18.09-.72,34.56-21.64,51-22.41,18.43-.86,36.71,18.44,52.82,17.71,19.16-.87,35.84-21.72,51.21-22.12,21.55-.55,37.62,19.51,50.44,20.64,16.78,3,16.39-16.43,37.21-11.23,9.39,2.35,15.76,24.67,28.33,27.68,10.19,2.43,25.9-14.59,37.79-11.87,10.53,2.41,17.26,24.58,28.87,27.12,10.74,2.34,26.08-15,37.54-12.63,10.89,2.26,18.08,24.28,29.44,26.5,11,2.15,25.94-15.55,37.24-13.49,11.12,2,18.88,23.84,30.13,25.71s25.61-16.26,36.82-14.59,19.85,23.22,31,24.64c11.45,1.46,25-17.26,36.17-16.13,11.57,1.17,21.24,22.23,32.28,23,11.74.79,24-18.82,34.94-18.6,12,.25,23.67,20.28,34.39,19.75,12.27-.61,21.41-21.77,31.66-23.55,12.72-2.21,29.83,13.62,38.69,9.33,11.89-5.75,6-25.66,9.21-35.81s26.11-14.42,30.16-25.6c3.68-10.17-11.33-27.67-7.24-38.8,3.73-10.18,26.57-14,30.49-25.15,3.59-10.26-11.87-27.4-8.25-38.62,3.35-10.37,26-15.28,29.23-26.58,3-10.5-13.44-26.69-10.56-38.06,2.7-10.61,24.93-17,27.43-28.43,2.33-10.71-15.19-25.78-13.07-37.28,2-10.8,23.75-18.63,25.5-30.17,1.65-10.87-16.79-24.81-15.39-36.38,1.32-10.94,22.57-20.05,23.64-31.64,1-11-18.19-23.86-17.43-35.46.73-11,21.46-21.26,21.93-32.86.45-11-19.36-23-19.16-34.54.19-11.07,20.43-22.25,20.38-33.83,0-11.09-20.36-22.12-20.64-33.69-.27-11.09,19.5-23.09,19-34.64-.41-9.38-20.93-17.72-21.29-26.69-.37-9.39,19.42-19.35,19.09-28.31-.35-9.41-20.83-17.86-21.14-26.8-.33-9.43,19.51-19.29,19.21-28.22-.31-9.46-20.76-18-21-26.87-.32-9.48,19.53-19.33,19.23-28.21-.32-9.51-20.79-18-21.12-26.82-.36-9.55,19.42-19.54,19-28.35-.42-9.59-21-17.75-21.5-26.5-.54-9.65,19-20.14,18.32-28.82-.75-9.72-21.65-17-22.61-25.54-1.09-9.79,17.61-21.7,16.15-30.11-1.69-9.82-23.29-14.28-25.6-22.41-2.75-9.63,12.71-25.46,8.88-33-4.39-8.68-25.83-4.53-32-10.92s-1.38-27.73-9.8-32.35c-7.49-4.1-23.8,10.87-33.28,7.86-6.27-2-1.61-21.89-5.26-24.94-4.7-4-23.77.66-24.67-4.76-.84-5,19.36-9.21,21.22-15.16,1.51-4.84-14.6-17.89-11.62-23.19,2.56-4.56,22.58,1.55,26-3.25,3.11-4.33-9.37-21.08-5.66-25.54,3.46-4.16,22.33,4.9,26.2.69,3.7-4-7-22-3-26s22,6.55,26.07,2.67-5.61-22.41-1.48-26.16,21.74,7.56,25.91,3.92-4.61-22.67-.42-26.2c4.38-3.69,21.56,8.26,25.76,4.83,4.5-3.68-3.76-22.89.41-26.2,4.68-3.71,21.52,8.72,25.6,5.58,5-3.87-2.68-23.33,1.14-26.18,8.39-6.28,11.24,8.33,19.61,8.25,4.75,0,8-17.7,12.46-15.95s-3,20.49,1.43,22.24,11.83-17,16.25-15.25-3,20.49,1.44,22.24,11.83-17,16.25-15.25-3,20.5,1.44,22.25,11.83-17,16.25-15.26-3,20.5,1.44,22.25,11.83-17,16.25-15.25-3,20.49,1.44,22.24,11.83-17,16.25-15.25-3,20.5,1.43,22.24,11.84-17,16.26-15.25-3,20.5,1.44,22.25,11.84-17,16.26-15.25-3,20.5,1.44,22.25,22-11.73,22.58-7c5,44.43-19.3,46-18.5,90.71s21,44.34,21.76,89-19.36,45.07-18.56,89.77,21,44.34,21.76,89-19.36,45.07-18.56,89.77,21,44.35,21.76,89.05-19.35,45.06-18.55,89.76,21,44.34,21.75,89-19.35,45.06-18.55,89.76,21,44.35,21.76,89-19.36,45.06-18.56,89.77,21,44.34,21.76,89-19.36,45.07-18.56,89.77,21,44.35,21.76,89-19.36,45.07-18.56,89.77,21,44.35,21.76,89,3.42,45.33-17.4,84.9c-30.52,58-39.61,14.47-122.27,14-37.22-.22-81.25-20.65-131-21-40.26-.24-84.32,19.66-131.25,19.38-41.53-.24-85.28-20.66-131-20.93-42.25-.24-86.2,19.67-131.25,19.41-42.73-.25-86.44-20.66-131-20.91-43.09-.24-87,19.68-131.25,19.43-43.39-.24-87.08-20.64-131-20.88-43.67-.23-87.58,19.69-131.25,19.46-43.94-.23-87.64-20.61-131-20.83-44.24-.23-88.15,19.71-131.24,19.5-44.59-.22-88.32-20.59-131.05-20.79-45.06-.2-89,19.76-131.24,19.58-45.74-.2-89.53-20.54-131.06-20.69-46.94-.18-90.95,19.83-131.21,19.71-49.78-.15-93.88-20.4-131.1-20.44-82.39-.09-121.81,14.69-122.1,15.28s-.19-39.09-1.59-99c-.63-26.76-21.5-58-22.29-93.84-.64-28.95,18.83-61,18.1-94.74-.64-29.86-21.46-61-22.16-93.87-.64-30.38,18.85-62.33,18.18-94.73-.64-30.72-21.45-61.82-22.12-93.88-.64-31,18.87-62.91,18.22-94.72-.65-31.2-21.45-62.29-22.09-93.89-.64-31.4,18.87-63.32,18.23-94.72-.64-31.6-21.43-62.69-22.07-93.9-.64-31.81,18.88-63.73,18.26-94.72-.65-32.07-21.44-63.17-22.06-93.9-.65-32.4,18.88-64.33,18.27-94.72-.66-32.89-21.45-64-22-93.91-.68-33.75,18.85-65.75,18.27-94.71-.71-35.79-21.5-67.14-22-93.9-1.18-59.44-35-73.06,10.71-84.74,56.08-14.33,55.8-17.09,113.61-14.35s56.86,22.87,114.68,25.61,58.77-17.4,116.59-14.66S299.21-137.46,357-134.72s58.77-17.4,116.59-14.66,56.86,22.88,114.68,25.62,58.77-17.4,116.58-14.66,56.87,22.87,114.68,25.61,58.78-17.39,116.59-14.66,56.86,22.88,114.68,25.62,58.77-17.4,116.59-14.66,56.86,22.88,114.68,25.62,58.77-17.4,116.59-14.66,56.86,22.88,114.68,25.62,58.77-17.4,116.59-14.66S1686.83-71.72,1744.65-69s59.83-21.46,117.31-14.6c4.14.5-12,11.69-13,15.74s18.62,8.78,17.64,12.83-20.57-.69-21.55,3.36,18.62,8.78,17.64,12.83-20.57-.69-21.55,3.36,18.62,8.78,17.64,12.83-20.57-.69-21.55,3.36,18.62,8.78,17.64,12.83-20.58-.69-21.55,3.36S1852,5.7,1851,9.75s-20.58-.69-21.56,3.36,18.62,8.78,17.64,12.83-20.57-.69-21.55,3.36,18.62,8.79,17.64,12.84-20.57-.69-21.55,3.36,17.39,5.2,17.85,9.34C1840.53,64.11,1834.22,72.67,1830.2,73.79Z"/></g></svg>